<svg xmlns="http://www.w3.org/2000/svg" xmlns:xlink="http://www.w3.org/1999/xlink" width="72.001" height="72" viewBox="0 0 72.001 72"><defs><style>.a{fill:none;}.b{fill:url(#a);}.c{fill:url(#b);}.d{fill:url(#c);}.e{fill:url(#d);}.f{fill:url(#e);}.g{fill:url(#f);}.h{fill-rule:evenodd;fill:url(#g);}</style><linearGradient id="a" x1="0.337" y1="-0.034" x2="0.893" y2="0.942" gradientUnits="objectBoundingBox"><stop offset="0" stop-color="#eceff5"/><stop offset="0.808" stop-color="#909cb4"/><stop offset="1" stop-color="#5c77ab"/></linearGradient><linearGradient id="b" y1="0.212" x2="1" y2="0.954" gradientUnits="objectBoundingBox"><stop offset="0" stop-color="#fff"/><stop offset="0.431" stop-color="#fff"/><stop offset="0.717" stop-color="#f5f5f4"/><stop offset="1" stop-color="#a7b6cf"/></linearGradient><linearGradient id="c" x1="-0.173" y1="-0.01" x2="1.149" y2="0.99" gradientUnits="objectBoundingBox"><stop offset="0" stop-color="#f2f2f2"/><stop offset="1" stop-color="#fbb03b"/></linearGradient><linearGradient id="d" x1="0.5" y1="1.911" x2="0.5" gradientUnits="objectBoundingBox"><stop offset="0" stop-color="#d7f1fa"/><stop offset="0.707" stop-color="#b8e5f6"/><stop offset="1" stop-color="#8ad2f1"/></linearGradient><linearGradient id="e" x1="0.947" y1="0.648" x2="0" y2="0.449" gradientUnits="objectBoundingBox"><stop offset="0" stop-color="#279ed5"/><stop offset="1" stop-color="#0758c1"/></linearGradient><linearGradient id="f" x1="0.234" y1="0.5" x2="1.122" y2="0.912" gradientUnits="objectBoundingBox"><stop offset="0" stop-color="#46c1ea"/><stop offset="1" stop-color="#2aa0d7"/></linearGradient><linearGradient id="g" x1="0.5" x2="0.5" y2="1" gradientUnits="objectBoundingBox"><stop offset="0" stop-color="#fa8e22"/><stop offset="1" stop-color="#fec904"/></linearGradient></defs><g transform="translate(-424 -479)"><rect class="a" width="72" height="72" transform="translate(424 479)"/><path class="b" d="M559.575,223.551c0-5.258-3.64-11.528-8.09-13.955a7.973,7.973,0,0,0-2.832-1.011c-1.213-6.876-6.067-13.955-11.73-17.191a11.5,11.5,0,0,0-4.854-1.618c-.809-8.292-6.472-17.6-13.348-21.641-3.64-2.022-6.876-2.427-9.3-1.011h-.2a.2.2,0,0,0-.2.2l-7.483,4.449,2.427,2.022c-.2,0-.2.2-.4.2h0L489.8,181.888l6.067,1.618s9.708,12.944,15.371,16.18l36.809,26.292,1.627,7.192,7.474-4.159h0A6.4,6.4,0,0,0,559.575,223.551Z" transform="translate(-63.574 312.714)"/><g transform="translate(424 483.796)"><path class="c" d="M495.779,179.868l3.64,1.618-.2-4.045v-.809q0-5.461,3.034-7.281c2.022-1.214,4.652-.809,7.685,1.011,6.674,3.843,12.337,13.146,13.146,21.034l.2,2.023,2.023.2a8.861,8.861,0,0,1,4.045,1.416c5.258,3.034,9.91,10.112,11.124,16.787l.4,1.618,1.618.2a8.453,8.453,0,0,1,2.022.809c4.045,2.225,7.483,8.292,7.483,12.944,0,1.82-.4,3.034-1.416,3.438a4.245,4.245,0,0,1-3.64-.607l-47.932-27.708c-5.663-3.236-10.315-11.326-10.315-17.8,0-2.427.809-4.449,2.022-5.258a3.262,3.262,0,0,1,1.82-.607A8.666,8.666,0,0,1,495.779,179.868Z" transform="translate(-488.7 -168.657)"/></g><path class="d" d="M462.759,132.822l-13.394-7.579v-16l13.394,7.579Z" transform="translate(-5.365 418.178)"/><path class="e" d="M462.759,116.226c-6.5,0-13.394-8.266-13.394-8.266l13.394-8.421,13.559,7.875Z" transform="translate(-5.365 419.462)"/><g transform="translate(457.394 537.421)"><path class="f" d="M479.4,124.38l-13.546,8.441v-16L479.4,108.68Z" transform="translate(-465.856 -119.243)"/></g><g transform="translate(444 527.421)"><path class="g" d="M465.063,125.243l13.394,7.579v-16l-13.394-7.579Z" transform="translate(-465.063 -109.243)"/></g><g transform="translate(0 -1)"><path class="h" d="M-510.325,241.989v-.006l0-.393a.46.46,0,0,0-.181-.354l-.014-.011a9.561,9.561,0,0,1-1.17-2.266,7.057,7.057,0,0,1-.432-2.326,3.257,3.257,0,0,1,.633-2.112,1.935,1.935,0,0,1,1.413-.7v3.915h0a.465.465,0,0,0,.11.277l1.691,2.018h0a.27.27,0,0,0,.2.113l1.675-.063c.074.006.127-.05.127-.15v-3.915a9.631,9.631,0,0,1,1.413,2.334,7.416,7.416,0,0,1,.633,2.843h0a3.561,3.561,0,0,1-.431,1.826,1.95,1.95,0,0,1-1.2.922c-.056.009-.1.059-.1.141v12.226h0a.585.585,0,0,1-.246.54.584.584,0,0,1-.589-.057l-2.76-1.593a1.451,1.451,0,0,1-.323-.257,1.968,1.968,0,0,1-.271-.37,1.957,1.957,0,0,1-.184-.422,1.467,1.467,0,0,1-.059-.407q.029-5.874.06-11.751Zm1.061,12.092,2.184,1.261c.115.066.21.014.209-.121v-2.449a.465.465,0,0,0-.209-.363l-2.184-1.261c-.115-.067-.209-.012-.209.121v2.449A.465.465,0,0,0-509.264,254.08Z" transform="translate(950.119 261.72)"/><g transform="translate(446.487 499.554)"><path class="h" d="M-516.316,247.229l0-7.885.641-.308-.37-4.369-1.732-1-.367,3.943.641,1.047v7.885Z" transform="translate(518.994 -233.669)"/><path class="h" d="M-505.644,250.4v8.084h0a.585.585,0,0,1-.246.54.584.584,0,0,1-.589-.057l-2.76-1.593a1.452,1.452,0,0,1-.323-.257,1.969,1.969,0,0,1-.271-.37,1.957,1.957,0,0,1-.184-.422,1.469,1.469,0,0,1-.059-.407c.011-2.275,0-7.7,0-7.7Zm-3.311,5.858,2.184,1.261c.115.066.21.014.209-.121,0-2.582-2.6-4.084-2.6-1.5A.465.465,0,0,0-508.955,256.257Z" transform="translate(510.077 -236.616)"/></g></g></g></svg>