<svg xmlns="http://www.w3.org/2000/svg" xmlns:xlink="http://www.w3.org/1999/xlink" width="72" height="72" viewBox="0 0 72 72"><defs><style>.a{fill:none;}.b{fill:url(#a);}.c{fill:url(#b);}.d{fill:url(#c);}.e{fill:url(#d);}.f{fill:url(#e);}.g{fill:url(#f);}.h{fill:url(#g);}.i{fill:url(#h);}.j{fill:url(#i);}.k{fill:url(#j);}.l{fill:url(#k);}.m{fill:#f6812f;}.n{fill:url(#l);}.o{fill:#fff;}</style><linearGradient id="a" y1="0.5" x2="1" y2="0.5" gradientUnits="objectBoundingBox"><stop offset="0" stop-color="#5c77ab"/><stop offset="0.5" stop-color="#9ba4b6"/><stop offset="1" stop-color="#bcb9b1"/></linearGradient><linearGradient id="b" x1="0.5" y1="0.061" x2="0.519" y2="1.029" gradientUnits="objectBoundingBox"><stop offset="0" stop-color="#fff"/><stop offset="1" stop-color="#cedfe5"/></linearGradient><linearGradient id="c" x1="0.499" y1="0.97" x2="0.501" y2="0.012" gradientUnits="objectBoundingBox"><stop offset="0" stop-color="#198cff"/><stop offset="1" stop-color="#bbb8b1" stop-opacity="0"/></linearGradient><linearGradient id="d" x2="0.376" y2="1.288" gradientUnits="objectBoundingBox"><stop offset="0" stop-color="#198cff"/><stop offset="0.506" stop-color="#9ccdff"/><stop offset="1" stop-color="#b3d9ff" stop-opacity="0"/></linearGradient><linearGradient id="e" x1="1" y1="1" x2="0.581" y2="-0.265" gradientUnits="objectBoundingBox"><stop offset="0" stop-color="#198cff"/><stop offset="0.583" stop-color="#9ccdff"/><stop offset="1" stop-color="#b3d9ff" stop-opacity="0"/></linearGradient><linearGradient id="f" x1="0" y1="1" x2="0.376" y2="-0.288" xlink:href="#d"/><linearGradient id="g" x1="1" y1="0" x2="0.581" y2="1.265" xlink:href="#e"/><linearGradient id="h" x1="0.5" y1="0.747" x2="0.5" y2="0.16" gradientUnits="objectBoundingBox"><stop offset="0" stop-color="#f2f2f2" stop-opacity="0"/><stop offset="1" stop-color="#198cff"/></linearGradient><linearGradient id="i" x1="0.5" y1="1.911" x2="0.5" gradientUnits="objectBoundingBox"><stop offset="0" stop-color="#d7f1fa"/><stop offset="0.707" stop-color="#b8e5f6"/><stop offset="1" stop-color="#8ad2f1"/></linearGradient><linearGradient id="j" x1="0.947" y1="0.648" x2="0" y2="0.449" gradientUnits="objectBoundingBox"><stop offset="0" stop-color="#279ed5"/><stop offset="1" stop-color="#0758c1"/></linearGradient><linearGradient id="k" x1="0.234" y1="0.5" x2="1.122" y2="0.912" gradientUnits="objectBoundingBox"><stop offset="0" stop-color="#46c1ea"/><stop offset="1" stop-color="#2aa0d7"/></linearGradient><linearGradient id="l" y1="0.23" x2="0.939" y2="0.93" gradientUnits="objectBoundingBox"><stop offset="0" stop-color="#f9a036"/><stop offset="1" stop-color="#fd0"/></linearGradient></defs><g transform="translate(-202 -479)"><rect class="a" width="72" height="72" transform="translate(202 479)"/><path class="b" d="M0,38.5c.152.83.683,2.717,1.745,3.321L31.713,59.032a9.687,9.687,0,0,0,8.649,0L70.255,41.824A3,3,0,0,0,72,39.635V24.616H53.564l-13.2-7.547a9.687,9.687,0,0,0-8.649,0l-13.2,7.547H0" transform="translate(202 490.949)"/><path class="c" d="M40.381,40.39a9.687,9.687,0,0,1-8.649,0L1.839,23.183c-2.352-1.359-2.352-3.623,0-4.981L31.731,1.069a9.687,9.687,0,0,1,8.649,0L70.273,18.277c2.352,1.359,2.352,3.623,0,4.981Z" transform="translate(201.925 494.873)"/><path class="d" d="M432.64,183.007l-11.74-6.854,11.74-6.854,11.766,6.854Z" transform="translate(-194.9 339.7)"/><g transform="translate(221.02 505.797)"><path class="e" d="M32.063,14.05H25v5.044l2.242-1.681,8.406,5.044,3.362-2.242-9.019-4.859Z" transform="translate(-25 -14.05)"/></g><g transform="translate(241.02 517.797)"><path class="f" d="M31.58,22.8h7.43V17.412l-2.063,1.434-8.159-4.638-3.135,2.1,8.288,4.81Z" transform="translate(-25 -14.05)"/></g><g transform="translate(220.02 518.138)"><path class="g" d="M32.063,22.456H25V17.412l2.242,1.681,8.406-5.044,3.362,2.242L29.991,21.15Z" transform="translate(-25 -14.05)"/></g><g transform="translate(241.673 505.797)"><path class="h" d="M31.58,14.208h7.43v5.385l-2.063-1.434L28.788,22.8l-3.135-2.1,8.288-4.81Z" transform="translate(-25.654 -14.208)"/></g><path class="i" d="M461.416,146.771l-11.566-5.007-.149-19.3,11.715-5.062,11.79,5.062-.075,19.19Z" transform="translate(-223.7 373.891)"/><g transform="translate(7 38)"><path class="j" d="M461.046,114.091c-5.669,0-11.681-7.209-11.681-7.209l11.681-7.344,11.825,6.868Z" transform="translate(-230.365 341.462)"/><g transform="translate(230.681 447.853)"><path class="k" d="M477.669,122.372l-11.814,7.362V115.78l11.814-7.1Z" transform="translate(-465.855 -108.68)"/></g><g transform="translate(219 448.344)"><path class="l" d="M465.063,123.2l11.681,6.61V115.852l-11.681-6.61Z" transform="translate(-465.063 -109.243)"/></g></g><g transform="translate(-356 173)"><g transform="translate(561.357 353.548)"><path class="m" d="M26.268,12.563a.541.541,0,0,1-.834.521,2.11,2.11,0,0,1-.834-1.459.541.541,0,0,1,.834-.521A1.664,1.664,0,0,1,26.268,12.563Z" transform="translate(-24.6 -11.023)"/><path class="m" d="M23.368,14.163a.541.541,0,0,1-.834.521,2.11,2.11,0,0,1-.834-1.459.541.541,0,0,1,.834-.521A1.8,1.8,0,0,1,23.368,14.163Z" transform="translate(-18.677 -10.956)"/><path class="m" d="M20.468,15.863a.541.541,0,0,1-.834.521,2.11,2.11,0,0,1-.834-1.459.541.541,0,0,1,.834-.521A1.917,1.917,0,0,1,20.468,15.863Z" transform="translate(-12.754 -10.883)"/></g><path class="n" d="M34.042,11.2,28.83,8.181a1.627,1.627,0,0,1-.73-1.355h0c0-.521.313-.834.73-.521l5.212,3.023a1.627,1.627,0,0,1,.73,1.355h0C34.772,11.2,34.459,11.413,34.042,11.2Z" transform="translate(542.248 352.76)"/></g><g transform="translate(256.357 525.548)"><g transform="translate(0 4.915)"><path class="o" d="M26.268,11.624a.541.541,0,0,0-.834-.521,2.11,2.11,0,0,0-.834,1.459.541.541,0,0,0,.834.521A1.664,1.664,0,0,0,26.268,11.624Z" transform="translate(-24.6 -7.583)"/><path class="o" d="M23.368,13.224a.541.541,0,0,0-.834-.521,2.11,2.11,0,0,0-.834,1.459.541.541,0,0,0,.834.521A1.8,1.8,0,0,0,23.368,13.224Z" transform="translate(-18.677 -10.851)"/><path class="o" d="M20.468,14.924a.541.541,0,0,0-.834-.521,2.11,2.11,0,0,0-.834,1.459.541.541,0,0,0,.834.521A1.917,1.917,0,0,0,20.468,14.924Z" transform="translate(-12.754 -14.323)"/></g><path class="o" d="M34.042,6.26,28.83,9.283a1.627,1.627,0,0,0-.73,1.355h0c0,.521.313.834.73.521l5.212-3.023a1.627,1.627,0,0,0,.73-1.355h0C34.772,6.26,34.459,6.052,34.042,6.26Z" transform="translate(-19.109 -6.18)"/></g></g></svg>