<svg xmlns="http://www.w3.org/2000/svg" xmlns:xlink="http://www.w3.org/1999/xlink" width="72" height="72" viewBox="0 0 72 72"><defs><style>.a,.g{fill:none;}.b{opacity:0.4;}.c{fill:url(#a);}.d{fill:url(#b);}.e{opacity:0.8;}.f{fill:url(#f);}.g{stroke:#198cff;stroke-linecap:round;stroke-width:1.5px;}.h{fill:url(#g);}.i{fill:url(#h);}.j{fill:url(#i);}.k{fill:url(#k);}.l{fill:url(#l);}.m{fill:url(#m);}.n{fill-rule:evenodd;fill:url(#n);}.o{fill:url(#o);}</style><linearGradient id="a" x1="-0.04" y1="0.714" x2="1" y2="0.319" gradientUnits="objectBoundingBox"><stop offset="0" stop-color="#fff"/><stop offset="1" stop-color="#6980ae"/></linearGradient><linearGradient id="b" x1="-0.04" y1="0.714" x2="1" y2="0.5" gradientUnits="objectBoundingBox"><stop offset="0" stop-color="#fff"/><stop offset="1" stop-color="#bec9da"/></linearGradient><linearGradient id="f" x1="0.723" y1="0.372" x2="0" y2="0.689" xlink:href="#b"/><linearGradient id="g" x1="0.5" x2="0.5" y2="1" gradientUnits="objectBoundingBox"><stop offset="0" stop-color="#fbb03b"/><stop offset="1" stop-color="#f15a24"/></linearGradient><linearGradient id="h" x1="1.099" x2="0" y2="1.065" gradientUnits="objectBoundingBox"><stop offset="0" stop-color="#8cd3f1"/><stop offset="1" stop-color="#085ac2"/></linearGradient><linearGradient id="i" x1="0.287" x2="0.683" y2="1" gradientUnits="objectBoundingBox"><stop offset="0" stop-color="#3ab2e1"/><stop offset="1" stop-color="#94d6f2"/></linearGradient><linearGradient id="k" x1="0.386" y1="0.148" x2="0.861" y2="0.882" gradientUnits="objectBoundingBox"><stop offset="0" stop-color="#43bee8"/><stop offset="1" stop-color="#0d66c5"/></linearGradient><linearGradient id="l" x1="0.306" y1="0.27" x2="0.85" y2="1" gradientUnits="objectBoundingBox"><stop offset="0" stop-color="#40bae6"/><stop offset="1" stop-color="#97d7f2"/></linearGradient><linearGradient id="m" x1="1" y1="0.94" x2="0.056" y2="0.071" gradientUnits="objectBoundingBox"><stop offset="0" stop-color="#5c77ab"/><stop offset="1" stop-color="#fdfdfe"/></linearGradient><linearGradient id="n" x1="0.028" y1="0.093" x2="0.837" y2="1.195" gradientUnits="objectBoundingBox"><stop offset="0" stop-color="#fff"/><stop offset="0.443" stop-color="#f9fcff"/><stop offset="1" stop-color="#c5e7ff"/></linearGradient><linearGradient id="o" x1="3.026" y1="1.371" x2="-0.364" y2="0.078" gradientUnits="objectBoundingBox"><stop offset="0" stop-color="#fcb623"/><stop offset="1" stop-color="#f6812f"/></linearGradient></defs><g transform="translate(-543 -474)"><rect class="a" width="72" height="71.541" transform="translate(543 474)"/><g transform="translate(550 474)"><g transform="translate(11)"><g class="b" transform="translate(10.667)"><path class="c" d="M465.609,152.08l33.469,21.148,1.737-.857V129.534l-35.206-20.291-1.755.857Z" transform="translate(-463.854 -109.243)"/><path class="d" d="M465.87,152.08l35.206,20.291V129.534L465.87,109.243Z" transform="translate(-465.856 -108.372)"/></g><g class="e" transform="translate(5.333 3.556)"><path class="c" d="M465.609,152.08l33.469,21.148,1.737-.857V129.534l-35.206-20.291-1.755.857Z" transform="translate(-463.854 -109.243)"/><path class="d" d="M465.87,152.08l35.206,20.291V129.534L465.87,109.243Z" transform="translate(-465.856 -108.372)"/></g><g transform="translate(0 8)"><path class="c" d="M465.609,152.08l33.469,21.148,1.737-.857V129.534l-35.206-20.291-1.755.857Z" transform="translate(-463.854 -109.243)"/><path class="f" d="M465.87,152.08l35.206,20.291V129.534L465.87,109.243Z" transform="translate(-465.856 -108.372)"/></g></g><g transform="translate(16.058 22.283)"><path class="g" d="M-3866.958-8683.48l24.345,13.8" transform="translate(3866.958 8689.442)"/><path class="g" d="M-3866.958-8683.48l24.345,13.8" transform="translate(3866.958 8683.48)"/></g><g transform="translate(0 32.79)"><g transform="translate(2.168 18.306)"><path class="h" d="M14.94,0l6.288,3.607-3.8,2.177L11.144,2.176Z" transform="translate(-8.414 0.002)"/><path class="i" d="M16.983,27.427l2.71-9.746,3.779-2.14-2.71,9.746Z" transform="translate(-10.706 -11.907)"/><path class="j" d="M6.286,13.354,9,3.608,2.71,0,0,9.746l2.923-.536Z" transform="translate(0 2.155)"/></g><g transform="translate(10.297 23.691)"><path class="h" d="M14.94,0l6.288,3.607-3.8,2.177L11.144,2.176Z" transform="translate(-11.123 0.002)"/><path class="k" d="M14.693,27.427l-2.71-9.746,3.779-2.14,2.71,9.746Z" transform="translate(-5.706 -11.907)"/><path class="l" d="M4,13.354,1.286,3.608-5,0l2.929,11.142,2.657-.935Z" transform="translate(5 2.155)"/></g><g transform="translate(0 0)"><path class="m" d="M0,4.59,3.471,2.8l3-1.467.017,0L8.925.13A1.11,1.11,0,0,1,9.339.006a2.326,2.326,0,0,1,1.845.96,1.237,1.237,0,0,0,.623.417L12.66.961A1.386,1.386,0,0,1,14.009,1a3.869,3.869,0,0,1,1.648,1.854c.271.591.77.981,1.174.917a2.2,2.2,0,0,1,1.845.873A4.629,4.629,0,0,1,19.8,7.022a1.891,1.891,0,0,0,.941,1.4,3.749,3.749,0,0,1,1.677,1.79,3.789,3.789,0,0,1,.377,2.435,1.91,1.91,0,0,0,.523,1.61A4.613,4.613,0,0,1,24.5,16.612a2.249,2.249,0,0,1-.443,2.007,1.343,1.343,0,0,0,0,1.5,3.914,3.914,0,0,1,.443,2.449,1.3,1.3,0,0,1-1.178,1.184c-.419.019-.64.483-.523,1.09a2.372,2.372,0,0,1-.377,2.06,1.128,1.128,0,0,1-.323.241l-2.67,1.328a1.107,1.107,0,0,0,.123-.071l-.427.214a1.031,1.031,0,0,1-.1.053L16.16,30.1Z" transform="translate(2.452 0)"/><path class="n" d="M38.422,15.969a3.859,3.859,0,0,0-1.648-1.853,1.286,1.286,0,0,0-1.648.215h0c-.272.323-.77.215-1.174-.25h0a2.325,2.325,0,0,0-1.845-.96,1.338,1.338,0,0,0-1.124,1.263h0a.593.593,0,0,1-.941.466h0a1.323,1.323,0,0,0-1.677.124,2.371,2.371,0,0,0-.378,2.06h0c.118.608-.1,1.071-.523,1.09h0a1.3,1.3,0,0,0-1.178,1.183,3.914,3.914,0,0,0,.444,2.449h0a1.342,1.342,0,0,1,0,1.5h0a2.246,2.246,0,0,0-.444,2.007,4.605,4.605,0,0,0,1.178,2.353h0a1.906,1.906,0,0,1,.523,1.61h0a4.168,4.168,0,0,0,2.055,4.225h0a1.893,1.893,0,0,1,.941,1.4h0a4.618,4.618,0,0,0,1.124,2.379,2.208,2.208,0,0,0,1.845.875h0c.4-.065.9.325,1.174.917h0a3.859,3.859,0,0,0,1.648,1.853,1.286,1.286,0,0,0,1.648-.215h0c.272-.323.77-.216,1.174.25h0a2.325,2.325,0,0,0,1.845.96,1.338,1.338,0,0,0,1.124-1.263h0a.593.593,0,0,1,.941-.466h0a1.323,1.323,0,0,0,1.677-.124,2.371,2.371,0,0,0,.378-2.06h0c-.118-.608.1-1.071.522-1.09h0a1.3,1.3,0,0,0,1.178-1.183,3.915,3.915,0,0,0-.444-2.449h0a1.342,1.342,0,0,1,0-1.5h0a2.249,2.249,0,0,0,.444-2.007,4.613,4.613,0,0,0-1.178-2.353h0a1.9,1.9,0,0,1-.522-1.61h0a3.787,3.787,0,0,0-.378-2.434,3.747,3.747,0,0,0-1.677-1.791h0a1.893,1.893,0,0,1-.941-1.4h0a4.618,4.618,0,0,0-1.124-2.379,2.21,2.21,0,0,0-1.845-.875h0c-.4.064-.9-.326-1.174-.917Z" transform="translate(-26.235 -10.174)"/></g><g transform="translate(4.25 9.654)"><g transform="translate(0 0)"><path class="o" d="M-1128.607,1651.984a2.511,2.511,0,0,1,.808.836,5.592,5.592,0,0,1,.635,1.43l-.576,1.075a5.162,5.162,0,0,0-.44-.932,1.593,1.593,0,0,0-.539-.55.424.424,0,0,0-.532,0,1.074,1.074,0,0,0-.242.731,2.036,2.036,0,0,0,.033.531,2.4,2.4,0,0,0,.144.459,3.055,3.055,0,0,0,.224.432c.088.141.181.285.282.434l.606.969a5.6,5.6,0,0,1,.377.7,4.783,4.783,0,0,1,.271.79,5.529,5.529,0,0,1,.149.924,7.426,7.426,0,0,1,.006,1.087,5.248,5.248,0,0,1-.2,1.183,2.38,2.38,0,0,1-.417.845,1.048,1.048,0,0,1-.606.382,1.093,1.093,0,0,1-.768-.169,2.871,2.871,0,0,1-.934-.957,6.758,6.758,0,0,1-.749-1.64l.649-1.169a6.172,6.172,0,0,0,.536,1.21,1.911,1.911,0,0,0,.63.7c.255.147.453.143.6-.005a1.231,1.231,0,0,0,.252-.794,2.372,2.372,0,0,0-.022-.538,2.368,2.368,0,0,0-.126-.453,3.1,3.1,0,0,0-.213-.422c-.086-.14-.18-.3-.285-.467l-.617-.989a5.914,5.914,0,0,1-.334-.631,4.482,4.482,0,0,1-.278-.785,6.423,6.423,0,0,1-.174-.948,6.322,6.322,0,0,1-.021-1.1,4.87,4.87,0,0,1,.2-1.165,2.277,2.277,0,0,1,.406-.8,1.017,1.017,0,0,1,.571-.353A1.008,1.008,0,0,1-1128.607,1651.984Z" transform="translate(1131.072 -1651.823)"/><g transform="translate(7.522 4.546)"><path class="o" d="M-1112.873,1661.505l.913,11.707-1.021-.586-.174-2.974-1.58-.906-.509,2.582-.988-.567,2.214-9.913Zm-1.55,5.684,1.158.664-.073-1.266c-.041-.608-.077-1.231-.107-1.875s-.068-1.277-.108-1.907l-.026-.015q-.145.841-.306,1.679c-.107.555-.213,1.1-.322,1.619l-.216,1.1" transform="translate(1116.233 -1660.848)"/></g><g transform="translate(4.348 1.829)"><path class="o" d="M-1120.868,1656.013l-.543,8.995,1.975,1.133-.109,1.814-2.949-1.692.653-10.808Z" transform="translate(1122.495 -1655.455)"/></g></g></g></g></g></g></svg>