<svg xmlns="http://www.w3.org/2000/svg" xmlns:xlink="http://www.w3.org/1999/xlink" width="72" height="72" viewBox="0 0 72 72"><defs><style>.a{fill:none;}.b,.c{opacity:0.5;}.c{fill:url(#a);}.d{fill:url(#b);}.e{fill:url(#c);}.f{opacity:0.1;fill:url(#d);}.g{fill:url(#e);}.h{fill:url(#h);}.i{fill:url(#i);}.j{fill:url(#j);}.k{fill:url(#k);}.l{fill:url(#l);}.m{fill:url(#m);}.ac,.n{mix-blend-mode:soft-light;}.ac,.n,.u,.v{isolation:isolate;}.o{fill:#ececec;}.p{fill:#656565;}.q{fill:silver;}.r{fill:#8c8c8c;}.s{fill:#303030;}.t{fill:url(#n);}.u{mix-blend-mode:hard-light;}.w{fill:#f6812f;}.x{fill:url(#t);}.y{fill:url(#v);}.z{fill:url(#w);}.aa{fill:url(#x);}.ab{fill:url(#y);}.ac{opacity:0.6;}.ad{fill:url(#z);}.ae{filter:url(#f);}</style><linearGradient id="a" x1="0.5" y1="0.479" x2="0.517" y2="-0.037" gradientUnits="objectBoundingBox"><stop offset="0" stop-color="#f2f2f2"/><stop offset="0.464" stop-color="#fff"/><stop offset="1" stop-color="#c2ccdc"/></linearGradient><linearGradient id="b" x1="0.391" y1="0.5" x2="0.983" y2="0.697" gradientUnits="objectBoundingBox"><stop offset="0" stop-color="#b9b8b2"/><stop offset="1" stop-color="#5c77ab"/></linearGradient><linearGradient id="c" x1="0.943" y1="0.334" x2="0" y2="0.695" gradientUnits="objectBoundingBox"><stop offset="0" stop-color="#fff"/><stop offset="1" stop-color="#bec9da"/></linearGradient><linearGradient id="d" x1="0.499" y1="0.03" x2="0.501" y2="0.988" gradientUnits="objectBoundingBox"><stop offset="0" stop-color="#f2f2f2"/><stop offset="0.098" stop-color="#f2f1ec" stop-opacity="0.902"/><stop offset="0.227" stop-color="#f3eedc" stop-opacity="0.773"/><stop offset="0.372" stop-color="#f5e8c1" stop-opacity="0.627"/><stop offset="0.53" stop-color="#f7e19b" stop-opacity="0.471"/><stop offset="0.697" stop-color="#f9d76b" stop-opacity="0.302"/><stop offset="0.87" stop-color="#fccc31" stop-opacity="0.129"/><stop offset="1" stop-color="#ffc200" stop-opacity="0"/></linearGradient><linearGradient id="e" x1="0.499" y1="0.97" x2="0.501" y2="0.012" xlink:href="#d"/><filter id="f" x="4.499" y="25.257" width="62.657" height="45.032" filterUnits="userSpaceOnUse"><feOffset dy="3" input="SourceAlpha"/><feGaussianBlur stdDeviation="3.5" result="g"/><feFlood flood-color="#024ca0"/><feComposite operator="in" in2="g"/><feComposite in="SourceGraphic"/></filter><linearGradient id="h" x1="-0.239" y1="0.5" x2="1.109" y2="0.5" gradientUnits="objectBoundingBox"><stop offset="0" stop-color="#c2cddd"/><stop offset="1" stop-color="#607aab"/></linearGradient><linearGradient id="i" x1="-0.002" y1="0.5" x2="1" y2="0.5" gradientUnits="objectBoundingBox"><stop offset="0" stop-color="#eaf8fc"/><stop offset="1" stop-color="#e3f9ff"/></linearGradient><linearGradient id="j" y1="0.5" x2="1.002" y2="0.5" gradientUnits="objectBoundingBox"><stop offset="0" stop-color="#fff"/><stop offset="0.506" stop-color="#fff"/><stop offset="0.762" stop-color="#f1f4f7"/><stop offset="1" stop-color="#ccd5e2"/><stop offset="1" stop-color="#999"/></linearGradient><linearGradient id="k" y1="0.499" x2="1" y2="0.499" gradientUnits="objectBoundingBox"><stop offset="0" stop-color="#f4f6f9"/><stop offset="1" stop-color="#bec9da"/></linearGradient><linearGradient id="l" x1="-0.009" y1="0.51" x2="1.005" y2="0.51" gradientUnits="objectBoundingBox"><stop offset="0" stop-color="#eaf8fc"/><stop offset="1" stop-color="#fff"/></linearGradient><linearGradient id="m" x1="-0.001" y1="0.501" x2="1.001" y2="0.501" gradientUnits="objectBoundingBox"><stop offset="0" stop-color="#bec9da"/><stop offset="1" stop-color="#617bac"/></linearGradient><linearGradient id="n" x1="-0.239" y1="0.5" x2="1.109" y2="0.5" gradientUnits="objectBoundingBox"><stop offset="0" stop-color="#fff"/><stop offset="1" stop-color="#b0bcd2"/></linearGradient><linearGradient id="t" x1="0.015" y1="0.5" x2="1.109" y2="0.5" gradientUnits="objectBoundingBox"><stop offset="0" stop-color="#42bce7"/><stop offset="1" stop-color="#0758c1"/></linearGradient><linearGradient id="v" x1="0.5" x2="0.5" y2="1" gradientUnits="objectBoundingBox"><stop offset="0" stop-color="#b6e4f5"/><stop offset="0.607" stop-color="#dbf3fb"/><stop offset="1" stop-color="#f3fcff"/></linearGradient><linearGradient id="w" x1="0.5" y1="0.082" x2="0.5" y2="1.062" gradientUnits="objectBoundingBox"><stop offset="0" stop-color="#fff"/><stop offset="1" stop-color="#94d6f2"/></linearGradient><linearGradient id="x" x1="-0.009" y1="0.51" x2="1.005" y2="0.51" xlink:href="#i"/><linearGradient id="y" x1="-0.001" y1="0.501" x2="1.001" y2="0.501" gradientUnits="objectBoundingBox"><stop offset="0" stop-color="#42bce7"/><stop offset="1" stop-color="#126ac8"/></linearGradient><linearGradient id="z" y1="0.23" x2="0.939" y2="0.93" gradientUnits="objectBoundingBox"><stop offset="0" stop-color="#f9a036"/><stop offset="1" stop-color="#fd0"/></linearGradient></defs><g transform="translate(-274 -479)"><rect class="a" width="72" height="72" transform="translate(274 479)"/><g class="b" transform="translate(280 479)"><g transform="translate(0.051 0)"><path class="c" d="M480.079,172.328l-29.907-54.315,29.907-17.474,29.907,17.474Z" transform="translate(-450.172 -100.538)"/><g transform="translate(29.907 17.474)"><path class="d" d="M495.569,146.133l-29.907,17.474v-36.89l29.907-17.474Z" transform="translate(-465.662 -109.243)"/></g><g transform="translate(0 17.474)"><path class="e" d="M465.87,146.133l29.907,17.474v-36.89L465.87,109.243Z" transform="translate(-465.87 -109.243)"/></g></g><path class="f" d="M450.8,169.3l-29.9,17.465,29.9,17.465,29.967-17.465Z" transform="translate(-420.9 -132.23)"/></g><g class="ae" transform="matrix(1, 0, 0, 1, 274, 479)"><path class="g" d="M441.705,193.331,420.9,181.316,441.705,169.3l20.852,12.016Z" transform="translate(-405.9 -136.54)"/></g><g transform="translate(289.011 505.304)"><path class="h" d="M27.61,24.7l-4.816-2.77a4.1,4.1,0,0,0-2-.426h-.043a1.748,1.748,0,0,0-.469.043h-.128c-.17.043-.3.043-.469.085a.157.157,0,0,0-.128.043c-.128.043-.3.085-.426.128-.043,0-.085.043-.128.043l-.511.256-4.517,2.6H-.006v6.392a1.238,1.238,0,0,0,.724,1.151l.852.469h0l17.217,9.929a2.078,2.078,0,0,0,.3.128h0c.043,0,.043,0,.085.043.043,0,.043.043.085.043s.085.043.128.043c.085.043.17.043.256.085.043,0,.085.043.128.043h.085c.085,0,.213.043.3.043h.895a.725.725,0,0,0,.3-.043.541.541,0,0,0,.256-.043.79.79,0,0,0,.3-.085c.085,0,.128-.043.213-.043.128-.043.3-.085.426-.128h0c.213-.085.426-.17.6-.256L40.566,32.409c.724-.426,1.108-.98,1.065-1.491V24.7Z" transform="translate(0.011 -12.334)"/><path class="i" d="M41.283,13.72a.748.748,0,0,0,.17-.213.042.042,0,0,1,.043-.043l.128-.256h0c.043-.085.043-.17.085-.256h0V12.7h0a1.353,1.353,0,0,0-.724-.98L22.915,1.32a4.81,4.81,0,0,0-4.3.17L1.18,11.547a2.531,2.531,0,0,0-.852.767h0c-.043.085-.085.128-.085.213v.043c0,.043-.043.128-.043.17v.3a.256.256,0,0,0,.043.17v.043a.323.323,0,0,0,.085.17v.043c.043.043.085.128.128.17l.043.043c-.043.043.043.128.085.17l.043.043c.085.043.128.128.213.17l18.027,10.4a3.407,3.407,0,0,0,1.534.426H21a5.524,5.524,0,0,0,2.216-.6L40.644,14.231a1.8,1.8,0,0,0,.3-.213l.043-.043a1.853,1.853,0,0,0,.3-.256C41.241,13.763,41.241,13.72,41.283,13.72Z" transform="translate(-0.11 -0.506)"/><path class="j" d="M.426,12.863a.748.748,0,0,1-.17-.213.042.042,0,0,0-.043-.043l-.128-.256h0C.043,12.266.043,12.181,0,12.1H0V11.84H0a1.353,1.353,0,0,1,.724-.98L18.794.42a4.81,4.81,0,0,1,4.3.17L40.529,10.647a2.531,2.531,0,0,1,.852.767h0c.043.085.085.128.085.213v.043c0,.043.043.128.043.17v.3a.256.256,0,0,1-.043.17v.043a.323.323,0,0,1-.085.17v.043c-.043.043-.085.128-.128.17l-.043.043-.128.128-.043.043c-.085.043-.128.128-.213.17L22.8,23.558a3.407,3.407,0,0,1-1.534.426h-.6a5.524,5.524,0,0,1-2.216-.6L1.065,13.331a.764.764,0,0,1-.3-.213l-.043-.043a.764.764,0,0,1-.3-.213Z" transform="translate(0.005 0.011)"/><path class="k" d="M34.762,26.212l-8.438-4.858c-.511-.3-.469-.81.128-1.151l8.14-4.687a2.226,2.226,0,0,1,2-.085l8.481,4.815c.511.3.469.81-.128,1.151l-8.14,4.687A2.2,2.2,0,0,1,34.762,26.212Z" transform="translate(-14.897 -8.737)"/><path class="l" d="M46.884,29.348l-1.151-.682c-.085-.043-.043-.128,0-.17l1.108-.639a.364.364,0,0,1,.3,0l1.151.682c.085.043.043.128,0,.17l-1.108.639A.35.35,0,0,1,46.884,29.348Z" transform="translate(-26.21 -15.964)"/><path class="m" d="M26.329,21.3h0c.043,0,.085-.043.128-.085l8.14-4.687a2.226,2.226,0,0,1,2-.085L45.038,21.3c.469-.341.511-.81.043-1.065l-8.438-4.9a2.226,2.226,0,0,0-2,.085L26.5,20.1C25.86,20.487,25.817,21,26.329,21.3Z" transform="translate(-14.903 -8.679)"/><g class="n" transform="translate(2.391 15.941)"><g transform="translate(10.697 6.733)"><path class="o" d="M31.638,53.626l-.724-.426-.213.128.767.426Z" transform="translate(-30.7 -53.2)"/></g><g transform="translate(11.464 7.159)"><path class="p" d="M32.67,55.691V54.2l-.17.128v1.449Z" transform="translate(-32.5 -54.2)"/></g><g transform="translate(10.697 6.86)"><path class="q" d="M30.7,54.949l.767.426V53.926L30.7,53.5Z" transform="translate(-30.7 -53.5)"/></g><g transform="translate(9.418 6.008)"><path class="o" d="M28.638,51.926,27.87,51.5l-.17.085.724.426Z" transform="translate(-27.7 -51.5)"/></g><g transform="translate(10.143 6.434)"><path class="p" d="M29.613,53.949V52.5l-.213.085v1.449Z" transform="translate(-29.4 -52.5)"/></g><g transform="translate(9.418 6.093)"><path class="q" d="M27.7,53.149l.724.426V52.126L27.7,51.7Z" transform="translate(-27.7 -51.7)"/></g><g transform="translate(8.14 5.241)"><path class="o" d="M25.595,50.126,24.87,49.7l-.17.128.724.426Z" transform="translate(-24.7 -49.7)"/></g><g transform="translate(8.864 5.667)"><path class="p" d="M26.57,52.149V50.7l-.17.128v1.449Z" transform="translate(-26.4 -50.7)"/></g><g transform="translate(8.14 5.369)"><path class="q" d="M24.7,51.449l.724.426V50.426L24.7,50Z" transform="translate(-24.7 -50)"/></g><g transform="translate(6.819 4.517)"><path class="o" d="M22.538,48.426,21.77,48l-.17.085.767.426Z" transform="translate(-21.6 -48)"/></g><g transform="translate(7.586 4.943)"><path class="p" d="M23.57,50.449V49l-.17.085v1.449Z" transform="translate(-23.4 -49)"/></g><g transform="translate(6.819 4.602)"><path class="q" d="M21.6,49.649l.767.426V48.626L21.6,48.2Z" transform="translate(-21.6 -48.2)"/></g><g transform="translate(5.54 3.75)"><path class="o" d="M19.495,46.626,18.77,46.2l-.17.128.724.426Z" transform="translate(-18.6 -46.2)"/></g><g transform="translate(6.265 4.176)"><path class="p" d="M20.47,48.649V47.2l-.17.128v1.449Z" transform="translate(-20.3 -47.2)"/></g><g transform="translate(5.54 3.878)"><path class="q" d="M18.6,47.949l.724.426V46.926L18.6,46.5Z" transform="translate(-18.6 -46.5)"/></g><g transform="translate(5.54 3.75)"><path class="r" d="M31.638,53.626v1.491l-.17.085-.767-.426V53.328l.213-.128Z" transform="translate(-25.543 -50.217)"/><path class="r" d="M28.638,51.926v1.449l-.213.085-.724-.426V51.585l.17-.085Z" transform="translate(-23.822 -49.242)"/><path class="r" d="M25.595,50.126v1.449l-.17.128-.724-.426V49.828l.17-.128Z" transform="translate(-22.1 -48.209)"/><path class="r" d="M22.538,48.426v1.449l-.17.085-.767-.426V48.085L21.77,48Z" transform="translate(-20.321 -47.233)"/><path class="r" d="M18.77,46.2l.724.426v1.449l-.17.128-.724-.426V46.328Z" transform="translate(-18.6 -46.2)"/></g><g transform="translate(0 2.94)"><path class="q" d="M5.6,44.428l12.146,6.988-.213-.341L5.813,44.3Z" transform="translate(-5.6 -44.3)"/></g><path class="q" d="M17.746,44.431,5.6,37.4l.213.384.17.085.17.128,3.324,1.918L9.691,40l.17.128,7.671,4.432Z" transform="translate(-5.6 -37.4)"/><path class="q" d="M5.6,37.4v3.068l.213-.128V37.784Z" transform="translate(-5.6 -37.4)"/><g transform="translate(11.933 7.031)"><path class="q" d="M33.813,56.925V53.9l-.213.128v2.557Z" transform="translate(-33.6 -53.9)"/></g><g transform="translate(0.213 2.855)"><path class="o" d="M6.1,44.185,17.82,50.96v-.213L9.978,46.231,6.27,44.1Z" transform="translate(-6.1 -44.1)"/></g><g transform="translate(0.213 0.384)"><path class="p" d="M6.1,38.3v2.557l.17-.085V38.385Z" transform="translate(-6.1 -38.3)"/></g><g transform="translate(0.384 2.727)"><path class="q" d="M6.5,43.928l3.708,2.131-.213-.384L6.713,43.8Z" transform="translate(-6.5 -43.8)"/></g><g transform="translate(4.091 4.858)"><path class="q" d="M15.2,48.928l7.842,4.517v-.213L23,53.189,15.413,48.8Z" transform="translate(-15.2 -48.8)"/></g><g transform="translate(0.384 0.469)"><path class="q" d="M6.5,40.886l.213-.128V38.67l-.043-.043L6.5,38.5Z" transform="translate(-6.5 -38.5)"/></g><g transform="translate(0.554 0.597)"><path class="q" d="M6.9,38.8l.043.043.3.17,2.983,1.7h0Z" transform="translate(-6.9 -38.8)"/></g><g transform="translate(3.878 2.514)"><path class="q" d="M14.7,43.3h0v2.088l.213.384V43.385Z" transform="translate(-14.7 -43.3)"/></g><g transform="translate(4.091 3.665)"><path class="q" d="M15.2,46v1.321l.213-.128V46.128Z" transform="translate(-15.2 -46)"/></g><g transform="translate(4.091 2.599)"><path class="q" d="M15.2,43.5v1.065l.213.128V43.67l-.043-.043Z" transform="translate(-15.2 -43.5)"/></g><g transform="translate(0.597 2.557)"><path class="o" d="M7,43.57l3.282,1.875V45.1L7.3,43.4Z" transform="translate(-7 -43.4)"/></g><g transform="translate(0.895 0.81)"><path class="s" d="M7.7,41.047l2.983,1.7V41L7.7,39.3Z" transform="translate(-7.7 -39.3)"/></g><g transform="translate(0.597 0.639)"><path class="p" d="M7,40.988l.3-.17V39.07L7,38.9Z" transform="translate(-7 -38.9)"/></g><g transform="translate(4.304 4.773)"><path class="o" d="M15.7,48.685l7.586,4.389V52.9l-7.458-4.3Z" transform="translate(-15.7 -48.6)"/></g><g transform="translate(4.432 2.855)"><path class="q" d="M16,44.995V44.1l7.458,4.3v1.918L16,46.018Zm6.265,3.111v1.449l.724.426.17-.085V48.446l-.724-.426Zm-1.279-.767v1.449l.724.426.17-.085V47.679l-.724-.426Zm-1.279-.724v1.449l.724.426.17-.085V46.955l-.725-.426Zm-1.321-.767V47.3l.724.426.17-.085V46.188l-.725-.426Zm-1.279-.724v1.449l.725.426.17-.085V45.464l-.725-.426Z" transform="translate(-16 -44.1)"/></g><g transform="translate(4.304 3.75)"><path class="p" d="M15.828,47.223V46.2l-.128.043v1.065Z" transform="translate(-15.7 -46.2)"/></g><g transform="translate(4.304 2.77)"><path class="p" d="M15.828,44.88v-.895L15.7,43.9v1.023Z" transform="translate(-15.7 -43.9)"/></g><g transform="translate(11.89 8.181)"><path class="q" d="M33.5,57.665l.043.043V56.643L33.5,56.6v1.065Z" transform="translate(-33.5 -56.6)"/></g><g transform="translate(4.262 2.727)"><path class="q" d="M15.6,43.8l.043.043.128.085,7.458,4.3h.043Z" transform="translate(-15.6 -43.8)"/></g><g transform="translate(11.89 7.159)"><path class="q" d="M33.543,54.2H33.5v1.023l.043.043Z" transform="translate(-33.5 -54.2)"/></g></g><g class="n" transform="translate(27.749 15.856)"><g transform="translate(0.469 6.733)"><path class="o" d="M66.2,53.426,66.967,53l.17.085-.767.426Z" transform="translate(-66.2 -53)"/></g><g transform="translate(0.469 7.159)"><path class="p" d="M66.2,55.449V54l.17.085v1.449Z" transform="translate(-66.2 -54)"/></g><g transform="translate(0.639 6.818)"><path class="q" d="M67.367,54.649l-.767.426V53.626l.767-.426Z" transform="translate(-66.6 -53.2)"/></g><g transform="translate(1.79 5.966)"><path class="o" d="M69.3,51.626l.724-.426.17.128-.725.426Z" transform="translate(-69.3 -51.2)"/></g><g transform="translate(1.79 6.392)"><path class="p" d="M69.3,53.649V52.2l.17.128v1.449Z" transform="translate(-69.3 -52.2)"/></g><g transform="translate(1.96 6.093)"><path class="q" d="M70.424,52.949l-.725.426V51.926l.725-.426Z" transform="translate(-69.7 -51.5)"/></g><g transform="translate(3.068 5.241)"><path class="o" d="M72.3,49.926l.724-.426.213.085-.767.426Z" transform="translate(-72.3 -49.5)"/></g><g transform="translate(3.068 5.667)"><path class="p" d="M72.3,51.949V50.5l.17.085v1.449Z" transform="translate(-72.3 -50.5)"/></g><g transform="translate(3.239 5.326)"><path class="q" d="M73.467,51.149l-.767.426V50.126l.767-.426Z" transform="translate(-72.7 -49.7)"/></g><g transform="translate(4.347 4.474)"><path class="o" d="M75.3,48.126l.767-.426.17.128-.724.426Z" transform="translate(-75.3 -47.7)"/></g><g transform="translate(4.347 4.9)"><path class="p" d="M75.3,50.149V48.7l.213.128v1.449Z" transform="translate(-75.3 -48.7)"/></g><g transform="translate(4.56 4.602)"><path class="q" d="M76.524,49.449l-.724.426V48.426L76.524,48Z" transform="translate(-75.8 -48)"/></g><g transform="translate(5.668 3.75)"><path class="o" d="M78.4,46.426,79.124,46l.17.085-.724.426Z" transform="translate(-78.4 -46)"/></g><g transform="translate(5.668 4.176)"><path class="p" d="M78.4,48.449V47l.17.085v1.449Z" transform="translate(-78.4 -47)"/></g><g transform="translate(5.839 3.835)"><path class="q" d="M79.524,47.649l-.724.426V46.626l.724-.426Z" transform="translate(-78.8 -46.2)"/></g><g transform="translate(0.469 3.75)"><path class="r" d="M66.2,53.426v1.449l.17.085.767-.426V53.085L66.967,53Z" transform="translate(-66.2 -50.017)"/><path class="r" d="M69.3,51.626v1.449l.17.128.725-.426V51.328l-.17-.128Z" transform="translate(-67.979 -48.984)"/><path class="r" d="M72.3,49.926v1.449l.17.085.767-.426V49.585l-.213-.085Z" transform="translate(-69.7 -48.009)"/><path class="r" d="M75.3,48.126v1.449l.213.128.724-.426V47.828l-.17-.128Z" transform="translate(-71.422 -46.976)"/><path class="r" d="M79.124,46l-.724.426v1.449l.17.085.724-.426V46.085Z" transform="translate(-73.201 -46)"/></g><g transform="translate(0 2.94)"><path class="q" d="M77.2,44.185,65.1,51.216l.213-.384L76.99,44.1Z" transform="translate(-65.1 -44.1)"/></g><path class="q" d="M65.1,44.188,77.2,37.2l-.213.341-.17.128-.17.085-3.324,1.918-.17.128-.213.085-7.629,4.432Z" transform="translate(-65.1 -37.2)"/><g transform="translate(11.89)"><path class="q" d="M93.213,37.2v3.025L93,40.14v-2.6Z" transform="translate(-93 -37.2)"/></g><g transform="translate(0 6.988)"><path class="q" d="M65.1,56.668V53.6l.213.128v2.557Z" transform="translate(-65.1 -53.6)"/></g><g transform="translate(0.213 2.812)"><path class="o" d="M77.277,43.928,65.6,50.66v-.213l7.842-4.517L77.107,43.8Z" transform="translate(-65.6 -43.8)"/></g><g transform="translate(11.72 0.341)"><path class="p" d="M92.77,38v2.6l-.17-.128V38.128Z" transform="translate(-92.6 -38)"/></g><g transform="translate(8.055 2.685)"><path class="q" d="M87.665,43.628,84,45.758l.213-.384L87.452,43.5Z" transform="translate(-84 -43.5)"/></g><g transform="translate(0.213 4.815)"><path class="q" d="M73.442,48.628,65.6,53.145v-.256L73.229,48.5Z" transform="translate(-65.6 -48.5)"/></g><g transform="translate(11.507 0.469)"><path class="q" d="M92.313,40.644l-.213-.128V38.428l.043-.043.17-.085Z" transform="translate(-92.1 -38.3)"/></g><g transform="translate(8.225 0.554)"><path class="q" d="M87.724,38.5l-.043.043-.256.17L84.443,40.46l-.043-.043Z" transform="translate(-84.4 -38.5)"/></g><g transform="translate(8.055 2.471)"><path class="q" d="M84.17,43l.043.043v2.045L84,45.471V43.128Z" transform="translate(-84 -43)"/></g><g transform="translate(7.842 3.665)"><path class="q" d="M83.713,45.8v1.278l-.213-.128V45.928Z" transform="translate(-83.5 -45.8)"/></g><g transform="translate(7.842 2.599)"><path class="q" d="M83.713,43.3v1.065l-.213.128V43.385Z" transform="translate(-83.5 -43.3)"/></g><g transform="translate(8.268 2.514)"><path class="o" d="M87.739,43.27,84.5,45.145v-.3L87.483,43.1Z" transform="translate(-84.5 -43.1)"/></g><g transform="translate(8.268 0.767)"><path class="s" d="M87.483,40.747,84.5,42.494V40.747L87.483,39Z" transform="translate(-84.5 -39)"/></g><g transform="translate(11.251 0.597)"><path class="p" d="M91.756,40.688l-.256-.17V38.77l.256-.17Z" transform="translate(-91.5 -38.6)"/></g><g transform="translate(0.213 4.73)"><path class="o" d="M73.229,48.385,65.6,52.774v-.128L73.1,48.3Z" transform="translate(-65.6 -48.3)"/></g><g transform="translate(0.213 2.812)"><path class="q" d="M73.1,44.695V43.8l-7.5,4.3v1.918l7.458-4.3V44.695Zm-6.307,3.111v1.449l-.724.426L65.9,49.6V48.146l.724-.426Zm1.279-.724V48.53l-.724.426-.17-.085V47.422L67.9,47Zm1.321-.767v1.449l-.724.426L68.5,48.1V46.655l.725-.426Zm1.279-.724v1.449l-.724.426-.17-.085V45.931L70.5,45.5Zm1.279-.767v1.449l-.725.426-.17-.085V45.164l.724-.426Z" transform="translate(-65.6 -43.8)"/></g><g transform="translate(7.714 3.707)"><path class="p" d="M83.2,46.923V45.9l.128.085v1.023Z" transform="translate(-83.2 -45.9)"/></g><g transform="translate(7.714 2.727)"><path class="p" d="M83.2,44.58v-.895l.128-.085v1.065Z" transform="translate(-83.2 -43.6)"/></g><g transform="translate(0.213 8.181)"><path class="q" d="M65.6,57.423V56.4h0v1.023Z" transform="translate(-65.6 -56.4)"/></g><g transform="translate(0.213 2.685)"><path class="q" d="M73.229,43.5v.043l-.128.085-7.5,4.3h0Z" transform="translate(-65.6 -43.5)"/></g><g transform="translate(0.213 7.116)"><path class="q" d="M65.6,53.9h0v1.065h0Z" transform="translate(-65.6 -53.9)"/></g></g></g><g transform="translate(289.011 498.354)"><path class="t" d="M27.61,24.7l-4.816-2.771a4.1,4.1,0,0,0-2-.426h-.043a1.748,1.748,0,0,0-.469.043h-.128c-.17.043-.3.043-.469.085a.157.157,0,0,0-.128.043c-.128.043-.3.085-.426.128-.043,0-.085.043-.128.043l-.511.256-4.517,2.6H-.006v6.394a1.239,1.239,0,0,0,.724,1.151l.852.469h0l17.217,9.933a2.077,2.077,0,0,0,.3.128h0c.043,0,.043,0,.085.043.043,0,.043.043.085.043s.085.043.128.043c.085.043.17.043.256.085.043,0,.085.043.128.043h.085c.085,0,.213.043.3.043h.895a.725.725,0,0,0,.3-.043.54.54,0,0,0,.256-.043.79.79,0,0,0,.3-.085c.085,0,.128-.043.213-.043.128-.043.3-.085.426-.128h0c.213-.085.426-.171.6-.256L40.566,32.413c.724-.426,1.108-.98,1.065-1.492V24.7Z" transform="translate(0.011 -12.33)"/><path class="i" d="M41.283,13.726a.748.748,0,0,0,.17-.213.042.042,0,0,1,.043-.043l.128-.256h0c.043-.085.043-.171.085-.256h0V12.7h0a1.354,1.354,0,0,0-.724-.98L22.915,1.32a4.809,4.809,0,0,0-4.3.171L1.18,11.551a2.531,2.531,0,0,0-.852.767h0c-.043.085-.085.128-.085.213v.043c0,.043-.043.128-.043.171v.3a.256.256,0,0,0,.043.171v.043a.323.323,0,0,0,.085.171v.043c.043.043.085.128.128.171l.043.043c-.043.043.043.128.085.171l.043.043c.085.043.128.128.213.171l18.027,10.4a3.406,3.406,0,0,0,1.534.426H21a5.522,5.522,0,0,0,2.216-.6L40.644,14.237a1.8,1.8,0,0,0,.3-.213l.043-.043a1.853,1.853,0,0,0,.3-.256C41.241,13.768,41.241,13.726,41.283,13.726Z" transform="translate(-0.11 -0.506)"/><path class="j" d="M.426,12.868a.748.748,0,0,1-.17-.213.042.042,0,0,0-.043-.043l-.128-.256h0C.043,12.271.043,12.186,0,12.1H0v-.256H0a1.354,1.354,0,0,1,.724-.98L18.794.42a4.809,4.809,0,0,1,4.3.171L40.529,10.651a2.531,2.531,0,0,1,.852.767h0c.043.085.085.128.085.213v.043c0,.043.043.128.043.171v.3a.256.256,0,0,1-.043.171v.043a.323.323,0,0,1-.085.171v.043c-.043.043-.085.128-.128.171l-.043.043-.128.128-.043.043c-.085.043-.128.128-.213.171L22.8,23.568a3.406,3.406,0,0,1-1.534.426h-.6a5.522,5.522,0,0,1-2.216-.6L1.065,13.337a.764.764,0,0,1-.3-.213l-.043-.043a.764.764,0,0,1-.3-.213Z" transform="translate(0.005 0.011)"/><path class="k" d="M34.762,26.217l-8.438-4.86c-.511-.3-.469-.81.128-1.151l8.14-4.689a2.225,2.225,0,0,1,2-.085l8.481,4.817c.511.3.469.81-.128,1.151l-8.14,4.689A2.2,2.2,0,0,1,34.762,26.217Z" transform="translate(-14.897 -8.734)"/><path class="l" d="M46.884,29.349l-1.151-.682c-.085-.043-.043-.128,0-.171l1.108-.639a.364.364,0,0,1,.3,0l1.151.682c.085.043.043.128,0,.171l-1.108.639A.349.349,0,0,1,46.884,29.349Z" transform="translate(-26.21 -15.959)"/><path class="m" d="M26.329,21.3h0c.043,0,.085-.043.128-.085l8.14-4.689a2.225,2.225,0,0,1,2-.085l8.438,4.86c.469-.341.511-.81.043-1.066l-8.438-4.9a2.225,2.225,0,0,0-2,.085L26.5,20.106C25.86,20.49,25.817,21,26.329,21.3Z" transform="translate(-14.903 -8.677)"/><g class="u" transform="translate(2.391 15.948)"><g transform="translate(10.697 6.736)"><path class="o" d="M31.638,53.626l-.724-.426-.213.128.767.426Z" transform="translate(-30.7 -53.2)"/></g><g transform="translate(11.464 7.162)"><path class="p" d="M32.67,55.692V54.2l-.17.128v1.449Z" transform="translate(-32.5 -54.2)"/></g><g transform="translate(10.697 6.863)"><path class="q" d="M30.7,54.949l.767.426V53.926L30.7,53.5Z" transform="translate(-30.7 -53.5)"/></g><g transform="translate(9.418 6.011)"><path class="o" d="M28.638,51.926,27.87,51.5l-.17.085.724.426Z" transform="translate(-27.7 -51.5)"/></g><g transform="translate(10.143 6.437)"><path class="p" d="M29.613,53.949V52.5l-.213.085v1.449Z" transform="translate(-29.4 -52.5)"/></g><g transform="translate(9.418 6.096)"><path class="q" d="M27.7,53.149l.724.426V52.126L27.7,51.7Z" transform="translate(-27.7 -51.7)"/></g><g transform="translate(8.14 5.243)"><path class="o" d="M25.595,50.126,24.87,49.7l-.17.128.724.426Z" transform="translate(-24.7 -49.7)"/></g><g transform="translate(8.864 5.67)"><path class="p" d="M26.57,52.149V50.7l-.17.128v1.449Z" transform="translate(-26.4 -50.7)"/></g><g transform="translate(8.14 5.371)"><path class="q" d="M24.7,51.449l.724.426V50.426L24.7,50Z" transform="translate(-24.7 -50)"/></g><g transform="translate(6.819 4.519)"><path class="o" d="M22.538,48.426,21.77,48l-.17.085.767.426Z" transform="translate(-21.6 -48)"/></g><g transform="translate(7.586 4.945)"><path class="p" d="M23.57,50.449V49l-.17.085v1.449Z" transform="translate(-23.4 -49)"/></g><g transform="translate(6.819 4.604)"><path class="q" d="M21.6,49.649l.767.426V48.626L21.6,48.2Z" transform="translate(-21.6 -48.2)"/></g><g transform="translate(5.54 3.751)"><path class="o" d="M19.495,46.626,18.77,46.2l-.17.128.724.426Z" transform="translate(-18.6 -46.2)"/></g><g transform="translate(6.265 4.178)"><path class="p" d="M20.47,48.649V47.2l-.17.128v1.449Z" transform="translate(-20.3 -47.2)"/></g><g transform="translate(5.54 3.879)"><path class="q" d="M18.6,47.949l.724.426V46.926L18.6,46.5Z" transform="translate(-18.6 -46.5)"/></g><g transform="translate(5.54 3.751)"><path class="r" d="M31.638,53.626v1.492l-.17.085-.767-.426V53.328l.213-.128Z" transform="translate(-25.543 -50.216)"/><path class="r" d="M28.638,51.926v1.449l-.213.085-.724-.426V51.585l.17-.085Z" transform="translate(-23.822 -49.241)"/><path class="r" d="M25.595,50.126v1.449l-.17.128-.724-.426V49.828l.17-.128Z" transform="translate(-22.1 -48.208)"/><path class="r" d="M22.538,48.426v1.449l-.17.085-.767-.426V48.085L21.77,48Z" transform="translate(-20.321 -47.233)"/><path class="r" d="M18.77,46.2l.724.426v1.449l-.17.128-.724-.426V46.328Z" transform="translate(-18.6 -46.2)"/></g><g transform="translate(0 2.941)"><path class="q" d="M5.6,44.428l12.146,6.991-.213-.341L5.813,44.3Z" transform="translate(-5.6 -44.3)"/></g><path class="q" d="M17.746,44.434,5.6,37.4l.213.384.17.085.17.128,3.324,1.918L9.691,40l.17.128,7.671,4.434Z" transform="translate(-5.6 -37.4)"/><path class="q" d="M5.6,37.4v3.069l.213-.128V37.784Z" transform="translate(-5.6 -37.4)"/><g transform="translate(11.933 7.034)"><path class="q" d="M33.813,56.927V53.9l-.213.128v2.558Z" transform="translate(-33.6 -53.9)"/></g><g transform="translate(0.213 2.856)"><path class="o" d="M6.1,44.185l11.72,6.778V50.75L9.978,46.231,6.27,44.1Z" transform="translate(-6.1 -44.1)"/></g><g transform="translate(0.213 0.384)"><path class="p" d="M6.1,38.3v2.558l.17-.085V38.385Z" transform="translate(-6.1 -38.3)"/></g><g transform="translate(0.384 2.728)"><path class="q" d="M6.5,43.928l3.708,2.131-.213-.384L6.713,43.8Z" transform="translate(-6.5 -43.8)"/></g><g transform="translate(4.091 4.86)"><path class="q" d="M15.2,48.928l7.842,4.519v-.213L23,53.191,15.413,48.8Z" transform="translate(-15.2 -48.8)"/></g><g transform="translate(0.384 0.469)"><path class="q" d="M6.5,40.887l.213-.128V38.671l-.043-.043L6.5,38.5Z" transform="translate(-6.5 -38.5)"/></g><g transform="translate(0.554 0.597)"><path class="q" d="M6.9,38.8l.043.043.3.171,2.983,1.705h0Z" transform="translate(-6.9 -38.8)"/></g><g transform="translate(3.878 2.515)"><path class="q" d="M14.7,43.3h0v2.089l.213.384V43.385Z" transform="translate(-14.7 -43.3)"/></g><g transform="translate(4.091 3.666)"><path class="q" d="M15.2,46v1.322l.213-.128V46.128Z" transform="translate(-15.2 -46)"/></g><g transform="translate(4.091 2.6)"><path class="q" d="M15.2,43.5v1.066l.213.128V43.671l-.043-.043Z" transform="translate(-15.2 -43.5)"/></g><g transform="translate(0.597 2.558)"><path class="o" d="M7,43.571l3.282,1.876v-.341L7.3,43.4Z" transform="translate(-7 -43.4)"/></g><g class="v" transform="translate(0.895 0.81)"><path class="w" d="M7.7,41.048l2.983,1.705V41.005L7.7,39.3Z" transform="translate(-7.7 -39.3)"/></g><g transform="translate(0.597 0.639)"><path class="p" d="M7,40.989l.3-.171V39.071L7,38.9Z" transform="translate(-7 -38.9)"/></g><g transform="translate(4.304 4.775)"><path class="o" d="M15.7,48.685l7.586,4.391v-.171L15.828,48.6Z" transform="translate(-15.7 -48.6)"/></g><g transform="translate(4.432 2.856)"><path class="q" d="M16,45v-.9l7.458,4.306v1.918L16,46.018Zm6.265,3.112v1.449l.724.426.17-.085V48.448l-.724-.426Zm-1.279-.767v1.449l.724.426.17-.085V47.681l-.724-.426Zm-1.279-.725v1.449l.724.426.17-.085V46.956l-.725-.426Zm-1.321-.767V47.3l.724.426.17-.085V46.189l-.725-.426Zm-1.279-.725v1.449l.725.426.17-.085V45.464l-.725-.426Z" transform="translate(-16 -44.1)"/></g><g transform="translate(4.304 3.751)"><path class="p" d="M15.828,47.223V46.2l-.128.043v1.066Z" transform="translate(-15.7 -46.2)"/></g><g transform="translate(4.304 2.771)"><path class="p" d="M15.828,44.88v-.9L15.7,43.9v1.023Z" transform="translate(-15.7 -43.9)"/></g><g transform="translate(11.89 8.185)"><path class="q" d="M33.5,57.666l.043.043V56.643L33.5,56.6v1.066Z" transform="translate(-33.5 -56.6)"/></g><g transform="translate(4.262 2.728)"><path class="q" d="M15.6,43.8l.043.043.128.085,7.458,4.306h.043Z" transform="translate(-15.6 -43.8)"/></g><g transform="translate(11.89 7.162)"><path class="q" d="M33.543,54.2H33.5v1.023l.043.043Z" transform="translate(-33.5 -54.2)"/></g></g><g class="n" transform="translate(27.749 15.863)"><g transform="translate(0.469 6.736)"><path class="o" d="M66.2,53.426,66.967,53l.17.085-.767.426Z" transform="translate(-66.2 -53)"/></g><g transform="translate(0.469 7.162)"><path class="p" d="M66.2,55.449V54l.17.085v1.449Z" transform="translate(-66.2 -54)"/></g><g transform="translate(0.639 6.821)"><path class="q" d="M67.367,54.649l-.767.426V53.626l.767-.426Z" transform="translate(-66.6 -53.2)"/></g><g transform="translate(1.79 5.968)"><path class="o" d="M69.3,51.626l.724-.426.17.128-.725.426Z" transform="translate(-69.3 -51.2)"/></g><g transform="translate(1.79 6.394)"><path class="p" d="M69.3,53.649V52.2l.17.128v1.449Z" transform="translate(-69.3 -52.2)"/></g><g transform="translate(1.96 6.096)"><path class="q" d="M70.424,52.949l-.725.426V51.926l.725-.426Z" transform="translate(-69.7 -51.5)"/></g><g transform="translate(3.068 5.243)"><path class="o" d="M72.3,49.926l.724-.426.213.085-.767.426Z" transform="translate(-72.3 -49.5)"/></g><g transform="translate(3.068 5.67)"><path class="p" d="M72.3,51.949V50.5l.17.085v1.449Z" transform="translate(-72.3 -50.5)"/></g><g transform="translate(3.239 5.329)"><path class="q" d="M73.467,51.149l-.767.426V50.126l.767-.426Z" transform="translate(-72.7 -49.7)"/></g><g transform="translate(4.347 4.476)"><path class="o" d="M75.3,48.126l.767-.426.17.128-.724.426Z" transform="translate(-75.3 -47.7)"/></g><g transform="translate(4.347 4.902)"><path class="p" d="M75.3,50.149V48.7l.213.128v1.449Z" transform="translate(-75.3 -48.7)"/></g><g transform="translate(4.56 4.604)"><path class="q" d="M76.524,49.449l-.724.426V48.426L76.524,48Z" transform="translate(-75.8 -48)"/></g><g transform="translate(5.668 3.751)"><path class="o" d="M78.4,46.426,79.124,46l.17.085-.724.426Z" transform="translate(-78.4 -46)"/></g><g transform="translate(5.668 4.178)"><path class="p" d="M78.4,48.449V47l.17.085v1.449Z" transform="translate(-78.4 -47)"/></g><g transform="translate(5.839 3.837)"><path class="q" d="M79.524,47.649l-.724.426V46.626l.724-.426Z" transform="translate(-78.8 -46.2)"/></g><g transform="translate(0.469 3.751)"><path class="r" d="M66.2,53.426v1.449l.17.085.767-.426V53.085L66.967,53Z" transform="translate(-66.2 -50.016)"/><path class="r" d="M69.3,51.626v1.449l.17.128.725-.426V51.328l-.17-.128Z" transform="translate(-67.979 -48.983)"/><path class="r" d="M72.3,49.926v1.449l.17.085.767-.426V49.585l-.213-.085Z" transform="translate(-69.7 -48.008)"/><path class="r" d="M75.3,48.126v1.449l.213.128.724-.426V47.828l-.17-.128Z" transform="translate(-71.422 -46.975)"/><path class="r" d="M79.124,46l-.724.426v1.449l.17.085.724-.426V46.085Z" transform="translate(-73.201 -46)"/></g><g transform="translate(0 2.941)"><path class="q" d="M77.2,44.185,65.1,51.219l.213-.384L76.99,44.1Z" transform="translate(-65.1 -44.1)"/></g><path class="q" d="M65.1,44.191,77.2,37.2l-.213.341-.17.128-.17.085-3.324,1.918-.17.128-.213.085-7.629,4.434Z" transform="translate(-65.1 -37.2)"/><g transform="translate(11.89)"><path class="q" d="M93.213,37.2v3.027L93,40.141v-2.6Z" transform="translate(-93 -37.2)"/></g><g transform="translate(0 6.991)"><path class="q" d="M65.1,56.669V53.6l.213.128v2.558Z" transform="translate(-65.1 -53.6)"/></g><g transform="translate(0.213 2.814)"><path class="o" d="M77.277,43.928,65.6,50.663V50.45l7.842-4.519L77.107,43.8Z" transform="translate(-65.6 -43.8)"/></g><g transform="translate(11.72 0.341)"><path class="p" d="M92.77,38v2.6l-.17-.128V38.128Z" transform="translate(-92.6 -38)"/></g><g transform="translate(8.055 2.686)"><path class="q" d="M87.665,43.628,84,45.759l.213-.384L87.452,43.5Z" transform="translate(-84 -43.5)"/></g><g transform="translate(0.213 4.817)"><path class="q" d="M73.442,48.628,65.6,53.147v-.256L73.229,48.5Z" transform="translate(-65.6 -48.5)"/></g><g transform="translate(11.507 0.469)"><path class="q" d="M92.313,40.645l-.213-.128V38.428l.043-.043.17-.085Z" transform="translate(-92.1 -38.3)"/></g><g transform="translate(8.225 0.554)"><path class="q" d="M87.724,38.5l-.043.043-.256.171-2.983,1.748-.043-.043Z" transform="translate(-84.4 -38.5)"/></g><g transform="translate(8.055 2.473)"><path class="q" d="M84.17,43l.043.043v2.046L84,45.473V43.128Z" transform="translate(-84 -43)"/></g><g transform="translate(7.842 3.666)"><path class="q" d="M83.713,45.8v1.279l-.213-.128V45.928Z" transform="translate(-83.5 -45.8)"/></g><g transform="translate(7.842 2.6)"><path class="q" d="M83.713,43.3v1.066l-.213.128V43.385Z" transform="translate(-83.5 -43.3)"/></g><g transform="translate(8.268 2.515)"><path class="o" d="M87.739,43.271,84.5,45.146v-.3L87.483,43.1Z" transform="translate(-84.5 -43.1)"/></g><g transform="translate(8.268 0.767)"><path class="s" d="M87.483,40.748,84.5,42.5V40.748L87.483,39Z" transform="translate(-84.5 -39)"/></g><g transform="translate(11.251 0.597)"><path class="p" d="M91.756,40.689l-.256-.171V38.771l.256-.171Z" transform="translate(-91.5 -38.6)"/></g><g transform="translate(0.213 4.732)"><path class="o" d="M73.229,48.385,65.6,52.776v-.128L73.1,48.3Z" transform="translate(-65.6 -48.3)"/></g><g transform="translate(0.213 2.814)"><path class="q" d="M73.1,44.7v-.9l-7.5,4.306v1.918l7.458-4.306V44.7Zm-6.307,3.112v1.449l-.724.426L65.9,49.6V48.148l.724-.426Zm1.279-.725v1.449l-.724.426-.17-.085V47.424L67.9,47Zm1.321-.767v1.449l-.724.426-.17-.085V46.656l.725-.426Zm1.279-.725V47.04l-.724.426-.17-.085V45.931l.724-.426Zm1.279-.767v1.449l-.725.426-.17-.085V45.164l.724-.426Z" transform="translate(-65.6 -43.8)"/></g><g transform="translate(7.714 3.709)"><path class="p" d="M83.2,46.923V45.9l.128.085v1.023Z" transform="translate(-83.2 -45.9)"/></g><g transform="translate(7.714 2.728)"><path class="p" d="M83.2,44.58v-.9l.128-.085v1.066Z" transform="translate(-83.2 -43.6)"/></g><g transform="translate(0.213 8.185)"><path class="q" d="M65.6,57.423V56.4h0v1.023Z" transform="translate(-65.6 -56.4)"/></g><g transform="translate(0.213 2.686)"><path class="q" d="M73.229,43.5v.043l-.128.085-7.5,4.306h0Z" transform="translate(-65.6 -43.5)"/></g><g transform="translate(0.213 7.119)"><path class="q" d="M65.6,53.9h0v1.066h0Z" transform="translate(-65.6 -53.9)"/></g></g></g><g transform="translate(289.011 491)"><path class="x" d="M27.61,24.7l-4.816-2.77a4.1,4.1,0,0,0-2-.426h-.043a1.748,1.748,0,0,0-.469.043h-.128c-.17.043-.3.043-.469.085a.157.157,0,0,0-.128.043c-.128.043-.3.085-.426.128-.043,0-.085.043-.128.043l-.511.256-4.517,2.6H-.006v6.392a1.238,1.238,0,0,0,.724,1.151l.852.469h0l17.217,9.929a2.078,2.078,0,0,0,.3.128h0c.043,0,.043,0,.085.043.043,0,.043.043.085.043s.085.043.128.043c.085.043.17.043.256.085.043,0,.085.043.128.043h.085c.085,0,.213.043.3.043h.895a.725.725,0,0,0,.3-.043.541.541,0,0,0,.256-.043.79.79,0,0,0,.3-.085c.085,0,.128-.043.213-.043.128-.043.3-.085.426-.128h0c.213-.085.426-.17.6-.256L40.566,32.409c.724-.426,1.108-.98,1.065-1.491V24.7Z" transform="translate(0.011 -12.334)"/><path class="i" d="M41.283,13.72a.748.748,0,0,0,.17-.213.042.042,0,0,1,.043-.043l.128-.256h0c.043-.085.043-.17.085-.256h0V12.7h0a1.353,1.353,0,0,0-.724-.98L22.915,1.32a4.81,4.81,0,0,0-4.3.17L1.18,11.547a2.531,2.531,0,0,0-.852.767h0c-.043.085-.085.128-.085.213v.043c0,.043-.043.128-.043.17v.3a.256.256,0,0,0,.043.17v.043a.323.323,0,0,0,.085.17v.043c.043.043.085.128.128.17l.043.043c-.043.043.043.128.085.17l.043.043c.085.043.128.128.213.17l18.027,10.4a3.407,3.407,0,0,0,1.534.426H21a5.524,5.524,0,0,0,2.216-.6L40.644,14.231a1.8,1.8,0,0,0,.3-.213l.043-.043a1.853,1.853,0,0,0,.3-.256C41.241,13.763,41.241,13.72,41.283,13.72Z" transform="translate(-0.11 -0.506)"/><path class="y" d="M.426,12.863a.748.748,0,0,1-.17-.213.042.042,0,0,0-.043-.043l-.128-.256h0C.043,12.266.043,12.181,0,12.1H0V11.84H0a1.353,1.353,0,0,1,.724-.98L18.794.42a4.81,4.81,0,0,1,4.3.17L40.529,10.647a2.531,2.531,0,0,1,.852.767h0c.043.085.085.128.085.213v.043c0,.043.043.128.043.17v.3a.256.256,0,0,1-.043.17v.043a.323.323,0,0,1-.085.17v.043c-.043.043-.085.128-.128.17l-.043.043-.128.128-.043.043c-.085.043-.128.128-.213.17L22.8,23.558a3.407,3.407,0,0,1-1.534.426h-.6a5.524,5.524,0,0,1-2.216-.6L1.065,13.331a.764.764,0,0,1-.3-.213l-.043-.043a.764.764,0,0,1-.3-.213Z" transform="translate(0.005 0.011)"/><path class="z" d="M34.762,26.212l-8.438-4.858c-.511-.3-.469-.81.128-1.151l8.14-4.687a2.226,2.226,0,0,1,2-.085l8.481,4.815c.511.3.469.81-.128,1.151l-8.14,4.687A2.2,2.2,0,0,1,34.762,26.212Z" transform="translate(-14.897 -8.737)"/><path class="aa" d="M46.884,29.348l-1.151-.682c-.085-.043-.043-.128,0-.17l1.108-.639a.364.364,0,0,1,.3,0l1.151.682c.085.043.043.128,0,.17l-1.108.639A.35.35,0,0,1,46.884,29.348Z" transform="translate(-26.21 -15.964)"/><path class="ab" d="M26.329,21.3h0c.043,0,.085-.043.128-.085l8.14-4.687a2.226,2.226,0,0,1,2-.085L45.038,21.3c.469-.341.511-.81.043-1.065l-8.438-4.9a2.226,2.226,0,0,0-2,.085L26.5,20.1C25.86,20.487,25.817,21,26.329,21.3Z" transform="translate(-14.903 -8.679)"/><g class="ac" transform="translate(2.391 15.942)"><g transform="translate(10.697 6.733)"><path class="o" d="M31.638,53.626l-.724-.426-.213.128.767.426Z" transform="translate(-30.7 -53.2)"/></g><g transform="translate(11.464 7.159)"><path class="p" d="M32.67,55.691V54.2l-.17.128v1.449Z" transform="translate(-32.5 -54.2)"/></g><g transform="translate(10.697 6.86)"><path class="q" d="M30.7,54.949l.767.426V53.926L30.7,53.5Z" transform="translate(-30.7 -53.5)"/></g><g transform="translate(9.418 6.008)"><path class="o" d="M28.638,51.926,27.87,51.5l-.17.085.724.426Z" transform="translate(-27.7 -51.5)"/></g><g transform="translate(10.143 6.434)"><path class="p" d="M29.613,53.949V52.5l-.213.085v1.449Z" transform="translate(-29.4 -52.5)"/></g><g transform="translate(9.418 6.093)"><path class="q" d="M27.7,53.149l.724.426V52.126L27.7,51.7Z" transform="translate(-27.7 -51.7)"/></g><g transform="translate(8.14 5.241)"><path class="o" d="M25.595,50.126,24.87,49.7l-.17.128.724.426Z" transform="translate(-24.7 -49.7)"/></g><g transform="translate(8.864 5.667)"><path class="p" d="M26.57,52.149V50.7l-.17.128v1.449Z" transform="translate(-26.4 -50.7)"/></g><g transform="translate(8.14 5.369)"><path class="q" d="M24.7,51.449l.724.426V50.426L24.7,50Z" transform="translate(-24.7 -50)"/></g><g transform="translate(6.819 4.517)"><path class="o" d="M22.538,48.426,21.77,48l-.17.085.767.426Z" transform="translate(-21.6 -48)"/></g><g transform="translate(7.586 4.943)"><path class="p" d="M23.57,50.449V49l-.17.085v1.449Z" transform="translate(-23.4 -49)"/></g><g transform="translate(6.819 4.602)"><path class="q" d="M21.6,49.649l.767.426V48.626L21.6,48.2Z" transform="translate(-21.6 -48.2)"/></g><g transform="translate(5.54 3.75)"><path class="o" d="M19.495,46.626,18.77,46.2l-.17.128.724.426Z" transform="translate(-18.6 -46.2)"/></g><g transform="translate(6.265 4.176)"><path class="p" d="M20.47,48.649V47.2l-.17.128v1.449Z" transform="translate(-20.3 -47.2)"/></g><g transform="translate(5.54 3.878)"><path class="q" d="M18.6,47.949l.724.426V46.926L18.6,46.5Z" transform="translate(-18.6 -46.5)"/></g><g transform="translate(5.54 3.75)"><path class="r" d="M31.638,53.626v1.491l-.17.085-.767-.426V53.328l.213-.128Z" transform="translate(-25.543 -50.217)"/><path class="r" d="M28.638,51.926v1.449l-.213.085-.724-.426V51.585l.17-.085Z" transform="translate(-23.822 -49.242)"/><path class="r" d="M25.595,50.126v1.449l-.17.128-.724-.426V49.828l.17-.128Z" transform="translate(-22.1 -48.209)"/><path class="r" d="M22.538,48.426v1.449l-.17.085-.767-.426V48.085L21.77,48Z" transform="translate(-20.321 -47.233)"/><path class="r" d="M18.77,46.2l.724.426v1.449l-.17.128-.724-.426V46.328Z" transform="translate(-18.6 -46.2)"/></g><g transform="translate(0 2.94)"><path class="q" d="M5.6,44.428l12.146,6.988-.213-.341L5.813,44.3Z" transform="translate(-5.6 -44.3)"/></g><path class="q" d="M17.746,44.431,5.6,37.4l.213.384.17.085.17.128,3.324,1.918L9.691,40l.17.128,7.671,4.432Z" transform="translate(-5.6 -37.4)"/><path class="q" d="M5.6,37.4v3.068l.213-.128V37.784Z" transform="translate(-5.6 -37.4)"/><g transform="translate(11.933 7.031)"><path class="q" d="M33.813,56.925V53.9l-.213.128v2.557Z" transform="translate(-33.6 -53.9)"/></g><g transform="translate(0.213 2.855)"><path class="o" d="M6.1,44.185,17.82,50.96v-.213L9.978,46.231,6.27,44.1Z" transform="translate(-6.1 -44.1)"/></g><g transform="translate(0.213 0.384)"><path class="p" d="M6.1,38.3v2.557l.17-.085V38.385Z" transform="translate(-6.1 -38.3)"/></g><g transform="translate(0.384 2.727)"><path class="q" d="M6.5,43.928l3.708,2.131-.213-.384L6.713,43.8Z" transform="translate(-6.5 -43.8)"/></g><g transform="translate(4.091 4.858)"><path class="q" d="M15.2,48.928l7.842,4.517v-.213L23,53.189,15.413,48.8Z" transform="translate(-15.2 -48.8)"/></g><g transform="translate(0.384 0.469)"><path class="q" d="M6.5,40.886l.213-.128V38.67l-.043-.043L6.5,38.5Z" transform="translate(-6.5 -38.5)"/></g><g transform="translate(0.554 0.597)"><path class="q" d="M6.9,38.8l.043.043.3.17,2.983,1.7h0Z" transform="translate(-6.9 -38.8)"/></g><g transform="translate(3.878 2.514)"><path class="q" d="M14.7,43.3h0v2.088l.213.384V43.385Z" transform="translate(-14.7 -43.3)"/></g><g transform="translate(4.091 3.665)"><path class="q" d="M15.2,46v1.321l.213-.128V46.128Z" transform="translate(-15.2 -46)"/></g><g transform="translate(4.091 2.599)"><path class="q" d="M15.2,43.5v1.065l.213.128V43.67l-.043-.043Z" transform="translate(-15.2 -43.5)"/></g><g transform="translate(0.597 2.557)"><path class="o" d="M7,43.57l3.282,1.875V45.1L7.3,43.4Z" transform="translate(-7 -43.4)"/></g><g transform="translate(0.895 0.81)"><path class="s" d="M7.7,41.047l2.983,1.7V41L7.7,39.3Z" transform="translate(-7.7 -39.3)"/></g><g transform="translate(0.597 0.639)"><path class="p" d="M7,40.988l.3-.17V39.07L7,38.9Z" transform="translate(-7 -38.9)"/></g><g transform="translate(4.304 4.773)"><path class="o" d="M15.7,48.685l7.586,4.389V52.9l-7.458-4.3Z" transform="translate(-15.7 -48.6)"/></g><g transform="translate(4.432 2.855)"><path class="q" d="M16,44.995V44.1l7.458,4.3v1.918L16,46.018Zm6.265,3.111v1.449l.724.426.17-.085V48.446l-.724-.426Zm-1.279-.767v1.449l.724.426.17-.085V47.679l-.724-.426Zm-1.279-.724v1.449l.724.426.17-.085V46.955l-.725-.426Zm-1.321-.767V47.3l.724.426.17-.085V46.188l-.725-.426Zm-1.279-.724v1.449l.725.426.17-.085V45.464l-.725-.426Z" transform="translate(-16 -44.1)"/></g><g transform="translate(4.304 3.75)"><path class="p" d="M15.828,47.223V46.2l-.128.043v1.065Z" transform="translate(-15.7 -46.2)"/></g><g transform="translate(4.304 2.77)"><path class="p" d="M15.828,44.88v-.895L15.7,43.9v1.023Z" transform="translate(-15.7 -43.9)"/></g><g transform="translate(11.89 8.181)"><path class="q" d="M33.5,57.665l.043.043V56.643L33.5,56.6v1.065Z" transform="translate(-33.5 -56.6)"/></g><g transform="translate(4.262 2.727)"><path class="q" d="M15.6,43.8l.043.043.128.085,7.458,4.3h.043Z" transform="translate(-15.6 -43.8)"/></g><g transform="translate(11.89 7.159)"><path class="q" d="M33.543,54.2H33.5v1.023l.043.043Z" transform="translate(-33.5 -54.2)"/></g></g><g class="ac" transform="translate(27.749 15.856)"><g transform="translate(0.469 6.733)"><path class="o" d="M66.2,53.426,66.967,53l.17.085-.767.426Z" transform="translate(-66.2 -53)"/></g><g transform="translate(0.469 7.159)"><path class="p" d="M66.2,55.449V54l.17.085v1.449Z" transform="translate(-66.2 -54)"/></g><g transform="translate(0.639 6.818)"><path class="q" d="M67.367,54.649l-.767.426V53.626l.767-.426Z" transform="translate(-66.6 -53.2)"/></g><g transform="translate(1.79 5.966)"><path class="o" d="M69.3,51.626l.724-.426.17.128-.725.426Z" transform="translate(-69.3 -51.2)"/></g><g transform="translate(1.79 6.392)"><path class="p" d="M69.3,53.649V52.2l.17.128v1.449Z" transform="translate(-69.3 -52.2)"/></g><g transform="translate(1.96 6.093)"><path class="q" d="M70.424,52.949l-.725.426V51.926l.725-.426Z" transform="translate(-69.7 -51.5)"/></g><g transform="translate(3.068 5.241)"><path class="o" d="M72.3,49.926l.724-.426.213.085-.767.426Z" transform="translate(-72.3 -49.5)"/></g><g transform="translate(3.068 5.667)"><path class="p" d="M72.3,51.949V50.5l.17.085v1.449Z" transform="translate(-72.3 -50.5)"/></g><g transform="translate(3.239 5.326)"><path class="q" d="M73.467,51.149l-.767.426V50.126l.767-.426Z" transform="translate(-72.7 -49.7)"/></g><g transform="translate(4.347 4.474)"><path class="o" d="M75.3,48.126l.767-.426.17.128-.724.426Z" transform="translate(-75.3 -47.7)"/></g><g transform="translate(4.347 4.9)"><path class="p" d="M75.3,50.149V48.7l.213.128v1.449Z" transform="translate(-75.3 -48.7)"/></g><g transform="translate(4.56 4.602)"><path class="q" d="M76.524,49.449l-.724.426V48.426L76.524,48Z" transform="translate(-75.8 -48)"/></g><g transform="translate(5.668 3.75)"><path class="o" d="M78.4,46.426,79.124,46l.17.085-.724.426Z" transform="translate(-78.4 -46)"/></g><g transform="translate(5.668 4.176)"><path class="p" d="M78.4,48.449V47l.17.085v1.449Z" transform="translate(-78.4 -47)"/></g><g transform="translate(5.839 3.835)"><path class="q" d="M79.524,47.649l-.724.426V46.626l.724-.426Z" transform="translate(-78.8 -46.2)"/></g><g transform="translate(0.469 3.75)"><path class="r" d="M66.2,53.426v1.449l.17.085.767-.426V53.085L66.967,53Z" transform="translate(-66.2 -50.017)"/><path class="r" d="M69.3,51.626v1.449l.17.128.725-.426V51.328l-.17-.128Z" transform="translate(-67.979 -48.984)"/><path class="r" d="M72.3,49.926v1.449l.17.085.767-.426V49.585l-.213-.085Z" transform="translate(-69.7 -48.009)"/><path class="r" d="M75.3,48.126v1.449l.213.128.724-.426V47.828l-.17-.128Z" transform="translate(-71.422 -46.976)"/><path class="r" d="M79.124,46l-.724.426v1.449l.17.085.724-.426V46.085Z" transform="translate(-73.201 -46)"/></g><g transform="translate(0 2.94)"><path class="q" d="M77.2,44.185,65.1,51.216l.213-.384L76.99,44.1Z" transform="translate(-65.1 -44.1)"/></g><path class="q" d="M65.1,44.188,77.2,37.2l-.213.341-.17.128-.17.085-3.324,1.918-.17.128-.213.085-7.629,4.432Z" transform="translate(-65.1 -37.2)"/><g transform="translate(11.89)"><path class="q" d="M93.213,37.2v3.025L93,40.14v-2.6Z" transform="translate(-93 -37.2)"/></g><g transform="translate(0 6.988)"><path class="q" d="M65.1,56.668V53.6l.213.128v2.557Z" transform="translate(-65.1 -53.6)"/></g><g transform="translate(0.213 2.812)"><path class="o" d="M77.277,43.928,65.6,50.66v-.213l7.842-4.517L77.107,43.8Z" transform="translate(-65.6 -43.8)"/></g><g transform="translate(11.72 0.341)"><path class="p" d="M92.77,38v2.6l-.17-.128V38.128Z" transform="translate(-92.6 -38)"/></g><g transform="translate(8.055 2.685)"><path class="q" d="M87.665,43.628,84,45.758l.213-.384L87.452,43.5Z" transform="translate(-84 -43.5)"/></g><g transform="translate(0.213 4.815)"><path class="q" d="M73.442,48.628,65.6,53.145v-.256L73.229,48.5Z" transform="translate(-65.6 -48.5)"/></g><g transform="translate(11.507 0.469)"><path class="q" d="M92.313,40.644l-.213-.128V38.428l.043-.043.17-.085Z" transform="translate(-92.1 -38.3)"/></g><g transform="translate(8.225 0.554)"><path class="q" d="M87.724,38.5l-.043.043-.256.17L84.443,40.46l-.043-.043Z" transform="translate(-84.4 -38.5)"/></g><g transform="translate(8.055 2.471)"><path class="q" d="M84.17,43l.043.043v2.045L84,45.471V43.128Z" transform="translate(-84 -43)"/></g><g transform="translate(7.842 3.665)"><path class="q" d="M83.713,45.8v1.278l-.213-.128V45.928Z" transform="translate(-83.5 -45.8)"/></g><g transform="translate(7.842 2.599)"><path class="q" d="M83.713,43.3v1.065l-.213.128V43.385Z" transform="translate(-83.5 -43.3)"/></g><g transform="translate(8.268 2.514)"><path class="o" d="M87.739,43.27,84.5,45.145v-.3L87.483,43.1Z" transform="translate(-84.5 -43.1)"/></g><g transform="translate(8.268 0.767)"><path class="s" d="M87.483,40.747,84.5,42.494V40.747L87.483,39Z" transform="translate(-84.5 -39)"/></g><g transform="translate(11.251 0.597)"><path class="p" d="M91.756,40.688l-.256-.17V38.77l.256-.17Z" transform="translate(-91.5 -38.6)"/></g><g transform="translate(0.213 4.73)"><path class="o" d="M73.229,48.385,65.6,52.774v-.128L73.1,48.3Z" transform="translate(-65.6 -48.3)"/></g><g transform="translate(0.213 2.812)"><path class="q" d="M73.1,44.695V43.8l-7.5,4.3v1.918l7.458-4.3V44.695Zm-6.307,3.111v1.449l-.724.426L65.9,49.6V48.146l.724-.426Zm1.279-.724V48.53l-.724.426-.17-.085V47.422L67.9,47Zm1.321-.767v1.449l-.724.426L68.5,48.1V46.655l.725-.426Zm1.279-.724v1.449l-.724.426-.17-.085V45.931L70.5,45.5Zm1.279-.767v1.449l-.725.426-.17-.085V45.164l.724-.426Z" transform="translate(-65.6 -43.8)"/></g><g transform="translate(7.714 3.707)"><path class="p" d="M83.2,46.923V45.9l.128.085v1.023Z" transform="translate(-83.2 -45.9)"/></g><g transform="translate(7.714 2.727)"><path class="p" d="M83.2,44.58v-.895l.128-.085v1.065Z" transform="translate(-83.2 -43.6)"/></g><g transform="translate(0.213 8.181)"><path class="q" d="M65.6,57.423V56.4h0v1.023Z" transform="translate(-65.6 -56.4)"/></g><g transform="translate(0.213 2.685)"><path class="q" d="M73.229,43.5v.043l-.128.085-7.5,4.3h0Z" transform="translate(-65.6 -43.5)"/></g><g transform="translate(0.213 7.116)"><path class="q" d="M65.6,53.9h0v1.065h0Z" transform="translate(-65.6 -53.9)"/></g></g></g><g transform="translate(-278 175)"><g transform="translate(561.357 353.548)"><path class="w" d="M26.268,12.563a.541.541,0,0,1-.834.521,2.11,2.11,0,0,1-.834-1.459.541.541,0,0,1,.834-.521A1.664,1.664,0,0,1,26.268,12.563Z" transform="translate(-24.6 -11.023)"/><path class="w" d="M23.368,14.163a.541.541,0,0,1-.834.521,2.11,2.11,0,0,1-.834-1.459.541.541,0,0,1,.834-.521A1.8,1.8,0,0,1,23.368,14.163Z" transform="translate(-18.677 -10.956)"/><path class="w" d="M20.468,15.863a.541.541,0,0,1-.834.521,2.11,2.11,0,0,1-.834-1.459.541.541,0,0,1,.834-.521A1.917,1.917,0,0,1,20.468,15.863Z" transform="translate(-12.754 -10.883)"/></g><path class="ad" d="M34.042,11.2,28.83,8.181a1.627,1.627,0,0,1-.73-1.355h0c0-.521.313-.834.73-.521l5.212,3.023a1.627,1.627,0,0,1,.73,1.355h0C34.772,11.2,34.459,11.413,34.042,11.2Z" transform="translate(542.248 352.76)"/></g></g></svg>