<svg xmlns="http://www.w3.org/2000/svg" xmlns:xlink="http://www.w3.org/1999/xlink" width="72" height="72" viewBox="0 0 72 72"><defs><style>.a{fill:none;}.b{fill:url(#a);}.c{fill:url(#b);}.d{fill:url(#c);}.e{fill:url(#d);}.f{fill:url(#e);}.g{fill:url(#f);}.h,.w{mix-blend-mode:soft-light;}.h,.o,.p,.w{isolation:isolate;}.i{fill:#ececec;}.j{fill:#656565;}.k{fill:silver;}.l{fill:#8c8c8c;}.m{fill:#303030;}.n{fill:url(#g);}.o{mix-blend-mode:hard-light;}.q{fill:#f6812f;}.r{fill:url(#m);}.s{fill:url(#o);}.t{fill:url(#p);}.u{fill:url(#q);}.v{fill:url(#r);}.w{opacity:0.6;}.x{fill:#faab2d;}</style><linearGradient id="a" x1="-0.239" y1="0.5" x2="1.109" y2="0.5" gradientUnits="objectBoundingBox"><stop offset="0" stop-color="#c2cddd"/><stop offset="1" stop-color="#607aab"/></linearGradient><linearGradient id="b" x1="-0.002" y1="0.5" x2="1" y2="0.5" gradientUnits="objectBoundingBox"><stop offset="0" stop-color="#eaf8fc"/><stop offset="1" stop-color="#e3f9ff"/></linearGradient><linearGradient id="c" y1="0.5" x2="1.002" y2="0.5" gradientUnits="objectBoundingBox"><stop offset="0" stop-color="#fff"/><stop offset="0.506" stop-color="#fff"/><stop offset="0.762" stop-color="#f1f4f7"/><stop offset="1" stop-color="#ccd5e2"/><stop offset="1" stop-color="#999"/></linearGradient><linearGradient id="d" y1="0.499" x2="1" y2="0.499" gradientUnits="objectBoundingBox"><stop offset="0" stop-color="#f4f6f9"/><stop offset="1" stop-color="#bec9da"/></linearGradient><linearGradient id="e" x1="-0.009" y1="0.51" x2="1.005" y2="0.51" gradientUnits="objectBoundingBox"><stop offset="0" stop-color="#eaf8fc"/><stop offset="1" stop-color="#fff"/></linearGradient><linearGradient id="f" x1="-0.001" y1="0.501" x2="1.001" y2="0.501" gradientUnits="objectBoundingBox"><stop offset="0" stop-color="#bec9da"/><stop offset="1" stop-color="#617bac"/></linearGradient><linearGradient id="g" x1="-0.239" y1="0.5" x2="1.109" y2="0.5" gradientUnits="objectBoundingBox"><stop offset="0" stop-color="#fff"/><stop offset="1" stop-color="#b0bcd2"/></linearGradient><linearGradient id="m" x1="0.015" y1="0.5" x2="1.109" y2="0.5" gradientUnits="objectBoundingBox"><stop offset="0" stop-color="#42bce7"/><stop offset="1" stop-color="#0758c1"/></linearGradient><linearGradient id="o" x1="0.5" x2="0.5" y2="1" gradientUnits="objectBoundingBox"><stop offset="0" stop-color="#b6e4f5"/><stop offset="0.607" stop-color="#dbf3fb"/><stop offset="1" stop-color="#f3fcff"/></linearGradient><linearGradient id="p" x1="0.5" x2="0.5" y2="1" gradientUnits="objectBoundingBox"><stop offset="0" stop-color="#fff"/><stop offset="1" stop-color="#94d6f2"/></linearGradient><linearGradient id="q" x1="-0.009" y1="0.51" x2="1.005" y2="0.51" xlink:href="#b"/><linearGradient id="r" x1="-0.001" y1="0.501" x2="1.001" y2="0.501" gradientUnits="objectBoundingBox"><stop offset="0" stop-color="#42bce7"/><stop offset="1" stop-color="#126ac8"/></linearGradient></defs><g transform="translate(-280 -479)"><rect class="a" width="72" height="72" transform="translate(280 479)"/><g transform="translate(-12.011 -12)"><g transform="translate(295.011 513.87)"><path class="b" d="M44.152,26.61l-7.7-4.429a6.553,6.553,0,0,0-3.2-.681h-.068a2.8,2.8,0,0,0-.75.068h-.2c-.273.068-.477.068-.75.136a.25.25,0,0,0-.2.068c-.2.068-.477.136-.681.2-.068,0-.136.068-.2.068l-.818.409L22.347,26.61H0V36.83a1.98,1.98,0,0,0,1.158,1.84l1.363.749h0L30.047,55.293a3.322,3.322,0,0,0,.477.2h0c.068,0,.068,0,.136.068.068,0,.068.068.136.068s.136.068.2.068c.136.068.273.068.409.136.068,0,.136.068.2.068h.136c.136,0,.341.068.477.068h1.431a1.16,1.16,0,0,0,.477-.068.864.864,0,0,0,.409-.068,1.263,1.263,0,0,0,.477-.136c.136,0,.2-.068.341-.068.2-.068.477-.136.681-.2h0c.341-.136.681-.273.954-.409l27.87-16.079c1.158-.681,1.772-1.567,1.7-2.385V26.61Z" transform="translate(0.011 -6.845)"/><path class="c" d="M65.888,21.4a1.2,1.2,0,0,0,.273-.341A.067.067,0,0,1,66.228,21l.2-.409h0c.068-.136.068-.273.136-.409h0v-.409h0A2.164,2.164,0,0,0,65.411,18.2L36.519,1.578a7.691,7.691,0,0,0-6.882.273L1.767,17.929A4.046,4.046,0,0,0,.4,19.156h0c-.068.136-.136.2-.136.341v.068c0,.068-.068.2-.068.273v.477a.41.41,0,0,0,.068.273v.068a.516.516,0,0,0,.136.273V21c.068.068.136.2.2.273l.068.068c-.068.068.068.2.136.273l.068.068c.136.068.2.2.341.273L30.046,38.573a5.448,5.448,0,0,0,2.453.681h.954A8.832,8.832,0,0,0,37,38.3l27.87-16.079a2.884,2.884,0,0,0,.477-.341l.068-.068a2.963,2.963,0,0,0,.477-.409C65.819,21.472,65.819,21.4,65.888,21.4Z" transform="translate(-0.056 -0.276)"/><path class="d" d="M.681,20.572a1.2,1.2,0,0,1-.273-.341.067.067,0,0,0-.068-.068l-.2-.409h0c-.068-.136-.068-.273-.136-.409H0v-.409H0A2.164,2.164,0,0,1,1.158,17.37L30.05.678A7.691,7.691,0,0,1,36.932.95L64.8,17.029a4.046,4.046,0,0,1,1.363,1.226h0c.068.136.136.2.136.341v.068c0,.068.068.2.068.273v.477a.41.41,0,0,1-.068.273v.068a.516.516,0,0,1-.136.273V20.1c-.068.068-.136.2-.2.273l-.068.068-.2.2-.068.068c-.136.068-.2.2-.341.273L36.455,37.673A5.448,5.448,0,0,1,34,38.355h-.954A8.832,8.832,0,0,1,29.5,37.4L1.7,21.322a1.222,1.222,0,0,1-.477-.341l-.068-.068a1.222,1.222,0,0,1-.477-.341Z" transform="translate(0.007 0.011)"/><path class="e" d="M40.027,32.788,26.535,25.021c-.818-.477-.75-1.294.2-1.84l13.015-7.494a3.559,3.559,0,0,1,3.2-.136l13.56,7.7c.818.477.75,1.294-.2,1.84L43.3,32.584A3.52,3.52,0,0,1,40.027,32.788Z" transform="translate(-8.266 -4.847)"/><path class="f" d="M47.6,30.261l-1.84-1.09c-.136-.068-.068-.2,0-.273l1.772-1.022a.582.582,0,0,1,.477,0l1.84,1.09c.136.068.068.2,0,.273L48.08,30.261A.559.559,0,0,1,47.6,30.261Z" transform="translate(-14.547 -8.86)"/><path class="g" d="M26.538,24.989h0c.068,0,.136-.068.2-.136l13.015-7.494a3.559,3.559,0,0,1,3.2-.136l13.492,7.767c.75-.545.818-1.294.068-1.7L43.028,15.451a3.559,3.559,0,0,0-3.2.136L26.811,23.082C25.789,23.695,25.721,24.512,26.538,24.989Z" transform="translate(-8.269 -4.815)"/><g class="h" transform="translate(3.823 25.488)"><g transform="translate(17.103 10.765)"><path class="i" d="M32.2,53.881,31.041,53.2l-.341.2,1.227.681Z" transform="translate(-30.7 -53.2)"/></g><g transform="translate(18.33 11.446)"><path class="j" d="M32.773,56.585V54.2l-.273.2v2.316Z" transform="translate(-32.5 -54.2)"/></g><g transform="translate(17.103 10.969)"><path class="k" d="M30.7,55.816l1.227.681V54.181L30.7,53.5Z" transform="translate(-30.7 -53.5)"/></g><g transform="translate(15.059 9.607)"><path class="i" d="M29.2,52.181,27.973,51.5l-.273.136,1.158.681Z" transform="translate(-27.7 -51.5)"/></g><g transform="translate(16.217 10.288)"><path class="j" d="M29.741,54.816V52.5l-.341.136v2.316Z" transform="translate(-29.4 -52.5)"/></g><g transform="translate(15.059 9.743)"><path class="k" d="M27.7,54.016l1.158.681V52.381L27.7,51.7Z" transform="translate(-27.7 -51.7)"/></g><g transform="translate(13.015 8.38)"><path class="i" d="M26.131,50.381,24.973,49.7l-.273.2,1.158.681Z" transform="translate(-24.7 -49.7)"/></g><g transform="translate(14.173 9.061)"><path class="j" d="M26.673,53.016V50.7l-.273.2v2.316Z" transform="translate(-26.4 -50.7)"/></g><g transform="translate(13.015 8.585)"><path class="k" d="M24.7,52.316,25.858,53V50.681L24.7,50Z" transform="translate(-24.7 -50)"/></g><g transform="translate(10.902 7.222)"><path class="i" d="M23.1,48.681,21.873,48l-.273.136,1.227.681Z" transform="translate(-21.6 -48)"/></g><g transform="translate(12.129 7.903)"><path class="j" d="M23.673,51.316V49l-.273.136v2.316Z" transform="translate(-23.4 -49)"/></g><g transform="translate(10.902 7.358)"><path class="k" d="M21.6,50.516l1.227.681V48.881L21.6,48.2Z" transform="translate(-21.6 -48.2)"/></g><g transform="translate(8.858 5.996)"><path class="i" d="M20.031,46.881,18.873,46.2l-.273.2,1.158.681Z" transform="translate(-18.6 -46.2)"/></g><g transform="translate(10.017 6.677)"><path class="j" d="M20.573,49.516V47.2l-.273.2v2.316Z" transform="translate(-20.3 -47.2)"/></g><g transform="translate(8.858 6.2)"><path class="k" d="M18.6,48.816l1.158.681V47.181L18.6,46.5Z" transform="translate(-18.6 -46.5)"/></g><g transform="translate(8.858 5.996)"><path class="l" d="M32.2,53.881v2.385l-.273.136L30.7,55.721V53.4l.341-.2Z" transform="translate(-22.455 -48.431)"/><path class="l" d="M29.2,52.181V54.5l-.341.136L27.7,53.953V51.636l.273-.136Z" transform="translate(-21.499 -47.889)"/><path class="l" d="M26.131,50.381V52.7l-.273.2L24.7,52.221V49.9l.273-.2Z" transform="translate(-20.543 -47.315)"/><path class="l" d="M23.1,48.681V51l-.273.136L21.6,50.453V48.136L21.873,48Z" transform="translate(-19.556 -46.774)"/><path class="l" d="M18.873,46.2l1.158.681V49.2l-.273.2L18.6,48.721V46.4Z" transform="translate(-18.6 -46.2)"/></g><g transform="translate(0 4.701)"><path class="k" d="M5.6,44.5,25.02,55.678l-.341-.545L5.941,44.3Z" transform="translate(-5.6 -44.3)"/></g><path class="k" d="M25.02,48.642,5.6,37.4l.341.613.273.136.273.2L11.8,41.42l.341.136.273.2,12.265,7.086Z" transform="translate(-5.6 -37.4)"/><path class="k" d="M5.6,37.4v4.905l.341-.2V38.013Z" transform="translate(-5.6 -37.4)"/><g transform="translate(19.079 11.242)"><path class="k" d="M33.941,58.737V53.9l-.341.2v4.088Z" transform="translate(-33.6 -53.9)"/></g><g transform="translate(0.341 4.565)"><path class="i" d="M6.1,44.236,24.839,55.069v-.341L12.3,47.507,6.373,44.1Z" transform="translate(-6.1 -44.1)"/></g><g transform="translate(0.341 0.613)"><path class="j" d="M6.1,38.3v4.088l.273-.136V38.436Z" transform="translate(-6.1 -38.3)"/></g><g transform="translate(0.613 4.36)"><path class="k" d="M6.5,44l5.928,3.407-.341-.613-5.247-3Z" transform="translate(-6.5 -43.8)"/></g><g transform="translate(6.541 7.767)"><path class="k" d="M15.2,49l12.538,7.222v-.341l-.068-.068L15.541,48.8Z" transform="translate(-15.2 -48.8)"/></g><g transform="translate(0.613 0.749)"><path class="k" d="M6.5,42.315l.341-.2V38.773L6.773,38.7,6.5,38.5Z" transform="translate(-6.5 -38.5)"/></g><g transform="translate(0.886 0.954)"><path class="k" d="M6.9,38.8l.068.068.477.273,4.77,2.725h0Z" transform="translate(-6.9 -38.8)"/></g><g transform="translate(6.201 4.02)"><path class="k" d="M14.7,43.3h0v3.338l.341.613V43.436Z" transform="translate(-14.7 -43.3)"/></g><g transform="translate(6.541 5.859)"><path class="k" d="M15.2,46v2.112l.341-.2V46.2Z" transform="translate(-15.2 -46)"/></g><g transform="translate(6.541 4.156)"><path class="k" d="M15.2,43.5v1.7l.341.2V43.773l-.068-.068Z" transform="translate(-15.2 -43.5)"/></g><g transform="translate(0.954 4.088)"><path class="i" d="M7,43.673l5.247,3v-.545L7.477,43.4Z" transform="translate(-7 -43.4)"/></g><g transform="translate(1.431 1.294)"><path class="m" d="M7.7,42.093l4.77,2.725V42.025L7.7,39.3Z" transform="translate(-7.7 -39.3)"/></g><g transform="translate(0.954 1.022)"><path class="j" d="M7,42.238l.477-.273V39.173L7,38.9Z" transform="translate(-7 -38.9)"/></g><g transform="translate(6.882 7.631)"><path class="i" d="M15.7,48.736l12.129,7.018v-.273L15.9,48.6Z" transform="translate(-15.7 -48.6)"/></g><g transform="translate(7.087 4.565)"><path class="k" d="M16,45.531V44.1l11.925,6.881v3.066L16,47.166ZM26.017,50.5v2.316l1.158.681.273-.136V51.049l-1.158-.681Zm-2.044-1.226v2.316l1.158.681.273-.136V49.823l-1.158-.681ZM21.928,48.12v2.316l1.158.681.273-.136V48.665L22.2,47.983Zm-2.112-1.226V49.21l1.158.681.273-.136V47.438l-1.158-.681Zm-2.044-1.158v2.316l1.158.681L19.2,48.6V46.28L18.044,45.6Z" transform="translate(-16 -44.1)"/></g><g transform="translate(6.882 5.996)"><path class="j" d="M15.9,47.835V46.2l-.2.068v1.7Z" transform="translate(-15.7 -46.2)"/></g><g transform="translate(6.882 4.429)"><path class="j" d="M15.9,45.467V44.036l-.2-.136v1.635Z" transform="translate(-15.7 -43.9)"/></g><g transform="translate(19.011 13.081)"><path class="k" d="M33.5,58.3l.068.068v-1.7L33.5,56.6v1.7Z" transform="translate(-33.5 -56.6)"/></g><g transform="translate(6.814 4.36)"><path class="k" d="M15.6,43.8l.068.068.2.136L27.8,50.886h.068Z" transform="translate(-15.6 -43.8)"/></g><g transform="translate(19.011 11.446)"><path class="k" d="M33.568,54.2H33.5v1.635l.068.068Z" transform="translate(-33.5 -54.2)"/></g></g><g class="h" transform="translate(44.367 25.352)"><g transform="translate(0.75 10.765)"><path class="i" d="M66.2,53.681,67.427,53l.273.136-1.227.681Z" transform="translate(-66.2 -53)"/></g><g transform="translate(0.75 11.446)"><path class="j" d="M66.2,56.316V54l.273.136v2.316Z" transform="translate(-66.2 -54)"/></g><g transform="translate(1.022 10.901)"><path class="k" d="M67.827,55.516,66.6,56.2V53.881l1.227-.681Z" transform="translate(-66.6 -53.2)"/></g><g transform="translate(2.862 9.538)"><path class="i" d="M69.3,51.881l1.158-.681.273.2-1.158.681Z" transform="translate(-69.3 -51.2)"/></g><g transform="translate(2.862 10.22)"><path class="j" d="M69.3,54.516V52.2l.273.2v2.316Z" transform="translate(-69.3 -52.2)"/></g><g transform="translate(3.134 9.743)"><path class="k" d="M70.858,53.816,69.7,54.5V52.181l1.158-.681Z" transform="translate(-69.7 -51.5)"/></g><g transform="translate(4.906 8.38)"><path class="i" d="M72.3,50.181l1.158-.681.341.136-1.227.681Z" transform="translate(-72.3 -49.5)"/></g><g transform="translate(4.906 9.061)"><path class="j" d="M72.3,52.816V50.5l.273.136v2.316Z" transform="translate(-72.3 -50.5)"/></g><g transform="translate(5.179 8.516)"><path class="k" d="M73.927,52.016,72.7,52.7V50.381l1.227-.681Z" transform="translate(-72.7 -49.7)"/></g><g transform="translate(6.95 7.154)"><path class="i" d="M75.3,48.381l1.227-.681.273.2-1.158.681Z" transform="translate(-75.3 -47.7)"/></g><g transform="translate(6.95 7.835)"><path class="j" d="M75.3,51.016V48.7l.341.2v2.316Z" transform="translate(-75.3 -48.7)"/></g><g transform="translate(7.291 7.358)"><path class="k" d="M76.958,50.316,75.8,51V48.681L76.958,48Z" transform="translate(-75.8 -48)"/></g><g transform="translate(9.063 5.996)"><path class="i" d="M78.4,46.681,79.558,46l.273.136-1.158.681Z" transform="translate(-78.4 -46)"/></g><g transform="translate(9.063 6.677)"><path class="j" d="M78.4,49.316V47l.273.136v2.316Z" transform="translate(-78.4 -47)"/></g><g transform="translate(9.335 6.132)"><path class="k" d="M79.958,48.516,78.8,49.2V46.881l1.158-.681Z" transform="translate(-78.8 -46.2)"/></g><g transform="translate(0.75 5.996)"><path class="l" d="M66.2,53.681V56l.273.136,1.227-.681V53.136L67.427,53Z" transform="translate(-66.2 -48.231)"/><path class="l" d="M69.3,51.881V54.2l.273.2,1.158-.681V51.4l-.273-.2Z" transform="translate(-67.188 -47.657)"/><path class="l" d="M72.3,50.181V52.5l.273.136,1.227-.681V49.636l-.341-.136Z" transform="translate(-68.143 -47.115)"/><path class="l" d="M75.3,48.381V50.7l.341.2,1.158-.681V47.9l-.273-.2Z" transform="translate(-69.099 -46.542)"/><path class="l" d="M79.558,46l-1.158.681V49l.273.136,1.158-.681V46.136Z" transform="translate(-70.087 -46)"/></g><g transform="translate(0 4.701)"><path class="k" d="M84.452,44.236,65.1,55.478l.341-.613L84.111,44.1Z" transform="translate(-65.1 -44.1)"/></g><path class="k" d="M65.1,48.374,84.452,37.2l-.341.545-.273.2-.273.136-5.315,3.066-.273.2-.341.136-12.2,7.086Z" transform="translate(-65.1 -37.2)"/><g transform="translate(19.011)"><path class="k" d="M93.341,37.2v4.837L93,41.9V37.745Z" transform="translate(-93 -37.2)"/></g><g transform="translate(0 11.174)"><path class="k" d="M65.1,58.505V53.6l.341.2v4.088Z" transform="translate(-65.1 -53.6)"/></g><g transform="translate(0.341 4.497)"><path class="i" d="M84.271,44,65.6,54.769v-.341l12.538-7.222L84,43.8Z" transform="translate(-65.6 -43.8)"/></g><g transform="translate(18.739 0.545)"><path class="j" d="M92.873,38v4.156l-.273-.2V38.2Z" transform="translate(-92.6 -38)"/></g><g transform="translate(12.879 4.292)"><path class="k" d="M89.86,43.7,84,47.111l.341-.613,5.179-3Z" transform="translate(-84 -43.5)"/></g><g transform="translate(0.341 7.699)"><path class="k" d="M78.138,48.7,65.6,55.926v-.409L77.8,48.5Z" transform="translate(-65.6 -48.5)"/></g><g transform="translate(18.398 0.749)"><path class="k" d="M92.441,42.047l-.341-.2V38.5l.068-.068.273-.136Z" transform="translate(-92.1 -38.3)"/></g><g transform="translate(13.151 0.886)"><path class="k" d="M89.715,38.5l-.068.068-.409.273-4.77,2.793-.068-.068Z" transform="translate(-84.4 -38.5)"/></g><g transform="translate(12.879 3.952)"><path class="k" d="M84.273,43l.068.068v3.27L84,46.952V43.2Z" transform="translate(-84 -43)"/></g><g transform="translate(12.538 5.859)"><path class="k" d="M83.841,45.8v2.044l-.341-.2V46Z" transform="translate(-83.5 -45.8)"/></g><g transform="translate(12.538 4.156)"><path class="k" d="M83.841,43.3V45l-.341.2V43.436Z" transform="translate(-83.5 -43.3)"/></g><g transform="translate(13.219 4.02)"><path class="i" d="M89.679,43.373l-5.179,3v-.477L89.27,43.1Z" transform="translate(-84.5 -43.1)"/></g><g transform="translate(13.219 1.226)"><path class="m" d="M89.27,41.793,84.5,44.587V41.793L89.27,39Z" transform="translate(-84.5 -39)"/></g><g transform="translate(17.989 0.954)"><path class="j" d="M91.909,41.938l-.409-.273V38.873l.409-.273Z" transform="translate(-91.5 -38.6)"/></g><g transform="translate(0.341 7.563)"><path class="i" d="M77.8,48.436,65.6,55.454v-.2L77.593,48.3Z" transform="translate(-65.6 -48.3)"/></g><g transform="translate(0.341 4.497)"><path class="k" d="M77.593,45.231V43.8L65.6,50.681v3.066l11.925-6.881V45.231ZM67.508,50.2v2.316L66.35,53.2l-.273-.136V50.749l1.158-.681Zm2.044-1.158v2.316l-1.158.681-.273-.136V49.591l1.158-.681Zm2.112-1.226v2.316l-1.158.681-.273-.136V48.365l1.158-.681Zm2.044-1.158v2.316l-1.158.681-.273-.136V47.207l1.158-.681Zm2.044-1.226v2.316l-1.158.681-.273-.136V45.98L75.48,45.3Z" transform="translate(-65.6 -43.8)"/></g><g transform="translate(12.333 5.927)"><path class="j" d="M83.2,47.535V45.9l.2.136v1.635Z" transform="translate(-83.2 -45.9)"/></g><g transform="translate(12.333 4.36)"><path class="j" d="M83.2,45.167V43.736l.2-.136v1.7Z" transform="translate(-83.2 -43.6)"/></g><g transform="translate(0.341 13.081)"><path class="k" d="M65.6,58.035V56.4h0v1.635Z" transform="translate(-65.6 -56.4)"/></g><g transform="translate(0.341 4.292)"><path class="k" d="M77.8,43.5v.068l-.2.136L65.6,50.586h0Z" transform="translate(-65.6 -43.5)"/></g><g transform="translate(0.341 11.378)"><path class="k" d="M65.6,53.9h0v1.7h0Z" transform="translate(-65.6 -53.9)"/></g></g></g><g transform="translate(295.011 502.758)"><path class="n" d="M44.152,26.612l-7.7-4.43a6.551,6.551,0,0,0-3.2-.682h-.068a2.794,2.794,0,0,0-.75.068h-.2c-.273.068-.477.068-.75.136a.25.25,0,0,0-.2.068c-.2.068-.477.136-.681.2-.068,0-.136.068-.2.068l-.818.409-7.223,4.158H0V36.836a1.98,1.98,0,0,0,1.158,1.84l1.363.75h0L30.047,55.308a3.32,3.32,0,0,0,.477.2h0c.068,0,.068,0,.136.068.068,0,.068.068.136.068s.136.068.2.068c.136.068.273.068.409.136.068,0,.136.068.2.068h.136c.136,0,.341.068.477.068h1.431a1.159,1.159,0,0,0,.477-.068.864.864,0,0,0,.409-.068,1.263,1.263,0,0,0,.477-.136c.136,0,.2-.068.341-.068.2-.068.477-.136.681-.2h0c.341-.136.681-.273.954-.409l27.87-16.086c1.158-.682,1.772-1.568,1.7-2.386V26.612Z" transform="translate(0.011 -6.838)"/><path class="c" d="M65.888,21.413a1.2,1.2,0,0,0,.273-.341A.067.067,0,0,1,66.228,21l.2-.409h0c.068-.136.068-.273.136-.409h0v-.409h0a2.165,2.165,0,0,0-1.158-1.568L36.519,1.578a7.688,7.688,0,0,0-6.882.273L1.767,17.937A4.047,4.047,0,0,0,.4,19.164h0c-.068.136-.136.2-.136.341v.068c0,.068-.068.2-.068.273v.477a.41.41,0,0,0,.068.273v.068a.517.517,0,0,0,.136.273V21c.068.068.136.2.2.273l.068.068c-.068.068.068.2.136.273l.068.068c.136.068.2.2.341.273L30.046,38.589a5.446,5.446,0,0,0,2.453.682h.954A8.829,8.829,0,0,0,37,38.317l27.87-16.086a2.884,2.884,0,0,0,.477-.341l.068-.068a2.963,2.963,0,0,0,.477-.409C65.819,21.481,65.819,21.413,65.888,21.413Z" transform="translate(-0.056 -0.276)"/><path class="d" d="M.681,20.581a1.2,1.2,0,0,1-.273-.341.067.067,0,0,0-.068-.068l-.2-.409h0c-.068-.136-.068-.273-.136-.409H0v-.409H0a2.165,2.165,0,0,1,1.158-1.568L30.05.678a7.688,7.688,0,0,1,6.882.273L64.8,17.037a4.047,4.047,0,0,1,1.363,1.227h0c.068.136.136.2.136.341v.068c0,.068.068.2.068.273v.477a.41.41,0,0,1-.068.273v.068a.517.517,0,0,1-.136.273V20.1c-.068.068-.136.2-.2.273l-.068.068-.2.2-.068.068c-.136.068-.2.2-.341.273l-28.823,16.7A5.446,5.446,0,0,1,34,38.371h-.954a8.829,8.829,0,0,1-3.543-.954L1.7,21.331a1.222,1.222,0,0,1-.477-.341l-.068-.068a1.222,1.222,0,0,1-.477-.341Z" transform="translate(0.007 0.011)"/><path class="e" d="M40.027,32.8l-13.492-7.77c-.818-.477-.75-1.3.2-1.84l13.015-7.5a3.557,3.557,0,0,1,3.2-.136l13.56,7.7c.818.477.75,1.3-.2,1.84L43.3,32.591A3.518,3.518,0,0,1,40.027,32.8Z" transform="translate(-8.266 -4.843)"/><path class="f" d="M47.6,30.262l-1.84-1.091c-.136-.068-.068-.2,0-.273l1.772-1.022a.582.582,0,0,1,.477,0l1.84,1.091c.136.068.068.2,0,.273L48.08,30.262A.559.559,0,0,1,47.6,30.262Z" transform="translate(-14.547 -8.852)"/><path class="g" d="M26.538,24.993h0c.068,0,.136-.068.2-.136l13.015-7.5a3.557,3.557,0,0,1,3.2-.136l13.492,7.77c.75-.545.818-1.3.068-1.7L43.028,15.451a3.557,3.557,0,0,0-3.2.136l-13.015,7.5C25.789,23.7,25.721,24.516,26.538,24.993Z" transform="translate(-8.269 -4.811)"/><g class="o" transform="translate(3.823 25.499)"><g transform="translate(17.103 10.769)"><path class="i" d="M32.2,53.882,31.041,53.2l-.341.2,1.227.682Z" transform="translate(-30.7 -53.2)"/></g><g transform="translate(18.33 11.451)"><path class="j" d="M32.773,56.586V54.2l-.273.2v2.317Z" transform="translate(-32.5 -54.2)"/></g><g transform="translate(17.103 10.974)"><path class="k" d="M30.7,55.817l1.227.682V54.182L30.7,53.5Z" transform="translate(-30.7 -53.5)"/></g><g transform="translate(15.059 9.611)"><path class="i" d="M29.2,52.182,27.973,51.5l-.273.136,1.158.682Z" transform="translate(-27.7 -51.5)"/></g><g transform="translate(16.217 10.292)"><path class="j" d="M29.741,54.817V52.5l-.341.136v2.317Z" transform="translate(-29.4 -52.5)"/></g><g transform="translate(15.059 9.747)"><path class="k" d="M27.7,54.017l1.158.682V52.382L27.7,51.7Z" transform="translate(-27.7 -51.7)"/></g><g transform="translate(13.015 8.384)"><path class="i" d="M26.131,50.382,24.973,49.7l-.273.2,1.158.682Z" transform="translate(-24.7 -49.7)"/></g><g transform="translate(14.173 9.065)"><path class="j" d="M26.673,53.017V50.7l-.273.2v2.317Z" transform="translate(-26.4 -50.7)"/></g><g transform="translate(13.015 8.588)"><path class="k" d="M24.7,52.317,25.858,53V50.682L24.7,50Z" transform="translate(-24.7 -50)"/></g><g transform="translate(10.902 7.225)"><path class="i" d="M23.1,48.682,21.873,48l-.273.136,1.227.682Z" transform="translate(-21.6 -48)"/></g><g transform="translate(12.129 7.907)"><path class="j" d="M23.673,51.317V49l-.273.136v2.317Z" transform="translate(-23.4 -49)"/></g><g transform="translate(10.902 7.361)"><path class="k" d="M21.6,50.517l1.227.682V48.882L21.6,48.2Z" transform="translate(-21.6 -48.2)"/></g><g transform="translate(8.858 5.998)"><path class="i" d="M20.031,46.882,18.873,46.2l-.273.2,1.158.682Z" transform="translate(-18.6 -46.2)"/></g><g transform="translate(10.017 6.68)"><path class="j" d="M20.573,49.517V47.2l-.273.2v2.317Z" transform="translate(-20.3 -47.2)"/></g><g transform="translate(8.858 6.203)"><path class="k" d="M18.6,48.817l1.158.682V47.182L18.6,46.5Z" transform="translate(-18.6 -46.5)"/></g><g transform="translate(8.858 5.998)"><path class="l" d="M32.2,53.882v2.386l-.273.136L30.7,55.722V53.4l.341-.2Z" transform="translate(-22.455 -48.429)"/><path class="l" d="M29.2,52.182V54.5l-.341.136L27.7,53.954V51.636l.273-.136Z" transform="translate(-21.499 -47.888)"/><path class="l" d="M26.131,50.382V52.7l-.273.2L24.7,52.222V49.9l.273-.2Z" transform="translate(-20.543 -47.314)"/><path class="l" d="M23.1,48.682V51l-.273.136L21.6,50.454V48.136L21.873,48Z" transform="translate(-19.556 -46.773)"/><path class="l" d="M18.873,46.2l1.158.682V49.2l-.273.2L18.6,48.722V46.4Z" transform="translate(-18.6 -46.2)"/></g><g transform="translate(0 4.703)"><path class="k" d="M5.6,44.5,25.02,55.683l-.341-.545L5.941,44.3Z" transform="translate(-5.6 -44.3)"/></g><path class="k" d="M25.02,48.646,5.6,37.4l.341.613.273.136.273.2L11.8,41.421l.341.136.273.2,12.265,7.089Z" transform="translate(-5.6 -37.4)"/><path class="k" d="M5.6,37.4v4.908l.341-.2v-4.09Z" transform="translate(-5.6 -37.4)"/><g transform="translate(19.079 11.246)"><path class="k" d="M33.941,58.739V53.9l-.341.2v4.09Z" transform="translate(-33.6 -53.9)"/></g><g transform="translate(0.341 4.567)"><path class="i" d="M6.1,44.236,24.839,55.074v-.341L12.3,47.508,6.373,44.1Z" transform="translate(-6.1 -44.1)"/></g><g transform="translate(0.341 0.613)"><path class="j" d="M6.1,38.3v4.09l.273-.136V38.436Z" transform="translate(-6.1 -38.3)"/></g><g transform="translate(0.613 4.362)"><path class="k" d="M6.5,44l5.928,3.408-.341-.613-5.247-3Z" transform="translate(-6.5 -43.8)"/></g><g transform="translate(6.541 7.77)"><path class="k" d="M15.2,49l12.538,7.225v-.341l-.068-.068L15.541,48.8Z" transform="translate(-15.2 -48.8)"/></g><g transform="translate(0.613 0.75)"><path class="k" d="M6.5,42.317l.341-.2v-3.34L6.773,38.7,6.5,38.5Z" transform="translate(-6.5 -38.5)"/></g><g transform="translate(0.886 0.954)"><path class="k" d="M6.9,38.8l.068.068.477.273,4.77,2.726h0Z" transform="translate(-6.9 -38.8)"/></g><g transform="translate(6.201 4.021)"><path class="k" d="M14.7,43.3h0v3.34l.341.613V43.436Z" transform="translate(-14.7 -43.3)"/></g><g transform="translate(6.541 5.862)"><path class="k" d="M15.2,46v2.113l.341-.2V46.2Z" transform="translate(-15.2 -46)"/></g><g transform="translate(6.541 4.158)"><path class="k" d="M15.2,43.5v1.7l.341.2V43.773l-.068-.068Z" transform="translate(-15.2 -43.5)"/></g><g transform="translate(0.954 4.09)"><path class="i" d="M7,43.673l5.247,3v-.545L7.477,43.4Z" transform="translate(-7 -43.4)"/></g><g class="p" transform="translate(1.431 1.295)"><path class="q" d="M7.7,42.095l4.77,2.726V42.026L7.7,39.3Z" transform="translate(-7.7 -39.3)"/></g><g transform="translate(0.954 1.022)"><path class="j" d="M7,42.24l.477-.273V39.173L7,38.9Z" transform="translate(-7 -38.9)"/></g><g transform="translate(6.882 7.634)"><path class="i" d="M15.7,48.736l12.129,7.021v-.273L15.9,48.6Z" transform="translate(-15.7 -48.6)"/></g><g transform="translate(7.087 4.567)"><path class="k" d="M16,45.531V44.1l11.925,6.884v3.067L16,47.167Zm10.017,4.976v2.317l1.158.682.273-.136V51.052l-1.158-.682ZM23.972,49.28V51.6l1.158.682.273-.136V49.825l-1.158-.682Zm-2.044-1.159v2.317l1.158.682.273-.136V48.667L22.2,47.985Zm-2.112-1.227v2.317l1.158.682.273-.136V47.44l-1.158-.682Zm-2.044-1.159v2.317l1.158.682L19.2,48.6V46.281L18.044,45.6Z" transform="translate(-16 -44.1)"/></g><g transform="translate(6.882 5.998)"><path class="j" d="M15.9,47.836V46.2l-.2.068v1.7Z" transform="translate(-15.7 -46.2)"/></g><g transform="translate(6.882 4.43)"><path class="j" d="M15.9,45.468V44.036l-.2-.136v1.636Z" transform="translate(-15.7 -43.9)"/></g><g transform="translate(19.011 13.087)"><path class="k" d="M33.5,58.3l.068.068v-1.7L33.5,56.6v1.7Z" transform="translate(-33.5 -56.6)"/></g><g transform="translate(6.814 4.362)"><path class="k" d="M15.6,43.8l.068.068.2.136L27.8,50.889h.068Z" transform="translate(-15.6 -43.8)"/></g><g transform="translate(19.011 11.451)"><path class="k" d="M33.568,54.2H33.5v1.636l.068.068Z" transform="translate(-33.5 -54.2)"/></g></g><g class="h" transform="translate(44.367 25.363)"><g transform="translate(0.75 10.769)"><path class="i" d="M66.2,53.682,67.427,53l.273.136-1.227.682Z" transform="translate(-66.2 -53)"/></g><g transform="translate(0.75 11.451)"><path class="j" d="M66.2,56.317V54l.273.136v2.317Z" transform="translate(-66.2 -54)"/></g><g transform="translate(1.022 10.906)"><path class="k" d="M67.827,55.517,66.6,56.2V53.882l1.227-.682Z" transform="translate(-66.6 -53.2)"/></g><g transform="translate(2.862 9.542)"><path class="i" d="M69.3,51.882l1.158-.682.273.2-1.158.682Z" transform="translate(-69.3 -51.2)"/></g><g transform="translate(2.862 10.224)"><path class="j" d="M69.3,54.517V52.2l.273.2v2.317Z" transform="translate(-69.3 -52.2)"/></g><g transform="translate(3.134 9.747)"><path class="k" d="M70.858,53.817,69.7,54.5V52.182l1.158-.682Z" transform="translate(-69.7 -51.5)"/></g><g transform="translate(4.906 8.384)"><path class="i" d="M72.3,50.182l1.158-.682.341.136-1.227.682Z" transform="translate(-72.3 -49.5)"/></g><g transform="translate(4.906 9.065)"><path class="j" d="M72.3,52.817V50.5l.273.136v2.317Z" transform="translate(-72.3 -50.5)"/></g><g transform="translate(5.179 8.52)"><path class="k" d="M73.927,52.017,72.7,52.7V50.382l1.227-.682Z" transform="translate(-72.7 -49.7)"/></g><g transform="translate(6.95 7.157)"><path class="i" d="M75.3,48.382l1.227-.682.273.2-1.158.682Z" transform="translate(-75.3 -47.7)"/></g><g transform="translate(6.95 7.838)"><path class="j" d="M75.3,51.017V48.7l.341.2v2.317Z" transform="translate(-75.3 -48.7)"/></g><g transform="translate(7.291 7.361)"><path class="k" d="M76.958,50.317,75.8,51V48.682L76.958,48Z" transform="translate(-75.8 -48)"/></g><g transform="translate(9.063 5.998)"><path class="i" d="M78.4,46.682,79.558,46l.273.136-1.158.682Z" transform="translate(-78.4 -46)"/></g><g transform="translate(9.063 6.68)"><path class="j" d="M78.4,49.317V47l.273.136v2.317Z" transform="translate(-78.4 -47)"/></g><g transform="translate(9.335 6.134)"><path class="k" d="M79.958,48.517,78.8,49.2V46.882l1.158-.682Z" transform="translate(-78.8 -46.2)"/></g><g transform="translate(0.75 5.998)"><path class="l" d="M66.2,53.682V56l.273.136,1.227-.682V53.136L67.427,53Z" transform="translate(-66.2 -48.229)"/><path class="l" d="M69.3,51.882V54.2l.273.2,1.158-.682V51.4l-.273-.2Z" transform="translate(-67.188 -47.656)"/><path class="l" d="M72.3,50.182V52.5l.273.136,1.227-.682V49.636l-.341-.136Z" transform="translate(-68.143 -47.114)"/><path class="l" d="M75.3,48.382V50.7l.341.2,1.158-.682V47.9l-.273-.2Z" transform="translate(-69.099 -46.541)"/><path class="l" d="M79.558,46l-1.158.682V49l.273.136,1.158-.682V46.136Z" transform="translate(-70.087 -46)"/></g><g transform="translate(0 4.703)"><path class="k" d="M84.452,44.236,65.1,55.483l.341-.613L84.111,44.1Z" transform="translate(-65.1 -44.1)"/></g><path class="k" d="M65.1,48.378,84.452,37.2l-.341.545-.273.2-.273.136-5.315,3.067-.273.2-.341.136-12.2,7.089Z" transform="translate(-65.1 -37.2)"/><g transform="translate(19.011)"><path class="k" d="M93.341,37.2v4.839L93,41.9V37.745Z" transform="translate(-93 -37.2)"/></g><g transform="translate(0 11.178)"><path class="k" d="M65.1,58.508V53.6l.341.2v4.09Z" transform="translate(-65.1 -53.6)"/></g><g transform="translate(0.341 4.499)"><path class="i" d="M84.271,44,65.6,54.774v-.341l12.538-7.225L84,43.8Z" transform="translate(-65.6 -43.8)"/></g><g transform="translate(18.739 0.545)"><path class="j" d="M92.873,38v4.158l-.273-.2V38.2Z" transform="translate(-92.6 -38)"/></g><g transform="translate(12.879 4.294)"><path class="k" d="M89.86,43.7,84,47.113l.341-.613,5.179-3Z" transform="translate(-84 -43.5)"/></g><g transform="translate(0.341 7.702)"><path class="k" d="M78.138,48.7,65.6,55.929v-.409L77.8,48.5Z" transform="translate(-65.6 -48.5)"/></g><g transform="translate(18.398 0.75)"><path class="k" d="M92.441,42.049l-.341-.2V38.5l.068-.068.273-.136Z" transform="translate(-92.1 -38.3)"/></g><g transform="translate(13.151 0.886)"><path class="k" d="M89.715,38.5l-.068.068-.409.273-4.77,2.795-.068-.068Z" transform="translate(-84.4 -38.5)"/></g><g transform="translate(12.879 3.953)"><path class="k" d="M84.273,43l.068.068V46.34L84,46.953V43.2Z" transform="translate(-84 -43)"/></g><g transform="translate(12.538 5.862)"><path class="k" d="M83.841,45.8v2.045l-.341-.2V46Z" transform="translate(-83.5 -45.8)"/></g><g transform="translate(12.538 4.158)"><path class="k" d="M83.841,43.3V45l-.341.2V43.436Z" transform="translate(-83.5 -43.3)"/></g><g transform="translate(13.219 4.021)"><path class="i" d="M89.679,43.373l-5.179,3v-.477L89.27,43.1Z" transform="translate(-84.5 -43.1)"/></g><g transform="translate(13.219 1.227)"><path class="m" d="M89.27,41.795,84.5,44.589V41.795L89.27,39Z" transform="translate(-84.5 -39)"/></g><g transform="translate(17.989 0.954)"><path class="j" d="M91.909,41.94l-.409-.273V38.873l.409-.273Z" transform="translate(-91.5 -38.6)"/></g><g transform="translate(0.341 7.566)"><path class="i" d="M77.8,48.436,65.6,55.457v-.2L77.593,48.3Z" transform="translate(-65.6 -48.3)"/></g><g transform="translate(0.341 4.499)"><path class="k" d="M77.593,45.231V43.8L65.6,50.684v3.067l11.925-6.884V45.231ZM67.508,50.207v2.317l-1.158.682-.273-.136V50.752l1.158-.682Zm2.044-1.159v2.317l-1.158.682-.273-.136V49.594l1.158-.682Zm2.112-1.227v2.317l-1.158.682-.273-.136V48.367l1.158-.682Zm2.044-1.159V48.98l-1.158.682-.273-.136V47.208l1.158-.682Zm2.044-1.227v2.317l-1.158.682-.273-.136V45.981L75.48,45.3Z" transform="translate(-65.6 -43.8)"/></g><g transform="translate(12.333 5.93)"><path class="j" d="M83.2,47.536V45.9l.2.136v1.636Z" transform="translate(-83.2 -45.9)"/></g><g transform="translate(12.333 4.362)"><path class="j" d="M83.2,45.168V43.736l.2-.136v1.7Z" transform="translate(-83.2 -43.6)"/></g><g transform="translate(0.341 13.087)"><path class="k" d="M65.6,58.036V56.4h0v1.636Z" transform="translate(-65.6 -56.4)"/></g><g transform="translate(0.341 4.294)"><path class="k" d="M77.8,43.5v.068l-.2.136L65.6,50.589h0Z" transform="translate(-65.6 -43.5)"/></g><g transform="translate(0.341 11.383)"><path class="k" d="M65.6,53.9h0v1.7h0Z" transform="translate(-65.6 -53.9)"/></g></g></g><g transform="translate(295.011 491)"><path class="r" d="M44.152,26.61l-7.7-4.429a6.553,6.553,0,0,0-3.2-.681h-.068a2.8,2.8,0,0,0-.75.068h-.2c-.273.068-.477.068-.75.136a.25.25,0,0,0-.2.068c-.2.068-.477.136-.681.2-.068,0-.136.068-.2.068l-.818.409L22.347,26.61H0V36.83a1.98,1.98,0,0,0,1.158,1.84l1.363.749h0L30.047,55.293a3.322,3.322,0,0,0,.477.2h0c.068,0,.068,0,.136.068.068,0,.068.068.136.068s.136.068.2.068c.136.068.273.068.409.136.068,0,.136.068.2.068h.136c.136,0,.341.068.477.068h1.431a1.16,1.16,0,0,0,.477-.068.864.864,0,0,0,.409-.068,1.263,1.263,0,0,0,.477-.136c.136,0,.2-.068.341-.068.2-.068.477-.136.681-.2h0c.341-.136.681-.273.954-.409l27.87-16.079c1.158-.681,1.772-1.567,1.7-2.385V26.61Z" transform="translate(0.011 -6.845)"/><path class="c" d="M65.888,21.4a1.2,1.2,0,0,0,.273-.341A.067.067,0,0,1,66.228,21l.2-.409h0c.068-.136.068-.273.136-.409h0v-.409h0A2.164,2.164,0,0,0,65.411,18.2L36.519,1.578a7.691,7.691,0,0,0-6.882.273L1.767,17.929A4.046,4.046,0,0,0,.4,19.156h0c-.068.136-.136.2-.136.341v.068c0,.068-.068.2-.068.273v.477a.41.41,0,0,0,.068.273v.068a.516.516,0,0,0,.136.273V21c.068.068.136.2.2.273l.068.068c-.068.068.068.2.136.273l.068.068c.136.068.2.2.341.273L30.046,38.573a5.448,5.448,0,0,0,2.453.681h.954A8.832,8.832,0,0,0,37,38.3l27.87-16.079a2.884,2.884,0,0,0,.477-.341l.068-.068a2.963,2.963,0,0,0,.477-.409C65.819,21.472,65.819,21.4,65.888,21.4Z" transform="translate(-0.056 -0.276)"/><path class="s" d="M.681,20.572a1.2,1.2,0,0,1-.273-.341.067.067,0,0,0-.068-.068l-.2-.409h0c-.068-.136-.068-.273-.136-.409H0v-.409H0A2.164,2.164,0,0,1,1.158,17.37L30.05.678A7.691,7.691,0,0,1,36.932.95L64.8,17.029a4.046,4.046,0,0,1,1.363,1.226h0c.068.136.136.2.136.341v.068c0,.068.068.2.068.273v.477a.41.41,0,0,1-.068.273v.068a.516.516,0,0,1-.136.273V20.1c-.068.068-.136.2-.2.273l-.068.068-.2.2-.068.068c-.136.068-.2.2-.341.273L36.455,37.673A5.448,5.448,0,0,1,34,38.355h-.954A8.832,8.832,0,0,1,29.5,37.4L1.7,21.322a1.222,1.222,0,0,1-.477-.341l-.068-.068a1.222,1.222,0,0,1-.477-.341Z" transform="translate(0.007 0.011)"/><path class="t" d="M40.027,32.788,26.535,25.021c-.818-.477-.75-1.294.2-1.84l13.015-7.494a3.559,3.559,0,0,1,3.2-.136l13.56,7.7c.818.477.75,1.294-.2,1.84L43.3,32.584A3.52,3.52,0,0,1,40.027,32.788Z" transform="translate(-8.266 -4.847)"/><path class="u" d="M47.6,30.261l-1.84-1.09c-.136-.068-.068-.2,0-.273l1.772-1.022a.582.582,0,0,1,.477,0l1.84,1.09c.136.068.068.2,0,.273L48.08,30.261A.559.559,0,0,1,47.6,30.261Z" transform="translate(-14.547 -8.86)"/><path class="v" d="M26.538,24.989h0c.068,0,.136-.068.2-.136l13.015-7.494a3.559,3.559,0,0,1,3.2-.136l13.492,7.767c.75-.545.818-1.294.068-1.7L43.028,15.451a3.559,3.559,0,0,0-3.2.136L26.811,23.082C25.789,23.695,25.721,24.512,26.538,24.989Z" transform="translate(-8.269 -4.815)"/><g class="w" transform="translate(3.823 25.489)"><g transform="translate(17.103 10.765)"><path class="i" d="M32.2,53.881,31.041,53.2l-.341.2,1.227.681Z" transform="translate(-30.7 -53.2)"/></g><g transform="translate(18.33 11.446)"><path class="j" d="M32.773,56.585V54.2l-.273.2v2.316Z" transform="translate(-32.5 -54.2)"/></g><g transform="translate(17.103 10.969)"><path class="k" d="M30.7,55.816l1.227.681V54.181L30.7,53.5Z" transform="translate(-30.7 -53.5)"/></g><g transform="translate(15.059 9.607)"><path class="i" d="M29.2,52.181,27.973,51.5l-.273.136,1.158.681Z" transform="translate(-27.7 -51.5)"/></g><g transform="translate(16.217 10.288)"><path class="j" d="M29.741,54.816V52.5l-.341.136v2.316Z" transform="translate(-29.4 -52.5)"/></g><g transform="translate(15.059 9.743)"><path class="k" d="M27.7,54.016l1.158.681V52.381L27.7,51.7Z" transform="translate(-27.7 -51.7)"/></g><g transform="translate(13.015 8.38)"><path class="i" d="M26.131,50.381,24.973,49.7l-.273.2,1.158.681Z" transform="translate(-24.7 -49.7)"/></g><g transform="translate(14.173 9.061)"><path class="j" d="M26.673,53.016V50.7l-.273.2v2.316Z" transform="translate(-26.4 -50.7)"/></g><g transform="translate(13.015 8.585)"><path class="k" d="M24.7,52.316,25.858,53V50.681L24.7,50Z" transform="translate(-24.7 -50)"/></g><g transform="translate(10.902 7.222)"><path class="i" d="M23.1,48.681,21.873,48l-.273.136,1.227.681Z" transform="translate(-21.6 -48)"/></g><g transform="translate(12.129 7.903)"><path class="j" d="M23.673,51.316V49l-.273.136v2.316Z" transform="translate(-23.4 -49)"/></g><g transform="translate(10.902 7.358)"><path class="k" d="M21.6,50.516l1.227.681V48.881L21.6,48.2Z" transform="translate(-21.6 -48.2)"/></g><g transform="translate(8.858 5.996)"><path class="i" d="M20.031,46.881,18.873,46.2l-.273.2,1.158.681Z" transform="translate(-18.6 -46.2)"/></g><g transform="translate(10.017 6.677)"><path class="j" d="M20.573,49.516V47.2l-.273.2v2.316Z" transform="translate(-20.3 -47.2)"/></g><g transform="translate(8.858 6.2)"><path class="k" d="M18.6,48.816l1.158.681V47.181L18.6,46.5Z" transform="translate(-18.6 -46.5)"/></g><g transform="translate(8.858 5.996)"><path class="l" d="M32.2,53.881v2.385l-.273.136L30.7,55.721V53.4l.341-.2Z" transform="translate(-22.455 -48.431)"/><path class="l" d="M29.2,52.181V54.5l-.341.136L27.7,53.953V51.636l.273-.136Z" transform="translate(-21.499 -47.889)"/><path class="l" d="M26.131,50.381V52.7l-.273.2L24.7,52.221V49.9l.273-.2Z" transform="translate(-20.543 -47.315)"/><path class="l" d="M23.1,48.681V51l-.273.136L21.6,50.453V48.136L21.873,48Z" transform="translate(-19.556 -46.774)"/><path class="l" d="M18.873,46.2l1.158.681V49.2l-.273.2L18.6,48.721V46.4Z" transform="translate(-18.6 -46.2)"/></g><g transform="translate(0 4.701)"><path class="k" d="M5.6,44.5,25.02,55.678l-.341-.545L5.941,44.3Z" transform="translate(-5.6 -44.3)"/></g><path class="k" d="M25.02,48.642,5.6,37.4l.341.613.273.136.273.2L11.8,41.42l.341.136.273.2,12.265,7.086Z" transform="translate(-5.6 -37.4)"/><path class="k" d="M5.6,37.4v4.905l.341-.2V38.013Z" transform="translate(-5.6 -37.4)"/><g transform="translate(19.079 11.242)"><path class="k" d="M33.941,58.737V53.9l-.341.2v4.088Z" transform="translate(-33.6 -53.9)"/></g><g transform="translate(0.341 4.565)"><path class="i" d="M6.1,44.236,24.839,55.069v-.341L12.3,47.507,6.373,44.1Z" transform="translate(-6.1 -44.1)"/></g><g transform="translate(0.341 0.613)"><path class="j" d="M6.1,38.3v4.088l.273-.136V38.436Z" transform="translate(-6.1 -38.3)"/></g><g transform="translate(0.613 4.36)"><path class="k" d="M6.5,44l5.928,3.407-.341-.613-5.247-3Z" transform="translate(-6.5 -43.8)"/></g><g transform="translate(6.541 7.767)"><path class="k" d="M15.2,49l12.538,7.222v-.341l-.068-.068L15.541,48.8Z" transform="translate(-15.2 -48.8)"/></g><g transform="translate(0.613 0.749)"><path class="k" d="M6.5,42.315l.341-.2V38.773L6.773,38.7,6.5,38.5Z" transform="translate(-6.5 -38.5)"/></g><g transform="translate(0.886 0.954)"><path class="k" d="M6.9,38.8l.068.068.477.273,4.77,2.725h0Z" transform="translate(-6.9 -38.8)"/></g><g transform="translate(6.201 4.02)"><path class="k" d="M14.7,43.3h0v3.338l.341.613V43.436Z" transform="translate(-14.7 -43.3)"/></g><g transform="translate(6.541 5.859)"><path class="k" d="M15.2,46v2.112l.341-.2V46.2Z" transform="translate(-15.2 -46)"/></g><g transform="translate(6.541 4.156)"><path class="k" d="M15.2,43.5v1.7l.341.2V43.773l-.068-.068Z" transform="translate(-15.2 -43.5)"/></g><g transform="translate(0.954 4.088)"><path class="i" d="M7,43.673l5.247,3v-.545L7.477,43.4Z" transform="translate(-7 -43.4)"/></g><g transform="translate(1.431 1.294)"><path class="m" d="M7.7,42.093l4.77,2.725V42.025L7.7,39.3Z" transform="translate(-7.7 -39.3)"/></g><g transform="translate(0.954 1.022)"><path class="j" d="M7,42.238l.477-.273V39.173L7,38.9Z" transform="translate(-7 -38.9)"/></g><g transform="translate(6.882 7.631)"><path class="i" d="M15.7,48.736l12.129,7.018v-.273L15.9,48.6Z" transform="translate(-15.7 -48.6)"/></g><g transform="translate(7.087 4.565)"><path class="k" d="M16,45.531V44.1l11.925,6.881v3.066L16,47.166ZM26.017,50.5v2.316l1.158.681.273-.136V51.049l-1.158-.681Zm-2.044-1.226v2.316l1.158.681.273-.136V49.823l-1.158-.681ZM21.928,48.12v2.316l1.158.681.273-.136V48.665L22.2,47.983Zm-2.112-1.226V49.21l1.158.681.273-.136V47.438l-1.158-.681Zm-2.044-1.158v2.316l1.158.681L19.2,48.6V46.28L18.044,45.6Z" transform="translate(-16 -44.1)"/></g><g transform="translate(6.882 5.996)"><path class="j" d="M15.9,47.835V46.2l-.2.068v1.7Z" transform="translate(-15.7 -46.2)"/></g><g transform="translate(6.882 4.429)"><path class="j" d="M15.9,45.467V44.036l-.2-.136v1.635Z" transform="translate(-15.7 -43.9)"/></g><g transform="translate(19.011 13.081)"><path class="k" d="M33.5,58.3l.068.068v-1.7L33.5,56.6v1.7Z" transform="translate(-33.5 -56.6)"/></g><g transform="translate(6.814 4.36)"><path class="k" d="M15.6,43.8l.068.068.2.136L27.8,50.886h.068Z" transform="translate(-15.6 -43.8)"/></g><g transform="translate(19.011 11.446)"><path class="k" d="M33.568,54.2H33.5v1.635l.068.068Z" transform="translate(-33.5 -54.2)"/></g></g><g class="w" transform="translate(44.367 25.352)"><g transform="translate(0.75 10.765)"><path class="i" d="M66.2,53.681,67.427,53l.273.136-1.227.681Z" transform="translate(-66.2 -53)"/></g><g transform="translate(0.75 11.446)"><path class="j" d="M66.2,56.316V54l.273.136v2.316Z" transform="translate(-66.2 -54)"/></g><g transform="translate(1.022 10.901)"><path class="k" d="M67.827,55.516,66.6,56.2V53.881l1.227-.681Z" transform="translate(-66.6 -53.2)"/></g><g transform="translate(2.862 9.538)"><path class="i" d="M69.3,51.881l1.158-.681.273.2-1.158.681Z" transform="translate(-69.3 -51.2)"/></g><g transform="translate(2.862 10.22)"><path class="j" d="M69.3,54.516V52.2l.273.2v2.316Z" transform="translate(-69.3 -52.2)"/></g><g transform="translate(3.134 9.743)"><path class="k" d="M70.858,53.816,69.7,54.5V52.181l1.158-.681Z" transform="translate(-69.7 -51.5)"/></g><g transform="translate(4.906 8.38)"><path class="i" d="M72.3,50.181l1.158-.681.341.136-1.227.681Z" transform="translate(-72.3 -49.5)"/></g><g transform="translate(4.906 9.061)"><path class="j" d="M72.3,52.816V50.5l.273.136v2.316Z" transform="translate(-72.3 -50.5)"/></g><g transform="translate(5.179 8.516)"><path class="k" d="M73.927,52.016,72.7,52.7V50.381l1.227-.681Z" transform="translate(-72.7 -49.7)"/></g><g transform="translate(6.95 7.154)"><path class="i" d="M75.3,48.381l1.227-.681.273.2-1.158.681Z" transform="translate(-75.3 -47.7)"/></g><g transform="translate(6.95 7.835)"><path class="j" d="M75.3,51.016V48.7l.341.2v2.316Z" transform="translate(-75.3 -48.7)"/></g><g transform="translate(7.291 7.358)"><path class="k" d="M76.958,50.316,75.8,51V48.681L76.958,48Z" transform="translate(-75.8 -48)"/></g><g transform="translate(9.063 5.996)"><path class="i" d="M78.4,46.681,79.558,46l.273.136-1.158.681Z" transform="translate(-78.4 -46)"/></g><g transform="translate(9.063 6.677)"><path class="j" d="M78.4,49.316V47l.273.136v2.316Z" transform="translate(-78.4 -47)"/></g><g transform="translate(9.335 6.132)"><path class="k" d="M79.958,48.516,78.8,49.2V46.881l1.158-.681Z" transform="translate(-78.8 -46.2)"/></g><g transform="translate(0.75 5.996)"><path class="l" d="M66.2,53.681V56l.273.136,1.227-.681V53.136L67.427,53Z" transform="translate(-66.2 -48.231)"/><path class="l" d="M69.3,51.881V54.2l.273.2,1.158-.681V51.4l-.273-.2Z" transform="translate(-67.188 -47.657)"/><path class="l" d="M72.3,50.181V52.5l.273.136,1.227-.681V49.636l-.341-.136Z" transform="translate(-68.143 -47.115)"/><path class="l" d="M75.3,48.381V50.7l.341.2,1.158-.681V47.9l-.273-.2Z" transform="translate(-69.099 -46.542)"/><path class="l" d="M79.558,46l-1.158.681V49l.273.136,1.158-.681V46.136Z" transform="translate(-70.087 -46)"/></g><g transform="translate(0 4.701)"><path class="k" d="M84.452,44.236,65.1,55.478l.341-.613L84.111,44.1Z" transform="translate(-65.1 -44.1)"/></g><path class="k" d="M65.1,48.374,84.452,37.2l-.341.545-.273.2-.273.136-5.315,3.066-.273.2-.341.136-12.2,7.086Z" transform="translate(-65.1 -37.2)"/><g transform="translate(19.011)"><path class="k" d="M93.341,37.2v4.837L93,41.9V37.745Z" transform="translate(-93 -37.2)"/></g><g transform="translate(0 11.174)"><path class="k" d="M65.1,58.505V53.6l.341.2v4.088Z" transform="translate(-65.1 -53.6)"/></g><g transform="translate(0.341 4.497)"><path class="i" d="M84.271,44,65.6,54.769v-.341l12.538-7.222L84,43.8Z" transform="translate(-65.6 -43.8)"/></g><g transform="translate(18.739 0.545)"><path class="j" d="M92.873,38v4.156l-.273-.2V38.2Z" transform="translate(-92.6 -38)"/></g><g transform="translate(12.879 4.292)"><path class="k" d="M89.86,43.7,84,47.111l.341-.613,5.179-3Z" transform="translate(-84 -43.5)"/></g><g transform="translate(0.341 7.699)"><path class="k" d="M78.138,48.7,65.6,55.926v-.409L77.8,48.5Z" transform="translate(-65.6 -48.5)"/></g><g transform="translate(18.398 0.749)"><path class="k" d="M92.441,42.047l-.341-.2V38.5l.068-.068.273-.136Z" transform="translate(-92.1 -38.3)"/></g><g transform="translate(13.151 0.886)"><path class="k" d="M89.715,38.5l-.068.068-.409.273-4.77,2.793-.068-.068Z" transform="translate(-84.4 -38.5)"/></g><g transform="translate(12.879 3.952)"><path class="k" d="M84.273,43l.068.068v3.27L84,46.952V43.2Z" transform="translate(-84 -43)"/></g><g transform="translate(12.538 5.859)"><path class="k" d="M83.841,45.8v2.044l-.341-.2V46Z" transform="translate(-83.5 -45.8)"/></g><g transform="translate(12.538 4.156)"><path class="k" d="M83.841,43.3V45l-.341.2V43.436Z" transform="translate(-83.5 -43.3)"/></g><g transform="translate(13.219 4.02)"><path class="i" d="M89.679,43.373l-5.179,3v-.477L89.27,43.1Z" transform="translate(-84.5 -43.1)"/></g><g transform="translate(13.219 1.226)"><path class="m" d="M89.27,41.793,84.5,44.587V41.793L89.27,39Z" transform="translate(-84.5 -39)"/></g><g transform="translate(17.989 0.954)"><path class="j" d="M91.909,41.938l-.409-.273V38.873l.409-.273Z" transform="translate(-91.5 -38.6)"/></g><g transform="translate(0.341 7.563)"><path class="i" d="M77.8,48.436,65.6,55.454v-.2L77.593,48.3Z" transform="translate(-65.6 -48.3)"/></g><g transform="translate(0.341 4.497)"><path class="k" d="M77.593,45.231V43.8L65.6,50.681v3.066l11.925-6.881V45.231ZM67.508,50.2v2.316L66.35,53.2l-.273-.136V50.749l1.158-.681Zm2.044-1.158v2.316l-1.158.681-.273-.136V49.591l1.158-.681Zm2.112-1.226v2.316l-1.158.681-.273-.136V48.365l1.158-.681Zm2.044-1.158v2.316l-1.158.681-.273-.136V47.207l1.158-.681Zm2.044-1.226v2.316l-1.158.681-.273-.136V45.98L75.48,45.3Z" transform="translate(-65.6 -43.8)"/></g><g transform="translate(12.333 5.927)"><path class="j" d="M83.2,47.535V45.9l.2.136v1.635Z" transform="translate(-83.2 -45.9)"/></g><g transform="translate(12.333 4.36)"><path class="j" d="M83.2,45.167V43.736l.2-.136v1.7Z" transform="translate(-83.2 -43.6)"/></g><g transform="translate(0.341 13.081)"><path class="k" d="M65.6,58.035V56.4h0v1.635Z" transform="translate(-65.6 -56.4)"/></g><g transform="translate(0.341 4.292)"><path class="k" d="M77.8,43.5v.068l-.2.136L65.6,50.586h0Z" transform="translate(-65.6 -43.5)"/></g><g transform="translate(0.341 11.378)"><path class="k" d="M65.6,53.9h0v1.7h0Z" transform="translate(-65.6 -53.9)"/></g></g></g></g><g class="p" transform="translate(288.254 517.553)"><path class="x" d="M7.7,42.095l4.77,2.726V42.026L7.7,39.3Z" transform="translate(-7.7 -39.3)"/></g></g></svg>