<svg xmlns="http://www.w3.org/2000/svg" xmlns:xlink="http://www.w3.org/1999/xlink" width="72" height="72" viewBox="0 0 72 72"><defs><style>.a{fill:none;opacity:0.2;}.b{fill:url(#a);}.c{fill:url(#b);}.d{fill:url(#c);}.e{fill:url(#e);}.f{fill:url(#f);}.g{fill:url(#g);}.h,.i,.j,.k{fill-rule:evenodd;}.h{fill:url(#h);}.i{fill:#f6812f;}.j{fill:#faa433;}.k{fill:#fcb623;}</style><linearGradient id="a" x1="0.5" x2="0.5" y2="1" gradientUnits="objectBoundingBox"><stop offset="0" stop-color="#fbb03b"/><stop offset="1" stop-color="#f15a24"/></linearGradient><linearGradient id="b" x1="1.099" x2="0" y2="1.065" gradientUnits="objectBoundingBox"><stop offset="0" stop-color="#8cd3f1"/><stop offset="1" stop-color="#085ac2"/></linearGradient><linearGradient id="c" x1="0.287" x2="0.683" y2="1" gradientUnits="objectBoundingBox"><stop offset="0" stop-color="#3ab2e1"/><stop offset="1" stop-color="#94d6f2"/></linearGradient><linearGradient id="e" x1="0.386" y1="0.148" x2="0.861" y2="0.882" gradientUnits="objectBoundingBox"><stop offset="0" stop-color="#43bee8"/><stop offset="1" stop-color="#0d66c5"/></linearGradient><linearGradient id="f" x1="0.306" y1="0.27" x2="0.85" y2="1" gradientUnits="objectBoundingBox"><stop offset="0" stop-color="#40bae6"/><stop offset="1" stop-color="#97d7f2"/></linearGradient><linearGradient id="g" x1="1" y1="0.94" x2="0.056" y2="0.071" gradientUnits="objectBoundingBox"><stop offset="0" stop-color="#5c77ab"/><stop offset="1" stop-color="#fdfdfe"/></linearGradient><linearGradient id="h" x1="0.028" y1="0.093" x2="0.837" y2="1.195" gradientUnits="objectBoundingBox"><stop offset="0" stop-color="#fff"/><stop offset="0.443" stop-color="#f9fcff"/><stop offset="1" stop-color="#c5e7ff"/></linearGradient></defs><g transform="translate(-443 -50)"><g transform="translate(237 -2081)"><rect class="a" width="72" height="72" transform="translate(206 2131)"/><g transform="translate(-8 -10)"><path class="b" d="M18.148,0l11.6,6.7L22.743,10.74l-11.6-6.7Z" transform="translate(224.894 2174)"/><path class="c" d="M16.983,37.615l5-18.1,6.973-3.974-5,18.1Z" transform="translate(225.6 2165.205)"/><path class="d" d="M11.6,24.8l5-18.1L5,0,0,18.1l5.394-.995Z" transform="translate(231 2178)"/></g><g transform="translate(12)"><path class="b" d="M18.148,0l11.6,6.7L22.743,10.74l-11.6-6.7Z" transform="translate(214.894 2174)"/><path class="e" d="M16.983,37.615l-5-18.1,6.973-3.974,5,18.1Z" transform="translate(225.6 2165.205)"/><path class="f" d="M11.6,24.8,6.6,6.7-5,0,.405,20.691l4.9-1.736Z" transform="translate(231 2178)"/></g><g transform="translate(0 0.272)"><path class="g" d="M7778,22180.529l6.4-3.32,5.539-2.723.02,0,4.51-2.246a2.171,2.171,0,0,1,.764-.229,4.282,4.282,0,0,1,3.4,1.785,2.262,2.262,0,0,0,1.149.775l1.573-.785a2.539,2.539,0,0,1,2.488.072,7.109,7.109,0,0,1,3.041,3.441c.5,1.094,1.422,1.818,2.17,1.7a4.05,4.05,0,0,1,3.4,1.623,8.594,8.594,0,0,1,2.075,4.418,3.528,3.528,0,0,0,1.735,2.605,6.911,6.911,0,0,1,3.1,3.324,7.105,7.105,0,0,1,.7,4.52,3.548,3.548,0,0,0,.965,2.99,8.535,8.535,0,0,1,2.17,4.367,4.21,4.21,0,0,1-.814,3.732,2.5,2.5,0,0,0,0,2.783,7.285,7.285,0,0,1,.814,4.547,2.4,2.4,0,0,1-2.17,2.2c-.775.033-1.183.893-.965,2.025a4.43,4.43,0,0,1-.7,3.822,2.19,2.19,0,0,1-.6.451l-4.926,2.465a1.656,1.656,0,0,0,.194-.113l-6.219,3.137Z" transform="translate(-7554.474 -20041.27)"/><path class="h" d="M48.723,18.415a7.152,7.152,0,0,0-3.04-3.44,2.361,2.361,0,0,0-3.04.4h0c-.5.6-1.422.4-2.167-.464h0a4.281,4.281,0,0,0-3.4-1.782A2.479,2.479,0,0,0,35,15.474h0a1.093,1.093,0,0,1-1.737.866h0a2.429,2.429,0,0,0-3.095.231,4.425,4.425,0,0,0-.7,3.825h0c.218,1.129-.192,1.989-.965,2.024h0a2.4,2.4,0,0,0-2.173,2.2,7.308,7.308,0,0,0,.819,4.548h0a2.506,2.506,0,0,1,0,2.781h0a4.192,4.192,0,0,0-.819,3.728,8.573,8.573,0,0,0,2.173,4.37h0a3.555,3.555,0,0,1,.965,2.99h0a7.074,7.074,0,0,0,.7,4.52,6.949,6.949,0,0,0,3.095,3.326h0A3.516,3.516,0,0,1,35,53.484h0A8.6,8.6,0,0,0,37.07,57.9a4.064,4.064,0,0,0,3.4,1.624h0c.746-.12,1.666.6,2.167,1.7h0a7.151,7.151,0,0,0,3.04,3.44,2.361,2.361,0,0,0,3.04-.4h0c.5-.6,1.422-.4,2.167.464h0a4.281,4.281,0,0,0,3.4,1.782,2.479,2.479,0,0,0,2.073-2.346h0a1.093,1.093,0,0,1,1.737-.866h0a2.429,2.429,0,0,0,3.095-.231,4.425,4.425,0,0,0,.7-3.825h0c-.218-1.129.192-1.989.963-2.024h0a2.4,2.4,0,0,0,2.173-2.2,7.311,7.311,0,0,0-.819-4.548h0a2.506,2.506,0,0,1,0-2.781h0a4.2,4.2,0,0,0,.819-3.728A8.588,8.588,0,0,0,62.86,39.6h0a3.547,3.547,0,0,1-.963-2.99h0a7.074,7.074,0,0,0-.7-4.52,6.94,6.94,0,0,0-3.095-3.326h0a3.516,3.516,0,0,1-1.737-2.6h0A8.6,8.6,0,0,0,54.3,21.742a4.067,4.067,0,0,0-3.4-1.624h0c-.746.118-1.666-.6-2.167-1.7Z" transform="translate(192.765 2123.079)"/></g></g><g transform="translate(0 -1)"><path class="i" d="M-317.436-96.9l1.4.961a.209.209,0,0,1,.054.056.24.24,0,0,1,.033.075.139.139,0,0,1,0,.069.056.056,0,0,1-.028.037h0l-1.056.465h0a.117.117,0,0,0-.063.071v0a.27.27,0,0,0,0,.131l.309,1.764h0a.125.125,0,0,1,0,.065.052.052,0,0,1-.033.032h0a.076.076,0,0,1-.055-.008.192.192,0,0,1-.056-.049l-1.212-1.528a.409.409,0,0,0-.112-.1h0a.185.185,0,0,0-.112-.028l-1.211.13a.09.09,0,0,1-.056-.016.194.194,0,0,1-.055-.054.24.24,0,0,1-.036-.074.148.148,0,0,1,0-.07l.307-1.409a.305.305,0,0,0,0-.136.506.506,0,0,0-.064-.148l-1.057-1.685a.235.235,0,0,1-.032-.075.13.13,0,0,1,0-.066.054.054,0,0,1,.033-.037.073.073,0,0,1,.054.006l1.4.656a.161.161,0,0,0,.108.016.109.109,0,0,0,.069-.058l0,0,.558-1.171a.053.053,0,0,1,.037-.031.086.086,0,0,1,.056.014h0a.191.191,0,0,1,.056.051.245.245,0,0,1,.037.074h0l.559,1.816a.516.516,0,0,0,.072.146.444.444,0,0,0,.108.109h0Z" transform="translate(784.594 176.107)"/><path class="j" d="M-317.436-96.9l1.4.961a.209.209,0,0,1,.054.056.24.24,0,0,1,.033.075.139.139,0,0,1,0,.069.056.056,0,0,1-.028.037h0l-1.056.465h0a.117.117,0,0,0-.063.071v0a.27.27,0,0,0,0,.131l.309,1.764h0a.125.125,0,0,1,0,.065.052.052,0,0,1-.033.032h0a.076.076,0,0,1-.055-.008.192.192,0,0,1-.056-.049l-1.212-1.528a.409.409,0,0,0-.112-.1h0a.185.185,0,0,0-.112-.028l-1.211.13a.09.09,0,0,1-.056-.016.194.194,0,0,1-.055-.054.24.24,0,0,1-.036-.074.148.148,0,0,1,0-.07l.307-1.409a.305.305,0,0,0,0-.136.506.506,0,0,0-.064-.148l-1.057-1.685a.235.235,0,0,1-.032-.075.13.13,0,0,1,0-.066.054.054,0,0,1,.033-.037.073.073,0,0,1,.054.006l1.4.656a.161.161,0,0,0,.108.016.109.109,0,0,0,.069-.058l0,0,.558-1.171a.053.053,0,0,1,.037-.031.086.086,0,0,1,.056.014h0a.191.191,0,0,1,.056.051.245.245,0,0,1,.037.074h0l.559,1.816a.516.516,0,0,0,.072.146.444.444,0,0,0,.108.109h0Z" transform="translate(792.594 181.107)"/><path class="k" d="M-317.436-96.9l1.4.961a.209.209,0,0,1,.054.056.24.24,0,0,1,.033.075.139.139,0,0,1,0,.069.056.056,0,0,1-.028.037h0l-1.056.465h0a.117.117,0,0,0-.063.071v0a.27.27,0,0,0,0,.131l.309,1.764h0a.125.125,0,0,1,0,.065.052.052,0,0,1-.033.032h0a.076.076,0,0,1-.055-.008.192.192,0,0,1-.056-.049l-1.212-1.528a.409.409,0,0,0-.112-.1h0a.185.185,0,0,0-.112-.028l-1.211.13a.09.09,0,0,1-.056-.016.194.194,0,0,1-.055-.054.24.24,0,0,1-.036-.074.148.148,0,0,1,0-.07l.307-1.409a.305.305,0,0,0,0-.136.506.506,0,0,0-.064-.148l-1.057-1.685a.235.235,0,0,1-.032-.075.13.13,0,0,1,0-.066.054.054,0,0,1,.033-.037.073.073,0,0,1,.054.006l1.4.656a.161.161,0,0,0,.108.016.109.109,0,0,0,.069-.058l0,0,.558-1.171a.053.053,0,0,1,.037-.031.086.086,0,0,1,.056.014h0a.191.191,0,0,1,.056.051.245.245,0,0,1,.037.074h0l.559,1.816a.516.516,0,0,0,.072.146.444.444,0,0,0,.108.109h0Z" transform="translate(800.594 186.107)"/></g></g></svg>