<?xml version="1.0" encoding="UTF-8"?>
<svg width="55px" height="35px" viewBox="0 0 55 35" version="1.1" xmlns="http://www.w3.org/2000/svg" xmlns:xlink="http://www.w3.org/1999/xlink">
    <!-- Generator: Sketch 63.1 (92452) - https://sketch.com -->
    <title>形状结合</title>
    <desc>Created with Sketch.</desc>
    <g id="页面-1" stroke="none" stroke-width="1" fill="none" fill-rule="evenodd" fill-opacity="0.120028409">
        <g id="腾讯云企业中心_PC端" transform="translate(-974.000000, -1103.000000)" fill="#CFE9FF">
            <g id="企业权益" transform="translate(370.000000, 889.000000)">
                <g id="编组-2" transform="translate(596.000000, 97.000000)">
                    <path d="M61.75,149.375 C62.4403559,149.375 63,149.962626 63,150.6875 C63,151.412374 62.4403559,152 61.75,152 C61.0596441,152 60.5,151.412374 60.5,150.6875 C60.5,149.962626 61.0596441,149.375 61.75,149.375 Z M54.25,149.375 C54.9403559,149.375 55.5,149.962626 55.5,150.6875 C55.5,151.412374 54.9403559,152 54.25,152 C53.5596441,152 53,151.412374 53,150.6875 C53,149.962626 53.5596441,149.375 54.25,149.375 Z M46.75,149.375 C47.4403559,149.375 48,149.962626 48,150.6875 C48,151.412374 47.4403559,152 46.75,152 C46.0596441,152 45.5,151.412374 45.5,150.6875 C45.5,149.962626 46.0596441,149.375 46.75,149.375 Z M39.25,149.375 C39.9403559,149.375 40.5,149.962626 40.5,150.6875 C40.5,151.412374 39.9403559,152 39.25,152 C38.5596441,152 38,151.412374 38,150.6875 C38,149.962626 38.5596441,149.375 39.25,149.375 Z M31.75,149.375 C32.4403559,149.375 33,149.962626 33,150.6875 C33,151.412374 32.4403559,152 31.75,152 C31.0596441,152 30.5,151.412374 30.5,150.6875 C30.5,149.962626 31.0596441,149.375 31.75,149.375 Z M24.25,149.375 C24.9403559,149.375 25.5,149.962626 25.5,150.6875 C25.5,151.412374 24.9403559,152 24.25,152 C23.5596441,152 23,151.412374 23,150.6875 C23,149.962626 23.5596441,149.375 24.25,149.375 Z M16.75,149.375 C17.4403559,149.375 18,149.962626 18,150.6875 C18,151.412374 17.4403559,152 16.75,152 C16.0596441,152 15.5,151.412374 15.5,150.6875 C15.5,149.962626 16.0596441,149.375 16.75,149.375 Z M9.25,149.375 C9.94035594,149.375 10.5,149.962626 10.5,150.6875 C10.5,151.412374 9.94035594,152 9.25,152 C8.55964406,152 8,151.412374 8,150.6875 C8,149.962626 8.55964406,149.375 9.25,149.375 Z M61.75,143.25 C62.4403559,143.25 63,143.837626 63,144.5625 C63,145.287374 62.4403559,145.875 61.75,145.875 C61.0596441,145.875 60.5,145.287374 60.5,144.5625 C60.5,143.837626 61.0596441,143.25 61.75,143.25 Z M54.25,143.25 C54.9403559,143.25 55.5,143.837626 55.5,144.5625 C55.5,145.287374 54.9403559,145.875 54.25,145.875 C53.5596441,145.875 53,145.287374 53,144.5625 C53,143.837626 53.5596441,143.25 54.25,143.25 Z M46.75,143.25 C47.4403559,143.25 48,143.837626 48,144.5625 C48,145.287374 47.4403559,145.875 46.75,145.875 C46.0596441,145.875 45.5,145.287374 45.5,144.5625 C45.5,143.837626 46.0596441,143.25 46.75,143.25 Z M39.25,143.25 C39.9403559,143.25 40.5,143.837626 40.5,144.5625 C40.5,145.287374 39.9403559,145.875 39.25,145.875 C38.5596441,145.875 38,145.287374 38,144.5625 C38,143.837626 38.5596441,143.25 39.25,143.25 Z M31.75,143.25 C32.4403559,143.25 33,143.837626 33,144.5625 C33,145.287374 32.4403559,145.875 31.75,145.875 C31.0596441,145.875 30.5,145.287374 30.5,144.5625 C30.5,143.837626 31.0596441,143.25 31.75,143.25 Z M24.25,143.25 C24.9403559,143.25 25.5,143.837626 25.5,144.5625 C25.5,145.287374 24.9403559,145.875 24.25,145.875 C23.5596441,145.875 23,145.287374 23,144.5625 C23,143.837626 23.5596441,143.25 24.25,143.25 Z M16.75,143.25 C17.4403559,143.25 18,143.837626 18,144.5625 C18,145.287374 17.4403559,145.875 16.75,145.875 C16.0596441,145.875 15.5,145.287374 15.5,144.5625 C15.5,143.837626 16.0596441,143.25 16.75,143.25 Z M9.25,143.25 C9.94035594,143.25 10.5,143.837626 10.5,144.5625 C10.5,145.287374 9.94035594,145.875 9.25,145.875 C8.55964406,145.875 8,145.287374 8,144.5625 C8,143.837626 8.55964406,143.25 9.25,143.25 Z M54.25,136.25 C54.9403559,136.25 55.5,136.837626 55.5,137.5625 C55.5,138.287374 54.9403559,138.875 54.25,138.875 C53.5596441,138.875 53,138.287374 53,137.5625 C53,136.837626 53.5596441,136.25 54.25,136.25 Z M46.75,136.25 C47.4403559,136.25 48,136.837626 48,137.5625 C48,138.287374 47.4403559,138.875 46.75,138.875 C46.0596441,138.875 45.5,138.287374 45.5,137.5625 C45.5,136.837626 46.0596441,136.25 46.75,136.25 Z M39.25,136.25 C39.9403559,136.25 40.5,136.837626 40.5,137.5625 C40.5,138.287374 39.9403559,138.875 39.25,138.875 C38.5596441,138.875 38,138.287374 38,137.5625 C38,136.837626 38.5596441,136.25 39.25,136.25 Z M31.75,136.25 C32.4403559,136.25 33,136.837626 33,137.5625 C33,138.287374 32.4403559,138.875 31.75,138.875 C31.0596441,138.875 30.5,138.287374 30.5,137.5625 C30.5,136.837626 31.0596441,136.25 31.75,136.25 Z M24.25,136.25 C24.9403559,136.25 25.5,136.837626 25.5,137.5625 C25.5,138.287374 24.9403559,138.875 24.25,138.875 C23.5596441,138.875 23,138.287374 23,137.5625 C23,136.837626 23.5596441,136.25 24.25,136.25 Z M16.75,136.25 C17.4403559,136.25 18,136.837626 18,137.5625 C18,138.287374 17.4403559,138.875 16.75,138.875 C16.0596441,138.875 15.5,138.287374 15.5,137.5625 C15.5,136.837626 16.0596441,136.25 16.75,136.25 Z M9.25,136.25 C9.94035594,136.25 10.5,136.837626 10.5,137.5625 C10.5,138.287374 9.94035594,138.875 9.25,138.875 C8.55964406,138.875 8,138.287374 8,137.5625 C8,136.837626 8.55964406,136.25 9.25,136.25 Z M61.75,136.25 C62.4403559,136.25 63,136.837626 63,137.5625 C63,138.287374 62.4403559,138.875 61.75,138.875 C61.0596441,138.875 60.5,138.287374 60.5,137.5625 C60.5,136.837626 61.0596441,136.25 61.75,136.25 Z M61.75,130.125 C62.4403559,130.125 63,130.712626 63,131.4375 C63,132.162374 62.4403559,132.75 61.75,132.75 C61.0596441,132.75 60.5,132.162374 60.5,131.4375 C60.5,130.712626 61.0596441,130.125 61.75,130.125 Z M54.25,130.125 C54.9403559,130.125 55.5,130.712626 55.5,131.4375 C55.5,132.162374 54.9403559,132.75 54.25,132.75 C53.5596441,132.75 53,132.162374 53,131.4375 C53,130.712626 53.5596441,130.125 54.25,130.125 Z M46.75,130.125 C47.4403559,130.125 48,130.712626 48,131.4375 C48,132.162374 47.4403559,132.75 46.75,132.75 C46.0596441,132.75 45.5,132.162374 45.5,131.4375 C45.5,130.712626 46.0596441,130.125 46.75,130.125 Z M39.25,130.125 C39.9403559,130.125 40.5,130.712626 40.5,131.4375 C40.5,132.162374 39.9403559,132.75 39.25,132.75 C38.5596441,132.75 38,132.162374 38,131.4375 C38,130.712626 38.5596441,130.125 39.25,130.125 Z M31.75,130.125 C32.4403559,130.125 33,130.712626 33,131.4375 C33,132.162374 32.4403559,132.75 31.75,132.75 C31.0596441,132.75 30.5,132.162374 30.5,131.4375 C30.5,130.712626 31.0596441,130.125 31.75,130.125 Z M24.25,130.125 C24.9403559,130.125 25.5,130.712626 25.5,131.4375 C25.5,132.162374 24.9403559,132.75 24.25,132.75 C23.5596441,132.75 23,132.162374 23,131.4375 C23,130.712626 23.5596441,130.125 24.25,130.125 Z M16.75,130.125 C17.4403559,130.125 18,130.712626 18,131.4375 C18,132.162374 17.4403559,132.75 16.75,132.75 C16.0596441,132.75 15.5,132.162374 15.5,131.4375 C15.5,130.712626 16.0596441,130.125 16.75,130.125 Z M9.25,130.125 C9.94035594,130.125 10.5,130.712626 10.5,131.4375 C10.5,132.162374 9.94035594,132.75 9.25,132.75 C8.55964406,132.75 8,132.162374 8,131.4375 C8,130.712626 8.55964406,130.125 9.25,130.125 Z M39.25,123.125 C39.9403559,123.125 40.5,123.712626 40.5,124.4375 C40.5,125.162374 39.9403559,125.75 39.25,125.75 C38.5596441,125.75 38,125.162374 38,124.4375 C38,123.712626 38.5596441,123.125 39.25,123.125 Z M16.75,123.125 C17.4403559,123.125 18,123.712626 18,124.4375 C18,125.162374 17.4403559,125.75 16.75,125.75 C16.0596441,125.75 15.5,125.162374 15.5,124.4375 C15.5,123.712626 16.0596441,123.125 16.75,123.125 Z M24.25,123.125 C24.9403559,123.125 25.5,123.712626 25.5,124.4375 C25.5,125.162374 24.9403559,125.75 24.25,125.75 C23.5596441,125.75 23,125.162374 23,124.4375 C23,123.712626 23.5596441,123.125 24.25,123.125 Z M31.75,123.125 C32.4403559,123.125 33,123.712626 33,124.4375 C33,125.162374 32.4403559,125.75 31.75,125.75 C31.0596441,125.75 30.5,125.162374 30.5,124.4375 C30.5,123.712626 31.0596441,123.125 31.75,123.125 Z M54.25,123.125 C54.9403559,123.125 55.5,123.712626 55.5,124.4375 C55.5,125.162374 54.9403559,125.75 54.25,125.75 C53.5596441,125.75 53,125.162374 53,124.4375 C53,123.712626 53.5596441,123.125 54.25,123.125 Z M61.75,123.125 C62.4403559,123.125 63,123.712626 63,124.4375 C63,125.162374 62.4403559,125.75 61.75,125.75 C61.0596441,125.75 60.5,125.162374 60.5,124.4375 C60.5,123.712626 61.0596441,123.125 61.75,123.125 Z M9.25,123.125 C9.94035594,123.125 10.5,123.712626 10.5,124.4375 C10.5,125.162374 9.94035594,125.75 9.25,125.75 C8.55964406,125.75 8,125.162374 8,124.4375 C8,123.712626 8.55964406,123.125 9.25,123.125 Z M46.75,123.125 C47.4403559,123.125 48,123.712626 48,124.4375 C48,125.162374 47.4403559,125.75 46.75,125.75 C46.0596441,125.75 45.5,125.162374 45.5,124.4375 C45.5,123.712626 46.0596441,123.125 46.75,123.125 Z M31.75,117 C32.4403559,117 33,117.587626 33,118.3125 C33,119.037374 32.4403559,119.625 31.75,119.625 C31.0596441,119.625 30.5,119.037374 30.5,118.3125 C30.5,117.587626 31.0596441,117 31.75,117 Z M39.25,117 C39.9403559,117 40.5,117.587626 40.5,118.3125 C40.5,119.037374 39.9403559,119.625 39.25,119.625 C38.5596441,119.625 38,119.037374 38,118.3125 C38,117.587626 38.5596441,117 39.25,117 Z M46.75,117 C47.4403559,117 48,117.587626 48,118.3125 C48,119.037374 47.4403559,119.625 46.75,119.625 C46.0596441,119.625 45.5,119.037374 45.5,118.3125 C45.5,117.587626 46.0596441,117 46.75,117 Z M54.25,117 C54.9403559,117 55.5,117.587626 55.5,118.3125 C55.5,119.037374 54.9403559,119.625 54.25,119.625 C53.5596441,119.625 53,119.037374 53,118.3125 C53,117.587626 53.5596441,117 54.25,117 Z M61.75,117 C62.4403559,117 63,117.587626 63,118.3125 C63,119.037374 62.4403559,119.625 61.75,119.625 C61.0596441,119.625 60.5,119.037374 60.5,118.3125 C60.5,117.587626 61.0596441,117 61.75,117 Z M9.25,117 C9.94035594,117 10.5,117.587626 10.5,118.3125 C10.5,119.037374 9.94035594,119.625 9.25,119.625 C8.55964406,119.625 8,119.037374 8,118.3125 C8,117.587626 8.55964406,117 9.25,117 Z M16.75,117 C17.4403559,117 18,117.587626 18,118.3125 C18,119.037374 17.4403559,119.625 16.75,119.625 C16.0596441,119.625 15.5,119.037374 15.5,118.3125 C15.5,117.587626 16.0596441,117 16.75,117 Z M24.25,117 C24.9403559,117 25.5,117.587626 25.5,118.3125 C25.5,119.037374 24.9403559,119.625 24.25,119.625 C23.5596441,119.625 23,119.037374 23,118.3125 C23,117.587626 23.5596441,117 24.25,117 Z" id="形状结合"></path>
                </g>
            </g>
        </g>
    </g>
</svg>