<?xml version="1.0" encoding="utf-8"?>
<!-- Generator: Adobe Illustrator 23.1.1, SVG Export Plug-In . SVG Version: 6.00 Build 0)  -->
<svg version="1.1" id="图层_1" xmlns="http://www.w3.org/2000/svg" xmlns:xlink="http://www.w3.org/1999/xlink" x="0px" y="0px"
	 viewBox="0 0 580 140" style="enable-background:new 0 0 580 140;" xml:space="preserve">
<style type="text/css">
	.st0{fill-rule:evenodd;clip-rule:evenodd;fill:#0735C9;}
	.st1{filter:url(#Adobe_OpacityMaskFilter);}
	.st2{fill-rule:evenodd;clip-rule:evenodd;fill:#FFFFFF;}
	.st3{mask:url(#mask-2_1_);fill-rule:evenodd;clip-rule:evenodd;fill:url(#合并形状_1_);}
	.st4{filter:url(#Adobe_OpacityMaskFilter_1_);}
	.st5{mask:url(#mask-2_2_);fill-rule:evenodd;clip-rule:evenodd;fill:url(#SVGID_1_);}
	.st6{filter:url(#Adobe_OpacityMaskFilter_2_);}
	.st7{mask:url(#mask-2_3_);}
	.st8{fill-rule:evenodd;clip-rule:evenodd;fill:url(#路径-10_1_);}
	.st9{fill-rule:evenodd;clip-rule:evenodd;fill:#004AFF;}
	.st10{fill-rule:evenodd;clip-rule:evenodd;fill:#0066FF;}
	.st11{fill-rule:evenodd;clip-rule:evenodd;fill:#1993FF;}
	.st12{fill:#00E8FF;}
	.st13{fill-rule:evenodd;clip-rule:evenodd;fill:#00EFFF;fill-opacity:0.3454;}
</style>
<title>画板</title>
<desc>Created with Sketch.</desc>
<g id="画板">
	<g id="活动组件">
		<g id="矩形">
			<rect class="st0" width="580" height="140"/>
		</g>
		<defs>
			<filter id="Adobe_OpacityMaskFilter" filterUnits="userSpaceOnUse" x="219" y="51" width="610.2" height="187.9">
				<feColorMatrix  type="matrix" values="1 0 0 0 0  0 1 0 0 0  0 0 1 0 0  0 0 0 1 0"/>
			</filter>
		</defs>
		<mask maskUnits="userSpaceOnUse" x="219" y="51" width="610.2" height="187.9" id="mask-2_1_">
			<g class="st1">
				<rect id="path-1_1_" class="st2" width="580" height="140"/>
			</g>
		</mask>
		
			<linearGradient id="合并形状_1_" gradientUnits="userSpaceOnUse" x1="40.6084" y1="319.6635" x2="40.1886" y2="319.3835" gradientTransform="matrix(610.1635 0 0 -187.9161 -24147.541 60193.082)">
			<stop  offset="0" style="stop-color:#0030E1;stop-opacity:0.2629"/>
			<stop  offset="1" style="stop-color:#006CFF;stop-opacity:0.1041"/>
		</linearGradient>
		<path id="合并形状" class="st3" d="M591.7,51.7l106,38.8c2.8,1,1.6,2.7-2.5,3.9l-159.9,43.1c-4.2,1.1-9.8,1.2-12.5,0.2
			l-106-38.8c-2.8-1-1.6-2.7,2.5-3.9l159.9-43.1C583.3,50.8,588.9,50.7,591.7,51.7z M721.7,99.3l106,38.8c2.8,1,1.6,2.7-2.5,3.9
			l-159.9,43.1c-4.2,1.1-9.8,1.2-12.5,0.2l-106-38.8c-2.8-1-1.6-2.7,2.5-3.9l159.9-43.1C713.3,98.4,718.9,98.3,721.7,99.3z
			 M395.5,104.6l106,38.8c2.8,1,1.6,2.7-2.5,3.9l-159.9,43.1c-4.2,1.1-9.8,1.2-12.5,0.2l-106-38.8c-2.8-1-1.6-2.7,2.5-3.9L383,104.8
			C387.1,103.7,392.8,103.6,395.5,104.6z M525.5,152.2l106,38.8c2.8,1,1.6,2.7-2.5,3.9L469.1,238c-4.2,1.1-9.8,1.2-12.5,0.2
			l-106-38.8c-2.8-1-1.6-2.7,2.5-3.9L513,152.4C517.1,151.3,522.8,151.2,525.5,152.2z"/>
		<defs>
			<filter id="Adobe_OpacityMaskFilter_1_" filterUnits="userSpaceOnUse" x="162" y="-101" width="610.2" height="187.9">
				<feColorMatrix  type="matrix" values="1 0 0 0 0  0 1 0 0 0  0 0 1 0 0  0 0 0 1 0"/>
			</filter>
		</defs>
		<mask maskUnits="userSpaceOnUse" x="162" y="-101" width="610.2" height="187.9" id="mask-2_2_">
			<g class="st4">
				<rect id="path-1_2_" class="st2" width="580" height="140"/>
			</g>
		</mask>
		
			<linearGradient id="SVGID_1_" gradientUnits="userSpaceOnUse" x1="40.588" y1="319.5557" x2="40.0099" y2="319.5247" gradientTransform="matrix(610.1635 0 0 -187.9161 -24204.541 60041.082)">
			<stop  offset="0" style="stop-color:#0067FF;stop-opacity:0.5175"/>
			<stop  offset="1" style="stop-color:#277DFF;stop-opacity:0.2629"/>
		</linearGradient>
		<path class="st5" d="M534.7-100.3l106,38.8c2.8,1,1.6,2.7-2.5,3.9L478.2-14.5c-4.2,1.1-9.8,1.2-12.5,0.2l-106-38.8
			c-2.8-1-1.6-2.7,2.5-3.9l159.9-43.1C526.3-101.2,531.9-101.3,534.7-100.3z M664.7-52.7l106,38.8c2.8,1,1.6,2.7-2.5,3.9L608.2,33.1
			c-4.2,1.1-9.8,1.2-12.5,0.2l-106-38.8c-2.8-1-1.6-2.7,2.5-3.9l159.9-43.1C656.3-53.6,661.9-53.7,664.7-52.7z M338.5-47.4l106,38.8
			c2.8,1,1.6,2.7-2.5,3.9L282.1,38.4c-4.2,1.1-9.8,1.2-12.5,0.2l-106-38.8c-2.8-1-1.6-2.7,2.5-3.9L326-47.2
			C330.1-48.3,335.8-48.4,338.5-47.4z M468.5,0.2l106,38.8c2.8,1,1.6,2.7-2.5,3.9L412.1,86c-4.2,1.1-9.8,1.2-12.5,0.2l-106-38.8
			c-2.8-1-1.6-2.7,2.5-3.9L456,0.4C460.1-0.7,465.8-0.8,468.5,0.2z"/>
		<defs>
			<filter id="Adobe_OpacityMaskFilter_2_" filterUnits="userSpaceOnUse" x="447.5" y="35" width="123.5" height="84">
				<feColorMatrix  type="matrix" values="1 0 0 0 0  0 1 0 0 0  0 0 1 0 0  0 0 0 1 0"/>
			</filter>
		</defs>
		<mask maskUnits="userSpaceOnUse" x="447.5" y="35" width="123.5" height="84" id="mask-2_3_">
			<g class="st6">
				<rect id="path-1_3_" class="st2" width="580" height="140"/>
			</g>
		</mask>
		<g class="st7">
			<g transform="translate(447.000000, 35.000000)">
				
					<linearGradient id="路径-10_1_" gradientUnits="userSpaceOnUse" x1="-406.6235" y1="280.3032" x2="-406.8582" y2="279.977" gradientTransform="matrix(98 0 0 -32.1265 39952 9059.1689)">
					<stop  offset="0" style="stop-color:#006AFF;stop-opacity:0.2029"/>
					<stop  offset="1" style="stop-color:#005CFD"/>
				</linearGradient>
				<polygon id="路径-10" class="st8" points="74.9,82.1 124,61.7 91.4,50 26,71.8 				"/>
				<path class="st9" d="M36.2,63.2c-9.1-2.9-16.5-15.4-16.5-24.8c0-0.8-2.9-4.1-8.7-10l7.3-2.2c7.4-3.7,13.3-4.9,17.9-3.5
					c0-3.5-0.8-9-2.3-16.3L51.3,1c0.1-0.1,0.5-0.2,1-0.3c3.1-0.9,6.5-1,9.9-0.2c13.3,3.2,19.1,19.8,19.1,35.7
					c9.1,2.9,16,13.9,16.6,22.5c0.2,3,0,8.8-1.3,11.4s-4,4.7-6.4,5.6L72.9,83L36.2,63.2z"/>
				<path class="st10" d="M17.4,69C8.3,66.2,1,53.6,1,44.2s7.3-18.5,16.4-15.6C17.4,14.5,30,3.3,43.2,6.6s19.4,20.5,19.4,36.3
					c9,2.9,16.4,14.5,16.4,25.9c0,10.8-4.9,16.5-13.2,14.9L17.4,69z"/>
				<polygon class="st11" points="51,68 64,71 64,77 51,73.5 				"/>
				<circle id="椭圆形" class="st12" cx="68.5" cy="75.5" r="1.5"/>
				<path id="路径" class="st13" d="M8.8,32.7C4.5,31.3,1,25.2,1,20.6s3.5-9,7.8-7.6c0-6.9,6-12.3,12.3-10.8s9.2,10,9.2,17.7
					c4.3,1.4,7.8,7,7.8,12.6c0,5.3-2.3,8.1-6.3,7.3L8.8,32.7z"/>
				<path class="st12" d="M21.3,1.8l-0.7,2.9c-4.9-1.2-9.7,3.1-9.7,8.7v2.1l-2-0.6c-2.7-0.9-5.4,2-5.4,5.8c0,4,3.1,9,6.3,10
					l21.7,6.8l-0.9,2.9L8.9,33.5C4.3,32,0.5,25.8,0.5,20.7c0-4.9,3.3-9,7.5-8.9C8.9,5.1,15,0.2,21.3,1.8z"/>
			</g>
		</g>
	</g>
</g>
</svg>
