<svg t="1610773386091" class="icon" viewBox="0 0 1024 1024" version="1.1" xmlns="http://www.w3.org/2000/svg" p-id="3786" width="14" height="14"><path d="M1021.226667 508.074667a508.586667 508.586667 0 0 0-36.096-183.466667c-1.322667-3.2-2.56-6.570667-3.882667-9.770667a512.128 512.128 0 0 0-95.786667-148.010666 503.978667 503.978667 0 0 0-31.317333-31.104 508.757333 508.757333 0 0 0-343.466667-133.12 508.714667 508.714667 0 0 0-345.770666 135.296c-21.205333 19.626667-40.704 40.96-58.325334 63.701333A507.904 507.904 0 0 0 0 513.28C0 794.922667 229.12 1024 510.677333 1024c198.144 0 370.048-113.450667 454.784-278.656a504.021333 504.021333 0 0 0 48-142.762667c5.12-28.928 7.850667-58.794667 7.850667-89.258666l-0.085333-5.205334z m-96.128-204.117334l2.986666-3.413333c3.925333 7.637333 7.509333 15.36 11.008 23.04l-4.821333-0.128-9.173333 1.237333v-20.736z m-73.813334-89.130666l0.085334-22.869334c8.021333 8.533333 15.786667 17.322667 23.210666 26.368l-9.258666 13.738667-32.085334-0.298667-2.048-6.656 20.096-10.24zM235.264 158.08v-0.768h10.282667l0.853333-3.498667h16.768v7.253334l-4.821333 6.4h-23.04v-9.386667z m16.426667 22.784s10.154667-1.706667 11.093333-1.706667c0.810667 0 0 10.24 0 10.24l-23.082667 1.450667-4.437333-5.248 16.426667-4.693333z m705.962666 202.794667h-37.333333l-22.784-16.938667-23.978667 2.261333v14.677334h-7.637333l-8.192-5.845334-41.386667-10.581333v-26.88l-52.650666 4.138667-16.298667 8.789333h-20.906667l-10.282666-1.109333-25.344 14.165333v26.453333l-51.797334 37.333334 4.309334 16h10.581333l-2.773333 15.189333-7.381334 2.730667-0.426666 39.68 44.714666 51.114666h19.626667l1.109333-3.2h35.072l10.069334-9.301333h19.882666l10.88 10.88 29.653334 3.157333-3.925334 39.253334 32.938667 58.069333-17.322667 33.152 1.109334 15.573333 13.653333 13.525334v37.546666l17.834667 24.021334v31.146666h15.488a467.712 467.712 0 0 1-363.52 173.354667C252.245333 982.016 42.112 771.754667 42.112 513.28c0-65.024 13.312-127.061333 37.290667-183.381333v-14.677334l16.853333-20.266666c5.845333-11.008 11.989333-21.76 18.645333-32.213334l0.853334 8.490667-19.498667 23.722667c-6.058667 11.349333-11.690667 22.954667-16.725333 34.986666v26.624l19.413333 9.344v37.12l18.645333 31.786667 15.274667 2.389333 1.962667-10.88-17.962667-27.733333-3.498667-26.837333h10.496l4.394667 27.690666 25.941333 37.76-6.784 12.202667 16.512 25.216 40.96 10.026667v-6.528l16.298667 2.346666-1.578667 11.605334 12.928 2.346666 19.797334 5.418667 28.032 32 35.882666 2.688 3.498667 29.226667-24.533333 17.109333-1.109334 26.069333-3.626666 16 35.498666 44.373334 2.816 15.232s12.8 3.456 14.336 3.456c1.536 0 28.8 20.608 28.8 20.608v80.341333l9.770667 2.645333-6.698667 37.034667 16.426667 21.845333-2.986667 36.608 21.546667 38.058667 27.818667 24.192 27.861333 0.512 2.688-8.917333-20.394667-17.322667 1.109334-8.533333 3.669333-10.538667 0.768-10.666667-13.866667-0.426666-6.954666-8.704 11.477333-11.178667 1.536-8.32-12.842667-3.669333 0.725334-7.808 18.346666-2.773334 27.904-13.312 9.344-17.152 29.226667-37.461333-6.656-29.184 8.917333-15.616 26.88 0.853333 18.133334-14.250666 5.845333-56.448 20.010667-25.514667 3.584-16.341333-18.346667-5.930667-12.117333-19.797333-41.216-0.426667-32.725334-12.373333-1.536-23.424-10.965333-19.029334-29.568-0.426666-17.066667-26.88-15.232-7.509334-0.853333 8.234667-27.562667 1.621333-10.112-14.08-28.842666-5.802666-23.808 27.349333-37.333334-6.229333-2.773333-42.154667-27.306667-4.693333 11.008-20.650667-3.2-11.861333-35.754666 23.978666-22.570667-2.773333-8.021333-17.664 4.864-18.133333 12.458666-22.954667 28.629334-14.506667h55.296l-0.213334 16.853334 19.882667 9.344-1.536-28.842667 14.293333-14.464 28.885334-18.986667 2.048-13.312 28.842666-30.037333 30.549334-16.938667-2.645334-2.261333 20.736-19.498667 7.552 2.005334 3.498667 4.352 7.893333-8.704 1.962667-0.938667-8.618667-1.194667-8.832-2.901333v-8.362667l4.693334-3.84h10.197333l4.693333 2.048 4.096 8.234667 4.949334-0.853333v-0.682667l1.408 0.512 14.378666-2.133333 2.048-7.125334 8.234667 2.048v7.68l-7.637333 5.290667 1.152 8.277333 25.941333 8.021334 0.128 0.298666 5.930667-0.512 0.426666-11.306666-20.608-9.301334-1.152-5.461333 17.109334-5.845333 0.725333-16.384-17.92-10.88-1.152-27.605334-24.533333 11.989334h-8.917334l2.261334-21.034667-33.28-7.850667-13.909334 10.453334v31.872l-24.789333 7.808-9.984 20.821333-10.837333 1.706667v-26.538667l-23.296-3.285333-11.690667-7.594667-4.693333-17.194667 41.728-24.448 20.48-6.229333 2.090666 13.738667 11.349334-0.512 0.853333-6.997334 11.904-1.621333 0.170667-2.474667-5.12-2.133333-1.109334-7.253333 14.677334-1.28 8.789333-9.216 0.512-0.597334h0.128l2.645333-2.816 30.805334-3.84 13.610666 11.52-35.669333 19.029334 45.312 10.752 5.973333-15.189334h19.797334l7.04-13.226666-14.08-3.584v-16.725334l-43.946667-19.456-30.378667 3.456-17.109333 9.045334 1.109333 21.76-17.92-2.688-2.773333-12.117334 17.194667-15.573333-31.146667-1.536-8.96 2.773333-3.84 10.453334 11.648 1.962666-2.346667 11.690667-19.882666 1.237333-3.072 7.68-28.842667 0.810667s-0.725333-16.298667-1.962667-16.298667l22.613334-0.426666 17.194666-16.810667-9.429333-4.608-12.416 12.117333-20.736-1.28-12.373333-17.066666h-26.453334l-27.733333 20.565333H294.4l2.346667 7.509333-6.528 6.016 27.989333 0.853334 4.266667 10.154666-31.573334-1.28-1.493333-7.722666-19.797333-4.352-10.581334-5.845334-23.594666 0.213334a465.92 465.92 0 0 1 275.285333-89.6c118.570667 0 226.773333 44.288 309.418667 116.992l-5.546667 9.941333-21.632 8.533333-9.130667 9.813334 2.048 11.605333 11.178667 1.536 6.784 16.810667 19.2-7.808 3.157333 22.485333h-5.76l-15.786666-2.346667-17.493334 2.986667-16.981333 23.978667-24.32 3.797333-3.456 20.693333 10.24 2.474667-2.986667 13.354667-24.064-4.821334-22.058666 4.821334-4.608 12.16 3.797333 25.898666 12.928 6.016 21.76-0.085333 14.634667-1.322667 4.48-11.733333 23.04-29.738667 15.061333 3.114667 14.848-13.44 2.773333 10.453333 36.608 24.746667-4.522666 5.888-16.512-0.810667 6.4 8.96 10.112 2.261334 11.946666-4.949334-0.213333-14.378666 5.205333-2.645334-4.181333-4.522666-24.448-13.525334-6.4-18.176h20.266667l6.442666 6.485334 17.536 15.061333 0.725334 18.176 18.048 19.285333 6.784-26.368 12.544-6.869333 2.304 21.632 12.330666 13.44 24.405334-0.426667c4.736 12.117333 8.96 24.533333 12.629333 37.12l-2.56 2.389334zM278.570667 234.624l12.202666-5.845333 11.093334 2.688-3.84 14.848-11.946667 3.84-7.509333-15.530667z m65.109333 35.072v9.642667h-28.074667L305.066667 276.48l2.688-6.784 13.44-5.546667h18.346666v5.546667h4.096z m12.8 13.44v9.344l-6.954667 4.522667-8.789333 1.621333v-15.488h15.786667z m-7.893333-3.797333v-11.093334l9.685333 8.746667-9.685333 2.346667z m4.437333 22.485333v9.088l-6.656 6.698667h-14.976l2.346667-10.154667 7.082666-0.64 1.450667-3.456 10.752-1.536z m-37.12-18.688h15.488l-19.797333 27.776-8.192-4.394667 1.706666-11.690666 10.794667-11.690667zM379.264 298.666667v9.130666h-14.848l-4.096-5.973333v-8.405333h1.237333L379.264 298.666667z m-13.738667-12.501334l4.309334-4.437333 7.168 4.437333-5.717334 4.693334-5.76-4.693334z m599.722667 121.130667l1.493333-1.664c0.64 2.56 1.28 5.248 1.877334 8.021333l-3.413334-6.4z" fill="#ffffff" p-id="3787"></path></svg>
