<?xml version="1.0" encoding="utf-8"?>
<!-- Generator: Adobe Illustrator 23.1.1, SVG Export Plug-In . SVG Version: 6.00 Build 0)  -->
<svg version="1.1" id="图层_1" xmlns="http://www.w3.org/2000/svg" xmlns:xlink="http://www.w3.org/1999/xlink" x="0px" y="0px"
	 viewBox="0 0 240 70" style="enable-background:new 0 0 240 70;" xml:space="preserve">
<style type="text/css">
	.st0{fill:#FFFFFF;}
</style>
<g id="SvgjsG1575" transform="matrix(1.1648494332978256,0,0,1.1648494332978256,-14.437143938502922,-12.127247743337827)">
	<g>
		<g>
			<polygon class="st0" points="40.3,45.2 27.8,45.2 24.4,57.8 37,57.8 			"/>
		</g>
		<g>
			<polygon class="st0" points="24.4,57.8 15.7,57.8 13.3,66.6 22.1,66.6 			"/>
		</g>
		<g>
			<polygon class="st0" points="51.5,36.5 42.7,36.5 40.3,45.2 49.1,45.2 			"/>
		</g>
		<g>
			<polygon class="st0" points="44.3,30.3 38.2,30.3 36.6,36.5 42.7,36.5 			"/>
		</g>
		<g>
			<polygon class="st0" points="55.9,19.9 49.8,19.9 48.1,26 54.3,26 			"/>
		</g>
		<g>
			<polygon class="st0" points="29.4,39.1 23.3,39.1 21.7,45.2 27.8,45.2 			"/>
		</g>
		<g>
			<polygon class="st0" points="61.4,15.6 57.1,15.6 55.9,19.9 60.2,19.9 			"/>
		</g>
		<g>
			<polygon class="st0" points="56.9,32.2 52.6,32.2 51.5,36.5 55.8,36.5 			"/>
		</g>
		<g>
			<polygon class="st0" points="39.3,26 35,26 33.9,30.3 38.2,30.3 			"/>
		</g>
	</g>
</g>
<g id="SvgjsG1576" transform="matrix(2.499523980106037,0,0,2.499523980106037,108,14.052847743157173)">
	<path class="st0" d="M-11.1,8.2h5.7v5h-5.5c-2.4-0.1-4.3-2.1-4.3-4.5c0-2.4,1.9-4.4,4.3-4.5h5.5v3h-5.5c-0.8,0.1-1.3,0.7-1.3,1.5
		c0,0.8,0.6,1.4,1.3,1.5h3.5v1h-3.5c-1.3-0.1-2.3-1.2-2.3-2.5c0-1.3,1-2.4,2.3-2.5h4.6v-1h-4.5c-1.8,0.1-3.3,1.6-3.3,3.5
		c0,1.9,1.5,3.4,3.3,3.5h4.5v-3h-4.7C-11.1,9.2-11.1,8.2-11.1,8.2z M6.3,4.2v3h-6.8v1h5v1h-6v-3h6.8v-1h-7.8v7h7.8v-1h-6.8v-1h7.8v3
		h-9.8v-9C-3.5,4.2,6.3,4.2,6.3,4.2z M17.8,4.2v3H11v1h5v1h-6v-3h6.8v-1H9v7h7.8v-1H10v-1h7.8v3H8.1v-9C8.1,4.2,17.8,4.2,17.8,4.2z
		 M29.4,4.2v3h-5.5c-0.8,0.1-1.3,0.7-1.3,1.5s0.6,1.4,1.3,1.5h3.5v1h-3.5c-1.3-0.1-2.3-1.2-2.3-2.5c0-1.3,1-2.4,2.3-2.5h4.6v-1h-4.5
		v0c-1.8,0.1-3.3,1.6-3.3,3.5c0,1.9,1.5,3.4,3.3,3.5h4.5v-2h1v3h-5.5c-2.4-0.1-4.3-2.1-4.3-4.5c0-2.4,1.9-4.4,4.3-4.5L29.4,4.2z
		 M31.2,4.2h5.5C39.1,4.3,41,6.3,41,8.7c0,2.4-1.9,4.4-4.3,4.5h-5.5v-7h5.5C38,6.3,39,7.4,39,8.7c0,1.3-1,2.4-2.3,2.5h-3.6V8h1v2.2
		l2.5,0c0.8-0.1,1.3-0.7,1.3-1.5c0-0.7-0.4-1.2-1-1.4c-0.2-0.1-0.3-0.1-0.7-0.1h-4.2v5h4.5c1.8-0.1,3.3-1.6,3.3-3.5
		c0-1.9-1.5-3.4-3.3-3.5h-5.5C31.2,5.2,31.2,4.2,31.2,4.2z M49.1,8.6V4.2h3v9h-3l-4.8-5.6V6.1l5.3,6.1h1.5v-7h-1v6.1l-5.3-6.1h-1.5
		v7h1v-3l1,1.2v2.9h-3v-9h3L49.1,8.6z"/>
</g>
</svg>
