<?xml version="1.0" encoding="UTF-8"?>
<svg width="354px" height="280px" viewBox="0 0 354 280" version="1.1" xmlns="http://www.w3.org/2000/svg" xmlns:xlink="http://www.w3.org/1999/xlink">
    <!-- Generator: Sketch 52.6 (67491) - http://www.bohemiancoding.com/sketch -->
    <title>配图2</title>
    <desc>Created with Sketch.</desc>
    <defs>
        <linearGradient x1="0%" y1="22.3736702%" x2="82.9308614%" y2="115.167886%" id="linearGradient-1">
            <stop stop-color="#CED5E4" offset="0%"></stop>
            <stop stop-color="#EBEEF4" offset="100%"></stop>
        </linearGradient>
        <linearGradient x1="52.0413221%" y1="25.1551011%" x2="57.1328883%" y2="170.03102%" id="linearGradient-2">
            <stop stop-color="#BCC5D6" offset="0%"></stop>
            <stop stop-color="#FFFFFF" stop-opacity="0.262935915" offset="100%"></stop>
        </linearGradient>
        <linearGradient x1="0%" y1="13.9927098%" x2="82.8849781%" y2="88.5280823%" id="linearGradient-3">
            <stop stop-color="#AEC1D0" offset="0%"></stop>
            <stop stop-color="#778EA5" offset="100%"></stop>
        </linearGradient>
        <linearGradient x1="70.2719062%" y1="18.8899553%" x2="29.2541666%" y2="75.3117886%" id="linearGradient-4">
            <stop stop-color="#C5D6E4" offset="0%"></stop>
            <stop stop-color="#C8D4E1" offset="100%"></stop>
        </linearGradient>
        <linearGradient x1="0%" y1="79.2569612%" x2="100%" y2="25.9542686%" id="linearGradient-5">
            <stop stop-color="#556979" offset="0%"></stop>
            <stop stop-color="#8DA1B6" offset="100%"></stop>
        </linearGradient>
        <linearGradient x1="0%" y1="100%" x2="100%" y2="29.8018293%" id="linearGradient-6">
            <stop stop-color="#ADB7C9" offset="0%"></stop>
            <stop stop-color="#CBD3E2" offset="100%"></stop>
        </linearGradient>
        <linearGradient x1="72.7739073%" y1="11.818484%" x2="72.7739073%" y2="100%" id="linearGradient-7">
            <stop stop-color="#D9E2F0" offset="0%"></stop>
            <stop stop-color="#E7ECF3" offset="100%"></stop>
        </linearGradient>
        <linearGradient x1="-23.3963437%" y1="50%" x2="88.395033%" y2="72.4891022%" id="linearGradient-8">
            <stop stop-color="#E4E9F1" offset="0%"></stop>
            <stop stop-color="#FFFFFF" offset="100%"></stop>
        </linearGradient>
        <linearGradient x1="3.09487086%" y1="67.5675093%" x2="97.347756%" y2="73.9667156%" id="linearGradient-9">
            <stop stop-color="#CAD3DE" offset="0%"></stop>
            <stop stop-color="#E0E6EC" offset="100%"></stop>
        </linearGradient>
        <linearGradient x1="68.1586323%" y1="157.263272%" x2="30.7595291%" y2="11.381768%" id="linearGradient-10">
            <stop stop-color="#ECEFF4" offset="0%"></stop>
            <stop stop-color="#FFFFFF" offset="100%"></stop>
        </linearGradient>
        <linearGradient x1="0%" y1="100%" x2="100%" y2="29.8018293%" id="linearGradient-11">
            <stop stop-color="#A2B0C2" offset="0%"></stop>
            <stop stop-color="#CEDBE7" offset="100%"></stop>
        </linearGradient>
        <linearGradient x1="0%" y1="54.3007297%" x2="100%" y2="60.8233467%" id="linearGradient-12">
            <stop stop-color="#E4E9F1" offset="0%"></stop>
            <stop stop-color="#FFFFFF" offset="100%"></stop>
        </linearGradient>
        <path d="M66.7614577,52.4333265 L79.8249149,44.2703724 L89.7109269,49.7502783 L76.6474697,57.9132324 L66.7614577,52.4333265 Z M62.8829807,54.8568679 L72.7689927,60.3367738 L58.0908507,69.5086949 L48.1905248,64.0377333 L62.8829807,54.8568679 Z M92.410893,66.6510406 L80.6474697,60.1304686 L93.7109269,51.9675145 L105.770135,58.652043 L92.410893,66.6510406 Z M88.4445989,69.0259042 L73.4568308,78 L62.0966422,71.7223121 L76.7689927,62.55401 L88.4445989,69.0259042 Z M52.4149259,44.480914 L65.4783831,36.31796 L75.8249149,42.0531362 L62.7614577,50.2160903 L52.4149259,44.480914 Z M48.5364489,46.9044554 L58.8829807,52.6396316 L44.1847332,61.8241161 L33.8232207,56.0983008 L48.5364489,46.9044554 Z M83.7033919,41.846831 L94.8865262,34.8588331 L104.772538,40.3387391 L93.5894039,47.326737 L83.7033919,41.846831 Z M109.73643,56.2771794 L97.5894039,49.5439732 L108.772538,42.5559753 L121.172774,49.4295385 L109.73643,56.2771794 Z M69.3568601,33.8944186 L80.5399944,26.9064207 L90.8865262,32.6415969 L79.7033919,39.6295948 L69.3568601,33.8944186 Z M84.4184713,24.4828793 L95.9526337,17.2755347 L106.315363,23.0005899 L94.7650031,30.2180555 L84.4184713,24.4828793 Z" id="path-13"></path>
        <filter x="-0.6%" y="-0.8%" width="101.1%" height="103.3%" filterUnits="objectBoundingBox" id="filter-14">
            <feOffset dx="0" dy="1" in="SourceAlpha" result="shadowOffsetOuter1"></feOffset>
            <feColorMatrix values="0 0 0 0 0.199944828   0 0 0 0 0.328532015   0 0 0 0 0.425010629  0 0 0 0.418676404 0" type="matrix" in="shadowOffsetOuter1"></feColorMatrix>
        </filter>
        <linearGradient x1="122.352891%" y1="100%" x2="-25.0353175%" y2="-52.4362811%" id="linearGradient-15">
            <stop stop-color="#4D6E88" offset="0%"></stop>
            <stop stop-color="#68819A" offset="100%"></stop>
        </linearGradient>
        <polygon id="path-16" points="98.7650031 32.4352918 110.321625 25.2139132 137 39.9528079 125.139069 47.0546749 98.7650031 32.4352918"></polygon>
        <filter x="-1.3%" y="-2.3%" width="102.6%" height="109.2%" filterUnits="objectBoundingBox" id="filter-17">
            <feOffset dx="0" dy="1" in="SourceAlpha" result="shadowOffsetOuter1"></feOffset>
            <feColorMatrix values="0 0 0 0 0.028218106   0 0 0 0 0.10428524   0 0 0 0 0.171954719  0 0 0 0.5 0" type="matrix" in="shadowOffsetOuter1"></feColorMatrix>
        </filter>
        <linearGradient x1="26.611913%" y1="-35.2647352%" x2="72.9497187%" y2="62.1788346%" id="linearGradient-18">
            <stop stop-color="#556979" offset="0%"></stop>
            <stop stop-color="#8DA1B6" offset="100%"></stop>
        </linearGradient>
        <linearGradient x1="10.0945576%" y1="25.0643121%" x2="92.4024048%" y2="76.4959632%" id="linearGradient-19">
            <stop stop-color="#DFEDFB" offset="0%"></stop>
            <stop stop-color="#DEE5ED" offset="100%"></stop>
        </linearGradient>
        <linearGradient x1="50%" y1="0%" x2="50%" y2="100%" id="linearGradient-20">
            <stop stop-color="#788C9F" offset="0%"></stop>
            <stop stop-color="#788C9F" stop-opacity="0" offset="100%"></stop>
        </linearGradient>
    </defs>
    <g id="配图2" stroke="none" stroke-width="1" fill="none" fill-rule="evenodd">
        <g id="分组-7" transform="translate(0.000000, 5.000000)">
            <path d="M256.491211,266.474797 L256.491211,274.8 L226.719141,241.5 L226.719141,233.874313 L225.464063,232.5 C255.774609,223.138339 276.344531,208.138339 287.173828,187.5 C294.323438,171.058846 285.307031,153.958846 260.124609,136.2 L311.894824,112.171582 C344.341113,132.990527 357.901758,158.1 352.576758,187.5 C351.954666,190.549383 351.077182,193.557056 349.944305,196.523021 C340.513389,227.359545 309.362944,253.451871 256.492969,274.8 L256.492969,266.7 C256.531669,266.667928 256.570357,266.635866 256.609034,266.603814 L256.491211,266.474797 Z" id="合并形状" fill="url(#linearGradient-1)" opacity="0.501953125"></path>
            <path d="M2.73779297,189.62656 L2.7,210.736523 C21.5185547,240.42832 56.1738281,260.778516 106.66582,271.787109 C106.66582,271.787109 106.66582,264.391406 106.66582,249.6" id="路径-12" fill="#A7B7D4" opacity="0.346540179"></path>
            <polygon id="路径-13" fill="#A7B7D4" opacity="0.346540179" points="128.678906 215.585889 128.678906 237.789258 106.20835 272.324561 106.20835 249.735791"></polygon>
            <path d="M65.7984375,152.4 L185.080078,158.7 C191.023828,139.426819 214.586719,131.008524 255.76875,133.445114 C255.76875,133.445114 261.730078,126.56341 273.652734,112.8 C254.023828,102.6 242.292188,97.5 238.457813,97.5 C234.623438,97.5 183.248438,97.5 84.3328125,97.5 C59.3220962,109.749421 45.7447524,119.049421 43.6007813,125.4 C41.4568101,131.750579 48.8560288,140.750579 65.7984375,152.4 Z" id="路径-22" fill="url(#linearGradient-2)" opacity="0.202101935"></path>
            <path d="M0.937792969,184.22656 L0.937792969,209.040234 C19.7311523,236.262891 54.3738281,255.378516 104.86582,266.387109 C104.86582,266.387109 104.86582,258.991406 104.86582,244.2" id="路径-12" fill="url(#linearGradient-3)"></path>
            <path d="M63.1951172,172.145114 C76.4279297,191.167252 98.1536133,203.58252 128.372168,209.390918 C128.372168,209.390918 120.658887,220.993945 105.232324,244.2 C85.4411133,241.8 64.556543,234.470654 42.5786133,222.211963 C20.6006836,209.953271 6.60644531,197.29147 0.595898438,184.22656 L63.1951172,172.145114 Z" id="路径-11" fill="url(#linearGradient-4)"></path>
            <polygon id="路径-21" fill="url(#linearGradient-1)" points="223.119141 226.2 223.119141 235.2 252.891211 268.5 252.891211 245.55"></polygon>
            <polygon id="路径-13" fill="url(#linearGradient-5)" points="128.678906 209.556152 128.678906 231.759521 104.40835 266.924561 104.40835 244.335791"></polygon>
            <path d="M252.892969,260.4 L252.892969,268.5 C310.844531,245.1 342.700781,216 348.461719,181.2 C348.461719,181.2 316.605469,207.6 252.892969,260.4 Z" id="路径-20" fill="url(#linearGradient-6)"></path>
            <polygon id="路径-15" fill="url(#linearGradient-7)" points="65.7509766 151.5 3.55693359 139.8 3.55693359 66.9 65.7509766 80.6100586"></polygon>
            <path d="M127.536328,98.4 L127.536328,62.4 C191.931445,52.5064453 252.282422,62.7064453 308.589258,93 C308.589258,93.2390625 291.321387,101.339063 256.785645,117.3 C240.948926,107.776172 220.60957,101.176172 195.767578,97.5 C170.925586,93.8238281 148.181836,94.1238281 127.536328,98.4 Z" id="路径-17" fill="url(#linearGradient-8)"></path>
            <path d="M64.940625,82.2 C76.0089844,66.1582031 97.3189453,54.3477539 128.870508,46.7686523 C128.870508,46.7686523 128.519238,63.9791016 127.816699,98.4 C174.237012,89.7825637 217.203223,95.719057 256.715332,116.20948 C256.715332,116.20948 256.715332,120.772987 256.715332,129.9 C276.527051,143.402313 285.71748,156.968744 284.286621,170.599292 C284.286621,170.507606 277.63418,119.1 178.064648,114.386426 C125.709963,111.90798 88.0019554,124.279171 64.940625,151.5 L64.940625,82.2 Z" id="路径-14" fill="url(#linearGradient-9)"></path>
            <path d="M3.71953125,66.9 C24.8162109,39.4792969 58.125293,21.3741211 103.646777,12.5844727 C103.646777,12.5844727 112.150195,24.1426758 129.157031,47.259082 C110.695097,52.5780309 97.812089,57.1529256 90.5080078,60.9837662 C83.2039266,64.8146068 74.7840048,71.4126613 65.2482422,80.7779297 L3.71953125,66.9 Z" id="路径-16" fill="url(#linearGradient-10)"></path>
            <polygon id="路径-18" fill="url(#linearGradient-11)" points="307.945898 93 307.945898 106.193262 256.906934 129.9 256.906934 117.458895"></polygon>
            <path d="M308.294824,105.871582 C340.741113,126.690527 354.301758,151.8 348.976758,181.2 C342.73418,211.8 310.774219,238.2 253.096875,260.4 L221.864062,226.2 C252.174609,216.838339 272.744531,201.838339 283.573828,181.2 C290.723437,164.758846 281.707031,147.658846 256.524609,129.9 L308.294824,105.871582 Z" id="路径-19" fill="url(#linearGradient-12)"></path>
            <g id="分组-6" transform="translate(95.000000, 119.000000)">
                <polygon id="路径" fill="#E5E8F1" points="79.0408163 96.6813043 6 56.2667391 81.5204082 11 154.561224 51.4044565"></polygon>
                <polygon id="路径" fill="url(#linearGradient-5)" points="149.081633 48.0155435 73.5510204 93.2923913 73.4693878 84.7116304 148.989796 39.4347826"></polygon>
                <polygon id="路径" fill="url(#linearGradient-3)" points="0.0816326531 53.0698913 0 44.4891304 73.0408163 84.9036957 73.122449 93.4844565"></polygon>
                <polygon id="路径" fill="url(#linearGradient-4)" points="0 44.2667391 75.5204082 3.2618052e-32 148.561224 39.4044565 73.0408163 84.6813043"></polygon>
                <g id="合并形状">
                    <use fill="black" fill-opacity="1" filter="url(#filter-14)" xlink:href="#path-13"></use>
                    <use fill="#E8F3FE" fill-rule="evenodd" xlink:href="#path-13"></use>
                </g>
                <g id="路径">
                    <use fill="black" fill-opacity="1" filter="url(#filter-17)" xlink:href="#path-16"></use>
                    <use fill="url(#linearGradient-15)" fill-rule="evenodd" xlink:href="#path-16"></use>
                </g>
                <polygon id="路径" fill="url(#linearGradient-18)" points="27.8145333 52.7778749 12 44.0386975 75.5431692 7 89.9432409 13.9555497"></polygon>
                <path d="M71.9507766,12.9153165 L71.1305995,12.3854806 L71.727897,11.7443743 L72.5480741,12.2742102 C73.1661126,11.6796305 73.7889393,11.3034747 74.4258199,11.1186004 C75.1408761,10.9014083 75.9118363,10.9853526 76.7283301,11.3471702 L75.7071441,12.443255 C75.2192482,12.2274568 74.75504,12.1925997 74.3341553,12.3348049 C74.0403521,12.4265937 73.7483906,12.6023917 73.4582706,12.8621989 L75.7487653,14.3418626 C76.7417293,13.7575908 77.3260207,13.4227967 77.4623676,13.3452381 C78.5171862,12.883744 79.4044891,12.877207 80.1246446,13.3424287 C80.834798,13.8011891 81.104799,14.4228354 80.9639176,15.1931483 C80.8386205,15.774762 80.5069614,16.3887043 79.9496725,17.0556562 L80.8298626,17.6242606 L80.2325651,18.2653668 L79.352375,17.6967624 C78.6572659,18.3740655 77.9562635,18.7825393 77.25937,18.928645 C76.4546627,19.1044863 75.632955,18.9546312 74.7549749,18.4868378 L75.7954286,17.3700721 C76.3740805,17.6776268 76.8894046,17.7951964 77.3506662,17.6956387 C77.704114,17.6258166 78.0646174,17.4280411 78.4321763,17.1023124 L75.9916492,15.5257275 L74.4829356,16.422816 C73.4384876,16.9075733 72.5511847,16.9141103 71.8110248,16.4359657 C71.1608844,16.0159739 70.9016222,15.4343926 71.0332381,14.691222 C71.1192632,14.1173663 71.4220209,13.5344453 71.9507766,12.9153165 Z M76.8089943,15.0267724 L79.0294738,16.4612062 C79.2977477,16.104467 79.4582079,15.7774633 79.5301219,15.4595142 C79.599826,15.040754 79.4742751,14.7111895 79.1241995,14.4850401 C78.6641002,14.187815 77.9668383,14.317119 77.0524183,14.8858747 C76.974611,14.9349944 76.8868016,14.9776527 76.8089943,15.0267724 Z M74.9214181,14.8343563 L72.850971,13.4968437 C72.601228,13.7992984 72.4596672,14.0888194 72.415918,14.3421436 C72.3262096,14.7479808 72.4810303,15.0633259 72.8611124,15.3088596 C73.271201,15.5737776 73.9384563,15.4250894 74.8728806,14.8692566 C74.8825145,14.8589161 74.9021504,14.8550371 74.9214181,14.8343563 Z" id="$" fill="url(#linearGradient-19)" transform="translate(76.000000, 15.000000) rotate(-1.000000) translate(-76.000000, -15.000000) "></path>
            </g>
            <rect id="矩形" fill="url(#linearGradient-20)" x="205" y="87" width="2" height="60"></rect>
            <rect id="矩形" fill="url(#linearGradient-20)" x="149" y="38" width="2" height="100"></rect>
            <rect id="矩形" fill="url(#linearGradient-20)" x="117" y="109" width="2" height="50"></rect>
            <path d="M205,83 L207,83 L207,85 L205,85 L205,83 Z M205,79 L207,79 L207,81 L205,81 L205,79 Z M149,34 L151,34 L151,36 L149,36 L149,34 Z M149,30 L151,30 L151,32 L149,32 L149,30 Z M149,26 L151,26 L151,28 L149,28 L149,26 Z M117,105 L119,105 L119,107 L117,107 L117,105 Z M117,101 L119,101 L119,103 L117,103 L117,101 Z M117,97 L119,97 L119,99 L117,99 L117,97 Z" id="合并形状" fill="#788C9F"></path>
            <path d="M149.36,2.552 L149.36,0.584 L150.944,0.584 L150.944,2.552 C152.384,2.648 153.536,3.056 154.376,3.728 C155.36,4.496 155.96,5.768 156.2,7.52 L153.464,7.52 C153.32,6.512 152.96,5.816 152.384,5.408 C152.024,5.144 151.544,4.976 150.944,4.904 L150.944,10.184 C152.84,10.88 153.872,11.264 154.016,11.36 C155.672,12.296 156.512,13.64 156.512,15.392 C156.512,17.096 155.864,18.368 154.568,19.232 C153.608,19.856 152.408,20.216 150.944,20.312 L150.944,22.424 L149.36,22.424 L149.36,20.312 C147.728,20.192 146.48,19.736 145.616,18.92 C144.608,17.96 144.032,16.496 143.888,14.528 L146.672,14.528 C146.768,15.776 147.08,16.688 147.632,17.216 C148.04,17.6 148.616,17.84 149.36,17.936 L149.36,12.32 L146.6,11.312 C144.92,10.4 144.104,9.056 144.104,7.28 C144.104,5.696 144.704,4.496 145.928,3.656 C146.84,3.008 147.968,2.648 149.36,2.552 Z M150.944,12.896 L150.944,17.936 C151.616,17.84 152.216,17.648 152.696,17.336 C153.368,16.904 153.704,16.28 153.704,15.488 C153.704,14.408 152.864,13.568 151.208,12.992 C151.112,12.944 151.04,12.92 150.944,12.896 Z M149.36,9.584 L149.36,4.88 C148.736,4.952 148.232,5.12 147.872,5.36 C147.224,5.744 146.912,6.392 146.912,7.28 C146.912,8.192 147.728,8.96 149.36,9.584 Z" id="$" fill="#788C9F"></path>
            <circle id="椭圆形" stroke="#788C9F" stroke-width="2" cx="118" cy="85" r="7"></circle>
            <polygon id="路径-28" fill="#788C9F" fill-rule="nonzero" points="119 84 122.001953 84 122.001953 86 117 86 117 81 119 81"></polygon>
            <path d="M198,66 L198,74 L200,74 L200,66 L198,66 Z M196,64 L202,64 L202,76 L196,76 L196,64 Z" id="矩形" fill="#788C9F" fill-rule="nonzero"></path>
            <path d="M212,69 L212,74 L214,74 L214,69 L212,69 Z M210,67 L216,67 L216,76 L210,76 L210,67 Z" id="矩形" fill="#788C9F" fill-rule="nonzero"></path>
            <path d="M205,60 L205,74 L207,74 L207,60 L205,60 Z M203,58 L209,58 L209,76 L203,76 L203,58 Z" id="矩形" fill="#788C9F" fill-rule="nonzero"></path>
        </g>
    </g>
</svg>