<?xml version="1.0" encoding="UTF-8"?>
<svg width="361px" height="210px" viewBox="0 0 361 210" version="1.1" xmlns="http://www.w3.org/2000/svg" xmlns:xlink="http://www.w3.org/1999/xlink">
    <!-- Generator: Sketch 52.6 (67491) - http://www.bohemiancoding.com/sketch -->
    <title>3</title>
    <desc>Created with Sketch.</desc>
    <defs>
        <linearGradient x1="78.1488054%" y1="16.6341146%" x2="19.4273719%" y2="78.984375%" id="linearGradient-1">
            <stop stop-color="#F0F8FC" offset="0%"></stop>
            <stop stop-color="#DDEEF7" offset="100%"></stop>
        </linearGradient>
        <linearGradient x1="-14.5972222%" y1="75.1724381%" x2="100%" y2="8.73099662%" id="linearGradient-2">
            <stop stop-color="#3891FF" offset="0%"></stop>
            <stop stop-color="#6ACFFF" stop-opacity="0.352977808" offset="100%"></stop>
        </linearGradient>
        <linearGradient x1="0%" y1="100%" x2="100%" y2="26.2579449%" id="linearGradient-3">
            <stop stop-color="#E2F2FF" offset="0%"></stop>
            <stop stop-color="#FBFDFF" offset="100%"></stop>
        </linearGradient>
        <linearGradient x1="50%" y1="0%" x2="50%" y2="100%" id="linearGradient-4">
            <stop stop-color="#DCE4E7" offset="0%"></stop>
            <stop stop-color="#FFFFFF" offset="100%"></stop>
        </linearGradient>
        <linearGradient x1="50%" y1="0%" x2="50%" y2="100%" id="linearGradient-5">
            <stop stop-color="#E7F8FF" offset="0%"></stop>
            <stop stop-color="#A2DEFF" offset="100%"></stop>
        </linearGradient>
        <linearGradient x1="50%" y1="0%" x2="50%" y2="100%" id="linearGradient-6">
            <stop stop-color="#ABE8FF" offset="0%"></stop>
            <stop stop-color="#72CCFF" offset="100%"></stop>
        </linearGradient>
        <linearGradient x1="100%" y1="50%" x2="-2.22044605e-14%" y2="50%" id="linearGradient-7">
            <stop stop-color="#2B7FFF" offset="0%"></stop>
            <stop stop-color="#32BAFF" offset="100%"></stop>
        </linearGradient>
        <polygon id="path-8" points="60 48 81.6506351 60.5 81.6506351 85.5 60 98 38.3493649 85.5 38.3493649 60.5"></polygon>
        <mask id="mask-9" maskContentUnits="userSpaceOnUse" maskUnits="objectBoundingBox" x="0" y="0" width="50" height="50" fill="white">
            <use xlink:href="#path-8"></use>
        </mask>
        <linearGradient x1="50%" y1="100%" x2="50%" y2="3.061617e-15%" id="linearGradient-10">
            <stop stop-color="#EBEEF1" offset="0%"></stop>
            <stop stop-color="#D2D8DF" offset="100%"></stop>
        </linearGradient>
        <radialGradient cx="50%" cy="50%" fx="50%" fy="50%" r="50%" id="radialGradient-11">
            <stop stop-color="#FFFFFF" offset="0%"></stop>
            <stop stop-color="#FFFFFF" offset="25.3522399%"></stop>
            <stop stop-color="#B8BEC7" offset="100%"></stop>
        </radialGradient>
    </defs>
    <g id="3" stroke="none" stroke-width="1" fill="none" fill-rule="evenodd">
        <g id="Group" transform="translate(0.000000, 30.000000)" fill-rule="nonzero">
            <g id="Oval-Copy">
                <path d="M10.9933542,85.5314984 C9.92432789,86.0667296 9.05880824,86.9357123 8.52785016,88.0068673 C7.17880697,90.7284276 8.29145193,94.0283037 11.0130122,95.3773469 L178.160757,178.23038 C179.700645,178.993684 181.508821,178.993265 183.048356,178.229249 L350.00809,95.3730993 C351.076647,94.8428127 351.94383,93.9794909 352.47888,92.9133111 C353.841312,90.1984285 352.744934,86.8931121 350.030051,85.5306802 L183.173827,1.79584384 C181.623093,1.01762643 179.796067,1.01677468 178.244609,1.79354586 L10.9933542,85.5314984 Z" id="Rectangle-Copy-23" stroke="url(#linearGradient-1)"></path>
                <path d="M79.1298096,80.8384062 C78.0442236,81.376171 77.1665647,82.2573189 76.6331112,83.3450299 C75.2955753,86.0722639 76.4221482,89.3674111 79.1493823,90.704947 L178.142062,139.2546 C179.670494,140.004199 181.459892,140.003788 182.987979,139.253485 L281.871952,90.7007096 C282.957073,90.1679066 283.836431,89.2924393 284.37404,88.2096905 C285.724907,85.4890349 284.614474,82.1884139 281.893818,80.8375472 L183.073779,31.7711756 C181.534487,31.0068829 179.726421,31.0060453 178.186422,31.7689117 L79.1298096,80.8384062 Z" id="Rectangle-Copy-23" stroke="url(#linearGradient-2)"></path>
                <path d="M81.8530494,71.8869173 L177.45139,24.3309228 C179.136327,23.4927404 181.116909,23.4936601 182.801067,24.3334072 L278.170906,71.8862813 C281.136417,73.3649312 282.341757,76.9676358 280.863107,79.9331473 C280.277709,81.1071954 279.323649,82.0570232 278.147011,82.637197 L182.715281,129.692411 C181.043345,130.516805 179.083206,130.517257 177.410889,129.693634 L81.8744384,82.6415403 C78.9017077,81.1774583 77.6787064,77.5807109 79.1427884,74.6079802 C79.7236808,73.4285131 80.6759022,72.4724966 81.8530494,71.8869173 Z" id="Rectangle-Copy-23" fill="url(#linearGradient-3)"></path>
            </g>
            <g id="Group-58" transform="translate(114.000000, 1.000000)">
                <g id="Group-56" transform="translate(7.000000, 0.000000)">
                    <g id="Group-11-Copy" transform="translate(20.000000, 22.000000)">
                        <polygon id="Rectangle-Copy-20" fill="#FFFFFF" points="0 20 40 39.5283019 40 89 0 69.4716981"></polygon>
                        <polygon id="Rectangle-Copy-21" fill="#DCE5F1" transform="translate(60.000000, 54.500000) scale(-1, 1) translate(-60.000000, -54.500000) " points="40 20 80 39.5283019 80 89 40 69.4716981"></polygon>
                        <polygon id="Rectangle-Copy-22" fill="url(#linearGradient-4)" points="0 19.6032181 40.0465495 0 80 19.6032181 40.0232612 39"></polygon>
                    </g>
                    <g id="Group-11-Copy-3" transform="translate(39.000000, 13.000000)">
                        <g id="Group-10" transform="translate(0.000000, 0.500000)">
                            <polygon id="Rectangle-Copy-20" fill="url(#linearGradient-5)" points="0 10.2699144 21 21.2254835 21 48.9795918 0 38.0240228"></polygon>
                            <polygon id="Rectangle-Copy-22" fill="url(#linearGradient-6)" points="0 10.3296768 21.0244385 0.025064997 42 10.3296768 21.0244385 21.2493515"></polygon>
                            <g id="Group-11" transform="translate(31.500000, 29.769914) scale(-1, 1) translate(-31.500000, -29.769914) translate(21.000000, 10.269914)" fill="url(#linearGradient-7)">
                                <polygon id="Rectangle-Copy-20" points="0 0 21 10.9555691 21 38.7096774 0 27.7541083"></polygon>
                            </g>
                        </g>
                    </g>
                    <g id="Group-11-Copy-4" transform="translate(93.000000, 0.000000)">
                        <g id="Group-10">
                            <polygon id="Rectangle-Copy-20" fill="url(#linearGradient-5)" points="0 4 10 8.9957395 10 21.6516129 0 16.6558734"></polygon>
                            <polygon id="Rectangle-Copy-22" fill="url(#linearGradient-6)" points="0 4.69890297 10.0116374 0 20 4.69890297 10.0116374 9.67827463"></polygon>
                            <g id="Group-11" transform="translate(15.000000, 13.148387) scale(-1, 1) translate(-15.000000, -13.148387) translate(10.000000, 4.148387)" fill="url(#linearGradient-7)">
                                <polygon id="Rectangle-Copy-20" points="0 0 10 4.9957395 10 17.6516129 0 12.6558734"></polygon>
                            </g>
                        </g>
                    </g>
                    <use id="Polygon" stroke="#00A4FF" mask="url(#mask-9)" stroke-width="2" stroke-dasharray="2" xlink:href="#path-8"></use>
                    <path d="M60,62 L0,97" id="Line-2" stroke="#00A4FF" stroke-linecap="square" stroke-dasharray="2,3"></path>
                    <path d="M60,62 L80,73.4647217" id="Line-2" stroke="#00A4FF" stroke-linecap="square" stroke-dasharray="2,3"></path>
                </g>
                <polygon id="Rectangle-Copy-22" fill="url(#linearGradient-10)" points="47 73.5 66.9179513 62 87 73.5 66.893573 85"></polygon>
                <circle id="Oval" fill="url(#radialGradient-11)" cx="89" cy="74" r="5"></circle>
                <circle id="Oval" fill="url(#radialGradient-11)" cx="4" cy="98" r="4"></circle>
            </g>
        </g>
    </g>
</svg>