<?xml version="1.0" encoding="UTF-8"?>
<svg width="361px" height="210px" viewBox="0 0 361 210" version="1.1" xmlns="http://www.w3.org/2000/svg" xmlns:xlink="http://www.w3.org/1999/xlink">
    <!-- Generator: Sketch 52.6 (67491) - http://www.bohemiancoding.com/sketch -->
    <title>4</title>
    <desc>Created with Sketch.</desc>
    <defs>
        <linearGradient x1="78.1488054%" y1="16.6341146%" x2="19.4273719%" y2="78.984375%" id="linearGradient-1">
            <stop stop-color="#F0F8FC" offset="0%"></stop>
            <stop stop-color="#DDEEF7" offset="100%"></stop>
        </linearGradient>
        <linearGradient x1="-14.5972222%" y1="75.1724381%" x2="100%" y2="8.73099662%" id="linearGradient-2">
            <stop stop-color="#3891FF" offset="0%"></stop>
            <stop stop-color="#6ACFFF" stop-opacity="0.352977808" offset="100%"></stop>
        </linearGradient>
        <linearGradient x1="0%" y1="100%" x2="100%" y2="26.2579449%" id="linearGradient-3">
            <stop stop-color="#E2F2FF" offset="0%"></stop>
            <stop stop-color="#FBFDFF" offset="100%"></stop>
        </linearGradient>
        <polygon id="path-4" points="53 60 90 77.5365344 90 116 53 98.4634656"></polygon>
        <mask id="mask-5" maskContentUnits="userSpaceOnUse" maskUnits="objectBoundingBox" x="0" y="0" width="37" height="56" fill="white">
            <use xlink:href="#path-4"></use>
        </mask>
        <polygon id="path-6" points="125 59 125 98.1668265 89 116 89 76.8331735"></polygon>
        <mask id="mask-7" maskContentUnits="userSpaceOnUse" maskUnits="objectBoundingBox" x="0" y="0" width="36" height="57" fill="white">
            <use xlink:href="#path-6"></use>
        </mask>
        <radialGradient cx="50%" cy="50%" fx="50%" fy="50%" r="50%" id="radialGradient-8">
            <stop stop-color="#FFFFFF" offset="0%"></stop>
            <stop stop-color="#FFFFFF" offset="25.3522399%"></stop>
            <stop stop-color="#B8BEC7" offset="100%"></stop>
        </radialGradient>
        <linearGradient x1="50%" y1="0%" x2="50%" y2="100%" id="linearGradient-9">
            <stop stop-color="#E7F8FF" offset="0%"></stop>
            <stop stop-color="#A2DEFF" offset="100%"></stop>
        </linearGradient>
        <linearGradient x1="50%" y1="0%" x2="50%" y2="100%" id="linearGradient-10">
            <stop stop-color="#ABE8FF" offset="0%"></stop>
            <stop stop-color="#72CCFF" offset="100%"></stop>
        </linearGradient>
        <linearGradient x1="50%" y1="-2.48949813e-15%" x2="50%" y2="100%" id="linearGradient-11">
            <stop stop-color="#2B7FFF" offset="0%"></stop>
            <stop stop-color="#32BAFF" offset="100%"></stop>
        </linearGradient>
    </defs>
    <g id="4" stroke="none" stroke-width="1" fill="none" fill-rule="evenodd">
        <g id="Group" transform="translate(0.000000, 20.000000)" fill-rule="nonzero">
            <path d="M10.9933542,95.5314984 C9.92432789,96.0667296 9.05880824,96.9357123 8.52785016,98.0068673 C7.17880697,100.728428 8.29145193,104.028304 11.0130122,105.377347 L178.160757,188.23038 C179.700645,188.993684 181.508821,188.993265 183.048356,188.229249 L350.00809,105.373099 C351.076647,104.842813 351.94383,103.979491 352.47888,102.913311 C353.841312,100.198429 352.744934,96.8931121 350.030051,95.5306802 L183.173827,11.7958438 C181.623093,11.0176264 179.796067,11.0167747 178.244609,11.7935459 L10.9933542,95.5314984 Z" id="Rectangle-Copy-23" stroke="url(#linearGradient-1)"></path>
            <path d="M79.1298096,90.8384062 C78.0442236,91.376171 77.1665647,92.2573189 76.6331112,93.3450299 C75.2955753,96.0722639 76.4221482,99.3674111 79.1493823,100.704947 L178.142062,149.2546 C179.670494,150.004199 181.459892,150.003788 182.987979,149.253485 L281.871952,100.70071 C282.957073,100.167907 283.836431,99.2924393 284.37404,98.2096905 C285.724907,95.4890349 284.614474,92.1884139 281.893818,90.8375472 L183.073779,41.7711756 C181.534487,41.0068829 179.726421,41.0060453 178.186422,41.7689117 L79.1298096,90.8384062 Z" id="Rectangle-Copy-23" stroke="url(#linearGradient-2)"></path>
            <path d="M81.8530494,81.8869173 L177.45139,34.3309228 C179.136327,33.4927404 181.116909,33.4936601 182.801067,34.3334072 L278.170906,81.8862813 C281.136417,83.3649312 282.341757,86.9676358 280.863107,89.9331473 C280.277709,91.1071954 279.323649,92.0570232 278.147011,92.637197 L182.715281,139.692411 C181.043345,140.516805 179.083206,140.517257 177.410889,139.693634 L81.8744384,92.6415403 C78.9017077,91.1774583 77.6787064,87.5807109 79.1427884,84.6079802 C79.7236808,83.4285131 80.6759022,82.4724966 81.8530494,81.8869173 Z" id="Rectangle-Copy-23" fill="url(#linearGradient-3)"></path>
            <path d="M145.818783,97.1946444 L180.098201,80.2199982 C180.378129,80.0813825 180.706749,80.0815347 180.986547,80.2204097 L215.185225,97.1945353 C215.679926,97.4400745 215.881911,98.0401576 215.636372,98.5348585 C215.538609,98.7318264 215.378649,98.8910789 215.18125,98.9879677 L180.961583,115.783862 C180.683821,115.920194 180.358594,115.920269 180.08077,115.784064 L145.822342,98.9886907 C145.326445,98.745575 145.121526,98.1464873 145.364642,97.650591 C145.461649,97.4527208 145.6213,97.2924354 145.818783,97.1946444 Z" id="Rectangle-Copy-23" fill="#FFFFFF" opacity="0.567452567"></path>
            <g id="Group-61" transform="translate(92.000000, 0.000000)">
                <g id="Group-60">
                    <g id="Group-59">
                        <g id="Group-11-Copy" transform="translate(53.000000, 42.000000)">
                            <polygon id="Rectangle-Copy-20" fill="#FFFFFF" points="0 18 36 35.6470588 36 60.3529412 0 42.7058824"></polygon>
                            <polygon id="Rectangle-Copy-21" fill="#DCE5F1" transform="translate(54.000000, 39.176471) scale(-1, 1) translate(-54.000000, -39.176471) " points="36 18 72 35.6470588 72 60.3529412 36 42.7058824"></polygon>
                            <polygon id="Rectangle-Copy-22" fill="#FFFFFF" points="0 17.7404689 36.0418945 0 72 17.7404689 36.0209351 35.2941176"></polygon>
                        </g>
                        <use id="Rectangle-Copy-24" stroke="#00A4FF" mask="url(#mask-5)" stroke-width="2" stroke-dasharray="2" xlink:href="#path-4"></use>
                        <use id="Rectangle-Copy-25" stroke="#00A4FF" mask="url(#mask-7)" stroke-width="2" stroke-dasharray="2" xlink:href="#path-6"></use>
                        <circle id="Oval" fill="url(#radialGradient-8)" cx="145" cy="22" r="6"></circle>
                        <g id="Group-11-Copy-3" transform="translate(71.000000, 32.000000)">
                            <g id="Group-10">
                                <polygon id="Rectangle-Copy-20" fill="url(#linearGradient-9)" points="0 9.25806452 18 18.2416312 18 41 0 32.0164334"></polygon>
                                <polygon id="Rectangle-Copy-22" fill="url(#linearGradient-10)" points="1.95399252e-14 9.30706965 18.0209473 0.857287991 36 9.30706965 18.0209473 18.2612029"></polygon>
                                <g id="Group-11" transform="translate(27.000000, 25.258065) scale(-1, 1) translate(-27.000000, -25.258065) translate(18.000000, 9.258065)" fill="url(#linearGradient-11)">
                                    <polygon id="Rectangle-Copy-20" points="0 0 18 8.98356665 18 31.7419355 0 22.7583688"></polygon>
                                </g>
                            </g>
                        </g>
                        <g id="Group-11-Copy-4" transform="translate(79.000000, 0.000000)">
                            <g id="Group-10">
                                <polygon id="Rectangle-Copy-20" fill="url(#linearGradient-9)" points="0 5.1483871 10 10.1441266 10 22.8 0 17.8042605"></polygon>
                                <polygon id="Rectangle-Copy-22" fill="url(#linearGradient-10)" points="1.95399252e-14 5.17563873 10.0116374 0.476735761 20 5.17563873 10.0116374 10.1550104"></polygon>
                                <g id="Group-11" transform="translate(15.000000, 14.148387) scale(-1, 1) translate(-15.000000, -14.148387) translate(10.000000, 5.148387)" fill="#00A4FF">
                                    <polygon id="Rectangle-Copy-20" points="0 0 10 4.9957395 10 17.6516129 0 12.6558734"></polygon>
                                </g>
                            </g>
                        </g>
                        <circle id="Oval" fill="url(#radialGradient-8)" cx="4" cy="61" r="4"></circle>
                        <path d="M4.5,67.5058594 L4.5,108.5" id="Line-2" stroke="#00A4FF" stroke-linecap="square" stroke-dasharray="2,3"></path>
                        <path d="M144.5,29.5058594 L144.5,124" id="Line-2-Copy" stroke="#00A4FF" stroke-linecap="square" stroke-dasharray="2,3"></path>
                        <circle id="Oval" fill="url(#radialGradient-8)" cx="89.5" cy="114.5" r="4.5"></circle>
                    </g>
                </g>
            </g>
        </g>
    </g>
</svg>