<?xml version="1.0" encoding="UTF-8"?>
<svg width="361px" height="210px" viewBox="0 0 361 210" version="1.1" xmlns="http://www.w3.org/2000/svg" xmlns:xlink="http://www.w3.org/1999/xlink">
    <!-- Generator: Sketch 52.6 (67491) - http://www.bohemiancoding.com/sketch -->
    <title>1</title>
    <desc>Created with Sketch.</desc>
    <defs>
        <linearGradient x1="78.1488054%" y1="16.6341146%" x2="19.4273719%" y2="78.984375%" id="linearGradient-1">
            <stop stop-color="#F0F8FC" offset="0%"></stop>
            <stop stop-color="#DDEEF7" offset="100%"></stop>
        </linearGradient>
        <linearGradient x1="-14.5972222%" y1="75.1724381%" x2="100%" y2="8.73099662%" id="linearGradient-2">
            <stop stop-color="#3891FF" offset="0%"></stop>
            <stop stop-color="#6ACFFF" stop-opacity="0.352977808" offset="100%"></stop>
        </linearGradient>
        <linearGradient x1="0%" y1="100%" x2="100%" y2="26.2579449%" id="linearGradient-3">
            <stop stop-color="#E2F2FF" offset="0%"></stop>
            <stop stop-color="#FBFDFF" offset="100%"></stop>
        </linearGradient>
        <linearGradient x1="50%" y1="0%" x2="50%" y2="100%" id="linearGradient-4">
            <stop stop-color="#FFFFFF" offset="0%"></stop>
            <stop stop-color="#FFFFFF" offset="100%"></stop>
        </linearGradient>
        <linearGradient x1="50%" y1="0%" x2="50%" y2="100%" id="linearGradient-5">
            <stop stop-color="#D3DCE7" offset="0%"></stop>
            <stop stop-color="#DBE8F7" offset="100%"></stop>
        </linearGradient>
        <linearGradient x1="50%" y1="0%" x2="50%" y2="100%" id="linearGradient-6">
            <stop stop-color="#F9F9F9" offset="0%"></stop>
            <stop stop-color="#EEF1F3" offset="100%"></stop>
        </linearGradient>
        <linearGradient x1="50%" y1="0%" x2="50%" y2="100%" id="linearGradient-7">
            <stop stop-color="#E7F8FF" offset="0%"></stop>
            <stop stop-color="#A2DEFF" offset="100%"></stop>
        </linearGradient>
        <linearGradient x1="50%" y1="0%" x2="50%" y2="100%" id="linearGradient-8">
            <stop stop-color="#00D1FF" offset="0%"></stop>
            <stop stop-color="#00A4FF" offset="100%"></stop>
        </linearGradient>
        <linearGradient x1="50%" y1="-2.48949813e-15%" x2="50%" y2="100%" id="linearGradient-9">
            <stop stop-color="#2B7FFF" offset="0%"></stop>
            <stop stop-color="#32BAFF" offset="100%"></stop>
        </linearGradient>
        <linearGradient x1="50%" y1="0%" x2="50%" y2="100%" id="linearGradient-10">
            <stop stop-color="#ABE8FF" offset="0%"></stop>
            <stop stop-color="#73CDFF" offset="100%"></stop>
        </linearGradient>
        <polygon id="path-11" points="31 15 61 30 61 68 31 53"></polygon>
        <mask id="mask-12" maskContentUnits="userSpaceOnUse" maskUnits="objectBoundingBox" x="0" y="0" width="30" height="53" fill="white">
            <use xlink:href="#path-11"></use>
        </mask>
        <polygon id="path-13" points="0 32 30 47 30 85 0 70"></polygon>
        <mask id="mask-14" maskContentUnits="userSpaceOnUse" maskUnits="objectBoundingBox" x="0" y="0" width="30" height="53" fill="white">
            <use xlink:href="#path-13"></use>
        </mask>
        <radialGradient cx="50%" cy="50%" fx="50%" fy="50%" r="50%" id="radialGradient-15">
            <stop stop-color="#FFFFFF" offset="0%"></stop>
            <stop stop-color="#FFFFFF" offset="25.3522399%"></stop>
            <stop stop-color="#B8BEC7" offset="100%"></stop>
        </radialGradient>
    </defs>
    <g id="1" stroke="none" stroke-width="1" fill="none" fill-rule="evenodd">
        <g id="Group" fill-rule="nonzero">
            <g id="Oval" transform="translate(0.000000, 30.000000)">
                <path d="M10.9933542,85.5314984 C9.92432789,86.0667296 9.05880824,86.9357123 8.52785016,88.0068673 C7.17880697,90.7284276 8.29145193,94.0283037 11.0130122,95.3773469 L178.160757,178.23038 C179.700645,178.993684 181.508821,178.993265 183.048356,178.229249 L350.00809,95.3730993 C351.076647,94.8428127 351.94383,93.9794909 352.47888,92.9133111 C353.841312,90.1984285 352.744934,86.8931121 350.030051,85.5306802 L183.173827,1.79584384 C181.623093,1.01762643 179.796067,1.01677468 178.244609,1.79354586 L10.9933542,85.5314984 Z" id="Rectangle-Copy-23" stroke="url(#linearGradient-1)"></path>
                <path d="M79.1298096,80.8384062 C78.0442236,81.376171 77.1665647,82.2573189 76.6331112,83.3450299 C75.2955753,86.0722639 76.4221482,89.3674111 79.1493823,90.704947 L178.142062,139.2546 C179.670494,140.004199 181.459892,140.003788 182.987979,139.253485 L281.871952,90.7007096 C282.957073,90.1679066 283.836431,89.2924393 284.37404,88.2096905 C285.724907,85.4890349 284.614474,82.1884139 281.893818,80.8375472 L183.073779,31.7711756 C181.534487,31.0068829 179.726421,31.0060453 178.186422,31.7689117 L79.1298096,80.8384062 Z" id="Rectangle-Copy-23" stroke="url(#linearGradient-2)"></path>
                <path d="M81.8530494,71.8869173 L177.45139,24.3309228 C179.136327,23.4927404 181.116909,23.4936601 182.801067,24.3334072 L278.170906,71.8862813 C281.136417,73.3649312 282.341757,76.9676358 280.863107,79.9331473 C280.277709,81.1071954 279.323649,82.0570232 278.147011,82.637197 L182.715281,129.692411 C181.043345,130.516805 179.083206,130.517257 177.410889,129.693634 L81.8744384,82.6415403 C78.9017077,81.1774583 77.6787064,77.5807109 79.1427884,74.6079802 C79.7236808,73.4285131 80.6759022,72.4724966 81.8530494,71.8869173 Z" id="Rectangle-Copy-23" fill="url(#linearGradient-3)"></path>
            </g>
            <path d="M186,124 L215,109.5" id="Line" stroke="#00A4FF" stroke-linecap="square" stroke-dasharray="1,2"></path>
            <path d="M155,73 L185,56.5" id="Line-Copy-3" stroke="#00A4FF" stroke-linecap="square" stroke-dasharray="1,2"></path>
            <g id="Group-11" transform="translate(124.000000, 73.000000)">
                <polygon id="Rectangle-Copy-20" fill="url(#linearGradient-4)" points="0 15 30 30 30 68 0 53"></polygon>
                <polygon id="Rectangle-Copy-21" fill="url(#linearGradient-5)" transform="translate(44.965088, 41.500000) scale(-1, 1) translate(-44.965088, -41.500000) " points="29.9650879 15 59.9650879 30 59.9650879 68 29.9650879 53"></polygon>
                <polygon id="Rectangle-Copy-22" fill="url(#linearGradient-6)" points="0 15.0793986 30.0349121 0 60 15.0793986 30.0174459 30"></polygon>
            </g>
            <g id="Group-11" transform="translate(215.000000, 102.000000)">
                <g id="Group-10">
                    <polygon id="Rectangle-Copy-20" fill="url(#linearGradient-7)" points="0 7 13 13.7924528 13 31 0 24.2075472"></polygon>
                    <polygon id="Rectangle-Copy-22" fill="url(#linearGradient-8)" points="1.95399252e-14 7.03705266 13.0151286 0.648193359 26 7.03705266 13.0151286 13.807251"></polygon>
                    <g id="Group-11" transform="translate(19.500000, 19.000000) scale(-1, 1) translate(-19.500000, -19.000000) translate(13.000000, 7.000000)" fill="url(#linearGradient-9)">
                        <polygon id="Rectangle-Copy-20" points="0 0 13 6.79245283 13 24 0 17.2075472"></polygon>
                    </g>
                </g>
            </g>
            <g id="Group-11" transform="translate(141.000000, 42.000000)">
                <g id="Group-10">
                    <polygon id="Rectangle-Copy-20" fill="url(#linearGradient-7)" points="0 7 13 13.7924528 13 31 0 24.2075472"></polygon>
                    <polygon id="Rectangle-Copy-22" fill="url(#linearGradient-10)" points="1.95399252e-14 7.03705266 13.0151286 0.648193359 26 7.03705266 13.0151286 13.807251"></polygon>
                    <g id="Group-11" transform="translate(19.500000, 19.000000) scale(-1, 1) translate(-19.500000, -19.000000) translate(13.000000, 7.000000)" fill="url(#linearGradient-9)">
                        <polygon id="Rectangle-Copy-20" points="0 0 13 6.79245283 13 24 0 17.2075472"></polygon>
                    </g>
                </g>
            </g>
            <g id="Group-11" transform="translate(154.000000, 41.000000)">
                <polygon id="Rectangle-Copy-20" fill="#FFFFFF" points="31 15 61 30 61 68 31 53"></polygon>
                <use id="Rectangle-Copy-20" stroke="#00A4FF" mask="url(#mask-12)" stroke-width="2" stroke-dasharray="2" xlink:href="#path-11"></use>
                <use id="Rectangle-Copy-20" stroke="#00A4FF" mask="url(#mask-14)" stroke-width="2" stroke-dasharray="2" xlink:href="#path-13"></use>
                <polygon id="Rectangle-Copy-21" fill="url(#linearGradient-5)" transform="translate(75.965088, 41.500000) scale(-1, 1) translate(-75.965088, -41.500000) " points="60.9650879 15 90.9650879 30 90.9650879 68 60.9650879 53"></polygon>
                <polygon id="Rectangle-Copy-22" fill="url(#linearGradient-6)" points="31 15.0793986 61.0349121 0 91 15.0793986 61.0174459 30"></polygon>
            </g>
            <path d="M184,88 L215,71.5" id="Line-Copy-2" stroke="#00A4FF" stroke-linecap="square" stroke-dasharray="1,2"></path>
            <path d="M141.5,7.50585938 L141.5,48.0058594" id="Line-2" stroke="#D5D7DE" stroke-linecap="square" stroke-dasharray="2,3"></path>
            <circle id="Oval" fill="url(#radialGradient-15)" cx="142" cy="5" r="5"></circle>
        </g>
    </g>
</svg>