<?xml version="1.0" encoding="utf-8"?>
<!-- Generator: Adobe Illustrator 22.0.1, SVG Export Plug-In . SVG Version: 6.00 Build 0)  -->
<svg version="1.1" id="layer" xmlns="http://www.w3.org/2000/svg" xmlns:xlink="http://www.w3.org/1999/xlink" x="0px" y="0px"
	 viewBox="0 0 620.1 295.4" style="enable-background:new 0 0 620.1 295.4;" xml:space="preserve">
<style type="text/css">
	.st0{fill:#E60012;}
</style>
<polygon class="st0" points="429.1,36.2 429.1,111.8 411.8,117.8 411.8,30.1 359.9,12 359.9,135.9 342.7,141.9 342.7,6 316.8,-3 
	290.9,6 290.9,141.9 273.6,135.9 273.6,12 221.8,30.1 221.8,117.8 204.5,111.8 204.5,36.2 187.2,42.2 187.2,124.1 239,142.2 
	239,42.4 256.3,36.4 256.3,148.2 308.1,166.3 308.1,18.3 316.8,15.3 325.4,18.3 325.4,166.3 377.3,148.2 377.3,36.4 394.5,42.4 
	394.5,142.2 446.3,124.1 446.3,42.2 "/>
<polygon points="9.3,264.7 40.1,264.7 40.1,256.3 9.3,256.3 9.3,238.3 55.2,238.3 55.2,229.9 0,229.9 0,293.6 56.8,293.6 
	56.8,285.4 9.3,285.4 "/>
<path d="M251.9,268.2c0,11.4-7.5,18.9-18.7,18.9c-10.9,0-17.6-7.6-17.6-18.9v-38.1h-9.2v38.5c0,17.3,12.5,26.8,26.8,26.8
	c21,0,27.9-14.4,27.9-26.8v-38.5H252v38.1H251.9z"/>
<rect x="312.2" y="230" width="9.1" height="63.6"/>
<polygon points="430.4,279.8 385.2,230 376.2,230 376.2,293.6 385.3,293.6 385.3,243.3 430.5,293.6 439.4,293.6 439.4,230 
	430.4,230 "/>
<rect x="494.8" y="230" width="9.1" height="63.6"/>
<polygon points="592.7,259 619.2,229.9 608,229.9 586.9,252.7 566.5,229.9 554.6,229.9 580.1,259.1 548.2,293.5 559.8,293.5 
	586,265.2 611,293.5 623.7,293.5 "/>
<path d="M126.2,227.4c-19,0.1-33.6,14.5-33.6,34.5v0.2c0,19.9,15,33.9,33.8,33.8c4.8,0,10.5-1.3,14.8-3.5l5.2,6H157l-9.1-10.4
	c7.4-5.7,12.1-15,12.1-26.5v-0.2C160.1,241.4,145.1,227.2,126.2,227.4 M150.6,261.7c0,9-2.9,14.8-8.2,19.8l-4.9-5.7h-10.6l8.7,10
	c-2.1,1-5.9,1.8-8.9,1.9c-13.6,0.1-24.4-10.9-24.4-25.8v-0.2c0-15.2,10.2-26,23.8-26c13.7-0.1,24.6,10.8,24.6,25.9v0.1H150.6z"/>
<path class="st0" d="M479.4,118.3c8.7,0,15.6-7.2,15.6-15.7l0,0c0-8.5-6.8-15.6-15.6-15.6c-8.7,0-15.6,7.2-15.6,15.7v0.1
	C463.8,111.3,470.6,118.3,479.4,118.3 M479.4,116.6c-7.9,0-13.8-6.3-13.8-13.9v-0.1c0-7.6,6-14,13.8-14c7.9,0,13.8,6.3,13.8,13.9
	v0.1C493.2,110.3,487.2,116.6,479.4,116.6 M473,110.5h3.9v-5.1h2.5l3.5,5.1h4.7l-4.1-5.8c2.1-0.7,3.6-2.4,3.6-5
	c0-3.7-2.8-5.4-6.5-5.4H473V110.5z M476.9,102.1v-4.5h3.4c1.7,0,2.8,0.8,2.8,2.2c0,1.4-1,2.2-2.8,2.2L476.9,102.1L476.9,102.1z"/>
</svg>
