<?xml version="1.0" encoding="UTF-8" standalone="no"?>
<!DOCTYPE svg PUBLIC "-//W3C//DTD SVG 1.1//EN" "http://www.w3.org/Graphics/SVG/1.1/DTD/svg11.dtd">
<svg width="100%" height="100%" viewBox="0 0 470 214" version="1.1" xmlns="http://www.w3.org/2000/svg" xmlns:xlink="http://www.w3.org/1999/xlink" xml:space="preserve" xmlns:serif="http://www.serif.com/" style="fill-rule:evenodd;clip-rule:evenodd;stroke-linejoin:round;stroke-miterlimit:2;">
    <path d="M93.23,54.54L85.772,91.832L46.149,91.832L53.141,54.54L21.909,54.54L0,153.83L32.164,153.83L41.021,113.741L81.11,113.741L70.855,153.364L103.952,153.364L125.861,54.54L93.23,54.54Z" style="fill:#000;fill-rule:nonzero;"/>
    <path d="M137.049,54.54L168.747,54.54L146.838,153.364L114.673,153.364L137.049,54.54Z" style="fill:#000;"/>
    <path d="M200.911,54.54L237.737,54.54L193.453,100.223L219.557,152.898L181.333,152.898L159.424,101.621L200.911,54.54Z" style="fill:#000;"/>
    <path d="M251.256,54.54L282.954,54.54L261.511,153.364L228.88,153.364L251.256,54.54Z" style="fill:rgb(56,126,184);"/>
    <g>
        <path d="M280.157,148.236C294.608,124.462 319.78,101.621 319.78,101.621L295.54,54.54L330.501,54.54L340.291,75.517C340.291,75.517 350.546,67.126 363.132,57.803C380.38,45.217 395.297,37.292 395.297,37.292C395.297,37.292 393.432,33.097 388.304,28.435C383.177,24.24 373.387,13.985 373.387,13.985C373.387,13.985 403.221,23.308 420.935,23.774C438.182,24.24 468.948,18.18 468.948,18.18C468.948,18.18 459.625,27.503 443.31,44.284C426.995,61.066 419.536,94.629 419.536,94.629C419.536,94.629 419.536,90.433 417.672,83.441C415.807,76.449 412.544,69.923 412.544,69.923C412.544,69.923 407.416,73.652 390.169,84.84C372.921,96.027 357.072,109.546 357.072,109.546L378.049,152.432L344.486,152.432L331.434,127.726C331.434,127.726 325.374,130.989 310.457,144.041C284.352,165.95 274.563,178.536 257.316,201.377C247.993,213.964 246.128,218.625 253.586,199.047C254.519,199.979 259.18,183.664 280.157,148.236" style="fill:rgb(56,126,184);"/>
        <path d="M253.586,20.511C253.586,9.323 262.909,0 274.097,0C285.285,0 294.608,9.323 294.608,20.511C294.608,31.698 285.285,41.021 274.097,41.021C262.909,41.021 253.586,32.164 253.586,20.511" style="fill:rgb(56,126,184);fill-rule:nonzero;"/>
    </g>
</svg>
