<?xml version="1.0" encoding="UTF-8" standalone="no"?>
<!DOCTYPE svg PUBLIC "-//W3C//DTD SVG 1.1//EN" "http://www.w3.org/Graphics/SVG/1.1/DTD/svg11.dtd">
<svg width="100%" height="100%" viewBox="0 0 800 172" version="1.1" xmlns="http://www.w3.org/2000/svg" xmlns:xlink="http://www.w3.org/1999/xlink" xml:space="preserve" xmlns:serif="http://www.serif.com/" style="fill-rule:evenodd;clip-rule:evenodd;stroke-linejoin:round;stroke-miterlimit:2;">
    <g>
        <g>
            <g>
                <path d="M285.128,56.651L285.128,62.591L244.681,111.657L286.734,111.657L286.734,120.331L230.537,120.331L230.537,114.393L271.17,65.204L232.56,65.204L232.56,56.651L285.128,56.651Z" style="fill:#000;fill-rule:nonzero;"/>
                <path d="M348.033,56.651C353.695,56.615 358.524,58.417 362.525,62.062C366.564,65.659 368.547,70.037 368.468,75.177L368.468,87.542C366.839,88.25 365.492,88.821 364.428,89.237C363.355,89.645 362.233,90.026 361.073,90.366C359.903,90.705 358.961,90.87 358.251,90.87L323.681,90.87C322.173,90.87 320.656,90.377 319.132,89.389C317.609,88.4 315.713,86.941 313.464,85.048L313.464,99.841C313.464,103.083 314.73,105.87 317.262,108.207C319.793,110.509 322.825,111.657 326.344,111.657L346.25,111.657C349.811,111.657 352.823,110.509 355.273,108.207C357.813,105.871 359.08,103.083 359.08,99.841L359.08,99.125L368.466,99.125L368.466,101.679C368.505,106.836 366.482,111.218 362.4,114.865C358.442,118.463 353.652,120.288 348.031,120.329L323.558,120.329C318.009,120.288 313.22,118.462 309.176,114.865C305.221,111.218 303.221,106.836 303.181,101.679L303.181,75.178C303.221,70.001 305.221,65.605 309.176,62.002C313.221,58.354 318.01,56.579 323.558,56.651L348.033,56.651ZM317.142,68.12C314.691,70.371 313.465,73.167 313.465,76.494L313.465,82.792L358.251,82.792L358.251,76.494C358.291,73.167 357.016,70.372 354.445,68.12C351.912,65.789 348.865,64.62 345.3,64.62L326.346,64.62C322.826,64.62 319.754,65.789 317.142,68.12Z" style="fill:#000;fill-rule:nonzero;"/>
                <path d="M398.521,56.651L400.182,62.416C401.732,61.227 403.045,60.285 404.134,59.565C405.224,58.848 406.352,58.187 407.522,57.575C408.689,56.963 409.65,56.651 410.401,56.651L430.954,56.651C436.613,56.615 441.446,58.417 445.445,62.062C449.484,65.659 451.468,70.037 451.388,75.177L451.388,120.331L441.171,120.331L441.171,77.081C441.211,73.766 439.945,70.951 437.372,68.65C434.831,66.315 431.785,65.165 428.221,65.204L400.182,65.204L400.182,120.332L389.908,120.332L389.908,56.652L398.521,56.652L398.521,56.651Z" style="fill:#000;fill-rule:nonzero;"/>
                <rect x="475.45" y="27.194" width="10.273" height="93.138" style="fill:#000;fill-rule:nonzero;"/>
                <path d="M545.532,56.651C551.2,56.615 556.031,58.417 560.031,62.062C564.07,65.659 566.046,70.06 565.966,75.246L565.966,120.331L557.354,120.331L555.748,114.507C554.128,115.779 552.781,116.771 551.71,117.487C550.644,118.194 549.523,118.852 548.353,119.44C547.184,120.032 546.25,120.331 545.532,120.331L524.686,120.331C519.138,120.29 514.305,118.464 510.189,114.867C506.148,111.22 504.148,106.867 504.188,101.802L504.188,100.256C504.228,95.074 506.227,90.67 510.189,87.07C514.227,83.425 519.017,81.643 524.566,81.718L555.747,81.718L555.747,76.616C555.787,73.292 554.522,70.459 551.95,68.122C549.419,65.791 546.361,64.622 542.797,64.622L511.026,64.622L511.026,56.654L545.532,56.654L545.532,56.651ZM518.147,93.189C515.697,95.051 514.47,97.648 514.47,100.975C514.47,103.775 515.697,106.309 518.147,108.572C520.688,110.712 523.753,111.776 527.356,111.776L555.748,111.776L555.748,89.681L527.356,89.681C523.832,89.681 520.768,90.85 518.147,93.189Z" style="fill:#000;fill-rule:nonzero;"/>
                <path d="M593.35,56.651L616.873,111.421L641.523,56.651L653.524,56.651L610.873,144.805L599.053,144.805L608.029,129.416C608.82,128.11 610.285,126.157 612.422,123.539L581.417,56.65L593.35,56.65L593.35,56.651Z" style="fill:#000;fill-rule:nonzero;"/>
                <path d="M712.752,56.651C718.411,56.615 723.243,58.417 727.242,62.062C731.282,65.659 733.262,70.037 733.185,75.177L733.185,87.542C731.557,88.25 730.211,88.821 729.146,89.237C728.074,89.645 726.952,90.026 725.79,90.366C724.622,90.705 723.678,90.87 722.969,90.87L688.398,90.87C686.891,90.87 685.376,90.377 683.849,89.389C682.327,88.4 680.431,86.941 678.177,85.048L678.177,99.841C678.177,103.083 679.448,105.87 681.979,108.207C684.508,110.509 687.544,111.657 691.066,111.657L710.969,111.657C714.533,111.657 717.537,110.509 719.991,108.207C722.533,105.871 723.798,103.083 723.798,99.841L723.798,99.125L733.184,99.125L733.184,101.679C733.224,106.836 731.196,111.218 727.12,114.865C723.16,118.463 718.371,120.288 712.751,120.329L688.276,120.329C682.73,120.288 677.939,118.462 673.898,114.865C669.94,111.218 667.939,106.836 667.899,101.679L667.899,75.178C667.938,70.001 669.939,65.605 673.898,62.002C677.939,58.354 682.73,56.579 688.276,56.651L712.752,56.651ZM681.859,68.12C679.408,70.371 678.177,73.167 678.177,76.494L678.177,82.792L722.968,82.792L722.968,76.494C723.007,73.167 721.733,70.372 719.161,68.12C716.629,65.789 713.581,64.62 710.017,64.62L691.066,64.62C687.544,64.62 684.471,65.789 681.859,68.12Z" style="fill:#000;fill-rule:nonzero;"/>
                <path d="M763.182,56.651L764.845,62.416C766.385,61.227 767.703,60.285 768.794,59.565C769.884,58.848 771.012,58.187 772.181,57.575C773.342,56.963 774.305,56.651 775.059,56.651L791.807,56.651L791.807,65.204L764.844,65.204L764.844,120.332L754.626,120.332L754.626,56.652L763.182,56.652L763.182,56.651Z" style="fill:#000;fill-rule:nonzero;"/>
            </g>
        </g>
        <g>
            <path d="M94.188,0.224C46.694,0.224 8.193,38.725 8.193,86.219C8.193,133.713 46.694,172.214 94.188,172.214C141.682,172.214 180.183,133.713 180.183,86.219C180.183,38.726 141.682,0.224 94.188,0.224ZM90.188,139.753C62.279,139.753 39.654,117.128 39.654,89.219C39.654,61.31 62.279,38.685 90.188,38.685C118.097,38.685 140.722,61.31 140.722,89.219C140.722,117.129 118.097,139.753 90.188,139.753Z" style="fill:url(#_Linear1);"/>
            <path d="M178.983,71.364L178.884,70.77C178.742,69.919 178.359,68.177 178.177,67.333C178.159,67.25 178.142,67.167 178.123,67.084C177.841,65.848 177.529,64.62 177.194,63.4C177.157,63.264 177.123,63.127 177.085,62.991C176.744,61.773 176.372,60.564 175.978,59.363C175.94,59.249 175.906,59.133 175.868,59.019C175.449,57.76 174.999,56.512 174.523,55.274C174.509,55.238 174.496,55.202 174.482,55.165C166.15,33.603 149.213,15.504 126.257,6.316C126.245,6.311 126.232,6.306 126.22,6.301C125.252,5.914 124.278,5.538 123.289,5.183C123.032,5.091 122.774,5.016 122.516,4.927C122.2,4.817 121.879,4.716 121.56,4.61C120.452,4.238 119.342,3.885 118.229,3.561C118.131,3.533 118.032,3.507 117.933,3.479C106.813,0.282 134.809,23.327 123.89,24.572L117.136,23.794C110.958,20.559 104.05,18.438 96.64,17.739C67.779,15.017 41.399,35.506 36.887,64.142C35.334,73.999 36.479,83.622 39.756,92.288C39.695,91.273 39.655,90.252 39.655,89.221C39.655,83.26 40.695,77.543 42.59,72.233C43.218,70.24 44.024,68.514 44.783,67.029C53.196,49.849 71.064,38.142 91.61,38.706C118.084,39.433 139.754,60.924 140.69,87.39C141.014,96.545 138.898,105.177 134.945,112.694C134.25,114.015 133.602,115.359 132.969,116.711C132.775,117.126 132.592,117.474 132.494,117.633C116.196,144.182 83.028,156.621 52.543,145.686C27.142,136.575 10.62,113.749 8.294,88.54C8.474,94.902 9.367,101.177 10.914,107.26C10.877,107.147 10.836,107.036 10.8,106.923C13.428,117.472 18.028,127.33 24.225,136.033C24.318,136.164 24.416,136.291 24.51,136.421C25.018,137.126 25.532,137.828 26.061,138.518C26.293,138.821 26.536,139.117 26.772,139.417C27.178,139.931 27.581,140.447 27.998,140.952C28.328,141.352 28.67,141.742 29.007,142.136C29.351,142.537 29.69,142.942 30.041,143.336C30.421,143.764 30.814,144.181 31.203,144.602C31.532,144.958 31.857,145.318 32.193,145.668C32.576,146.069 32.971,146.459 33.363,146.852C33.727,147.218 34.088,147.588 34.459,147.948C34.801,148.28 35.153,148.602 35.502,148.929C35.946,149.346 36.389,149.764 36.843,150.172C37.107,150.409 37.378,150.639 37.645,150.873C38.207,151.366 38.771,151.857 39.346,152.335C39.464,152.433 39.585,152.529 39.705,152.625C40.382,153.171 41.162,153.823 41.858,154.345L42.026,154.471C53.178,163.019 66.57,168.931 81.394,171.166C81.734,171.218 82.074,171.271 82.415,171.318C82.686,171.356 82.953,171.404 83.226,171.439C83.408,171.463 83.589,171.473 83.771,171.496C84.875,171.633 85.978,171.746 87.081,171.839C87.419,171.868 87.756,171.896 88.092,171.92C89.173,171.998 90.252,172.054 91.33,172.091C91.73,172.105 92.13,172.119 92.529,172.127C93.492,172.146 94.454,172.146 95.414,172.133C96.106,172.124 96.794,172.105 97.483,172.08C98.114,172.056 98.744,172.027 99.373,171.989C100.578,171.918 101.776,171.819 102.97,171.698C103.06,171.689 103.15,171.681 103.241,171.671C115.703,170.371 127.495,166.372 137.941,160.198C138.164,160.067 138.386,159.934 138.608,159.8C139.437,159.3 140.257,158.789 141.068,158.262C141.562,157.942 142.053,157.616 142.541,157.285C143.069,156.926 143.594,156.565 144.113,156.195C144.846,155.674 145.571,155.142 146.289,154.599C146.558,154.394 146.827,154.191 147.094,153.983C148.01,153.271 148.912,152.541 149.8,151.792C149.873,151.731 149.947,151.672 150.02,151.61C153.133,148.964 156.067,146.084 158.797,142.988L159.101,142.65C159.7,141.985 160.805,140.618 161.37,139.924C161.423,139.859 161.477,139.794 161.53,139.728C162.276,138.791 163.001,137.834 163.711,136.862C163.849,136.674 163.989,136.488 164.125,136.298C164.742,135.437 165.341,134.56 165.928,133.673C166.152,133.335 166.377,132.999 166.597,132.658C167.081,131.904 167.551,131.138 168.013,130.365C168.421,129.684 168.817,128.995 169.208,128.302C169.468,127.838 169.727,127.374 169.979,126.904C170.577,125.793 171.148,124.665 171.699,123.524C171.743,123.433 171.788,123.343 171.832,123.253C173.38,120.013 174.737,116.657 175.881,113.191C176.154,112.367 176.414,111.543 176.661,110.716C176.791,110.28 176.917,109.843 177.04,109.403C177.354,108.288 177.645,107.172 177.912,106.055C177.945,105.915 177.978,105.776 178.01,105.636C180.704,94.125 180.933,82.493 178.983,71.364Z" style="fill:url(#_Linear2);"/>
            <path d="M80.769,0.906C46.209,6.508 19.844,31.989 11.404,63.772C22.327,40.342 44.279,22.554 71.72,18.106C115.753,10.969 157.235,40.879 164.372,84.912C169.405,115.964 156,145.729 132.225,163.094C165.442,146.91 185.632,110.388 179.416,72.034C171.817,25.152 127.651,-6.693 80.769,0.906Z" style="fill:url(#_Linear3);"/>
        </g>
    </g>
    <defs>
        <linearGradient id="_Linear1" x1="0" y1="0" x2="1" y2="0" gradientUnits="userSpaceOnUse" gradientTransform="matrix(171.99,0,0,171.99,8.1924,86.2195)"><stop offset="0" style="stop-color:rgb(39,199,255);stop-opacity:1"/><stop offset="1" style="stop-color:rgb(162,242,255);stop-opacity:1"/></linearGradient>
        <linearGradient id="_Linear2" x1="0" y1="0" x2="1" y2="0" gradientUnits="userSpaceOnUse" gradientTransform="matrix(38.6846,-109.422,109.422,38.6846,69.6933,164.233)"><stop offset="0" style="stop-color:rgb(39,170,243);stop-opacity:1"/><stop offset="1" style="stop-color:rgb(39,170,243);stop-opacity:1"/></linearGradient>
        <linearGradient id="_Linear3" x1="0" y1="0" x2="1" y2="0" gradientUnits="userSpaceOnUse" gradientTransform="matrix(127.5,106,-106,127.5,46.7047,13.6596)"><stop offset="0" style="stop-color:rgb(6,133,225);stop-opacity:1"/><stop offset="0.52" style="stop-color:rgb(8,134,226);stop-opacity:1"/><stop offset="0.7" style="stop-color:rgb(15,139,230);stop-opacity:1"/><stop offset="0.84" style="stop-color:rgb(26,148,236);stop-opacity:1"/><stop offset="0.94" style="stop-color:rgb(43,161,246);stop-opacity:1"/><stop offset="1" style="stop-color:rgb(56,170,253);stop-opacity:1"/></linearGradient>
    </defs>
</svg>
