<?xml version="1.0" encoding="UTF-8" standalone="no"?>
<!DOCTYPE svg PUBLIC "-//W3C//DTD SVG 1.1//EN" "http://www.w3.org/Graphics/SVG/1.1/DTD/svg11.dtd">
<svg width="100%" height="100%" viewBox="0 0 156 57" version="1.1" xmlns="http://www.w3.org/2000/svg" xmlns:xlink="http://www.w3.org/1999/xlink" xml:space="preserve" xmlns:serif="http://www.serif.com/" style="fill-rule:evenodd;clip-rule:evenodd;stroke-linejoin:round;stroke-miterlimit:2;">
    <g>
        <path d="M0.063,26.985C0.063,43.697 13.72,56.621 29.734,56.621C45.746,56.621 59.405,43.697 59.405,26.985C59.405,11.658 48.737,0.485 36.923,0.485C34.237,0.485 31.594,1.065 29.734,1.83C27.873,1.065 25.227,0.485 22.546,0.485C10.729,0.485 0.063,11.658 0.063,26.985M35.02,19.291C35.02,22.537 32.877,25.095 29.735,25.095C26.595,25.095 24.45,22.537 24.45,19.291C24.45,14.865 27.458,10.937 29.735,9.586C32.013,10.938 35.02,14.865 35.02,19.291ZM7.358,26.843C7.358,15.309 15.681,7.428 22.222,7.721C19.122,10.809 17.244,15.308 17.244,19.658C17.244,27.147 23.186,32.398 29.734,32.398C36.279,32.398 42.225,27.147 42.225,19.658C42.225,15.308 40.347,10.809 37.247,7.721C43.788,7.428 52.112,15.309 52.112,26.843C52.112,39.47 41.98,49.322 29.735,49.322C17.489,49.321 7.358,39.47 7.358,26.843Z" style="fill:rgb(0,123,194);fill-rule:nonzero;"/>
        <path d="M86.961,12.657L86.961,18.524L90.238,18.524L90.238,29.313L81.436,12.657L71.277,12.657L71.277,18.524L74.553,18.524L74.553,36.475L71.277,36.475L71.277,42.339L84.713,42.339L84.713,36.475L81.436,36.475L81.436,25.685L90.238,42.339L97.121,42.339L97.121,18.524L100.396,18.524L100.396,12.657L86.961,12.657" style="fill:#000;fill-rule:nonzero;"/>
        <path d="M128.312,24.057L128.312,12.656L102.474,12.656L102.474,24.057L108.34,24.057L108.34,18.523L111.497,18.523L111.497,36.474L107.212,36.474L107.212,42.335L123.575,42.335L123.575,36.474L119.289,36.474L119.289,18.523L122.448,18.523L122.448,24.057L128.312,24.057" style="fill:#000;fill-rule:nonzero;"/>
        <path d="M156.151,24.057L156.151,12.656L130.316,12.656L130.316,24.057L136.178,24.057L136.178,18.523L139.336,18.523L139.336,36.474L135.052,36.474L135.052,42.335L151.411,42.335L151.411,36.474L147.129,36.474L147.129,18.523L150.285,18.523L150.285,24.057L156.151,24.057" style="fill:#000;fill-rule:nonzero;"/>
    </g>
</svg>
