<?xml version="1.0"?>
<svg xmlns="http://www.w3.org/2000/svg" xmlns:xlink="http://www.w3.org/1999/xlink" data-noselect="" viewBox="0 0 566.9291338582677 86.92913385826772" width="150" height="20" preserveAspectRatio="none" version="1.1"><defs/> <g id="background" data-noselect=""><!----> <!----></g> <g id="shape_AjwXCJgVSQ" transform="translate(3.0840732709463907,3.480698525036665) rotate(0,102.4933141461912,40.808503881378364) scale(1,1)" filter="" style="cursor: move; opacity: 1;"><g><svg xmlns="http://www.w3.org/2000/svg" xmlns:xlink="http://www.w3.org/1999/xlink" version="1.1" id="&#x56FE;&#x5C42;_1" x="0px" y="0px" width="204.9866282923824" height="81.61700776275673" viewBox="10.189589500427246 43.904483795166016 179.6204071044922 112.19052124023438" enable-background="new 0 0 200 200" xml:space="preserve" preserveAspectRatio="none" class="style-removed" data-parent="shape_AjwXCJgVSQ">
<g>
	<path fill="#24DD7F" d="M106.321,89.494c0,0,21.712-23.689,49.111-19.623c20.564,3.052,29.926,14.137,34.378,20.14H176.37   c0,0-9.943-9.084-23.78-10.899C140.013,77.462,129.843,78.121,106.321,89.494z"/>
	<path fill="#24DD7F" d="M147.161,71.716c0,0-5.801-22.574-33.028-27.054S61.92,55.92,43.31,82.687l22.517-4.021   c0,0,19.354-29.195,47.101-24.24c16.083,2.872,24.699,10.109,27.916,18.496L147.161,71.716z"/>
	<path fill="#24DD7F" d="M62.38,83.893c0,0-46.698,7.782-51.696,38.255c-4.136,25.216,18.611,33.947,33.43,33.947   c18.036,0,112.698,0,112.698,0l1.206-5.687c0,0-71.397,0.324-101.38,0c-15.968-0.172-28.147-4.996-28.147-22.574   c0-14.992,12.867-26.502,29.065-32.034L62.38,83.893z"/>
</g>
</svg></g></g><g id="shape_W7YDZ35Q8m" transform="translate(-3.910298633587658,-23.456823712206614) rotate(0,231.82272735874352,77.55453) scale(1,1)" filter="" style="cursor: move; opacity: 1;"><g><svg xmlns="http://www.w3.org/2000/svg" xmlns:xlink="http://www.w3.org/1999/xlink" version="1.1" width="463.64545471748704" height="155.10906" viewBox="0 0 463.64545471748704 155.10906" data-parent="shape_W7YDZ35Q8m"><g data-width="349.23753000000005" transform="translate(51.67, 0)"><path d="M20.67 0L3.36 0L3.36-6.15L19.12-6.15Q22.89-6.15 24.13-6.87L24.13-6.87Q25.94-7.96 25.94-10.13L25.94-10.13Q25.94-12.66 23.82-13.80L23.82-13.80Q22.63-14.47 20.00-14.47L20.00-14.47L13.59-14.47Q7.75-14.47 5.17-16.59L5.17-16.59Q3.57-17.93 2.66-19.94Q1.76-21.96 1.76-24.28L1.76-24.28Q1.76-27.90 3.88-30.90L3.88-30.90Q5.94-33.79 10.49-34.31L10.49-34.31Q12.04-34.46 15.09-34.46L15.09-34.46L32.19-34.46L32.19-28.32L16.74-28.32Q13.28-28.26 12.14-28.01L12.14-28.01Q9.82-27.44 9.82-24.49L9.82-24.49Q9.82-22.01 11.78-21.18L11.78-21.18Q13.07-20.56 16.12-20.56L16.12-20.56L21.65-20.56Q25.89-20.56 27.95-19.84L27.95-19.84Q31.62-18.60 33.02-15.50L33.02-15.50Q34.10-13.02 34.10-10.18L34.10-10.18Q34.10-7.03 32.66-4.55L32.66-4.55Q30.64-1.03 26.61-0.31L26.61-0.31Q24.65 0 20.67 0L20.67 0Z" transform="translate(0 96.05453) skewX(-14)" fill="rgb(36, 221, 127)" stroke="rgb(36, 221, 127)" stroke-linecap="square" stroke-linejoin="square" stroke-width="0.086" data-glyph-w="35.910650000000004" data-glyph-h="51.67" data-glyph-ascender="44.38453" data-glyph-descender="-7.28547"/><path d="M22.63-12.04L10.85-12.04L10.85 0L3.51 0L3.51-34.46L20.72-34.46Q25.42-34.46 27.44-33.79L27.44-33.79Q30.85-32.66 32.81-29.09L32.81-29.09Q34.26-26.40 34.26-23.25L34.26-23.25Q34.26-20.62 33.30-18.27Q32.35-15.91 30.64-14.42L30.64-14.42Q29.09-13.07 27.36-12.56Q25.63-12.04 22.63-12.04L22.63-12.04ZM10.85-28.32L10.85-18.19L20.82-18.19Q23.51-18.19 24.59-19.01L24.59-19.01Q26.20-20.31 26.20-23.51L26.20-23.51Q26.20-26.97 23.77-27.95L23.77-27.95Q22.89-28.32 20.98-28.32L20.98-28.32L10.85-28.32Z" transform="translate(35.910650000000004 96.05453) skewX(-14)" fill="rgb(36, 221, 127)" stroke="rgb(36, 221, 127)" stroke-linecap="square" stroke-linejoin="square" stroke-width="0.086" data-glyph-w="35.393950000000004" data-glyph-h="51.67" data-glyph-ascender="44.38453" data-glyph-descender="-7.28547"/><path d="M17.00-34.46L29.35-34.46L29.35-28.32L19.79-28.32Q16.07-28.32 14.36-27.80Q12.66-27.28 11.52-25.78L11.52-25.78Q10.75-24.75 10.46-23.72Q10.18-22.68 9.97-20.20L9.97-20.20L29.35-20.20L29.35-14.05L9.97-14.05Q10.39-9.61 12.61-7.88Q14.83-6.15 20.15-6.15L20.15-6.15L29.35-6.15L29.35 0L19.79 0Q15.91 0 12.97-0.47L12.97-0.47Q8.32-1.24 5.58-4.55L5.58-4.55Q1.65-9.30 1.65-17.41L1.65-17.41Q1.65-26.40 7.18-31.42L7.18-31.42Q9.09-33.12 11.24-33.79Q13.38-34.46 17.00-34.46L17.00-34.46Z" transform="translate(71.30460000000001 96.05453) skewX(-14)" fill="rgb(36, 221, 127)" stroke="rgb(36, 221, 127)" stroke-linecap="square" stroke-linejoin="square" stroke-width="0.086" data-glyph-w="31.622040000000002" data-glyph-h="51.67" data-glyph-ascender="44.38453" data-glyph-descender="-7.28547"/><path d="M17.00-34.46L29.35-34.46L29.35-28.32L19.79-28.32Q16.07-28.32 14.36-27.80Q12.66-27.28 11.52-25.78L11.52-25.78Q10.75-24.75 10.46-23.72Q10.18-22.68 9.97-20.20L9.97-20.20L29.35-20.20L29.35-14.05L9.97-14.05Q10.39-9.61 12.61-7.88Q14.83-6.15 20.15-6.15L20.15-6.15L29.35-6.15L29.35 0L19.79 0Q15.91 0 12.97-0.47L12.97-0.47Q8.32-1.24 5.58-4.55L5.58-4.55Q1.65-9.30 1.65-17.41L1.65-17.41Q1.65-26.40 7.18-31.42L7.18-31.42Q9.09-33.12 11.24-33.79Q13.38-34.46 17.00-34.46L17.00-34.46Z" transform="translate(102.92664 96.05453) skewX(-14)" fill="rgb(36, 221, 127)" stroke="rgb(36, 221, 127)" stroke-linecap="square" stroke-linejoin="square" stroke-width="0.086" data-glyph-w="31.622040000000002" data-glyph-h="51.67" data-glyph-ascender="44.38453" data-glyph-descender="-7.28547"/><path d="M3.51 0L3.51-34.46L18.14-34.46Q23.61-34.46 26.61-33.38L26.61-33.38Q32.14-31.36 34.00-25.99L34.00-25.99Q35.39-21.86 35.39-17.15L35.39-17.15Q35.39-12.50 34.05-8.37L34.05-8.37Q32.71-4.13 29.61-2.12L29.61-2.12Q27.64-0.88 25.29-0.44Q22.94 0 18.14 0L18.14 0L3.51 0ZM18.14-28.32L10.85-28.32L10.85-6.15L18.14-6.15Q22.94-6.15 24.80-8.27L24.80-8.27Q25.94-9.61 26.64-12.04Q27.33-14.47 27.33-17.21L27.33-17.21Q27.33-20.25 26.51-22.79Q25.68-25.32 24.34-26.56L24.34-26.56Q22.37-28.32 18.14-28.32L18.14-28.32Z" transform="translate(134.54868000000002 96.05453) skewX(-14)" fill="rgb(36, 221, 127)" stroke="rgb(36, 221, 127)" stroke-linecap="square" stroke-linejoin="square" stroke-width="0.086" data-glyph-w="36.99572" data-glyph-h="51.67" data-glyph-ascender="44.38453" data-glyph-descender="-7.28547"/><path d="M10.85 0L3.51 0L3.51-34.46L10.85-34.46L10.85 0Z" transform="translate(171.54440000000002 96.05453) skewX(-14)" fill="rgb(36, 221, 127)" stroke="rgb(36, 221, 127)" stroke-linecap="square" stroke-linejoin="square" stroke-width="0.086" data-glyph-w="14.31259" data-glyph-h="51.67" data-glyph-ascender="44.38453" data-glyph-descender="-7.28547"/><path d="M3.51 0L3.51-34.46L18.14-34.46Q23.61-34.46 26.61-33.38L26.61-33.38Q32.14-31.36 34.00-25.99L34.00-25.99Q35.39-21.86 35.39-17.15L35.39-17.15Q35.39-12.50 34.05-8.37L34.05-8.37Q32.71-4.13 29.61-2.12L29.61-2.12Q27.64-0.88 25.29-0.44Q22.94 0 18.14 0L18.14 0L3.51 0ZM18.14-28.32L10.85-28.32L10.85-6.15L18.14-6.15Q22.94-6.15 24.80-8.27L24.80-8.27Q25.94-9.61 26.64-12.04Q27.33-14.47 27.33-17.21L27.33-17.21Q27.33-20.25 26.51-22.79Q25.68-25.32 24.34-26.56L24.34-26.56Q22.37-28.32 18.14-28.32L18.14-28.32Z" transform="translate(185.85699000000002 96.05453) skewX(-14)" fill="rgb(36, 221, 127)" stroke="rgb(36, 221, 127)" stroke-linecap="square" stroke-linejoin="square" stroke-width="0.086" data-glyph-w="36.99572" data-glyph-h="51.67" data-glyph-ascender="44.38453" data-glyph-descender="-7.28547"/><path d="M19.17-6.15L29.71-6.15L29.71 0L17.67 0Q14.26 0 12.45-0.36L12.45-0.36Q6.10-1.60 3.41-7.44L3.41-7.44Q1.65-11.37 1.65-17.15L1.65-17.15Q1.65-24.08 4.34-28.42L4.34-28.42Q6.30-31.57 9.58-33.02Q12.87-34.46 18.03-34.46L18.03-34.46L29.71-34.46L29.71-28.32L18.86-28.32Q13.95-28.32 11.68-25.68L11.68-25.68Q9.77-23.51 9.77-17.83L9.77-17.83Q9.77-10.18 12.71-7.80L12.71-7.80Q14.78-6.15 19.17-6.15L19.17-6.15Z" transform="translate(222.85271000000003 96.05453) skewX(-14)" fill="rgb(36, 221, 127)" stroke="rgb(36, 221, 127)" stroke-linecap="square" stroke-linejoin="square" stroke-width="0.086" data-glyph-w="31.31202" data-glyph-h="51.67" data-glyph-ascender="44.38453" data-glyph-descender="-7.28547"/><path d="M11.83-9.82L7.96 0L1.24 0L5.06-9.82L11.83-9.82ZM35.86-9.82L42.63-9.82L46.45 0L39.68 0L35.86-9.82ZM1.09-28.94L1.09-34.77L46.45-37.25L46.45-31.42L27.08-30.33L20.10-25.78L22.27-25.78L24.39-25.78L33.22-25.78L20.10-17.26L35.34-17.26L32.55-21.29L39.99-21.29L46.45-11.99L43.30-11.99L39.01-11.99L29.30-11.99L29.30-5.63Q29.30-4.44 28.83-3.41Q28.37-2.38 27.59-1.60Q26.82-0.83 25.78-0.39Q24.75 0.05 23.61 0.05L23.61 0.05L13.23 0.05L16.07-5.22L19.48-5.22Q20.15-5.22 20.62-5.68Q21.08-6.15 21.08-6.87L21.08-6.87L21.08-11.99L11.99-11.99L1.24-11.99L1.09-11.99L14.21-20.51L11.99-20.51L3.57-20.51L1.09-20.51L15.14-29.71L1.09-28.94Z" transform="translate(254.16473000000002 96.05453) skewX(-14)" fill="rgb(36, 221, 127)" stroke="rgb(36, 221, 127)" stroke-linecap="square" stroke-linejoin="square" stroke-width="0.086" data-glyph-w="47.5364" data-glyph-h="51.67" data-glyph-ascender="44.38453" data-glyph-descender="-7.28547"/><path d="M46.45-33.53L46.45-28.42L28.32-28.42L25.52-21.65L38.29-21.65L37.05-25.32L43.04-25.32L46.30-15.97L40.25-15.97L39.99-16.69L39.17-16.69L39.17-6.72Q39.17-5.99 39.63-5.53Q40.10-5.06 40.82-5.06L40.82-5.06L45.88-5.06L43.61 0.05L37.31 0.05Q35.34 0.05 34.00-1.32Q32.66-2.69 32.66-4.65L32.66-4.65L32.66-16.69L27.85-16.69L24.65 0.05L17.83 0.05L21.03-16.69L15.76-16.69L20.77-28.42L17.46-28.42L17.46-33.53L28.73-33.53L27.02-37.31L35.19-37.31L36.84-33.53L46.45-33.53ZM15.97-7.13L1.09-7.13L7.18-19.94L1.09-19.94L8.73-36.53L16.74-36.53L10.80-24.59L11.99-24.59L15.97-24.59L10.18-11.83L15.97-11.83L15.97-7.13ZM1.09 0.05L1.09-4.65L15.97-4.65L15.97 0.05L1.09 0.05Z" transform="translate(301.70113000000003 96.05453) skewX(-14)" fill="rgb(36, 221, 127)" stroke="rgb(36, 221, 127)" stroke-linecap="square" stroke-linejoin="square" stroke-width="0.086" data-glyph-w="47.5364" data-glyph-h="51.67" data-glyph-ascender="44.38453" data-glyph-descender="-7.28547"/></g></svg></g></g><g id="shape_KGTd7uuhMV" transform="translate(162.2453469135269,57.812486287793384) rotate(0,141.1206998543066,21.785220000000002) scale(1,1)" filter="" style="cursor: move; opacity: 1;"><g><svg xmlns="http://www.w3.org/2000/svg" xmlns:xlink="http://www.w3.org/1999/xlink" version="1.1" width="282.24139970861324" height="43.570440000000005" viewBox="0 0 282.24139970861324 43.570440000000005" data-parent="shape_KGTd7uuhMV"><g data-width="226.02112000000002" transform="translate(12.22, 0)"><path d="M2.99-10.26L2.99-10.26L4.44-9.80Q4.37-9.59 3.97-9.58L3.97-9.58Q3.46-8.19 2.79-6.99L2.79-6.99L3.31-6.79Q3.27-6.62 2.93-6.57L2.93-6.57L2.93 0.67Q2.92 0.72 2.81 0.79Q2.70 0.86 2.53 0.92Q2.36 0.98 2.18 0.98L2.18 0.98L1.99 0.98L1.99-5.73Q1.30-4.74 0.50-4.01L0.50-4.01L0.33-4.13Q2.02-6.56 2.99-10.26ZM7.11-1.19L7.11-1.19L7.23-1.27Q8.47-0.87 8.78-0.30Q9.09 0.27 8.84 0.60Q8.59 0.94 8.13 0.65L8.13 0.65Q8.04 0.17 7.74-0.34Q7.44-0.84 7.11-1.19ZM5.52-8.33L5.52-5.52L7.91-5.52Q7.75-7.03 7.71-8.59L7.71-8.59Q6.62-8.43 5.52-8.33L5.52-8.33ZM11.60-2.00L11.76-1.97L11.56-0.15Q12.00 0.57 11.72 0.81L11.72 0.81Q11.40 1.06 10.96 0.87Q10.51 0.68 10.15 0.31L10.15 0.31Q9.23-0.68 8.70-2.08Q8.18-3.48 7.96-5.16L7.96-5.16L5.52-5.16L5.52-1.03Q6.59-1.58 7.85-2.25L7.85-2.25L7.93-2.09Q7.80-1.97 7.63-1.82L7.63-1.82Q6.65-0.97 5.03 0.34L5.03 0.34Q4.86 0.67 4.68 0.77L4.68 0.77L4.04-0.42Q4.37-0.59 4.47-0.70Q4.57-0.82 4.57-1.01L4.57-1.01L4.57-9.12L5.88-8.69Q7.08-8.99 8.21-9.38Q9.34-9.78 10.06-10.13L10.06-10.13L11.14-9.13Q10.95-8.96 10.47-9.14L10.47-9.14Q9.70-8.96 8.69-8.76L8.69-8.76Q8.64-7.17 8.84-5.52L8.84-5.52L9.95-5.52L10.57-6.34Q10.57-6.34 10.77-6.18Q10.97-6.02 11.24-5.80Q11.50-5.57 11.73-5.35L11.73-5.35Q11.66-5.16 11.40-5.16L11.40-5.16L8.90-5.16Q9.10-3.74 9.56-2.55Q10.01-1.37 10.75-0.67L10.75-0.67Q10.88-0.55 10.96-0.56Q11.03-0.57 11.11-0.73L11.11-0.73Q11.22-0.95 11.35-1.30Q11.49-1.65 11.60-2.00L11.60-2.00Z" transform="translate(0 26.285220000000002) " fill="rgb(36, 221, 127)" stroke="rgb(36, 221, 127)" stroke-linecap="square" stroke-linejoin="square" stroke-width="0.02" data-glyph-w="12.220000000000002" data-glyph-h="17.560140000000004" data-glyph-ascender="14.065220000000002" data-glyph-descender="-3.4949200000000005"/><path d="M6.34-2.33L7.72-2.33L7.72-8.63Q6.27-8.42 4.80-8.33L4.80-8.33L4.75-8.54Q6.27-8.80 7.78-9.26Q9.29-9.73 10.23-10.19L10.23-10.19L11.29-9.23Q11.11-9.06 10.62-9.24L10.62-9.24Q9.78-8.99 8.66-8.79L8.66-8.79L8.66-6.00L9.63-6.00L10.23-6.82Q10.23-6.82 10.41-6.66Q10.59-6.50 10.84-6.27Q11.08-6.05 11.29-5.84L11.29-5.84Q11.22-5.65 10.96-5.65L10.96-5.65L8.66-5.65L8.66-2.33L9.93-2.33L10.56-3.18Q10.56-3.18 10.75-3.02Q10.95-2.86 11.22-2.63Q11.49-2.40 11.71-2.18L11.71-2.18Q11.65-1.98 11.39-1.98L11.39-1.98L6.43-1.98L6.09-1.45L5.08-2.13Q5.14-2.19 5.24-2.26Q5.34-2.33 5.44-2.40L5.44-2.40L5.44-7.00L6.78-6.86Q6.77-6.59 6.34-6.51L6.34-6.51L6.34-2.33ZM3.34-5.56L3.84-6.09L4.80-5.27Q4.74-5.18 4.64-5.14Q4.53-5.10 4.34-5.08L4.34-5.08Q4.19-4.09 3.90-3.16Q3.62-2.22 3.12-1.38L3.12-1.38Q4.09-0.73 5.50-0.51Q6.90-0.29 8.84-0.29L8.84-0.29Q9.35-0.29 10.28-0.29Q11.21-0.29 11.84-0.31L11.84-0.31L11.84-0.15Q11.24 0.01 11.19 0.65L11.19 0.65L8.75 0.65Q6.66 0.65 5.20 0.34Q3.74 0.02 2.76-0.87L2.76-0.87Q1.97 0.21 0.53 0.97L0.53 0.97L0.40 0.79Q1.66-0.11 2.32-1.33L2.32-1.33Q1.44-2.40 0.89-4.30L0.89-4.30L1.06-4.39Q1.64-2.71 2.57-1.83L2.57-1.83Q3.24-3.40 3.41-5.21L3.41-5.21L2.20-5.21L1.83-4.86L0.98-5.52Q1.15-5.65 1.42-5.73L1.42-5.73Q1.77-6.38 2.18-7.22Q2.59-8.07 2.88-8.75L2.88-8.75L0.68-8.75L0.57-9.10L2.88-9.10L3.38-9.60L4.39-8.70Q4.20-8.54 3.78-8.51L3.78-8.51Q3.51-7.89 3.09-7.07Q2.68-6.24 2.30-5.56L2.30-5.56L3.34-5.56Z" transform="translate(12.220000000000002 26.285220000000002) " fill="rgb(36, 221, 127)" stroke="rgb(36, 221, 127)" stroke-linecap="square" stroke-linejoin="square" stroke-width="0.02" data-glyph-w="12.220000000000002" data-glyph-h="17.560140000000004" data-glyph-ascender="14.065220000000002" data-glyph-descender="-3.4949200000000005"/><path d="M9.63-6.17L9.63-8.96L6.10-8.96L6.10-6.59L6.10-6.17L9.63-6.17ZM9.63-5.08L9.63-5.82L6.09-5.82Q6.06-4.61 5.63-3.40Q5.21-2.19 4.00-1.25L4.00-1.25L3.85-1.38Q4.42-2.13 4.70-2.98Q4.99-3.84 5.07-4.75Q5.14-5.67 5.14-6.57L5.14-6.57L5.14-9.82L6.27-9.31L9.51-9.31L10.01-9.87L11.11-9.03Q10.97-8.87 10.58-8.77L10.58-8.77L10.58-5.35Q10.57-5.32 10.44-5.25Q10.30-5.19 10.12-5.14Q9.93-5.08 9.78-5.08L9.78-5.08L9.63-5.08ZM7.03-5.07L7.03-5.07L7.17-5.17Q9.58-4.04 10.45-3.01Q11.33-1.97 11.18-1.41Q11.03-0.86 10.37-1.19L10.37-1.19Q9.90-2.11 8.93-3.19Q7.96-4.26 7.03-5.07ZM1.14-9.97L1.14-9.97L1.28-10.06Q2.81-9.37 3.24-8.63Q3.68-7.89 3.42-7.50Q3.16-7.10 2.63-7.43L2.63-7.43Q2.44-8.05 2.00-8.75Q1.56-9.45 1.14-9.97ZM3.10-5.65L3.10-5.65L3.10-1.86Q3.14-1.82 3.20-1.76L3.20-1.76Q4.00-0.90 5.10-0.62Q6.21-0.33 7.97-0.33L7.97-0.33Q10.02-0.33 11.85-0.40L11.85-0.40L11.85-0.26Q11.22-0.09 11.14 0.61L11.14 0.61L7.67 0.61Q5.89 0.61 4.85 0.16Q3.81-0.28 3.02-1.39L3.02-1.39Q2.79-1.67 2.62-1.39L2.62-1.39Q2.49-1.22 2.27-0.95L2.27-0.95Q2.00-0.61 1.70-0.20Q1.39 0.21 1.15 0.56L1.15 0.56Q1.22 0.73 1.05 0.86L1.05 0.86L0.26-0.27Q0.73-0.59 1.32-1.01L1.32-1.01Q1.78-1.36 2.18-1.63L2.18-1.63L2.18-5.78L0.45-5.78L0.38-6.15L2.00-6.15L2.54-6.84L3.70-5.88Q3.59-5.73 3.10-5.65Z" transform="translate(24.440000000000005 26.285220000000002) " fill="rgb(36, 221, 127)" stroke="rgb(36, 221, 127)" stroke-linecap="square" stroke-linejoin="square" stroke-width="0.02" data-glyph-w="12.220000000000002" data-glyph-h="17.560140000000004" data-glyph-ascender="14.065220000000002" data-glyph-descender="-3.4949200000000005"/><path d="" transform="translate(36.66000000000001 26.285220000000002) " fill="rgb(36, 221, 127)" stroke="rgb(36, 221, 127)" stroke-linecap="square" stroke-linejoin="square" stroke-width="0.02" data-glyph-w="4.8635600000000005" data-glyph-h="12.220000000000002" data-glyph-ascender="10.753600000000002" data-glyph-descender="-1.4664000000000001"/><path d="M4.84-2.68L4.84-1.25L7.41-1.25L7.41-2.68L4.84-2.68ZM8.33-2.54L8.33-2.54L8.33-0.59Q8.32-0.55 8.19-0.48Q8.07-0.42 7.89-0.36Q7.71-0.31 7.55-0.31L7.55-0.31L7.41-0.31L7.41-0.88L4.84-0.88L4.84-0.43Q4.84-0.39 4.72-0.32Q4.61-0.24 4.42-0.19Q4.24-0.13 4.06-0.13L4.06-0.13L3.92-0.13L3.92-3.46L4.90-3.03L7.30-3.03L7.77-3.52L8.80-2.76Q8.74-2.70 8.62-2.63Q8.49-2.57 8.33-2.54ZM2.49-4.35L9.90-4.35L10.37-4.90L11.51-4.06Q11.39-3.91 11.00-3.81L11.00-3.81L11.00-0.24Q11.00 0.11 10.91 0.37Q10.81 0.62 10.51 0.78Q10.20 0.94 9.58 1.00L9.58 1.00Q9.56 0.56 9.32 0.34L9.32 0.34Q9.13 0.11 8.33 0L8.33 0L8.33-0.17Q8.33-0.17 8.51-0.16Q8.69-0.15 8.94-0.13Q9.19-0.12 9.42-0.11Q9.64-0.10 9.75-0.10L9.75-0.10Q10.07-0.10 10.02-0.34L10.02-0.34L10.02-4.00L2.40-4.00L2.40 0.65Q2.40 0.70 2.27 0.78Q2.15 0.86 1.97 0.92Q1.78 0.98 1.59 0.98L1.59 0.98L1.43 0.98L1.43-4.81L2.49-4.35ZM4.19-7.12L4.19-5.71L8.13-5.71L8.13-7.12L4.19-7.12ZM8.29-4.86L8.29-4.86L8.13-4.86L8.13-5.35L4.19-5.35L4.19-5.05Q4.19-5.01 4.06-4.94Q3.93-4.88 3.75-4.82Q3.57-4.77 3.37-4.77L3.37-4.77L3.23-4.77L3.23-7.93L4.25-7.48L8.00-7.48L8.51-8.03L9.62-7.20Q9.49-7.04 9.10-6.94L9.10-6.94L9.10-5.11Q9.09-5.07 8.96-5.02Q8.82-4.96 8.63-4.91Q8.44-4.86 8.29-4.86ZM6.65-8.79L9.70-8.79L10.40-9.64Q10.40-9.64 10.61-9.48Q10.83-9.31 11.12-9.08Q11.41-8.85 11.66-8.63L11.66-8.63Q11.62-8.43 11.34-8.43L11.34-8.43L0.73-8.43L0.64-8.79L5.99-8.79Q5.85-9.19 5.49-9.60Q5.13-10.02 4.74-10.28L4.74-10.28L4.85-10.39Q5.87-10.29 6.32-9.98Q6.78-9.67 6.83-9.32Q6.88-8.98 6.65-8.79L6.65-8.79Z" transform="translate(41.52356000000001 26.285220000000002) " fill="rgb(36, 221, 127)" stroke="rgb(36, 221, 127)" stroke-linecap="square" stroke-linejoin="square" stroke-width="0.02" data-glyph-w="12.220000000000002" data-glyph-h="17.560140000000004" data-glyph-ascender="14.065220000000002" data-glyph-descender="-3.4949200000000005"/><path d="M2.85-6.50L2.85-3.24L5.57-3.24L5.57-6.50L2.85-6.50ZM6.54-6.32L6.54-6.32L6.54-2.21Q6.53-2.16 6.39-2.10Q6.26-2.03 6.07-1.97Q5.88-1.92 5.72-1.92L5.72-1.92L5.57-1.92L5.57-2.88L2.85-2.88L2.85-1.77Q2.85-1.70 2.60-1.58Q2.36-1.45 2.04-1.45L2.04-1.45L1.89-1.45L1.89-7.28L2.91-6.84L5.46-6.84L5.95-7.41L7.04-6.57Q6.90-6.42 6.54-6.32ZM0.48-9.30L9.80-9.30L10.50-10.18Q10.50-10.18 10.72-10.01Q10.94-9.84 11.23-9.60Q11.52-9.36 11.77-9.14L11.77-9.14Q11.68-8.96 11.44-8.96L11.44-8.96L9.86-8.96L9.86-0.44Q9.86-0.06 9.75 0.24Q9.64 0.54 9.27 0.73Q8.91 0.92 8.19 0.98L8.19 0.98Q8.16 0.50 7.82 0.27L7.82 0.27Q7.50 0.02 6.40-0.13L6.40-0.13L6.40-0.31Q6.40-0.31 6.68-0.29Q6.95-0.27 7.33-0.24Q7.71-0.22 8.05-0.20Q8.40-0.18 8.53-0.18L8.53-0.18Q8.74-0.18 8.80-0.26Q8.87-0.33 8.87-0.49L8.87-0.49L8.87-8.96L0.59-8.96L0.48-9.30Z" transform="translate(53.743560000000016 26.285220000000002) " fill="rgb(36, 221, 127)" stroke="rgb(36, 221, 127)" stroke-linecap="square" stroke-linejoin="square" stroke-width="0.02" data-glyph-w="12.220000000000002" data-glyph-h="17.560140000000004" data-glyph-ascender="14.065220000000002" data-glyph-descender="-3.4949200000000005"/><path d="M0.71-7.75L5.62-7.75L5.62-8.74L3.07-8.74Q2.53-8.21 1.88-7.87L1.88-7.87L1.76-7.99Q2.13-8.41 2.45-9.00Q2.77-9.59 2.95-10.15L2.95-10.15L4.34-9.84Q4.31-9.74 4.22-9.70Q4.13-9.65 3.91-9.67L3.91-9.67Q3.69-9.38 3.42-9.09L3.42-9.09L5.62-9.09L5.62-10.31L7.03-10.17Q7.00-10.03 6.90-9.94Q6.79-9.85 6.57-9.82L6.57-9.82L6.57-9.09L8.77-9.09L9.37-9.85Q9.37-9.85 9.56-9.70Q9.75-9.56 10.00-9.35Q10.25-9.14 10.48-8.93L10.48-8.93Q10.42-8.74 10.17-8.74L10.17-8.74L6.57-8.74L6.57-7.75L9.82-7.75L10.42-8.47Q10.42-8.47 10.61-8.33Q10.80-8.19 11.06-7.99Q11.32-7.78 11.54-7.59L11.54-7.59Q11.47-7.39 11.22-7.39L11.22-7.39L0.82-7.39L0.71-7.75ZM3.34-6.31L3.34-5.33L8.85-5.33L8.85-6.31L3.34-6.31ZM9.01-4.51L9.01-4.51L8.85-4.51L8.85-4.97L3.34-4.97L3.34-4.63Q3.34-4.59 3.21-4.53Q3.08-4.46 2.89-4.41Q2.70-4.35 2.52-4.35L2.52-4.35L2.37-4.35L2.37-7.09L3.41-6.66L8.73-6.66L9.21-7.19L10.31-6.38Q10.18-6.22 9.81-6.13L9.81-6.13L9.81-4.75Q9.80-4.72 9.67-4.66Q9.53-4.61 9.35-4.56Q9.17-4.51 9.01-4.51ZM0.94-3.68L4.34-3.68L4.34-4.52L5.74-4.37Q5.74-4.12 5.29-4.03L5.29-4.03L5.29 0.72Q5.29 0.77 5.18 0.84Q5.06 0.90 4.88 0.96Q4.69 1.01 4.51 1.01L4.51 1.01L4.34 1.01L4.34-0.57L0.82-0.57L0.71-0.93L4.34-0.93L4.34-1.97L1.45-1.97L1.34-2.32L4.34-2.32L4.34-3.32L1.05-3.32L0.94-3.68ZM7.71-0.90L10.03-0.90L10.62-1.63Q10.62-1.63 10.80-1.48Q10.99-1.34 11.24-1.14Q11.49-0.94 11.69-0.75L11.69-0.75Q11.63-0.55 11.38-0.55L11.38-0.55L7.71-0.55L7.71 0.71Q7.71 0.76 7.59 0.82Q7.48 0.89 7.30 0.95Q7.11 1.00 6.93 1.00L6.93 1.00L6.75 1.00L6.75-4.53L8.16-4.39Q8.16-4.13 7.71-4.04L7.71-4.04L7.71-3.68L9.67-3.68L10.25-4.41Q10.25-4.41 10.44-4.26Q10.62-4.12 10.87-3.92Q11.12-3.71 11.34-3.52L11.34-3.52Q11.27-3.32 11.01-3.32L11.01-3.32L7.71-3.32L7.71-2.31L9.41-2.31L9.95-2.97Q9.95-2.97 10.12-2.84Q10.29-2.71 10.52-2.52Q10.74-2.33 10.95-2.15L10.95-2.15Q10.89-1.96 10.63-1.96L10.63-1.96L7.71-1.96L7.71-0.90Z" transform="translate(65.96356000000002 26.285220000000002) " fill="rgb(36, 221, 127)" stroke="rgb(36, 221, 127)" stroke-linecap="square" stroke-linejoin="square" stroke-width="0.02" data-glyph-w="12.220000000000002" data-glyph-h="17.560140000000004" data-glyph-ascender="14.065220000000002" data-glyph-descender="-3.4949200000000005"/><path d="" transform="translate(78.18356000000001 26.285220000000002) " fill="rgb(36, 221, 127)" stroke="rgb(36, 221, 127)" stroke-linecap="square" stroke-linejoin="square" stroke-width="0.02" data-glyph-w="4.8635600000000005" data-glyph-h="12.220000000000002" data-glyph-ascender="10.753600000000002" data-glyph-descender="-1.4664000000000001"/><path d="M7.61-9.23L7.61-9.23L5.88-9.23L5.78-9.58L10.28-9.58L10.79-10.09L11.78-9.29Q11.66-9.14 11.32-9.10L11.32-9.10Q11.22-6.46 10.59-5.99L10.59-5.99Q10.13-5.66 9.41-5.66L9.41-5.66Q9.41-5.85 9.37-6.02Q9.32-6.20 9.20-6.29L9.20-6.29Q9.08-6.39 8.81-6.47Q8.54-6.55 8.24-6.61L8.24-6.61L8.24-6.81Q8.58-6.78 9.01-6.75Q9.45-6.72 9.60-6.72L9.60-6.72Q9.75-6.72 9.83-6.74Q9.91-6.76 9.97-6.81L9.97-6.81Q10.29-7.12 10.39-9.23L10.39-9.23L8.65-9.23Q8.57-8.14 7.94-7.06Q7.32-5.98 5.62-5.12L5.62-5.12L5.46-5.29Q6.76-6.23 7.17-7.25Q7.59-8.27 7.61-9.23ZM7.31-4.55L7.31-2.04L10.03-2.04L10.03-4.55L7.31-4.55ZM10.19-0.87L10.19-0.87L10.03-0.87L10.03-1.69L7.31-1.69L7.31-1.01Q7.31-0.97 7.19-0.89Q7.06-0.82 6.89-0.76Q6.71-0.70 6.51-0.70L6.51-0.70L6.37-0.70L6.37-5.33L7.37-4.90L9.91-4.90L10.42-5.44L11.51-4.62Q11.38-4.46 11.00-4.37L11.00-4.37L11.00-1.19Q10.99-1.14 10.86-1.06Q10.73-0.99 10.55-0.93Q10.36-0.87 10.19-0.87ZM0.67-5.96L0.57-6.32L2.98-6.32L2.98-8.05L1.03-8.05L0.93-8.41L2.98-8.41L2.98-10.28L4.35-10.14Q4.34-9.90 3.92-9.82L3.92-9.82L3.92-8.41L4.56-8.41L5.12-9.14Q5.12-9.14 5.30-8.99Q5.49-8.85 5.73-8.65Q5.96-8.44 6.16-8.25L6.16-8.25Q6.10-8.05 5.84-8.05L5.84-8.05L3.92-8.05L3.92-6.32L4.72-6.32L5.30-7.09Q5.30-7.09 5.49-6.93Q5.67-6.78 5.91-6.57Q6.16-6.37 6.38-6.16L6.38-6.16Q6.31-5.96 6.05-5.96L6.05-5.96L0.67-5.96ZM5.85-3.42L4.11-3.42L4.11-0.64Q4.67-0.44 5.40-0.37Q6.13-0.31 7.04-0.31L7.04-0.31Q7.86-0.31 9.38-0.32Q10.90-0.33 11.84-0.34L11.84-0.34L11.84-0.18Q11.29-0.01 11.25 0.59L11.25 0.59L7.00 0.59Q5.65 0.59 4.68 0.36Q3.71 0.13 3.06-0.50Q2.40-1.14 1.96-2.33L1.96-2.33Q1.77-1.41 1.41-0.55Q1.05 0.31 0.46 0.97L0.46 0.97L0.32 0.83Q0.93-0.34 1.17-1.95Q1.42-3.56 1.42-4.99L1.42-4.99L2.74-4.72Q2.68-4.45 2.27-4.42L2.27-4.42Q2.20-3.60 2.04-2.74L2.04-2.74Q2.51-1.65 3.20-1.11L3.20-1.11L3.20-5.65L4.50-5.50Q4.47-5.39 4.39-5.31Q4.30-5.23 4.11-5.21L4.11-5.21L4.11-3.78L4.64-3.78L5.19-4.52Q5.19-4.52 5.36-4.37Q5.54-4.23 5.76-4.02Q5.99-3.81 6.17-3.62L6.17-3.62Q6.11-3.42 5.85-3.42L5.85-3.42Z" transform="translate(83.04712000000002 26.285220000000002) " fill="rgb(36, 221, 127)" stroke="rgb(36, 221, 127)" stroke-linecap="square" stroke-linejoin="square" stroke-width="0.02" data-glyph-w="12.220000000000002" data-glyph-h="17.560140000000004" data-glyph-ascender="14.065220000000002" data-glyph-descender="-3.4949200000000005"/><path d="M4.69-7.03L4.69-7.03L4.56-7.15Q5.17-7.74 5.65-8.60Q6.13-9.46 6.38-10.31L6.38-10.31L7.92-10.00Q7.89-9.90 7.80-9.86Q7.71-9.81 7.49-9.82L7.49-9.82Q7.23-9.37 6.86-8.91L6.86-8.91L8.95-8.91L9.57-9.51L10.63-8.55Q10.56-8.48 10.45-8.46Q10.34-8.43 10.15-8.42L10.15-8.42Q9.80-8.11 9.34-7.74Q8.87-7.36 8.41-7.06L8.41-7.06L9.81-7.06L10.33-7.61L11.43-6.78Q11.29-6.62 10.91-6.53L10.91-6.53L10.91-3.14Q10.90-3.09 10.77-3.02Q10.63-2.96 10.44-2.90Q10.25-2.84 10.08-2.84L10.08-2.84L9.93-2.84L9.93-3.31L5.12-3.31L5.01-3.68L9.93-3.68L9.93-5.05L5.51-5.05L5.40-5.40L9.93-5.40L9.93-6.71L5.22-6.71L5.11-7.06L8.08-7.06Q8.31-7.38 8.52-7.78Q8.74-8.18 8.92-8.52L8.92-8.52Q8.92-8.54 8.93-8.55L8.93-8.55L6.56-8.55Q5.76-7.61 4.69-7.03ZM7.43-3.13L7.43-3.13L7.58-3.21Q8.71-2.66 8.96-2.07Q9.20-1.48 8.93-1.18Q8.65-0.88 8.22-1.21L8.22-1.21Q8.19-1.70 7.95-2.22Q7.71-2.74 7.43-3.13ZM4.73-6.11L3.15-6.11L3.15-5.38Q4.29-4.86 4.55-4.29Q4.81-3.71 4.56-3.42Q4.30-3.12 3.87-3.42L3.87-3.42Q3.70-4.24 3.15-5.01L3.15-5.01L3.15 0.68Q3.15 0.73 2.94 0.86Q2.73 0.98 2.38 0.98L2.38 0.98L2.24 0.98L2.24-3.79Q1.55-2.35 0.45-1.22L0.45-1.22L0.29-1.36Q1.54-3.46 2.02-6.11L2.02-6.11L0.55-6.11L0.45-6.48L2.24-6.48L2.24-8.66Q1.39-8.53 0.57-8.44L0.57-8.44L0.51-8.63Q1.42-8.91 2.35-9.34Q3.29-9.78 3.87-10.13L3.87-10.13L5.00-9.17Q4.81-8.99 4.33-9.15L4.33-9.15Q3.84-9.01 3.15-8.86L3.15-8.86L3.15-6.48L3.48-6.48L4.04-7.21Q4.04-7.21 4.22-7.06Q4.39-6.92 4.62-6.71Q4.85-6.50 5.05-6.31L5.05-6.31Q4.99-6.11 4.73-6.11L4.73-6.11ZM4.94-2.57L4.94-2.57L5.14-2.57Q5.43-1.58 5.25-0.91Q5.08-0.24 4.75 0.05L4.75 0.05Q4.53 0.22 4.28 0.23Q4.02 0.24 3.89 0.05L3.89 0.05Q3.79-0.15 3.88-0.34Q3.97-0.53 4.17-0.66L4.17-0.66Q4.48-0.90 4.72-1.43Q4.95-1.96 4.94-2.57ZM9.85-1.64L10.00-1.64L10.03-0.31Q10.23-0.23 10.30-0.15Q10.37-0.07 10.37 0.06L10.37 0.06Q10.37 0.35 9.95 0.48Q9.53 0.60 8.21 0.60L8.21 0.60L7.01 0.60Q6.31 0.60 6.10 0.43Q5.89 0.26 5.89-0.21L5.89-0.21L5.89-2.74L7.14-2.60Q7.11-2.38 6.78-2.32L6.78-2.32L6.78-0.38Q6.78-0.27 6.86-0.23Q6.93-0.20 7.21-0.20L7.21-0.20L8.26-0.20Q8.98-0.20 9.24-0.21L9.24-0.21Q9.34-0.22 9.38-0.24Q9.43-0.27 9.47-0.34L9.47-0.34Q9.63-0.68 9.85-1.64L9.85-1.64ZM9.98-2.47L9.98-2.47L10.13-2.55Q11.34-1.89 11.62-1.19Q11.90-0.48 11.63-0.10Q11.36 0.27 10.92-0.09L10.92-0.09Q10.92-0.70 10.64-1.35Q10.36-2.00 9.98-2.47Z" transform="translate(95.26712000000002 26.285220000000002) " fill="rgb(36, 221, 127)" stroke="rgb(36, 221, 127)" stroke-linecap="square" stroke-linejoin="square" stroke-width="0.02" data-glyph-w="12.220000000000002" data-glyph-h="17.560140000000004" data-glyph-ascender="14.065220000000002" data-glyph-descender="-3.4949200000000005"/><path d="M5.14-10.19L5.14-10.19L5.25-10.28Q6.27-10.12 6.67-9.74Q7.08-9.36 7.05-8.99Q7.03-8.62 6.73-8.46Q6.43-8.30 6.04-8.57L6.04-8.57Q5.99-9.01 5.73-9.45Q5.47-9.90 5.14-10.19ZM10.12-7.96L10.12-7.96L2.26-7.96Q2.27-7.33 2.08-6.92Q1.88-6.51 1.58-6.34L1.58-6.34Q1.31-6.17 1.00-6.21Q0.68-6.26 0.55-6.54L0.55-6.54Q0.46-6.79 0.59-7.01Q0.72-7.22 0.98-7.34L0.98-7.34Q1.33-7.54 1.61-7.97Q1.89-8.41 1.87-8.96L1.87-8.96L2.07-8.97Q2.19-8.63 2.22-8.31L2.22-8.31L10.08-8.31L10.67-8.91L11.74-7.88Q11.61-7.77 11.28-7.76L11.28-7.76Q11.01-7.45 10.60-7.13Q10.19-6.81 9.82-6.56L9.82-6.56L9.68-6.66Q9.79-6.93 9.91-7.28Q10.03-7.63 10.12-7.96ZM10.01-3.24L6.60-3.24L6.60-0.33Q7.52-0.22 8.69-0.22L8.69-0.22Q9.23-0.22 10.19-0.23Q11.16-0.23 11.80-0.24L11.80-0.24L11.80-0.07Q11.24 0.09 11.22 0.75L11.22 0.75L8.62 0.75Q7.21 0.75 6.20 0.51Q5.18 0.28 4.47-0.34Q3.75-0.97 3.27-2.14L3.27-2.14Q2.88-1.21 2.21-0.40Q1.54 0.40 0.53 1.00L0.53 1.00L0.39 0.87Q1.60-0.22 2.19-1.71Q2.77-3.20 2.92-4.66L2.92-4.66L4.36-4.36Q4.30-4.11 3.90-4.08L3.90-4.08Q3.74-3.27 3.41-2.46L3.41-2.46Q4.18-0.94 5.62-0.55L5.62-0.55L5.62-5.87L2.05-5.87L1.96-6.22L8.60-6.22L9.24-6.97Q9.24-6.97 9.43-6.82Q9.63-6.67 9.89-6.46Q10.15-6.26 10.40-6.06L10.40-6.06Q10.31-5.87 10.06-5.87L10.06-5.87L6.60-5.87L6.60-3.59L8.57-3.59L9.19-4.37Q9.19-4.37 9.38-4.22Q9.58-4.07 9.84-3.86Q10.11-3.64 10.33-3.43L10.33-3.43Q10.26-3.24 10.01-3.24L10.01-3.24Z" transform="translate(107.48712000000002 26.285220000000002) " fill="rgb(36, 221, 127)" stroke="rgb(36, 221, 127)" stroke-linecap="square" stroke-linejoin="square" stroke-width="0.02" data-glyph-w="12.220000000000002" data-glyph-h="17.560140000000004" data-glyph-ascender="14.065220000000002" data-glyph-descender="-3.4949200000000005"/><path d="" transform="translate(119.70712000000002 26.285220000000002) " fill="rgb(36, 221, 127)" stroke="rgb(36, 221, 127)" stroke-linecap="square" stroke-linejoin="square" stroke-width="0.02" data-glyph-w="4.8635600000000005" data-glyph-h="12.220000000000002" data-glyph-ascender="10.753600000000002" data-glyph-descender="-1.4664000000000001"/><path d="M3.35-5.27L3.35-5.27L3.89-5.06Q5.21-4.55 5.77-3.92Q6.33-3.29 6.33-2.35L6.33-2.35Q6.33-1.16 5.45-0.48Q4.57 0.20 3.18 0.20L3.18 0.20Q2.42 0.20 1.73-0.01Q1.04-0.21 0.57-0.51L0.57-0.51L0.66-2.40L1.34-2.40L1.69-0.72Q2.24-0.39 3.09-0.39L3.09-0.39Q4.07-0.39 4.65-0.82Q5.23-1.25 5.23-2.07L5.23-2.07Q5.23-2.71 4.83-3.10Q4.44-3.48 3.54-3.82L3.54-3.82L3.04-4.03Q1.98-4.45 1.36-5.08Q0.73-5.71 0.73-6.71L0.73-6.71Q0.73-7.87 1.59-8.52Q2.46-9.17 3.71-9.17L3.71-9.17Q4.40-9.17 4.94-8.98Q5.47-8.79 5.91-8.46L5.91-8.46L5.83-6.71L5.13-6.71L4.79-8.31Q4.33-8.58 3.70-8.58L3.70-8.58Q2.90-8.58 2.36-8.18Q1.83-7.78 1.83-7.01L1.83-7.01Q1.83-6.38 2.22-5.96Q2.62-5.55 3.35-5.27Z" transform="translate(124.57068000000002 26.285220000000002) " fill="rgb(36, 221, 127)" stroke="rgb(36, 221, 127)" stroke-linecap="square" stroke-linejoin="square" stroke-width="0.02" data-glyph-w="6.879860000000001" data-glyph-h="17.560140000000004" data-glyph-ascender="14.065220000000002" data-glyph-descender="-3.4949200000000005"/><path d="M3.97-8.43L3.97-8.43L3.12-8.43Q3.09-6.64 3.09-4.80L3.09-4.80L3.09-4.12L3.95-4.12Q5.21-4.12 5.75-4.73Q6.29-5.34 6.29-6.31L6.29-6.31Q6.29-7.32 5.73-7.88Q5.17-8.43 3.97-8.43ZM3.80-3.58L3.80-3.58L3.09-3.58Q3.09-2.10 3.12-0.61L3.12-0.61L4.39-0.46L4.39 0L0.60 0L0.60-0.46L1.85-0.60Q1.87-2.35 1.87-4.14L1.87-4.14L1.87-4.80Q1.87-6.60 1.85-8.36L1.85-8.36L0.60-8.49L0.60-8.96L4.19-8.96Q5.88-8.96 6.71-8.23Q7.55-7.50 7.55-6.31L7.55-6.31Q7.55-5.56 7.18-4.94Q6.81-4.33 5.98-3.95Q5.16-3.58 3.80-3.58Z" transform="translate(131.45054000000002 26.285220000000002) " fill="rgb(36, 221, 127)" stroke="rgb(36, 221, 127)" stroke-linecap="square" stroke-linejoin="square" stroke-width="0.02" data-glyph-w="7.881900000000001" data-glyph-h="17.560140000000004" data-glyph-ascender="14.065220000000002" data-glyph-descender="-3.4949200000000005"/><path d="M6.55-0.59L6.90-2.38L7.56-2.38L7.49 0L0.60 0L0.60-0.46L1.85-0.60Q1.87-2.35 1.87-4.14L1.87-4.14L1.87-4.80Q1.87-6.60 1.85-8.36L1.85-8.36L0.60-8.49L0.60-8.96L7.23-8.96L7.31-6.60L6.65-6.60L6.29-8.37L3.12-8.37Q3.09-6.65 3.09-4.83L3.09-4.83L5.11-4.83L5.30-6.15L5.85-6.15L5.85-2.99L5.30-2.99L5.12-4.29L3.09-4.29Q3.09-2.31 3.12-0.59L3.12-0.59L6.55-0.59Z" transform="translate(139.33244000000002 26.285220000000002) " fill="rgb(36, 221, 127)" stroke="rgb(36, 221, 127)" stroke-linecap="square" stroke-linejoin="square" stroke-width="0.02" data-glyph-w="8.0652" data-glyph-h="17.560140000000004" data-glyph-ascender="14.065220000000002" data-glyph-descender="-3.4949200000000005"/><path d="M6.55-0.59L6.90-2.38L7.56-2.38L7.49 0L0.60 0L0.60-0.46L1.85-0.60Q1.87-2.35 1.87-4.14L1.87-4.14L1.87-4.80Q1.87-6.60 1.85-8.36L1.85-8.36L0.60-8.49L0.60-8.96L7.23-8.96L7.31-6.60L6.65-6.60L6.29-8.37L3.12-8.37Q3.09-6.65 3.09-4.83L3.09-4.83L5.11-4.83L5.30-6.15L5.85-6.15L5.85-2.99L5.30-2.99L5.12-4.29L3.09-4.29Q3.09-2.31 3.12-0.59L3.12-0.59L6.55-0.59Z" transform="translate(147.39764000000002 26.285220000000002) " fill="rgb(36, 221, 127)" stroke="rgb(36, 221, 127)" stroke-linecap="square" stroke-linejoin="square" stroke-width="0.02" data-glyph-w="8.0652" data-glyph-h="17.560140000000004" data-glyph-ascender="14.065220000000002" data-glyph-descender="-3.4949200000000005"/><path d="M3.12-0.54L3.12-0.54L4.17-0.54Q5.77-0.54 6.61-1.58Q7.45-2.62 7.45-4.47L7.45-4.47Q7.45-6.40 6.63-7.42Q5.80-8.43 4.28-8.43L4.28-8.43L3.12-8.43Q3.09-6.65 3.09-4.79L3.09-4.79L3.09-4.33Q3.09-2.30 3.12-0.54ZM0.60-8.49L0.60-8.96L4.50-8.96Q6.45-8.96 7.65-7.80Q8.85-6.64 8.85-4.47L8.85-4.47Q8.85-3.04 8.25-2.04Q7.66-1.04 6.62-0.52Q5.58 0 4.25 0L4.25 0L0.60 0L0.60-0.46L1.85-0.60Q1.87-2.30 1.87-4.33L1.87-4.33L1.87-4.79Q1.87-6.59 1.85-8.36L1.85-8.36L0.60-8.49Z" transform="translate(155.46284000000003 26.285220000000002) " fill="rgb(36, 221, 127)" stroke="rgb(36, 221, 127)" stroke-linecap="square" stroke-linejoin="square" stroke-width="0.02" data-glyph-w="9.48272" data-glyph-h="17.560140000000004" data-glyph-ascender="14.065220000000002" data-glyph-descender="-3.4949200000000005"/><path d="M3.65-2.97L0.54-2.97L0.54-3.75L3.65-3.75L3.65-2.97Z" transform="translate(164.94556000000003 26.285220000000002) " fill="rgb(36, 221, 127)" stroke="rgb(36, 221, 127)" stroke-linecap="square" stroke-linejoin="square" stroke-width="0.02" data-glyph-w="4.19146" data-glyph-h="17.560140000000004" data-glyph-ascender="14.065220000000002" data-glyph-descender="-3.4949200000000005"/><path d="M4.36-8.96L4.36-8.49L3.12-8.36Q3.09-6.60 3.09-4.80L3.09-4.80L3.09-4.14Q3.09-2.38 3.12-0.61L3.12-0.61L4.36-0.46L4.36 0L0.60 0L0.60-0.46L1.85-0.60Q1.87-2.35 1.87-4.14L1.87-4.14L1.87-4.80Q1.87-6.60 1.85-8.36L1.85-8.36L0.60-8.49L0.60-8.96L4.36-8.96Z" transform="translate(169.13702000000004 26.285220000000002) " fill="rgb(36, 221, 127)" stroke="rgb(36, 221, 127)" stroke-linecap="square" stroke-linejoin="square" stroke-width="0.02" data-glyph-w="4.961320000000001" data-glyph-h="17.560140000000004" data-glyph-ascender="14.065220000000002" data-glyph-descender="-3.4949200000000005"/><path d="M3.12-0.54L3.12-0.54L4.17-0.54Q5.77-0.54 6.61-1.58Q7.45-2.62 7.45-4.47L7.45-4.47Q7.45-6.40 6.63-7.42Q5.80-8.43 4.28-8.43L4.28-8.43L3.12-8.43Q3.09-6.65 3.09-4.79L3.09-4.79L3.09-4.33Q3.09-2.30 3.12-0.54ZM0.60-8.49L0.60-8.96L4.50-8.96Q6.45-8.96 7.65-7.80Q8.85-6.64 8.85-4.47L8.85-4.47Q8.85-3.04 8.25-2.04Q7.66-1.04 6.62-0.52Q5.58 0 4.25 0L4.25 0L0.60 0L0.60-0.46L1.85-0.60Q1.87-2.30 1.87-4.33L1.87-4.33L1.87-4.79Q1.87-6.59 1.85-8.36L1.85-8.36L0.60-8.49Z" transform="translate(174.09834000000004 26.285220000000002) " fill="rgb(36, 221, 127)" stroke="rgb(36, 221, 127)" stroke-linecap="square" stroke-linejoin="square" stroke-width="0.02" data-glyph-w="9.48272" data-glyph-h="17.560140000000004" data-glyph-ascender="14.065220000000002" data-glyph-descender="-3.4949200000000005"/><path d="M6.83-0.72L7.16-2.42L7.89-2.42L7.87-0.45Q6.62 0.20 5.19 0.20L5.19 0.20Q3.16 0.20 1.91-1.10Q0.65-2.40 0.65-4.48L0.65-4.48Q0.65-6.54 1.94-7.85Q3.24-9.17 5.19-9.17L5.19-9.17Q5.77-9.17 6.43-9.02Q7.09-8.88 7.75-8.51L7.75-8.51L7.77-6.54L7.04-6.54L6.71-8.25Q6.02-8.58 5.34-8.58L5.34-8.58Q4.42-8.58 3.67-8.11Q2.92-7.64 2.47-6.73Q2.03-5.82 2.03-4.48L2.03-4.48Q2.03-2.48 2.94-1.44Q3.85-0.39 5.29-0.39L5.29-0.39Q6.05-0.39 6.83-0.72L6.83-0.72Z" transform="translate(183.58106000000004 26.285220000000002) " fill="rgb(36, 221, 127)" stroke="rgb(36, 221, 127)" stroke-linecap="square" stroke-linejoin="square" stroke-width="0.02" data-glyph-w="8.456240000000001" data-glyph-h="17.560140000000004" data-glyph-ascender="14.065220000000002" data-glyph-descender="-3.4949200000000005"/><path d="M2.00 0.17L2.00 0.17Q1.63 0.17 1.36-0.10Q1.10-0.37 1.10-0.72L1.10-0.72Q1.10-1.11 1.36-1.38Q1.63-1.65 2.00-1.65L2.00-1.65Q2.40-1.65 2.66-1.38Q2.92-1.11 2.92-0.72L2.92-0.72Q2.92-0.37 2.66-0.10Q2.40 0.17 2.00 0.17Z" transform="translate(192.03730000000004 26.285220000000002) " fill="rgb(36, 221, 127)" stroke="rgb(36, 221, 127)" stroke-linecap="square" stroke-linejoin="square" stroke-width="0.02" data-glyph-w="4.02038" data-glyph-h="17.560140000000004" data-glyph-ascender="14.065220000000002" data-glyph-descender="-3.4949200000000005"/><path d="M6.83-0.72L7.16-2.42L7.89-2.42L7.87-0.45Q6.62 0.20 5.19 0.20L5.19 0.20Q3.16 0.20 1.91-1.10Q0.65-2.40 0.65-4.48L0.65-4.48Q0.65-6.54 1.94-7.85Q3.24-9.17 5.19-9.17L5.19-9.17Q5.77-9.17 6.43-9.02Q7.09-8.88 7.75-8.51L7.75-8.51L7.77-6.54L7.04-6.54L6.71-8.25Q6.02-8.58 5.34-8.58L5.34-8.58Q4.42-8.58 3.67-8.11Q2.92-7.64 2.47-6.73Q2.03-5.82 2.03-4.48L2.03-4.48Q2.03-2.48 2.94-1.44Q3.85-0.39 5.29-0.39L5.29-0.39Q6.05-0.39 6.83-0.72L6.83-0.72Z" transform="translate(196.05768000000003 26.285220000000002) " fill="rgb(36, 221, 127)" stroke="rgb(36, 221, 127)" stroke-linecap="square" stroke-linejoin="square" stroke-width="0.02" data-glyph-w="8.456240000000001" data-glyph-h="17.560140000000004" data-glyph-ascender="14.065220000000002" data-glyph-descender="-3.4949200000000005"/><path d="M2.03-4.48L2.03-4.48Q2.03-3.43 2.32-2.49Q2.60-1.55 3.21-0.97Q3.81-0.38 4.74-0.38L4.74-0.38Q5.67-0.38 6.26-0.97Q6.86-1.55 7.14-2.49Q7.42-3.43 7.42-4.48L7.42-4.48Q7.42-5.54 7.14-6.47Q6.86-7.41 6.26-7.99Q5.67-8.58 4.74-8.58L4.74-8.58Q3.81-8.58 3.21-7.99Q2.60-7.41 2.32-6.47Q2.03-5.54 2.03-4.48ZM4.74-9.17L4.74-9.17Q5.78-9.17 6.71-8.62Q7.64-8.08 8.22-7.04Q8.81-6.00 8.81-4.48L8.81-4.48Q8.81-3.02 8.23-1.97Q7.65-0.92 6.72-0.36Q5.79 0.20 4.74 0.20L4.74 0.20Q3.69 0.20 2.75-0.34Q1.81-0.88 1.23-1.92Q0.65-2.97 0.65-4.48L0.65-4.48Q0.65-5.95 1.23-7.00Q1.82-8.05 2.76-8.61Q3.69-9.17 4.74-9.17Z" transform="translate(204.51392000000004 26.285220000000002) " fill="rgb(36, 221, 127)" stroke="rgb(36, 221, 127)" stroke-linecap="square" stroke-linejoin="square" stroke-width="0.02" data-glyph-w="9.446060000000001" data-glyph-h="17.560140000000004" data-glyph-ascender="14.065220000000002" data-glyph-descender="-3.4949200000000005"/><path d="M11.45-8.96L11.45-8.49L10.20-8.36Q10.18-6.60 10.18-4.80L10.18-4.80L10.18-4.14Q10.18-2.38 10.20-0.60L10.20-0.60L11.44-0.46L11.44 0L7.80 0L7.80-0.46L8.96-0.60Q8.98-2.35 8.98-4.11L8.98-4.11L8.99-7.70L5.98 0L5.40 0L2.27-7.67Q2.29-7.04 2.30-6.38Q2.32-5.73 2.33-5.29L2.33-5.29Q2.35-4.90 2.35-4.88L2.35-4.88L2.35-0.64L3.51-0.46L3.51 0L0.51 0L0.51-0.46L1.72-0.64L1.74-8.35L0.51-8.49L0.51-8.96L2.96-8.96L5.98-1.53L8.87-8.96L11.45-8.96Z" transform="translate(213.95998000000003 26.285220000000002) " fill="rgb(36, 221, 127)" stroke="rgb(36, 221, 127)" stroke-linecap="square" stroke-linejoin="square" stroke-width="0.02" data-glyph-w="12.061140000000002" data-glyph-h="17.560140000000004" data-glyph-ascender="14.065220000000002" data-glyph-descender="-3.4949200000000005"/></g></svg></g></g>  <!----></svg>
