<?xml version="1.0"?>
<svg xmlns="http://www.w3.org/2000/svg" xmlns:xlink="http://www.w3.org/1999/xlink" data-noselect="" viewBox="0 0 569.2913385826772 120.94488188976379" width="150.625" height="32" preserveAspectRatio="none" version="1.1"><defs/> <g id="background" data-noselect=""><!----> <!----></g> <g id="shape_AjwXCJgVSQ" transform="translate(13.08407327094639,3.480698525036658) rotate(0,143.88538930126072,57.28907799194566) scale(1,1)" filter="" style="cursor: move; opacity: 1;"><g><svg xmlns="http://www.w3.org/2000/svg" xmlns:xlink="http://www.w3.org/1999/xlink" version="1.1" id="&#x56FE;&#x5C42;_1" x="0px" y="0px" width="150.625" height="32" viewBox="10.189589500427246 43.904483795166016 179.6204071044922 112.19052124023438" enable-background="new 0 0 200 200" xml:space="preserve" preserveAspectRatio="none" class="style-removed" data-parent="shape_AjwXCJgVSQ">
<g>
	<path fill="#24DD7F" d="M106.321,89.494c0,0,21.712-23.689,49.111-19.623c20.564,3.052,29.926,14.137,34.378,20.14H176.37   c0,0-9.943-9.084-23.78-10.899C140.013,77.462,129.843,78.121,106.321,89.494z"/>
	<path fill="#24DD7F" d="M147.161,71.716c0,0-5.801-22.574-33.028-27.054S61.92,55.92,43.31,82.687l22.517-4.021   c0,0,19.354-29.195,47.101-24.24c16.083,2.872,24.699,10.109,27.916,18.496L147.161,71.716z"/>
	<path fill="#24DD7F" d="M62.38,83.893c0,0-46.698,7.782-51.696,38.255c-4.136,25.216,18.611,33.947,33.43,33.947   c18.036,0,112.698,0,112.698,0l1.206-5.687c0,0-71.397,0.324-101.38,0c-15.968-0.172-28.147-4.996-28.147-22.574   c0-14.992,12.867-26.502,29.065-32.034L62.38,83.893z"/>
</g>
</svg></g></g><g id="shape_W7YDZ35Q8m" transform="translate(9.87970136641232,-26.48906549107201) rotate(0,309.04294368181195,104.04791999999999) scale(1,1)" filter="" style="cursor: move; opacity: 1;"><g><svg xmlns="http://www.w3.org/2000/svg" xmlns:xlink="http://www.w3.org/1999/xlink" version="1.1" width="618.0858873636238" height="208.09583999999995" viewBox="0 0 618.0858873636238 208.09583999999995" data-parent="shape_W7YDZ35Q8m"><g data-width="465.55992" transform="translate(68.88, 0)"><path d="M27.55 0L4.48 0L4.48-8.20L25.49-8.20Q30.51-8.20 32.17-9.16L32.17-9.16Q34.58-10.61 34.58-13.50L34.58-13.50Q34.58-16.88 31.75-18.39L31.75-18.39Q30.17-19.29 26.66-19.29L26.66-19.29L18.12-19.29Q10.33-19.29 6.89-22.11L6.89-22.11Q4.75-23.90 3.55-26.59Q2.34-29.27 2.34-32.37L2.34-32.37Q2.34-37.20 5.17-41.19L5.17-41.19Q7.92-45.05 13.98-45.74L13.98-45.74Q16.05-45.94 20.11-45.94L20.11-45.94L42.91-45.94L42.91-37.75L22.32-37.75Q17.70-37.68 16.19-37.33L16.19-37.33Q13.09-36.58 13.09-32.65L13.09-32.65Q13.09-29.34 15.70-28.24L15.70-28.24Q17.43-27.41 21.49-27.41L21.49-27.41L28.86-27.41Q34.51-27.41 37.26-26.45L37.26-26.45Q42.15-24.80 44.01-20.66L44.01-20.66Q45.46-17.36 45.46-13.57L45.46-13.57Q45.46-9.37 43.53-6.06L43.53-6.06Q40.85-1.38 35.47-0.41L35.47-0.41Q32.86 0 27.55 0L27.55 0Z" transform="translate(0 128.04791999999998) skewX(-14)" fill="rgb(36, 221, 127)" stroke="rgb(36, 221, 127)" stroke-linecap="square" stroke-linejoin="square" stroke-width="0.115" data-glyph-w="47.8716" data-glyph-h="68.88" data-glyph-ascender="59.167919999999995" data-glyph-descender="-9.71208"/><path d="M30.17-16.05L14.46-16.05L14.46 0L4.68 0L4.68-45.94L27.62-45.94Q33.89-45.94 36.58-45.05L36.58-45.05Q41.12-43.53 43.74-38.78L43.74-38.78Q45.67-35.20 45.67-31.00L45.67-31.00Q45.67-27.48 44.39-24.35Q43.12-21.22 40.85-19.22L40.85-19.22Q38.78-17.43 36.47-16.74Q34.16-16.05 30.17-16.05L30.17-16.05ZM14.46-37.75L14.46-24.25L27.76-24.25Q31.34-24.25 32.79-25.35L32.79-25.35Q34.92-27.07 34.92-31.34L34.92-31.34Q34.92-35.96 31.68-37.26L31.68-37.26Q30.51-37.75 27.97-37.75L27.97-37.75L14.46-37.75Z" transform="translate(47.8716 128.04791999999998) skewX(-14)" fill="rgb(36, 221, 127)" stroke="rgb(36, 221, 127)" stroke-linecap="square" stroke-linejoin="square" stroke-width="0.115" data-glyph-w="47.1828" data-glyph-h="68.88" data-glyph-ascender="59.167919999999995" data-glyph-descender="-9.71208"/><path d="M22.66-45.94L39.12-45.94L39.12-37.75L26.38-37.75Q21.42-37.75 19.15-37.06Q16.88-36.37 15.36-34.37L15.36-34.37Q14.33-32.99 13.95-31.62Q13.57-30.24 13.29-26.93L13.29-26.93L39.12-26.93L39.12-18.74L13.29-18.74Q13.84-12.81 16.81-10.50Q19.77-8.20 26.86-8.20L26.86-8.20L39.12-8.20L39.12 0L26.38 0Q21.22 0 17.29-0.62L17.29-0.62Q11.09-1.65 7.44-6.06L7.44-6.06Q2.20-12.40 2.20-23.21L2.20-23.21Q2.20-35.20 9.57-41.88L9.57-41.88Q12.12-44.15 14.98-45.05Q17.84-45.94 22.66-45.94L22.66-45.94Z" transform="translate(95.0544 128.04791999999998) skewX(-14)" fill="rgb(36, 221, 127)" stroke="rgb(36, 221, 127)" stroke-linecap="square" stroke-linejoin="square" stroke-width="0.115" data-glyph-w="42.15456" data-glyph-h="68.88" data-glyph-ascender="59.167919999999995" data-glyph-descender="-9.71208"/><path d="M22.66-45.94L39.12-45.94L39.12-37.75L26.38-37.75Q21.42-37.75 19.15-37.06Q16.88-36.37 15.36-34.37L15.36-34.37Q14.33-32.99 13.95-31.62Q13.57-30.24 13.29-26.93L13.29-26.93L39.12-26.93L39.12-18.74L13.29-18.74Q13.84-12.81 16.81-10.50Q19.77-8.20 26.86-8.20L26.86-8.20L39.12-8.20L39.12 0L26.38 0Q21.22 0 17.29-0.62L17.29-0.62Q11.09-1.65 7.44-6.06L7.44-6.06Q2.20-12.40 2.20-23.21L2.20-23.21Q2.20-35.20 9.57-41.88L9.57-41.88Q12.12-44.15 14.98-45.05Q17.84-45.94 22.66-45.94L22.66-45.94Z" transform="translate(137.20896 128.04791999999998) skewX(-14)" fill="rgb(36, 221, 127)" stroke="rgb(36, 221, 127)" stroke-linecap="square" stroke-linejoin="square" stroke-width="0.115" data-glyph-w="42.15456" data-glyph-h="68.88" data-glyph-ascender="59.167919999999995" data-glyph-descender="-9.71208"/><path d="M4.68 0L4.68-45.94L24.18-45.94Q31.48-45.94 35.47-44.50L35.47-44.50Q42.84-41.81 45.32-34.65L45.32-34.65Q47.18-29.14 47.18-22.87L47.18-22.87Q47.18-16.67 45.39-11.16L45.39-11.16Q43.60-5.51 39.47-2.82L39.47-2.82Q36.85-1.17 33.72-0.59Q30.58 0 24.18 0L24.18 0L4.68 0ZM24.18-37.75L14.46-37.75L14.46-8.20L24.18-8.20Q30.58-8.20 33.06-11.02L33.06-11.02Q34.58-12.81 35.51-16.05Q36.44-19.29 36.44-22.94L36.44-22.94Q36.44-27.00 35.34-30.38Q34.23-33.75 32.44-35.40L32.44-35.40Q29.83-37.75 24.18-37.75L24.18-37.75Z" transform="translate(179.36352 128.04791999999998) skewX(-14)" fill="rgb(36, 221, 127)" stroke="rgb(36, 221, 127)" stroke-linecap="square" stroke-linejoin="square" stroke-width="0.115" data-glyph-w="49.318079999999995" data-glyph-h="68.88" data-glyph-ascender="59.167919999999995" data-glyph-descender="-9.71208"/><path d="M14.46 0L4.68 0L4.68-45.94L14.46-45.94L14.46 0Z" transform="translate(228.6816 128.04791999999998) skewX(-14)" fill="rgb(36, 221, 127)" stroke="rgb(36, 221, 127)" stroke-linecap="square" stroke-linejoin="square" stroke-width="0.115" data-glyph-w="19.07976" data-glyph-h="68.88" data-glyph-ascender="59.167919999999995" data-glyph-descender="-9.71208"/><path d="M4.68 0L4.68-45.94L24.18-45.94Q31.48-45.94 35.47-44.50L35.47-44.50Q42.84-41.81 45.32-34.65L45.32-34.65Q47.18-29.14 47.18-22.87L47.18-22.87Q47.18-16.67 45.39-11.16L45.39-11.16Q43.60-5.51 39.47-2.82L39.47-2.82Q36.85-1.17 33.72-0.59Q30.58 0 24.18 0L24.18 0L4.68 0ZM24.18-37.75L14.46-37.75L14.46-8.20L24.18-8.20Q30.58-8.20 33.06-11.02L33.06-11.02Q34.58-12.81 35.51-16.05Q36.44-19.29 36.44-22.94L36.44-22.94Q36.44-27.00 35.34-30.38Q34.23-33.75 32.44-35.40L32.44-35.40Q29.83-37.75 24.18-37.75L24.18-37.75Z" transform="translate(247.76136 128.04791999999998) skewX(-14)" fill="rgb(36, 221, 127)" stroke="rgb(36, 221, 127)" stroke-linecap="square" stroke-linejoin="square" stroke-width="0.115" data-glyph-w="49.318079999999995" data-glyph-h="68.88" data-glyph-ascender="59.167919999999995" data-glyph-descender="-9.71208"/><path d="M25.55-8.20L39.61-8.20L39.61 0L23.56 0Q19.01 0 16.60-0.48L16.60-0.48Q8.13-2.14 4.55-9.92L4.55-9.92Q2.20-15.15 2.20-22.87L2.20-22.87Q2.20-32.10 5.79-37.88L5.79-37.88Q8.40-42.09 12.78-44.01Q17.15-45.94 24.04-45.94L24.04-45.94L39.61-45.94L39.61-37.75L25.14-37.75Q18.60-37.75 15.57-34.23L15.57-34.23Q13.02-31.34 13.02-23.76L13.02-23.76Q13.02-13.57 16.94-10.40L16.94-10.40Q19.70-8.20 25.55-8.20L25.55-8.20Z" transform="translate(297.07944 128.04791999999998) skewX(-14)" fill="rgb(36, 221, 127)" stroke="rgb(36, 221, 127)" stroke-linecap="square" stroke-linejoin="square" stroke-width="0.115" data-glyph-w="41.741279999999996" data-glyph-h="68.88" data-glyph-ascender="59.167919999999995" data-glyph-descender="-9.71208"/><path d="M15.77-13.09L10.61 0L1.65 0L6.75-13.09L15.77-13.09ZM47.80-13.09L56.83-13.09L61.92 0L52.90 0L47.80-13.09ZM1.45-38.57L1.45-46.36L61.92-49.66L61.92-41.88L36.09-40.43L26.79-34.37L29.69-34.37L32.51-34.37L44.29-34.37L26.79-23.01L47.11-23.01L43.39-28.38L53.31-28.38L61.92-15.98L57.72-15.98L52.00-15.98L39.05-15.98L39.05-7.51Q39.05-5.92 38.44-4.55Q37.82-3.17 36.78-2.14Q35.75-1.10 34.37-0.52Q32.99 0.07 31.48 0.07L31.48 0.07L17.63 0.07L21.42-6.96L25.97-6.96Q26.86-6.96 27.48-7.58Q28.10-8.20 28.10-9.16L28.10-9.16L28.10-15.98L15.98-15.98L1.65-15.98L1.45-15.98L18.94-27.35L15.98-27.35L4.75-27.35L1.45-27.35L20.18-39.61L1.45-38.57Z" transform="translate(338.82072 128.04791999999998) skewX(-14)" fill="rgb(36, 221, 127)" stroke="rgb(36, 221, 127)" stroke-linecap="square" stroke-linejoin="square" stroke-width="0.115" data-glyph-w="63.3696" data-glyph-h="68.88" data-glyph-ascender="59.167919999999995" data-glyph-descender="-9.71208"/><path d="M61.92-44.70L61.92-37.88L37.75-37.88L34.03-28.86L51.04-28.86L49.39-33.75L57.38-33.75L61.72-21.28L53.66-21.28L53.31-22.25L52.21-22.25L52.21-8.95Q52.21-7.99 52.83-7.37Q53.45-6.75 54.42-6.75L54.42-6.75L61.17-6.75L58.13 0.07L49.73 0.07Q47.11 0.07 45.32-1.76Q43.53-3.58 43.53-6.20L43.53-6.20L43.53-22.25L37.13-22.25L32.86 0.07L23.76 0.07L28.03-22.25L21.01-22.25L27.69-37.88L23.28-37.88L23.28-44.70L38.30-44.70L36.02-49.73L46.91-49.73L49.11-44.70L61.92-44.70ZM21.28-9.51L1.45-9.51L9.57-26.59L1.45-26.59L11.64-48.70L22.32-48.70L14.40-32.79L15.98-32.79L21.28-32.79L13.57-15.77L21.28-15.77L21.28-9.51ZM1.45 0.07L1.45-6.20L21.28-6.20L21.28 0.07L1.45 0.07Z" transform="translate(402.19032 128.04791999999998) skewX(-14)" fill="rgb(36, 221, 127)" stroke="rgb(36, 221, 127)" stroke-linecap="square" stroke-linejoin="square" stroke-width="0.115" data-glyph-w="63.3696" data-glyph-h="68.88" data-glyph-ascender="59.167919999999995" data-glyph-descender="-9.71208"/></g></svg></g></g><g id="shape_KGTd7uuhMV" transform="translate(240.1820114669345,84.28815450892799) rotate(0,180.8946731794558,27.270699999999998) scale(1,1)" filter="" style="cursor: move; opacity: 1;"><g><svg xmlns="http://www.w3.org/2000/svg" xmlns:xlink="http://www.w3.org/1999/xlink" version="1.1" width="361.7893463589116" height="54.541399999999996" viewBox="0 0 361.7893463589116 54.541399999999996" data-parent="shape_KGTd7uuhMV"><g data-width="290.38719999999995" transform="translate(15.7, 0)"><path d="M3.85-13.19L3.85-13.19L5.70-12.59Q5.62-12.32 5.10-12.31L5.10-12.31Q4.44-10.52 3.58-8.98L3.58-8.98L4.25-8.73Q4.21-8.51 3.77-8.45L3.77-8.45L3.77 0.86Q3.75 0.93 3.61 1.01Q3.47 1.10 3.25 1.18Q3.03 1.26 2.79 1.26L2.79 1.26L2.56 1.26L2.56-7.36Q1.66-6.09 0.64-5.15L0.64-5.15L0.42-5.31Q2.59-8.43 3.85-13.19ZM9.14-1.52L9.14-1.52L9.29-1.63Q10.88-1.11 11.28-0.38Q11.68 0.35 11.36 0.78Q11.04 1.21 10.44 0.83L10.44 0.83Q10.33 0.22 9.95-0.43Q9.56-1.08 9.14-1.52ZM7.10-10.71L7.10-7.10L10.16-7.10Q9.95-9.03 9.91-11.04L9.91-11.04Q8.51-10.83 7.10-10.71L7.10-10.71ZM14.90-2.57L15.10-2.53L14.85-0.19Q15.42 0.74 15.06 1.04L15.06 1.04Q14.65 1.37 14.08 1.12Q13.50 0.88 13.05 0.39L13.05 0.39Q11.85-0.88 11.18-2.68Q10.50-4.47 10.22-6.63L10.22-6.63L7.10-6.63L7.10-1.32Q8.46-2.03 10.08-2.89L10.08-2.89L10.19-2.68Q10.02-2.53 9.80-2.34L9.80-2.34Q8.54-1.24 6.47 0.44L6.47 0.44Q6.25 0.86 6.01 0.99L6.01 0.99L5.20-0.53Q5.62-0.75 5.75-0.90Q5.87-1.05 5.87-1.30L5.87-1.30L5.87-11.71L7.55-11.16Q9.09-11.56 10.54-12.06Q11.99-12.56 12.92-13.02L12.92-13.02L14.32-11.73Q14.07-11.51 13.45-11.74L13.45-11.74Q12.47-11.51 11.16-11.26L11.16-11.26Q11.10-9.22 11.35-7.10L11.35-7.10L12.78-7.10L13.58-8.15Q13.58-8.15 13.84-7.94Q14.10-7.74 14.44-7.45Q14.77-7.16 15.07-6.88L15.07-6.88Q14.98-6.63 14.65-6.63L14.65-6.63L11.43-6.63Q11.70-4.80 12.28-3.28Q12.86-1.76 13.82-0.86L13.82-0.86Q13.97-0.71 14.08-0.72Q14.18-0.74 14.27-0.94L14.27-0.94Q14.41-1.22 14.59-1.67Q14.76-2.12 14.90-2.57L14.90-2.57Z" transform="translate(0 33.7707) " fill="rgb(36, 221, 127)" stroke="rgb(36, 221, 127)" stroke-linecap="square" stroke-linejoin="square" stroke-width="0.026" data-glyph-w="15.7" data-glyph-h="22.560899999999997" data-glyph-ascender="18.0707" data-glyph-descender="-4.4902"/><path d="M8.15-3.00L9.92-3.00L9.92-11.08Q8.05-10.82 6.17-10.71L6.17-10.71L6.11-10.97Q8.05-11.30 9.99-11.90Q11.93-12.50 13.14-13.09L13.14-13.09L14.51-11.85Q14.27-11.63 13.64-11.87L13.64-11.87Q12.56-11.56 11.13-11.29L11.13-11.29L11.13-7.71L12.37-7.71L13.14-8.76Q13.14-8.76 13.38-8.56Q13.61-8.35 13.93-8.06Q14.24-7.77 14.51-7.50L14.51-7.50Q14.41-7.25 14.08-7.25L14.08-7.25L11.13-7.25L11.13-3.00L12.76-3.00L13.56-4.08Q13.56-4.08 13.82-3.88Q14.07-3.67 14.41-3.38Q14.76-3.08 15.04-2.79L15.04-2.79Q14.96-2.54 14.63-2.54L14.63-2.54L8.26-2.54L7.82-1.87L6.53-2.73Q6.61-2.81 6.74-2.90Q6.86-3.00 6.99-3.08L6.99-3.08L6.99-9.00L8.71-8.81Q8.70-8.46 8.15-8.37L8.15-8.37L8.15-3.00ZM4.29-7.14L4.93-7.82L6.17-6.77Q6.09-6.66 5.96-6.60Q5.82-6.55 5.57-6.53L5.57-6.53Q5.39-5.26 5.02-4.06Q4.65-2.86 4.00-1.77L4.00-1.77Q5.26-0.94 7.06-0.66Q8.87-0.38 11.35-0.38L11.35-0.38Q12.01-0.38 13.20-0.38Q14.40-0.38 15.21-0.39L15.21-0.39L15.21-0.19Q14.44 0.02 14.38 0.83L14.38 0.83L11.24 0.83Q8.56 0.83 6.68 0.43Q4.80 0.03 3.55-1.11L3.55-1.11Q2.53 0.27 0.68 1.24L0.68 1.24L0.52 1.02Q2.14-0.14 2.98-1.71L2.98-1.71Q1.85-3.08 1.15-5.53L1.15-5.53L1.37-5.64Q2.10-3.49 3.30-2.35L3.30-2.35Q4.16-4.36 4.38-6.69L4.38-6.69L2.83-6.69L2.35-6.25L1.26-7.10Q1.48-7.25 1.82-7.36L1.82-7.36Q2.28-8.20 2.80-9.28Q3.33-10.36 3.71-11.24L3.71-11.24L0.88-11.24L0.74-11.70L3.71-11.70L4.35-12.34L5.64-11.18Q5.40-10.97 4.85-10.93L4.85-10.93Q4.51-10.14 3.97-9.08Q3.44-8.02 2.95-7.14L2.95-7.14L4.29-7.14Z" transform="translate(15.7 33.7707) " fill="rgb(36, 221, 127)" stroke="rgb(36, 221, 127)" stroke-linecap="square" stroke-linejoin="square" stroke-width="0.026" data-glyph-w="15.7" data-glyph-h="22.560899999999997" data-glyph-ascender="18.0707" data-glyph-descender="-4.4902"/><path d="M12.37-7.93L12.37-11.51L7.83-11.51L7.83-8.46L7.83-7.93L12.37-7.93ZM12.37-6.53L12.37-7.47L7.82-7.47Q7.79-5.92 7.24-4.36Q6.69-2.81 5.13-1.60L5.13-1.60L4.95-1.77Q5.68-2.73 6.04-3.83Q6.41-4.93 6.51-6.11Q6.61-7.28 6.61-8.45L6.61-8.45L6.61-12.62L8.05-11.96L12.21-11.96L12.86-12.69L14.27-11.60Q14.10-11.40 13.60-11.27L13.60-11.27L13.60-6.88Q13.58-6.83 13.41-6.75Q13.24-6.67 13.00-6.60Q12.76-6.53 12.56-6.53L12.56-6.53L12.37-6.53ZM9.03-6.52L9.03-6.52L9.22-6.64Q12.31-5.20 13.43-3.86Q14.55-2.53 14.37-1.81Q14.18-1.10 13.33-1.52L13.33-1.52Q12.72-2.72 11.47-4.10Q10.22-5.48 9.03-6.52ZM1.46-12.81L1.46-12.81L1.65-12.92Q3.61-12.04 4.17-11.09Q4.73-10.14 4.40-9.63Q4.07-9.12 3.38-9.55L3.38-9.55Q3.14-10.35 2.57-11.24Q2.01-12.14 1.46-12.81ZM3.99-7.25L3.99-7.25L3.99-2.39Q4.03-2.34 4.11-2.26L4.11-2.26Q5.13-1.16 6.55-0.79Q7.98-0.42 10.24-0.42L10.24-0.42Q12.87-0.42 15.23-0.52L15.23-0.52L15.23-0.33Q14.41-0.11 14.32 0.78L14.32 0.78L9.86 0.78Q7.57 0.78 6.23 0.21Q4.90-0.36 3.88-1.79L3.88-1.79Q3.58-2.15 3.36-1.79L3.36-1.79Q3.20-1.57 2.92-1.22L2.92-1.22Q2.57-0.78 2.18-0.26Q1.79 0.27 1.48 0.72L1.48 0.72Q1.57 0.94 1.35 1.10L1.35 1.10L0.33-0.35Q0.94-0.75 1.70-1.30L1.70-1.30Q2.29-1.74 2.79-2.09L2.79-2.09L2.79-7.43L0.58-7.43L0.49-7.90L2.57-7.90L3.27-8.79L4.76-7.55Q4.62-7.36 3.99-7.25Z" transform="translate(31.4 33.7707) " fill="rgb(36, 221, 127)" stroke="rgb(36, 221, 127)" stroke-linecap="square" stroke-linejoin="square" stroke-width="0.026" data-glyph-w="15.7" data-glyph-h="22.560899999999997" data-glyph-ascender="18.0707" data-glyph-descender="-4.4902"/><path d="" transform="translate(47.099999999999994 33.7707) " fill="rgb(36, 221, 127)" stroke="rgb(36, 221, 127)" stroke-linecap="square" stroke-linejoin="square" stroke-width="0.026" data-glyph-w="6.2486" data-glyph-h="15.7" data-glyph-ascender="13.815999999999999" data-glyph-descender="-1.884"/><path d="M6.22-3.44L6.22-1.60L9.51-1.60L9.51-3.44L6.22-3.44ZM10.71-3.27L10.71-3.27L10.71-0.75Q10.69-0.71 10.53-0.62Q10.36-0.53 10.13-0.46Q9.91-0.39 9.70-0.39L9.70-0.39L9.51-0.39L9.51-1.13L6.22-1.13L6.22-0.55Q6.22-0.50 6.07-0.41Q5.92-0.31 5.68-0.24Q5.45-0.17 5.21-0.17L5.21-0.17L5.04-0.17L5.04-4.44L6.30-3.89L9.37-3.89L9.99-4.52L11.30-3.55Q11.23-3.47 11.07-3.38Q10.91-3.30 10.71-3.27ZM3.20-5.59L12.72-5.59L13.33-6.30L14.79-5.21Q14.63-5.02 14.13-4.90L14.13-4.90L14.13-0.31Q14.13 0.14 14.01 0.47Q13.89 0.80 13.50 1.00Q13.11 1.21 12.31 1.29L12.31 1.29Q12.28 0.72 11.98 0.44L11.98 0.44Q11.73 0.14 10.71 0L10.71 0L10.71-0.22Q10.71-0.22 10.94-0.20Q11.16-0.19 11.48-0.17Q11.81-0.16 12.10-0.14Q12.39-0.13 12.53-0.13L12.53-0.13Q12.94-0.13 12.87-0.44L12.87-0.44L12.87-5.13L3.08-5.13L3.08 0.83Q3.08 0.89 2.92 1.00Q2.76 1.10 2.53 1.18Q2.29 1.26 2.04 1.26L2.04 1.26L1.84 1.26L1.84-6.19L3.20-5.59ZM5.39-9.15L5.39-7.33L10.44-7.33L10.44-9.15L5.39-9.15ZM10.64-6.25L10.64-6.25L10.44-6.25L10.44-6.88L5.39-6.88L5.39-6.48Q5.39-6.44 5.22-6.35Q5.06-6.26 4.82-6.19Q4.58-6.12 4.33-6.12L4.33-6.12L4.14-6.12L4.14-10.19L5.46-9.61L10.28-9.61L10.93-10.31L12.36-9.25Q12.20-9.04 11.70-8.92L11.70-8.92L11.70-6.56Q11.68-6.52 11.51-6.44Q11.34-6.37 11.09-6.31Q10.85-6.25 10.64-6.25ZM8.54-11.29L12.47-11.29L13.36-12.39Q13.36-12.39 13.64-12.18Q13.91-11.96 14.29-11.67Q14.66-11.37 14.98-11.08L14.98-11.08Q14.93-10.83 14.57-10.83L14.57-10.83L0.94-10.83L0.82-11.29L7.69-11.29Q7.52-11.81 7.06-12.34Q6.59-12.87 6.09-13.20L6.09-13.20L6.23-13.34Q7.54-13.22 8.12-12.82Q8.71-12.42 8.78-11.98Q8.84-11.54 8.54-11.29L8.54-11.29Z" transform="translate(53.34859999999999 33.7707) " fill="rgb(36, 221, 127)" stroke="rgb(36, 221, 127)" stroke-linecap="square" stroke-linejoin="square" stroke-width="0.026" data-glyph-w="15.7" data-glyph-h="22.560899999999997" data-glyph-ascender="18.0707" data-glyph-descender="-4.4902"/><path d="M3.66-8.35L3.66-4.16L7.16-4.16L7.16-8.35L3.66-8.35ZM8.40-8.12L8.40-8.12L8.40-2.84Q8.38-2.78 8.21-2.69Q8.04-2.61 7.80-2.54Q7.55-2.46 7.35-2.46L7.35-2.46L7.16-2.46L7.16-3.71L3.66-3.71L3.66-2.28Q3.66-2.18 3.34-2.03Q3.03-1.87 2.62-1.87L2.62-1.87L2.43-1.87L2.43-9.36L3.74-8.79L7.02-8.79L7.65-9.51L9.04-8.45Q8.87-8.24 8.40-8.12ZM0.61-11.95L12.59-11.95L13.49-13.08Q13.49-13.08 13.77-12.86Q14.05-12.64 14.43-12.33Q14.81-12.03 15.12-11.74L15.12-11.74Q15.01-11.51 14.70-11.51L14.70-11.51L12.67-11.51L12.67-0.57Q12.67-0.08 12.53 0.31Q12.39 0.69 11.92 0.93Q11.45 1.18 10.52 1.26L10.52 1.26Q10.49 0.64 10.05 0.35L10.05 0.35Q9.64 0.03 8.23-0.17L8.23-0.17L8.23-0.39Q8.23-0.39 8.58-0.37Q8.93-0.35 9.42-0.31Q9.91-0.28 10.35-0.26Q10.79-0.24 10.96-0.24L10.96-0.24Q11.23-0.24 11.31-0.33Q11.40-0.42 11.40-0.63L11.40-0.63L11.40-11.51L0.75-11.51L0.61-11.95Z" transform="translate(69.0486 33.7707) " fill="rgb(36, 221, 127)" stroke="rgb(36, 221, 127)" stroke-linecap="square" stroke-linejoin="square" stroke-width="0.026" data-glyph-w="15.7" data-glyph-h="22.560899999999997" data-glyph-ascender="18.0707" data-glyph-descender="-4.4902"/><path d="M0.91-9.95L7.22-9.95L7.22-11.23L3.94-11.23Q3.25-10.55 2.42-10.11L2.42-10.11L2.26-10.27Q2.73-10.80 3.15-11.56Q3.56-12.32 3.78-13.05L3.78-13.05L5.57-12.64Q5.54-12.51 5.42-12.46Q5.31-12.40 5.02-12.42L5.02-12.42Q4.74-12.06 4.40-11.68L4.40-11.68L7.22-11.68L7.22-13.25L9.03-13.06Q9.00-12.89 8.86-12.77Q8.73-12.65 8.45-12.62L8.45-12.62L8.45-11.68L11.27-11.68L12.04-12.65Q12.04-12.65 12.29-12.47Q12.53-12.28 12.85-12.01Q13.17-11.74 13.47-11.48L13.47-11.48Q13.39-11.23 13.06-11.23L13.06-11.23L8.45-11.23L8.45-9.95L12.62-9.95L13.39-10.88Q13.39-10.88 13.64-10.70Q13.88-10.52 14.21-10.26Q14.54-10.00 14.82-9.75L14.82-9.75Q14.74-9.50 14.41-9.50L14.41-9.50L1.05-9.50L0.91-9.95ZM4.29-8.10L4.29-6.85L11.37-6.85L11.37-8.10L4.29-8.10ZM11.57-5.79L11.57-5.79L11.37-5.79L11.37-6.39L4.29-6.39L4.29-5.95Q4.29-5.90 4.12-5.82Q3.96-5.73 3.71-5.66Q3.47-5.59 3.23-5.59L3.23-5.59L3.05-5.59L3.05-9.11L4.38-8.56L11.21-8.56L11.84-9.23L13.25-8.20Q13.08-7.99 12.61-7.88L12.61-7.88L12.61-6.11Q12.59-6.06 12.42-5.99Q12.25-5.92 12.01-5.86Q11.77-5.79 11.57-5.79ZM1.21-4.73L5.57-4.73L5.57-5.81L7.38-5.62Q7.38-5.29 6.80-5.18L6.80-5.18L6.80 0.93Q6.80 0.99 6.65 1.08Q6.50 1.16 6.26 1.23Q6.03 1.30 5.79 1.30L5.79 1.30L5.57 1.30L5.57-0.74L1.05-0.74L0.91-1.19L5.57-1.19L5.57-2.53L1.87-2.53L1.73-2.98L5.57-2.98L5.57-4.27L1.35-4.27L1.21-4.73ZM9.91-1.16L12.89-1.16L13.64-2.09Q13.64-2.09 13.88-1.91Q14.11-1.73 14.44-1.47Q14.76-1.21 15.02-0.96L15.02-0.96Q14.95-0.71 14.62-0.71L14.62-0.71L9.91-0.71L9.91 0.91Q9.91 0.97 9.76 1.06Q9.61 1.15 9.37 1.22Q9.14 1.29 8.90 1.29L8.90 1.29L8.67 1.29L8.67-5.82L10.49-5.64Q10.49-5.31 9.91-5.20L9.91-5.20L9.91-4.73L12.42-4.73L13.17-5.67Q13.17-5.67 13.41-5.48Q13.64-5.29 13.97-5.03Q14.29-4.77 14.57-4.52L14.57-4.52Q14.48-4.27 14.15-4.27L14.15-4.27L9.91-4.27L9.91-2.97L12.09-2.97L12.78-3.82Q12.78-3.82 13.00-3.65Q13.22-3.49 13.51-3.24Q13.80-3.00 14.07-2.76L14.07-2.76Q13.99-2.51 13.66-2.51L13.66-2.51L9.91-2.51L9.91-1.16Z" transform="translate(84.7486 33.7707) " fill="rgb(36, 221, 127)" stroke="rgb(36, 221, 127)" stroke-linecap="square" stroke-linejoin="square" stroke-width="0.026" data-glyph-w="15.7" data-glyph-h="22.560899999999997" data-glyph-ascender="18.0707" data-glyph-descender="-4.4902"/><path d="" transform="translate(100.4486 33.7707) " fill="rgb(36, 221, 127)" stroke="rgb(36, 221, 127)" stroke-linecap="square" stroke-linejoin="square" stroke-width="0.026" data-glyph-w="6.2486" data-glyph-h="15.7" data-glyph-ascender="13.815999999999999" data-glyph-descender="-1.884"/><path d="M9.78-11.85L9.78-11.85L7.55-11.85L7.43-12.31L13.20-12.31L13.86-12.97L15.13-11.93Q14.98-11.74 14.54-11.70L14.54-11.70Q14.41-8.31 13.61-7.69L13.61-7.69Q13.02-7.27 12.09-7.27L12.09-7.27Q12.09-7.52 12.03-7.74Q11.98-7.96 11.82-8.09L11.82-8.09Q11.67-8.21 11.32-8.31Q10.97-8.42 10.58-8.49L10.58-8.49L10.58-8.74Q11.02-8.71 11.58-8.67Q12.14-8.63 12.34-8.63L12.34-8.63Q12.53-8.63 12.63-8.66Q12.73-8.68 12.81-8.74L12.81-8.74Q13.22-9.15 13.34-11.85L13.34-11.85L11.12-11.85Q11.01-10.46 10.20-9.07Q9.40-7.68 7.22-6.58L7.22-6.58L7.02-6.80Q8.68-8.01 9.22-9.32Q9.75-10.63 9.78-11.85ZM9.39-5.84L9.39-2.62L12.89-2.62L12.89-5.84L9.39-5.84ZM13.09-1.11L13.09-1.11L12.89-1.11L12.89-2.17L9.39-2.17L9.39-1.30Q9.39-1.24 9.23-1.15Q9.07-1.05 8.85-0.97Q8.62-0.89 8.37-0.89L8.37-0.89L8.18-0.89L8.18-6.85L9.47-6.30L12.73-6.30L13.39-6.99L14.79-5.93Q14.62-5.73 14.13-5.62L14.13-5.62L14.13-1.52Q14.11-1.46 13.95-1.37Q13.78-1.27 13.55-1.19Q13.31-1.11 13.09-1.11ZM0.86-7.66L0.74-8.12L3.83-8.12L3.83-10.35L1.32-10.35L1.19-10.80L3.83-10.80L3.83-13.20L5.59-13.03Q5.57-12.72 5.04-12.62L5.04-12.62L5.04-10.80L5.86-10.80L6.58-11.74Q6.58-11.74 6.81-11.56Q7.05-11.37 7.36-11.11Q7.66-10.85 7.91-10.60L7.91-10.60Q7.83-10.35 7.50-10.35L7.50-10.35L5.04-10.35L5.04-8.12L6.06-8.12L6.81-9.11Q6.81-9.11 7.05-8.91Q7.28-8.71 7.60-8.45Q7.91-8.18 8.20-7.91L8.20-7.91Q8.10-7.66 7.77-7.66L7.77-7.66L0.86-7.66ZM7.52-4.40L5.28-4.40L5.28-0.82Q6.00-0.57 6.94-0.48Q7.88-0.39 9.04-0.39L9.04-0.39Q10.10-0.39 12.05-0.41Q14.00-0.42 15.21-0.44L15.21-0.44L15.21-0.24Q14.51-0.02 14.46 0.75L14.46 0.75L9.00 0.75Q7.25 0.75 6.01 0.46Q4.77 0.17 3.92-0.64Q3.08-1.46 2.51-3.00L2.51-3.00Q2.28-1.81 1.81-0.71Q1.35 0.39 0.60 1.24L0.60 1.24L0.41 1.07Q1.19-0.44 1.51-2.50Q1.82-4.57 1.82-6.41L1.82-6.41L3.52-6.06Q3.44-5.71 2.92-5.68L2.92-5.68Q2.83-4.63 2.62-3.52L2.62-3.52Q3.22-2.12 4.11-1.43L4.11-1.43L4.11-7.25L5.78-7.06Q5.75-6.92 5.64-6.82Q5.53-6.72 5.28-6.69L5.28-6.69L5.28-4.85L5.97-4.85L6.67-5.81Q6.67-5.81 6.89-5.62Q7.11-5.43 7.40-5.17Q7.69-4.90 7.93-4.65L7.93-4.65Q7.85-4.40 7.52-4.40L7.52-4.40Z" transform="translate(106.6972 33.7707) " fill="rgb(36, 221, 127)" stroke="rgb(36, 221, 127)" stroke-linecap="square" stroke-linejoin="square" stroke-width="0.026" data-glyph-w="15.7" data-glyph-h="22.560899999999997" data-glyph-ascender="18.0707" data-glyph-descender="-4.4902"/><path d="M6.03-9.03L6.03-9.03L5.86-9.18Q6.64-9.94 7.26-11.04Q7.88-12.15 8.20-13.25L8.20-13.25L10.17-12.84Q10.14-12.72 10.02-12.66Q9.91-12.61 9.62-12.62L9.62-12.62Q9.29-12.04 8.81-11.45L8.81-11.45L11.49-11.45L12.29-12.21L13.66-10.99Q13.56-10.90 13.42-10.86Q13.28-10.83 13.05-10.82L13.05-10.82Q12.59-10.42 11.99-9.94Q11.40-9.45 10.80-9.07L10.80-9.07L12.61-9.07L13.27-9.78L14.68-8.71Q14.51-8.51 14.02-8.38L14.02-8.38L14.02-4.03Q14.00-3.97 13.83-3.89Q13.66-3.80 13.42-3.72Q13.17-3.64 12.95-3.64L12.95-3.64L12.76-3.64L12.76-4.25L6.58-4.25L6.44-4.73L12.76-4.73L12.76-6.48L7.08-6.48L6.94-6.94L12.76-6.94L12.76-8.62L6.70-8.62L6.56-9.07L10.38-9.07Q10.68-9.48 10.95-9.99Q11.23-10.50 11.46-10.94L11.46-10.94Q11.46-10.97 11.48-10.99L11.48-10.99L8.43-10.99Q7.39-9.78 6.03-9.03ZM9.55-4.02L9.55-4.02L9.73-4.13Q11.19-3.42 11.51-2.66Q11.82-1.90 11.47-1.52Q11.12-1.13 10.57-1.55L10.57-1.55Q10.52-2.18 10.21-2.85Q9.91-3.52 9.55-4.02ZM6.08-7.85L4.05-7.85L4.05-6.91Q5.51-6.25 5.85-5.51Q6.19-4.77 5.86-4.39Q5.53-4.00 4.98-4.40L4.98-4.40Q4.76-5.45 4.05-6.44L4.05-6.44L4.05 0.88Q4.05 0.94 3.78 1.10Q3.50 1.26 3.06 1.26L3.06 1.26L2.87 1.26L2.87-4.87Q1.99-3.01 0.58-1.57L0.58-1.57L0.38-1.74Q1.98-4.44 2.59-7.85L2.59-7.85L0.71-7.85L0.58-8.32L2.87-8.32L2.87-11.13Q1.79-10.96 0.74-10.85L0.74-10.85L0.66-11.08Q1.82-11.45 3.02-12.00Q4.22-12.56 4.98-13.02L4.98-13.02L6.42-11.77Q6.19-11.56 5.56-11.76L5.56-11.76Q4.93-11.57 4.05-11.38L4.05-11.38L4.05-8.32L4.47-8.32L5.20-9.26Q5.20-9.26 5.42-9.07Q5.64-8.89 5.93-8.62Q6.23-8.35 6.48-8.10L6.48-8.10Q6.41-7.85 6.08-7.85L6.08-7.85ZM6.34-3.30L6.34-3.30L6.61-3.30Q6.97-2.03 6.75-1.17Q6.53-0.31 6.11 0.06L6.11 0.06Q5.82 0.28 5.49 0.30Q5.17 0.31 4.99 0.06L4.99 0.06Q4.87-0.19 4.98-0.43Q5.10-0.68 5.35-0.85L5.35-0.85Q5.76-1.16 6.06-1.84Q6.36-2.51 6.34-3.30ZM12.65-2.10L12.84-2.10L12.89-0.39Q13.14-0.30 13.24-0.20Q13.33-0.09 13.33 0.08L13.33 0.08Q13.33 0.46 12.79 0.61Q12.25 0.77 10.55 0.77L10.55 0.77L9.01 0.77Q8.10 0.77 7.83 0.55Q7.57 0.33 7.57-0.27L7.57-0.27L7.57-3.52L9.17-3.34Q9.14-3.06 8.71-2.98L8.71-2.98L8.71-0.49Q8.71-0.35 8.81-0.30Q8.90-0.25 9.26-0.25L9.26-0.25L10.61-0.25Q11.54-0.25 11.87-0.27L11.87-0.27Q11.99-0.28 12.06-0.31Q12.12-0.35 12.17-0.44L12.17-0.44Q12.37-0.88 12.65-2.10L12.65-2.10ZM12.83-3.17L12.83-3.17L13.02-3.28Q14.57-2.43 14.93-1.52Q15.29-0.61 14.95-0.13Q14.60 0.35 14.04-0.11L14.04-0.11Q14.04-0.89 13.67-1.73Q13.31-2.57 12.83-3.17Z" transform="translate(122.3972 33.7707) " fill="rgb(36, 221, 127)" stroke="rgb(36, 221, 127)" stroke-linecap="square" stroke-linejoin="square" stroke-width="0.026" data-glyph-w="15.7" data-glyph-h="22.560899999999997" data-glyph-ascender="18.0707" data-glyph-descender="-4.4902"/><path d="M6.61-13.09L6.61-13.09L6.75-13.20Q8.05-13.00 8.57-12.51Q9.09-12.03 9.06-11.55Q9.03-11.07 8.64-10.86Q8.26-10.66 7.76-11.01L7.76-11.01Q7.69-11.57 7.36-12.14Q7.03-12.72 6.61-13.09ZM13.00-10.22L13.00-10.22L2.90-10.22Q2.92-9.42 2.67-8.89Q2.42-8.37 2.03-8.15L2.03-8.15Q1.68-7.93 1.28-7.98Q0.88-8.04 0.71-8.40L0.71-8.40Q0.60-8.73 0.76-9.00Q0.93-9.28 1.26-9.44L1.26-9.44Q1.71-9.69 2.07-10.24Q2.43-10.80 2.40-11.51L2.40-11.51L2.65-11.52Q2.81-11.08 2.86-10.68L2.86-10.68L12.95-10.68L13.71-11.45L15.09-10.13Q14.91-9.99 14.49-9.97L14.49-9.97Q14.15-9.58 13.62-9.16Q13.09-8.74 12.62-8.43L12.62-8.43L12.43-8.56Q12.58-8.90 12.73-9.35Q12.89-9.80 13.00-10.22ZM12.86-4.16L8.48-4.16L8.48-0.42Q9.66-0.28 11.16-0.28L11.16-0.28Q11.85-0.28 13.09-0.29Q14.33-0.30 15.17-0.31L15.17-0.31L15.17-0.09Q14.44 0.11 14.41 0.96L14.41 0.96L11.07 0.96Q9.26 0.96 7.96 0.66Q6.66 0.36 5.74-0.44Q4.82-1.24 4.21-2.75L4.21-2.75Q3.71-1.55 2.84-0.52Q1.98 0.52 0.68 1.29L0.68 1.29L0.50 1.11Q2.06-0.28 2.81-2.20Q3.56-4.11 3.75-5.98L3.75-5.98L5.60-5.60Q5.53-5.28 5.01-5.24L5.01-5.24Q4.80-4.21 4.38-3.16L4.38-3.16Q5.37-1.21 7.22-0.71L7.22-0.71L7.22-7.54L2.64-7.54L2.51-7.99L11.05-7.99L11.87-8.95Q11.87-8.95 12.12-8.76Q12.37-8.57 12.71-8.31Q13.05-8.04 13.36-7.79L13.36-7.79Q13.25-7.54 12.92-7.54L12.92-7.54L8.48-7.54L8.48-4.62L11.01-4.62L11.81-5.62Q11.81-5.62 12.06-5.42Q12.31-5.23 12.65-4.95Q12.98-4.68 13.27-4.41L13.27-4.41Q13.19-4.16 12.86-4.16L12.86-4.16Z" transform="translate(138.0972 33.7707) " fill="rgb(36, 221, 127)" stroke="rgb(36, 221, 127)" stroke-linecap="square" stroke-linejoin="square" stroke-width="0.026" data-glyph-w="15.7" data-glyph-h="22.560899999999997" data-glyph-ascender="18.0707" data-glyph-descender="-4.4902"/><path d="" transform="translate(153.79719999999998 33.7707) " fill="rgb(36, 221, 127)" stroke="rgb(36, 221, 127)" stroke-linecap="square" stroke-linejoin="square" stroke-width="0.026" data-glyph-w="6.2486" data-glyph-h="15.7" data-glyph-ascender="13.815999999999999" data-glyph-descender="-1.884"/><path d="M4.30-6.77L4.30-6.77L4.99-6.50Q6.69-5.84 7.41-5.03Q8.13-4.22 8.13-3.01L8.13-3.01Q8.13-1.49 7.00-0.62Q5.87 0.25 4.08 0.25L4.08 0.25Q3.11 0.25 2.22-0.01Q1.33-0.27 0.74-0.66L0.74-0.66L0.85-3.08L1.73-3.08L2.17-0.93Q2.87-0.50 3.97-0.50L3.97-0.50Q5.23-0.50 5.97-1.05Q6.72-1.60 6.72-2.65L6.72-2.65Q6.72-3.49 6.21-3.98Q5.70-4.47 4.55-4.91L4.55-4.91L3.91-5.18Q2.54-5.71 1.74-6.52Q0.94-7.33 0.94-8.62L0.94-8.62Q0.94-10.11 2.05-10.94Q3.16-11.77 4.77-11.77L4.77-11.77Q5.65-11.77 6.34-11.53Q7.03-11.29 7.60-10.86L7.60-10.86L7.49-8.62L6.59-8.62L6.15-10.68Q5.56-11.02 4.76-11.02L4.76-11.02Q3.72-11.02 3.04-10.51Q2.35-10.00 2.35-9.01L2.35-9.01Q2.35-8.20 2.86-7.66Q3.36-7.13 4.30-6.77Z" transform="translate(160.04579999999999 33.7707) " fill="rgb(36, 221, 127)" stroke="rgb(36, 221, 127)" stroke-linecap="square" stroke-linejoin="square" stroke-width="0.026" data-glyph-w="8.839099999999998" data-glyph-h="22.560899999999997" data-glyph-ascender="18.0707" data-glyph-descender="-4.4902"/><path d="M5.10-10.83L5.10-10.83L4.00-10.83Q3.97-8.53 3.97-6.17L3.97-6.17L3.97-5.29L5.07-5.29Q6.69-5.29 7.39-6.08Q8.09-6.86 8.09-8.10L8.09-8.10Q8.09-9.40 7.36-10.12Q6.64-10.83 5.10-10.83ZM4.88-4.60L4.88-4.60L3.97-4.60Q3.97-2.70 4.00-0.78L4.00-0.78L5.64-0.60L5.64 0L0.77 0L0.77-0.60L2.37-0.77Q2.40-3.01 2.40-5.32L2.40-5.32L2.40-6.17Q2.40-8.48 2.37-10.74L2.37-10.74L0.77-10.91L0.77-11.51L5.39-11.51Q7.55-11.51 8.63-10.57Q9.70-9.64 9.70-8.10L9.70-8.10Q9.70-7.14 9.22-6.35Q8.74-5.56 7.69-5.08Q6.63-4.60 4.88-4.60Z" transform="translate(168.8849 33.7707) " fill="rgb(36, 221, 127)" stroke="rgb(36, 221, 127)" stroke-linecap="square" stroke-linejoin="square" stroke-width="0.026" data-glyph-w="10.126499999999998" data-glyph-h="22.560899999999997" data-glyph-ascender="18.0707" data-glyph-descender="-4.4902"/><path d="M8.42-0.75L8.87-3.06L9.72-3.06L9.62 0L0.77 0L0.77-0.60L2.37-0.77Q2.40-3.01 2.40-5.32L2.40-5.32L2.40-6.17Q2.40-8.48 2.37-10.74L2.37-10.74L0.77-10.91L0.77-11.51L9.29-11.51L9.39-8.48L8.54-8.48L8.09-10.75L4.00-10.75Q3.97-8.54 3.97-6.20L3.97-6.20L6.56-6.20L6.81-7.90L7.52-7.90L7.52-3.85L6.81-3.85L6.58-5.51L3.97-5.51Q3.97-2.97 4.00-0.75L4.00-0.75L8.42-0.75Z" transform="translate(179.01139999999998 33.7707) " fill="rgb(36, 221, 127)" stroke="rgb(36, 221, 127)" stroke-linecap="square" stroke-linejoin="square" stroke-width="0.026" data-glyph-w="10.361999999999998" data-glyph-h="22.560899999999997" data-glyph-ascender="18.0707" data-glyph-descender="-4.4902"/><path d="M8.42-0.75L8.87-3.06L9.72-3.06L9.62 0L0.77 0L0.77-0.60L2.37-0.77Q2.40-3.01 2.40-5.32L2.40-5.32L2.40-6.17Q2.40-8.48 2.37-10.74L2.37-10.74L0.77-10.91L0.77-11.51L9.29-11.51L9.39-8.48L8.54-8.48L8.09-10.75L4.00-10.75Q3.97-8.54 3.97-6.20L3.97-6.20L6.56-6.20L6.81-7.90L7.52-7.90L7.52-3.85L6.81-3.85L6.58-5.51L3.97-5.51Q3.97-2.97 4.00-0.75L4.00-0.75L8.42-0.75Z" transform="translate(189.37339999999998 33.7707) " fill="rgb(36, 221, 127)" stroke="rgb(36, 221, 127)" stroke-linecap="square" stroke-linejoin="square" stroke-width="0.026" data-glyph-w="10.361999999999998" data-glyph-h="22.560899999999997" data-glyph-ascender="18.0707" data-glyph-descender="-4.4902"/><path d="M4.00-0.69L4.00-0.69L5.35-0.69Q7.41-0.69 8.49-2.03Q9.58-3.36 9.58-5.75L9.58-5.75Q9.58-8.23 8.52-9.53Q7.46-10.83 5.49-10.83L5.49-10.83L4.00-10.83Q3.97-8.54 3.97-6.15L3.97-6.15L3.97-5.56Q3.97-2.95 4.00-0.69ZM0.77-10.91L0.77-11.51L5.78-11.51Q8.29-11.51 9.83-10.02Q11.37-8.53 11.37-5.75L11.37-5.75Q11.37-3.91 10.61-2.62Q9.84-1.33 8.51-0.67Q7.17 0 5.46 0L5.46 0L0.77 0L0.77-0.60L2.37-0.77Q2.40-2.95 2.40-5.56L2.40-5.56L2.40-6.15Q2.40-8.46 2.37-10.74L2.37-10.74L0.77-10.91Z" transform="translate(199.73539999999997 33.7707) " fill="rgb(36, 221, 127)" stroke="rgb(36, 221, 127)" stroke-linecap="square" stroke-linejoin="square" stroke-width="0.026" data-glyph-w="12.1832" data-glyph-h="22.560899999999997" data-glyph-ascender="18.0707" data-glyph-descender="-4.4902"/><path d="M4.69-3.82L0.69-3.82L0.69-4.82L4.69-4.82L4.69-3.82Z" transform="translate(211.91859999999997 33.7707) " fill="rgb(36, 221, 127)" stroke="rgb(36, 221, 127)" stroke-linecap="square" stroke-linejoin="square" stroke-width="0.026" data-glyph-w="5.3850999999999996" data-glyph-h="22.560899999999997" data-glyph-ascender="18.0707" data-glyph-descender="-4.4902"/><path d="M5.60-11.51L5.60-10.91L4.00-10.74Q3.97-8.48 3.97-6.17L3.97-6.17L3.97-5.32Q3.97-3.06 4.00-0.78L4.00-0.78L5.60-0.60L5.60 0L0.77 0L0.77-0.60L2.37-0.77Q2.40-3.01 2.40-5.32L2.40-5.32L2.40-6.17Q2.40-8.48 2.37-10.74L2.37-10.74L0.77-10.91L0.77-11.51L5.60-11.51Z" transform="translate(217.30369999999996 33.7707) " fill="rgb(36, 221, 127)" stroke="rgb(36, 221, 127)" stroke-linecap="square" stroke-linejoin="square" stroke-width="0.026" data-glyph-w="6.374199999999999" data-glyph-h="22.560899999999997" data-glyph-ascender="18.0707" data-glyph-descender="-4.4902"/><path d="M4.00-0.69L4.00-0.69L5.35-0.69Q7.41-0.69 8.49-2.03Q9.58-3.36 9.58-5.75L9.58-5.75Q9.58-8.23 8.52-9.53Q7.46-10.83 5.49-10.83L5.49-10.83L4.00-10.83Q3.97-8.54 3.97-6.15L3.97-6.15L3.97-5.56Q3.97-2.95 4.00-0.69ZM0.77-10.91L0.77-11.51L5.78-11.51Q8.29-11.51 9.83-10.02Q11.37-8.53 11.37-5.75L11.37-5.75Q11.37-3.91 10.61-2.62Q9.84-1.33 8.51-0.67Q7.17 0 5.46 0L5.46 0L0.77 0L0.77-0.60L2.37-0.77Q2.40-2.95 2.40-5.56L2.40-5.56L2.40-6.15Q2.40-8.46 2.37-10.74L2.37-10.74L0.77-10.91Z" transform="translate(223.67789999999997 33.7707) " fill="rgb(36, 221, 127)" stroke="rgb(36, 221, 127)" stroke-linecap="square" stroke-linejoin="square" stroke-width="0.026" data-glyph-w="12.1832" data-glyph-h="22.560899999999997" data-glyph-ascender="18.0707" data-glyph-descender="-4.4902"/><path d="M8.78-0.93L9.20-3.11L10.14-3.11L10.11-0.58Q8.51 0.25 6.67 0.25L6.67 0.25Q4.07 0.25 2.45-1.41Q0.83-3.08 0.83-5.76L0.83-5.76Q0.83-8.40 2.50-10.09Q4.16-11.77 6.67-11.77L6.67-11.77Q7.41-11.77 8.26-11.59Q9.11-11.41 9.95-10.93L9.95-10.93L9.99-8.40L9.04-8.40L8.62-10.60Q7.74-11.02 6.86-11.02L6.86-11.02Q5.68-11.02 4.72-10.42Q3.75-9.81 3.18-8.64Q2.61-7.47 2.61-5.76L2.61-5.76Q2.61-3.19 3.78-1.84Q4.95-0.50 6.80-0.50L6.80-0.50Q7.77-0.50 8.78-0.93L8.78-0.93Z" transform="translate(235.86109999999996 33.7707) " fill="rgb(36, 221, 127)" stroke="rgb(36, 221, 127)" stroke-linecap="square" stroke-linejoin="square" stroke-width="0.026" data-glyph-w="10.8644" data-glyph-h="22.560899999999997" data-glyph-ascender="18.0707" data-glyph-descender="-4.4902"/><path d="M2.57 0.22L2.57 0.22Q2.09 0.22 1.75-0.13Q1.41-0.47 1.41-0.93L1.41-0.93Q1.41-1.43 1.75-1.77Q2.09-2.12 2.57-2.12L2.57-2.12Q3.08-2.12 3.41-1.77Q3.75-1.43 3.75-0.93L3.75-0.93Q3.75-0.47 3.41-0.13Q3.08 0.22 2.57 0.22Z" transform="translate(246.72549999999995 33.7707) " fill="rgb(36, 221, 127)" stroke="rgb(36, 221, 127)" stroke-linecap="square" stroke-linejoin="square" stroke-width="0.026" data-glyph-w="5.165299999999999" data-glyph-h="22.560899999999997" data-glyph-ascender="18.0707" data-glyph-descender="-4.4902"/><path d="M8.78-0.93L9.20-3.11L10.14-3.11L10.11-0.58Q8.51 0.25 6.67 0.25L6.67 0.25Q4.07 0.25 2.45-1.41Q0.83-3.08 0.83-5.76L0.83-5.76Q0.83-8.40 2.50-10.09Q4.16-11.77 6.67-11.77L6.67-11.77Q7.41-11.77 8.26-11.59Q9.11-11.41 9.95-10.93L9.95-10.93L9.99-8.40L9.04-8.40L8.62-10.60Q7.74-11.02 6.86-11.02L6.86-11.02Q5.68-11.02 4.72-10.42Q3.75-9.81 3.18-8.64Q2.61-7.47 2.61-5.76L2.61-5.76Q2.61-3.19 3.78-1.84Q4.95-0.50 6.80-0.50L6.80-0.50Q7.77-0.50 8.78-0.93L8.78-0.93Z" transform="translate(251.89079999999996 33.7707) " fill="rgb(36, 221, 127)" stroke="rgb(36, 221, 127)" stroke-linecap="square" stroke-linejoin="square" stroke-width="0.026" data-glyph-w="10.8644" data-glyph-h="22.560899999999997" data-glyph-ascender="18.0707" data-glyph-descender="-4.4902"/><path d="M2.61-5.76L2.61-5.76Q2.61-4.41 2.98-3.20Q3.34-1.99 4.12-1.24Q4.90-0.49 6.09-0.49L6.09-0.49Q7.28-0.49 8.05-1.24Q8.81-1.99 9.17-3.20Q9.53-4.41 9.53-5.76L9.53-5.76Q9.53-7.11 9.17-8.31Q8.81-9.51 8.05-10.27Q7.28-11.02 6.09-11.02L6.09-11.02Q4.90-11.02 4.12-10.27Q3.34-9.51 2.98-8.31Q2.61-7.11 2.61-5.76ZM6.09-11.77L6.09-11.77Q7.43-11.77 8.62-11.08Q9.81-10.38 10.57-9.04Q11.32-7.71 11.32-5.76L11.32-5.76Q11.32-3.88 10.57-2.53Q9.83-1.18 8.63-0.46Q7.44 0.25 6.09 0.25L6.09 0.25Q4.74 0.25 3.53-0.44Q2.32-1.13 1.58-2.47Q0.83-3.82 0.83-5.76L0.83-5.76Q0.83-7.65 1.59-9.00Q2.34-10.35 3.54-11.06Q4.74-11.77 6.09-11.77Z" transform="translate(262.75519999999995 33.7707) " fill="rgb(36, 221, 127)" stroke="rgb(36, 221, 127)" stroke-linecap="square" stroke-linejoin="square" stroke-width="0.026" data-glyph-w="12.136099999999999" data-glyph-h="22.560899999999997" data-glyph-ascender="18.0707" data-glyph-descender="-4.4902"/><path d="M14.71-11.51L14.71-10.91L13.11-10.74Q13.08-8.48 13.08-6.17L13.08-6.17L13.08-5.32Q13.08-3.06 13.11-0.77L13.11-0.77L14.70-0.60L14.70 0L10.02 0L10.02-0.60L11.51-0.77Q11.54-3.01 11.54-5.28L11.54-5.28L11.56-9.89L7.68 0L6.94 0L2.92-9.86Q2.94-9.04 2.96-8.20Q2.98-7.36 3.00-6.80L3.00-6.80Q3.01-6.30 3.01-6.26L3.01-6.26L3.01-0.82L4.51-0.60L4.51 0L0.66 0L0.66-0.60L2.21-0.82L2.23-10.72L0.66-10.91L0.66-11.51L3.80-11.51L7.68-1.96L11.40-11.51L14.71-11.51Z" transform="translate(274.89129999999994 33.7707) " fill="rgb(36, 221, 127)" stroke="rgb(36, 221, 127)" stroke-linecap="square" stroke-linejoin="square" stroke-width="0.026" data-glyph-w="15.495899999999999" data-glyph-h="22.560899999999997" data-glyph-ascender="18.0707" data-glyph-descender="-4.4902"/></g></svg></g></g>  <!----></svg>
