<?xml version="1.0"?>
<svg xmlns="http://www.w3.org/2000/svg" xmlns:xlink="http://www.w3.org/1999/xlink" data-noselect="" viewBox="0 0 853.9370078740158 181.4173228346457" width="225.9375" height="48" preserveAspectRatio="none" version="1.1"><defs/> <g id="background" data-noselect=""><!----> <!----></g> <g id="shape_AjwXCJgVSQ" transform="translate(13.08407327094639,3.480698525036644) rotate(0,218.14171679213064,86.85480775560438) scale(1,1)" filter="" style="cursor: move; opacity: 1;"><g><svg xmlns="http://www.w3.org/2000/svg" xmlns:xlink="http://www.w3.org/1999/xlink" version="1.1" id="&#x56FE;&#x5C42;_1" x="0px" y="0px" width="225.9375" height="48" viewBox="10.189589500427246 43.904483795166016 179.6204071044922 112.19052124023438" enable-background="new 0 0 200 200" xml:space="preserve" preserveAspectRatio="none" class="style-removed" data-parent="shape_AjwXCJgVSQ">
<g>
	<path fill="#24DD7F" d="M106.321,89.494c0,0,21.712-23.689,49.111-19.623c20.564,3.052,29.926,14.137,34.378,20.14H176.37   c0,0-9.943-9.084-23.78-10.899C140.013,77.462,129.843,78.121,106.321,89.494z"/>
	<path fill="#24DD7F" d="M147.161,71.716c0,0-5.801-22.574-33.028-27.054S61.92,55.92,43.31,82.687l22.517-4.021   c0,0,19.354-29.195,47.101-24.24c16.083,2.872,24.699,10.109,27.916,18.496L147.161,71.716z"/>
	<path fill="#24DD7F" d="M62.38,83.893c0,0-46.698,7.782-51.696,38.255c-4.136,25.216,18.611,33.947,33.43,33.947   c18.036,0,112.698,0,112.698,0l1.206-5.687c0,0-71.397,0.324-101.38,0c-15.968-0.172-28.147-4.996-28.147-22.574   c0-14.992,12.867-26.502,29.065-32.034L62.38,83.893z"/>
</g>
</svg></g></g><g id="shape_W7YDZ35Q8m" transform="translate(4.992960816328747,-48.090625963754604) rotate(0,479.0754357060466,160.78094) scale(1,1)" filter="" style="cursor: move; opacity: 1;"><g><svg xmlns="http://www.w3.org/2000/svg" xmlns:xlink="http://www.w3.org/1999/xlink" version="1.1" width="958.1508714120932" height="321.56188" viewBox="0 0 958.1508714120932 321.56188" data-parent="shape_W7YDZ35Q8m"><g data-width="720.91494" transform="translate(106.66, 0)"><path d="M42.66 0L6.93 0L6.93-12.69L39.46-12.69Q47.25-12.69 49.81-14.19L49.81-14.19Q53.54-16.43 53.54-20.91L53.54-20.91Q53.54-26.13 49.17-28.48L49.17-28.48Q46.72-29.86 41.28-29.86L41.28-29.86L28.05-29.86Q16.00-29.86 10.67-34.24L10.67-34.24Q7.36-37.01 5.49-41.17Q3.63-45.33 3.63-50.13L3.63-50.13Q3.63-57.60 8.00-63.78L8.00-63.78Q12.27-69.76 21.65-70.82L21.65-70.82Q24.85-71.14 31.14-71.14L31.14-71.14L66.45-71.14L66.45-58.45L34.56-58.45Q27.41-58.34 25.07-57.81L25.07-57.81Q20.27-56.64 20.27-50.56L20.27-50.56Q20.27-45.44 24.32-43.73L24.32-43.73Q26.98-42.45 33.28-42.45L33.28-42.45L44.69-42.45Q53.44-42.45 57.70-40.96L57.70-40.96Q65.28-38.40 68.16-32.00L68.16-32.00Q70.40-26.88 70.40-21.01L70.40-21.01Q70.40-14.51 67.41-9.39L67.41-9.39Q63.25-2.13 54.93-0.64L54.93-0.64Q50.88 0 42.66 0L42.66 0Z" transform="translate(0 198.28094) skewX(-14)" fill="rgb(36, 221, 127)" stroke="rgb(36, 221, 127)" stroke-linecap="square" stroke-linejoin="square" stroke-width="0.178" data-glyph-w="74.12870000000001" data-glyph-h="106.66000000000001" data-glyph-ascender="91.62094" data-glyph-descender="-15.039060000000001"/><path d="M46.72-24.85L22.40-24.85L22.40 0L7.25 0L7.25-71.14L42.77-71.14Q52.48-71.14 56.64-69.76L56.64-69.76Q63.68-67.41 67.73-60.05L67.73-60.05Q70.72-54.50 70.72-48.00L70.72-48.00Q70.72-42.56 68.74-37.70Q66.77-32.85 63.25-29.76L63.25-29.76Q60.05-26.98 56.48-25.92Q52.90-24.85 46.72-24.85L46.72-24.85ZM22.40-58.45L22.40-37.54L42.98-37.54Q48.53-37.54 50.77-39.25L50.77-39.25Q54.08-41.92 54.08-48.53L54.08-48.53Q54.08-55.68 49.06-57.70L49.06-57.70Q47.25-58.45 43.30-58.45L43.30-58.45L22.40-58.45Z" transform="translate(74.12870000000001 198.28094) skewX(-14)" fill="rgb(36, 221, 127)" stroke="rgb(36, 221, 127)" stroke-linecap="square" stroke-linejoin="square" stroke-width="0.178" data-glyph-w="73.0621" data-glyph-h="106.66000000000001" data-glyph-ascender="91.62094" data-glyph-descender="-15.039060000000001"/><path d="M35.09-71.14L60.58-71.14L60.58-58.45L40.85-58.45Q33.17-58.45 29.65-57.38Q26.13-56.32 23.79-53.22L23.79-53.22Q22.19-51.09 21.60-48.96Q21.01-46.82 20.59-41.70L20.59-41.70L60.58-41.70L60.58-29.01L20.59-29.01Q21.44-19.84 26.03-16.27Q30.61-12.69 41.60-12.69L41.60-12.69L60.58-12.69L60.58 0L40.85 0Q32.85 0 26.77-0.96L26.77-0.96Q17.17-2.56 11.52-9.39L11.52-9.39Q3.41-19.20 3.41-35.94L3.41-35.94Q3.41-54.50 14.83-64.85L14.83-64.85Q18.77-68.37 23.20-69.76Q27.62-71.14 35.09-71.14L35.09-71.14Z" transform="translate(147.19080000000002 198.28094) skewX(-14)" fill="rgb(36, 221, 127)" stroke="rgb(36, 221, 127)" stroke-linecap="square" stroke-linejoin="square" stroke-width="0.178" data-glyph-w="65.27592" data-glyph-h="106.66000000000001" data-glyph-ascender="91.62094" data-glyph-descender="-15.039060000000001"/><path d="M35.09-71.14L60.58-71.14L60.58-58.45L40.85-58.45Q33.17-58.45 29.65-57.38Q26.13-56.32 23.79-53.22L23.79-53.22Q22.19-51.09 21.60-48.96Q21.01-46.82 20.59-41.70L20.59-41.70L60.58-41.70L60.58-29.01L20.59-29.01Q21.44-19.84 26.03-16.27Q30.61-12.69 41.60-12.69L41.60-12.69L60.58-12.69L60.58 0L40.85 0Q32.85 0 26.77-0.96L26.77-0.96Q17.17-2.56 11.52-9.39L11.52-9.39Q3.41-19.20 3.41-35.94L3.41-35.94Q3.41-54.50 14.83-64.85L14.83-64.85Q18.77-68.37 23.20-69.76Q27.62-71.14 35.09-71.14L35.09-71.14Z" transform="translate(212.46672 198.28094) skewX(-14)" fill="rgb(36, 221, 127)" stroke="rgb(36, 221, 127)" stroke-linecap="square" stroke-linejoin="square" stroke-width="0.178" data-glyph-w="65.27592" data-glyph-h="106.66000000000001" data-glyph-ascender="91.62094" data-glyph-descender="-15.039060000000001"/><path d="M7.25 0L7.25-71.14L37.44-71.14Q48.74-71.14 54.93-68.90L54.93-68.90Q66.34-64.74 70.18-53.65L70.18-53.65Q73.06-45.12 73.06-35.41L73.06-35.41Q73.06-25.81 70.29-17.28L70.29-17.28Q67.52-8.53 61.12-4.37L61.12-4.37Q57.06-1.81 52.21-0.91Q47.36 0 37.44 0L37.44 0L7.25 0ZM37.44-58.45L22.40-58.45L22.40-12.69L37.44-12.69Q47.36-12.69 51.20-17.07L51.20-17.07Q53.54-19.84 54.98-24.85Q56.42-29.86 56.42-35.52L56.42-35.52Q56.42-41.81 54.72-47.04Q53.01-52.26 50.24-54.82L50.24-54.82Q46.18-58.45 37.44-58.45L37.44-58.45Z" transform="translate(277.74264 198.28094) skewX(-14)" fill="rgb(36, 221, 127)" stroke="rgb(36, 221, 127)" stroke-linecap="square" stroke-linejoin="square" stroke-width="0.178" data-glyph-w="76.36856" data-glyph-h="106.66000000000001" data-glyph-ascender="91.62094" data-glyph-descender="-15.039060000000001"/><path d="M22.40 0L7.25 0L7.25-71.14L22.40-71.14L22.40 0Z" transform="translate(354.1112 198.28094) skewX(-14)" fill="rgb(36, 221, 127)" stroke="rgb(36, 221, 127)" stroke-linecap="square" stroke-linejoin="square" stroke-width="0.178" data-glyph-w="29.54482" data-glyph-h="106.66000000000001" data-glyph-ascender="91.62094" data-glyph-descender="-15.039060000000001"/><path d="M7.25 0L7.25-71.14L37.44-71.14Q48.74-71.14 54.93-68.90L54.93-68.90Q66.34-64.74 70.18-53.65L70.18-53.65Q73.06-45.12 73.06-35.41L73.06-35.41Q73.06-25.81 70.29-17.28L70.29-17.28Q67.52-8.53 61.12-4.37L61.12-4.37Q57.06-1.81 52.21-0.91Q47.36 0 37.44 0L37.44 0L7.25 0ZM37.44-58.45L22.40-58.45L22.40-12.69L37.44-12.69Q47.36-12.69 51.20-17.07L51.20-17.07Q53.54-19.84 54.98-24.85Q56.42-29.86 56.42-35.52L56.42-35.52Q56.42-41.81 54.72-47.04Q53.01-52.26 50.24-54.82L50.24-54.82Q46.18-58.45 37.44-58.45L37.44-58.45Z" transform="translate(383.65602 198.28094) skewX(-14)" fill="rgb(36, 221, 127)" stroke="rgb(36, 221, 127)" stroke-linecap="square" stroke-linejoin="square" stroke-width="0.178" data-glyph-w="76.36856" data-glyph-h="106.66000000000001" data-glyph-ascender="91.62094" data-glyph-descender="-15.039060000000001"/><path d="M39.57-12.69L61.33-12.69L61.33 0L36.48 0Q29.44 0 25.71-0.75L25.71-0.75Q12.59-3.31 7.04-15.36L7.04-15.36Q3.41-23.47 3.41-35.41L3.41-35.41Q3.41-49.70 8.96-58.66L8.96-58.66Q13.01-65.17 19.79-68.16Q26.56-71.14 37.22-71.14L37.22-71.14L61.33-71.14L61.33-58.45L38.93-58.45Q28.80-58.45 24.11-53.01L24.11-53.01Q20.16-48.53 20.16-36.80L20.16-36.80Q20.16-21.01 26.24-16.11L26.24-16.11Q30.50-12.69 39.57-12.69L39.57-12.69Z" transform="translate(460.02458 198.28094) skewX(-14)" fill="rgb(36, 221, 127)" stroke="rgb(36, 221, 127)" stroke-linecap="square" stroke-linejoin="square" stroke-width="0.178" data-glyph-w="64.63596" data-glyph-h="106.66000000000001" data-glyph-ascender="91.62094" data-glyph-descender="-15.039060000000001"/><path d="M24.43-20.27L16.43 0L2.56 0L10.45-20.27L24.43-20.27ZM74.02-20.27L87.99-20.27L95.89 0L81.91 0L74.02-20.27ZM2.24-59.73L2.24-71.78L95.89-76.90L95.89-64.85L55.89-62.61L41.49-53.22L45.97-53.22L50.34-53.22L68.58-53.22L41.49-35.62L72.96-35.62L67.20-43.94L82.55-43.94L95.89-24.75L89.38-24.75L80.53-24.75L60.48-24.75L60.48-11.63Q60.48-9.17 59.52-7.04Q58.56-4.91 56.96-3.31Q55.36-1.71 53.22-0.80Q51.09 0.11 48.74 0.11L48.74 0.11L27.30 0.11L33.17-10.77L40.21-10.77Q41.60-10.77 42.56-11.73Q43.52-12.69 43.52-14.19L43.52-14.19L43.52-24.75L24.75-24.75L2.56-24.75L2.24-24.75L29.33-42.34L24.75-42.34L7.36-42.34L2.24-42.34L31.25-61.33L2.24-59.73Z" transform="translate(524.66054 198.28094) skewX(-14)" fill="rgb(36, 221, 127)" stroke="rgb(36, 221, 127)" stroke-linecap="square" stroke-linejoin="square" stroke-width="0.178" data-glyph-w="98.1272" data-glyph-h="106.66000000000001" data-glyph-ascender="91.62094" data-glyph-descender="-15.039060000000001"/><path d="M95.89-69.22L95.89-58.66L58.45-58.66L52.69-44.69L79.04-44.69L76.48-52.26L88.85-52.26L95.57-32.96L83.09-32.96L82.55-34.45L80.85-34.45L80.85-13.87Q80.85-12.37 81.81-11.41Q82.77-10.45 84.26-10.45L84.26-10.45L94.71-10.45L90.02 0.11L77.01 0.11Q72.96 0.11 70.18-2.72Q67.41-5.55 67.41-9.60L67.41-9.60L67.41-34.45L57.49-34.45L50.88 0.11L36.80 0.11L43.41-34.45L32.53-34.45L42.88-58.66L36.05-58.66L36.05-69.22L59.30-69.22L55.78-77.01L72.64-77.01L76.05-69.22L95.89-69.22ZM32.96-14.72L2.24-14.72L14.83-41.17L2.24-41.17L18.03-75.41L34.56-75.41L22.29-50.77L24.75-50.77L32.96-50.77L21.01-24.43L32.96-24.43L32.96-14.72ZM2.24 0.11L2.24-9.60L32.96-9.60L32.96 0.11L2.24 0.11Z" transform="translate(622.78774 198.28094) skewX(-14)" fill="rgb(36, 221, 127)" stroke="rgb(36, 221, 127)" stroke-linecap="square" stroke-linejoin="square" stroke-width="0.178" data-glyph-w="98.1272" data-glyph-h="106.66000000000001" data-glyph-ascender="91.62094" data-glyph-descender="-15.039060000000001"/></g></svg></g></g><g id="shape_KGTd7uuhMV" transform="translate(351.4436765664392,121.2043011245091) rotate(0,293.6340583053292,44.22144) scale(1,1)" filter="" style="cursor: move; opacity: 1;"><g><svg xmlns="http://www.w3.org/2000/svg" xmlns:xlink="http://www.w3.org/1999/xlink" version="1.1" width="587.2681166106585" height="88.44288" viewBox="0 0 587.2681166106585 88.44288" data-parent="shape_KGTd7uuhMV"><g data-width="470.53824" transform="translate(25.44, 0)"><path d="M6.23-21.37L6.23-21.37L9.23-20.40Q9.11-19.97 8.27-19.94L8.27-19.94Q7.20-17.04 5.80-14.55L5.80-14.55L6.89-14.14Q6.82-13.79 6.11-13.69L6.11-13.69L6.11 1.40Q6.08 1.50 5.85 1.64Q5.62 1.78 5.27 1.91Q4.91 2.04 4.53 2.04L4.53 2.04L4.15 2.04L4.15-11.93Q2.70-9.87 1.04-8.34L1.04-8.34L0.69-8.60Q4.20-13.66 6.23-21.37ZM14.81-2.47L14.81-2.47L15.06-2.65Q17.63-1.81 18.28-0.62Q18.93 0.56 18.41 1.26Q17.88 1.96 16.92 1.35L16.92 1.35Q16.74 0.36 16.12-0.70Q15.49-1.76 14.81-2.47ZM11.50-17.35L11.50-11.50L16.46-11.50Q16.13-14.63 16.05-17.88L16.05-17.88Q13.79-17.55 11.50-17.35L11.50-17.35ZM24.14-4.17L24.47-4.10L24.07-0.31Q24.98 1.20 24.40 1.68L24.40 1.68Q23.74 2.21 22.81 1.82Q21.88 1.42 21.14 0.64L21.14 0.64Q19.21-1.42 18.11-4.34Q17.02-7.25 16.56-10.74L16.56-10.74L11.50-10.74L11.50-2.14Q13.71-3.28 16.33-4.68L16.33-4.68L16.51-4.35Q16.23-4.10 15.87-3.79L15.87-3.79Q13.84-2.01 10.48 0.71L10.48 0.71Q10.13 1.40 9.74 1.60L9.74 1.60L8.42-0.86Q9.11-1.22 9.31-1.46Q9.51-1.70 9.51-2.11L9.51-2.11L9.51-18.98L12.24-18.09Q14.73-18.72 17.08-19.54Q19.44-20.35 20.94-21.09L20.94-21.09L23.20-19.00Q22.79-18.65 21.80-19.03L21.80-19.03Q20.20-18.65 18.09-18.24L18.09-18.24Q17.99-14.93 18.39-11.50L18.39-11.50L20.71-11.50L22.01-13.20Q22.01-13.20 22.43-12.87Q22.85-12.54 23.39-12.07Q23.94-11.60 24.42-11.14L24.42-11.14Q24.27-10.74 23.74-10.74L23.74-10.74L18.52-10.74Q18.95-7.78 19.89-5.32Q20.84-2.85 22.39-1.40L22.39-1.40Q22.64-1.14 22.81-1.17Q22.97-1.20 23.12-1.53L23.12-1.53Q23.35-1.98 23.63-2.71Q23.91-3.43 24.14-4.17L24.14-4.17Z" transform="translate(0 54.72144) " fill="rgb(36, 221, 127)" stroke="rgb(36, 221, 127)" stroke-linecap="square" stroke-linejoin="square" stroke-width="0.042" data-glyph-w="25.44" data-glyph-h="36.55728" data-glyph-ascender="29.28144" data-glyph-descender="-7.2758400000000005"/><path d="M13.20-4.86L16.08-4.86L16.08-17.96Q13.05-17.53 10.00-17.35L10.00-17.35L9.90-17.78Q13.05-18.32 16.19-19.28Q19.33-20.25 21.29-21.22L21.29-21.22L23.51-19.21Q23.12-18.85 22.11-19.23L22.11-19.23Q20.35-18.72 18.04-18.29L18.04-18.29L18.04-12.49L20.05-12.49L21.29-14.20Q21.29-14.20 21.67-13.86Q22.06-13.53 22.57-13.06Q23.07-12.59 23.51-12.16L23.51-12.16Q23.35-11.75 22.82-11.75L22.82-11.75L18.04-11.75L18.04-4.86L20.68-4.86L21.98-6.61Q21.98-6.61 22.39-6.28Q22.79-5.95 23.35-5.47Q23.91-4.99 24.37-4.53L24.37-4.53Q24.24-4.12 23.71-4.12L23.71-4.12L13.38-4.12L12.67-3.03L10.58-4.43Q10.71-4.55 10.91-4.71Q11.12-4.86 11.32-4.99L11.32-4.99L11.32-14.58L14.12-14.27Q14.09-13.71 13.20-13.56L13.20-13.56L13.20-4.86ZM6.95-11.58L7.99-12.67L10.00-10.96Q9.87-10.79 9.65-10.70Q9.44-10.61 9.03-10.58L9.03-10.58Q8.73-8.52 8.13-6.58Q7.53-4.63 6.49-2.87L6.49-2.87Q8.52-1.53 11.45-1.07Q14.37-0.61 18.39-0.61L18.39-0.61Q19.46-0.61 21.40-0.61Q23.33-0.61 24.65-0.64L24.65-0.64L24.65-0.31Q23.40 0.03 23.30 1.35L23.30 1.35L18.22 1.35Q13.86 1.35 10.82 0.70Q7.78 0.05 5.75-1.81L5.75-1.81Q4.10 0.43 1.09 2.01L1.09 2.01L0.84 1.65Q3.46-0.23 4.83-2.77L4.83-2.77Q3.00-4.99 1.86-8.95L1.86-8.95L2.21-9.13Q3.41-5.65 5.34-3.82L5.34-3.82Q6.74-7.07 7.10-10.84L7.10-10.84L4.58-10.84L3.82-10.13L2.04-11.50Q2.39-11.75 2.95-11.93L2.95-11.93Q3.69-13.28 4.54-15.04Q5.39-16.79 6.00-18.22L6.00-18.22L1.42-18.22L1.20-18.95L6.00-18.95L7.05-20.00L9.13-18.11Q8.75-17.78 7.86-17.71L7.86-17.71Q7.30-16.43 6.44-14.72Q5.57-13.00 4.78-11.58L4.78-11.58L6.95-11.58Z" transform="translate(25.44 54.72144) " fill="rgb(36, 221, 127)" stroke="rgb(36, 221, 127)" stroke-linecap="square" stroke-linejoin="square" stroke-width="0.042" data-glyph-w="25.44" data-glyph-h="36.55728" data-glyph-ascender="29.28144" data-glyph-descender="-7.2758400000000005"/><path d="M20.05-12.85L20.05-18.65L12.69-18.65L12.69-13.71L12.69-12.85L20.05-12.85ZM20.05-10.58L20.05-12.11L12.67-12.11Q12.62-9.59 11.73-7.07Q10.84-4.55 8.32-2.59L8.32-2.59L8.01-2.87Q9.21-4.43 9.79-6.21Q10.38-7.99 10.54-9.90Q10.71-11.80 10.71-13.69L10.71-13.69L10.71-20.45L13.05-19.39L19.79-19.39L20.84-20.56L23.12-18.80Q22.85-18.47 22.03-18.27L22.03-18.27L22.03-11.14Q22.01-11.07 21.73-10.94Q21.45-10.81 21.06-10.70Q20.68-10.58 20.35-10.58L20.35-10.58L20.05-10.58ZM14.63-10.56L14.63-10.56L14.93-10.76Q19.94-8.42 21.76-6.26Q23.58-4.10 23.28-2.94Q22.97-1.78 21.60-2.47L21.60-2.47Q20.61-4.40 18.58-6.64Q16.56-8.88 14.63-10.56ZM2.37-20.76L2.37-20.76L2.67-20.94Q5.85-19.51 6.75-17.97Q7.66-16.43 7.12-15.61Q6.59-14.78 5.47-15.47L5.47-15.47Q5.09-16.76 4.17-18.22Q3.26-19.67 2.37-20.76ZM6.46-11.75L6.46-11.75L6.46-3.87Q6.54-3.79 6.67-3.66L6.67-3.66Q8.32-1.88 10.62-1.28Q12.92-0.69 16.59-0.69L16.59-0.69Q20.86-0.69 24.68-0.84L24.68-0.84L24.68-0.53Q23.35-0.18 23.20 1.27L23.20 1.27L15.98 1.27Q12.26 1.27 10.10 0.34Q7.94-0.59 6.28-2.90L6.28-2.90Q5.80-3.49 5.44-2.90L5.44-2.90Q5.19-2.54 4.73-1.98L4.73-1.98Q4.17-1.27 3.54-0.42Q2.90 0.43 2.39 1.17L2.39 1.17Q2.54 1.53 2.19 1.78L2.19 1.78L0.53-0.56Q1.53-1.22 2.75-2.11L2.75-2.11Q3.71-2.82 4.53-3.38L4.53-3.38L4.53-12.03L0.94-12.03L0.79-12.80L4.17-12.80L5.29-14.25L7.71-12.24Q7.48-11.93 6.46-11.75Z" transform="translate(50.88 54.72144) " fill="rgb(36, 221, 127)" stroke="rgb(36, 221, 127)" stroke-linecap="square" stroke-linejoin="square" stroke-width="0.042" data-glyph-w="25.44" data-glyph-h="36.55728" data-glyph-ascender="29.28144" data-glyph-descender="-7.2758400000000005"/><path d="" transform="translate(76.32000000000001 54.72144) " fill="rgb(36, 221, 127)" stroke="rgb(36, 221, 127)" stroke-linecap="square" stroke-linejoin="square" stroke-width="0.042" data-glyph-w="10.12512" data-glyph-h="25.44" data-glyph-ascender="22.3872" data-glyph-descender="-3.0528"/><path d="M10.07-5.57L10.07-2.59L15.42-2.59L15.42-5.57L10.07-5.57ZM17.35-5.29L17.35-5.29L17.35-1.22Q17.32-1.14 17.06-1.00Q16.79-0.86 16.42-0.75Q16.05-0.64 15.72-0.64L15.72-0.64L15.42-0.64L15.42-1.83L10.07-1.83L10.07-0.89Q10.07-0.81 9.83-0.66Q9.59-0.51 9.21-0.39Q8.83-0.28 8.45-0.28L8.45-0.28L8.17-0.28L8.17-7.20L10.20-6.31L15.19-6.31L16.18-7.33L18.32-5.75Q18.19-5.62 17.94-5.48Q17.68-5.34 17.35-5.29ZM5.19-9.06L20.61-9.06L21.60-10.20L23.96-8.45Q23.71-8.14 22.90-7.94L22.90-7.94L22.90-0.51Q22.90 0.23 22.71 0.76Q22.51 1.30 21.88 1.63Q21.24 1.96 19.94 2.09L19.94 2.09Q19.89 1.17 19.41 0.71L19.41 0.71Q19.00 0.23 17.35 0L17.35 0L17.35-0.36Q17.35-0.36 17.72-0.33Q18.09-0.31 18.61-0.28Q19.13-0.25 19.60-0.23Q20.07-0.20 20.30-0.20L20.30-0.20Q20.96-0.20 20.86-0.71L20.86-0.71L20.86-8.32L4.99-8.32L4.99 1.35Q4.99 1.45 4.73 1.62Q4.48 1.78 4.10 1.91Q3.71 2.04 3.31 2.04L3.31 2.04L2.98 2.04L2.98-10.02L5.19-9.06ZM8.73-14.83L8.73-11.88L16.92-11.88L16.92-14.83L8.73-14.83ZM17.25-10.13L17.25-10.13L16.92-10.13L16.92-11.14L8.73-11.14L8.73-10.51Q8.73-10.43 8.46-10.29Q8.19-10.15 7.81-10.04Q7.43-9.92 7.02-9.92L7.02-9.92L6.72-9.92L6.72-16.51L8.85-15.57L16.66-15.57L17.71-16.71L20.02-14.98Q19.77-14.65 18.95-14.45L18.95-14.45L18.95-10.63Q18.93-10.56 18.65-10.44Q18.37-10.33 17.97-10.23Q17.58-10.13 17.25-10.13ZM13.84-18.29L20.20-18.29L21.65-20.07Q21.65-20.07 22.09-19.73Q22.54-19.39 23.15-18.90Q23.76-18.42 24.27-17.96L24.27-17.96Q24.19-17.55 23.61-17.55L23.61-17.55L1.53-17.55L1.32-18.29L12.47-18.29Q12.19-19.13 11.44-20.00Q10.68-20.86 9.87-21.40L9.87-21.40L10.10-21.62Q12.21-21.42 13.17-20.77Q14.12-20.12 14.22-19.41Q14.32-18.70 13.84-18.29L13.84-18.29Z" transform="translate(86.44512 54.72144) " fill="rgb(36, 221, 127)" stroke="rgb(36, 221, 127)" stroke-linecap="square" stroke-linejoin="square" stroke-width="0.042" data-glyph-w="25.44" data-glyph-h="36.55728" data-glyph-ascender="29.28144" data-glyph-descender="-7.2758400000000005"/><path d="M5.93-13.53L5.93-6.74L11.60-6.74L11.60-13.53L5.93-13.53ZM13.61-13.15L13.61-13.15L13.61-4.60Q13.58-4.50 13.31-4.36Q13.03-4.22 12.63-4.11Q12.24-3.99 11.91-3.99L11.91-3.99L11.60-3.99L11.60-6.00L5.93-6.00L5.93-3.69Q5.93-3.54 5.42-3.28Q4.91-3.03 4.25-3.03L4.25-3.03L3.94-3.03L3.94-15.16L6.05-14.25L11.37-14.25L12.39-15.42L14.65-13.69Q14.37-13.36 13.61-13.15ZM0.99-19.36L20.40-19.36L21.85-21.19Q21.85-21.19 22.31-20.84Q22.77-20.48 23.38-19.98Q23.99-19.49 24.50-19.03L24.50-19.03Q24.32-18.65 23.81-18.65L23.81-18.65L20.53-18.65L20.53-0.92Q20.53-0.13 20.30 0.50Q20.07 1.12 19.31 1.51Q18.55 1.91 17.04 2.04L17.04 2.04Q16.99 1.04 16.28 0.56L16.28 0.56Q15.62 0.05 13.33-0.28L13.33-0.28L13.33-0.64Q13.33-0.64 13.90-0.60Q14.48-0.56 15.26-0.51Q16.05-0.46 16.76-0.42Q17.48-0.38 17.76-0.38L17.76-0.38Q18.19-0.38 18.33-0.53Q18.47-0.69 18.47-1.02L18.47-1.02L18.47-18.65L1.22-18.65L0.99-19.36Z" transform="translate(111.88512 54.72144) " fill="rgb(36, 221, 127)" stroke="rgb(36, 221, 127)" stroke-linecap="square" stroke-linejoin="square" stroke-width="0.042" data-glyph-w="25.44" data-glyph-h="36.55728" data-glyph-ascender="29.28144" data-glyph-descender="-7.2758400000000005"/><path d="M1.48-16.13L11.70-16.13L11.70-18.19L6.39-18.19Q5.27-17.10 3.92-16.38L3.92-16.38L3.66-16.64Q4.43-17.50 5.10-18.74Q5.77-19.97 6.13-21.14L6.13-21.14L9.03-20.48Q8.98-20.28 8.79-20.19Q8.60-20.10 8.14-20.12L8.14-20.12Q7.68-19.54 7.12-18.93L7.12-18.93L11.70-18.93L11.70-21.47L14.63-21.17Q14.58-20.89 14.36-20.70Q14.14-20.50 13.69-20.45L13.69-20.45L13.69-18.93L18.27-18.93L19.51-20.50Q19.51-20.50 19.91-20.20Q20.30-19.89 20.82-19.46Q21.34-19.03 21.83-18.60L21.83-18.60Q21.70-18.19 21.17-18.19L21.17-18.19L13.69-18.19L13.69-16.13L20.45-16.13L21.70-17.63Q21.70-17.63 22.09-17.34Q22.49-17.04 23.02-16.63Q23.56-16.21 24.02-15.80L24.02-15.80Q23.89-15.39 23.35-15.39L23.35-15.39L1.70-15.39L1.48-16.13ZM6.95-13.13L6.95-11.09L18.42-11.09L18.42-13.13L6.95-13.13ZM18.75-9.39L18.75-9.39L18.42-9.39L18.42-10.35L6.95-10.35L6.95-9.64Q6.95-9.57 6.68-9.43Q6.41-9.29 6.02-9.17Q5.62-9.06 5.24-9.06L5.24-9.06L4.94-9.06L4.94-14.76L7.10-13.86L18.16-13.86L19.18-14.96L21.47-13.28Q21.19-12.95 20.43-12.77L20.43-12.77L20.43-9.90Q20.40-9.82 20.12-9.71Q19.84-9.59 19.46-9.49Q19.08-9.39 18.75-9.39ZM1.96-7.66L9.03-7.66L9.03-9.41L11.96-9.11Q11.96-8.57 11.02-8.40L11.02-8.40L11.02 1.50Q11.02 1.60 10.77 1.74Q10.53 1.88 10.15 2.00Q9.77 2.11 9.39 2.11L9.39 2.11L9.03 2.11L9.03-1.20L1.70-1.20L1.48-1.93L9.03-1.93L9.03-4.10L3.03-4.10L2.80-4.83L9.03-4.83L9.03-6.92L2.19-6.92L1.96-7.66ZM16.05-1.88L20.89-1.88L22.11-3.38Q22.11-3.38 22.49-3.09Q22.87-2.80 23.39-2.38Q23.91-1.96 24.35-1.55L24.35-1.55Q24.22-1.14 23.68-1.14L23.68-1.14L16.05-1.14L16.05 1.48Q16.05 1.58 15.81 1.72Q15.57 1.86 15.19 1.97Q14.81 2.09 14.42 2.09L14.42 2.09L14.04 2.09L14.04-9.44L16.99-9.13Q16.99-8.60 16.05-8.42L16.05-8.42L16.05-7.66L20.12-7.66L21.34-9.18Q21.34-9.18 21.73-8.88Q22.11-8.57 22.63-8.15Q23.15-7.73 23.61-7.33L23.61-7.33Q23.46-6.92 22.92-6.92L22.92-6.92L16.05-6.92L16.05-4.81L19.59-4.81L20.71-6.18Q20.71-6.18 21.06-5.91Q21.42-5.65 21.89-5.25Q22.36-4.86 22.79-4.48L22.79-4.48Q22.67-4.07 22.13-4.07L22.13-4.07L16.05-4.07L16.05-1.88Z" transform="translate(137.32512 54.72144) " fill="rgb(36, 221, 127)" stroke="rgb(36, 221, 127)" stroke-linecap="square" stroke-linejoin="square" stroke-width="0.042" data-glyph-w="25.44" data-glyph-h="36.55728" data-glyph-ascender="29.28144" data-glyph-descender="-7.2758400000000005"/><path d="" transform="translate(162.76512 54.72144) " fill="rgb(36, 221, 127)" stroke="rgb(36, 221, 127)" stroke-linecap="square" stroke-linejoin="square" stroke-width="0.042" data-glyph-w="10.12512" data-glyph-h="25.44" data-glyph-ascender="22.3872" data-glyph-descender="-3.0528"/><path d="M15.85-19.21L15.85-19.21L12.24-19.21L12.03-19.94L21.40-19.94L22.46-21.01L24.52-19.33Q24.27-19.03 23.56-18.95L23.56-18.95Q23.35-13.46 22.06-12.47L22.06-12.47Q21.09-11.78 19.59-11.78L19.59-11.78Q19.59-12.19 19.50-12.54Q19.41-12.90 19.16-13.10L19.16-13.10Q18.90-13.31 18.34-13.47Q17.78-13.64 17.15-13.76L17.15-13.76L17.15-14.17Q17.86-14.12 18.76-14.06Q19.67-13.99 20.00-13.99L20.00-13.99Q20.30-13.99 20.47-14.03Q20.63-14.07 20.76-14.17L20.76-14.17Q21.42-14.83 21.62-19.21L21.62-19.21L18.01-19.21Q17.83-16.94 16.54-14.69Q15.24-12.44 11.70-10.66L11.70-10.66L11.37-11.02Q14.07-12.97 14.93-15.10Q15.80-17.22 15.85-19.21ZM15.21-9.46L15.21-4.25L20.89-4.25L20.89-9.46L15.21-9.46ZM21.22-1.81L21.22-1.81L20.89-1.81L20.89-3.51L15.21-3.51L15.21-2.11Q15.21-2.01 14.96-1.86Q14.70-1.70 14.34-1.58Q13.97-1.45 13.56-1.45L13.56-1.45L13.25-1.45L13.25-11.09L15.34-10.20L20.63-10.20L21.70-11.32L23.96-9.62Q23.68-9.29 22.90-9.11L22.90-9.11L22.90-2.47Q22.87-2.37 22.60-2.21Q22.34-2.06 21.95-1.93Q21.57-1.81 21.22-1.81ZM1.40-12.41L1.20-13.15L6.21-13.15L6.21-16.76L2.14-16.76L1.93-17.50L6.21-17.50L6.21-21.40L9.06-21.12Q9.03-20.61 8.17-20.45L8.17-20.45L8.17-17.50L9.49-17.50L10.66-19.03Q10.66-19.03 11.04-18.72Q11.42-18.42 11.92-18.00Q12.41-17.58 12.82-17.17L12.82-17.17Q12.69-16.76 12.16-16.76L12.16-16.76L8.17-16.76L8.17-13.15L9.82-13.15L11.04-14.76Q11.04-14.76 11.42-14.44Q11.80-14.12 12.31-13.69Q12.82-13.25 13.28-12.82L13.28-12.82Q13.13-12.41 12.59-12.41L12.59-12.41L1.40-12.41ZM12.19-7.12L8.55-7.12L8.55-1.32Q9.72-0.92 11.24-0.78Q12.77-0.64 14.65-0.64L14.65-0.64Q16.36-0.64 19.53-0.66Q22.69-0.69 24.65-0.71L24.65-0.71L24.65-0.38Q23.51-0.03 23.43 1.22L23.43 1.22L14.58 1.22Q11.75 1.22 9.74 0.75Q7.73 0.28 6.36-1.04Q4.99-2.37 4.07-4.86L4.07-4.86Q3.69-2.93 2.94-1.14Q2.19 0.64 0.97 2.01L0.97 2.01L0.66 1.73Q1.93-0.71 2.44-4.06Q2.95-7.40 2.95-10.38L2.95-10.38L5.70-9.82Q5.57-9.26 4.73-9.21L4.73-9.21Q4.58-7.50 4.25-5.70L4.25-5.70Q5.22-3.43 6.67-2.32L6.67-2.32L6.67-11.75L9.36-11.45Q9.31-11.22 9.13-11.05Q8.95-10.89 8.55-10.84L8.55-10.84L8.55-7.86L9.67-7.86L10.81-9.41Q10.81-9.41 11.17-9.11Q11.52-8.80 11.99-8.37Q12.47-7.94 12.85-7.53L12.85-7.53Q12.72-7.12 12.19-7.12L12.19-7.12Z" transform="translate(172.89024 54.72144) " fill="rgb(36, 221, 127)" stroke="rgb(36, 221, 127)" stroke-linecap="square" stroke-linejoin="square" stroke-width="0.042" data-glyph-w="25.44" data-glyph-h="36.55728" data-glyph-ascender="29.28144" data-glyph-descender="-7.2758400000000005"/><path d="M9.77-14.63L9.77-14.63L9.49-14.88Q10.76-16.10 11.77-17.90Q12.77-19.69 13.28-21.47L13.28-21.47L16.49-20.81Q16.43-20.61 16.24-20.52Q16.05-20.43 15.59-20.45L15.59-20.45Q15.06-19.51 14.27-18.55L14.27-18.55L18.62-18.55L19.92-19.79L22.13-17.81Q21.98-17.66 21.75-17.60Q21.52-17.55 21.14-17.53L21.14-17.53Q20.40-16.89 19.44-16.10Q18.47-15.31 17.50-14.70L17.50-14.70L20.43-14.70L21.50-15.85L23.79-14.12Q23.51-13.79 22.72-13.58L22.72-13.58L22.72-6.54Q22.69-6.44 22.41-6.30Q22.13-6.16 21.74-6.03Q21.34-5.90 20.99-5.90L20.99-5.90L20.68-5.90L20.68-6.89L10.66-6.89L10.43-7.66L20.68-7.66L20.68-10.51L11.47-10.51L11.24-11.24L20.68-11.24L20.68-13.97L10.86-13.97L10.63-14.70L16.82-14.70Q17.30-15.37 17.74-16.19Q18.19-17.02 18.57-17.73L18.57-17.73Q18.57-17.78 18.60-17.81L18.60-17.81L13.66-17.81Q11.98-15.85 9.77-14.63ZM15.47-6.51L15.47-6.51L15.77-6.69Q18.14-5.55 18.65-4.31Q19.16-3.08 18.58-2.45Q18.01-1.83 17.12-2.52L17.12-2.52Q17.04-3.54 16.55-4.62Q16.05-5.70 15.47-6.51ZM9.85-12.72L6.56-12.72L6.56-11.19Q8.93-10.13 9.48-8.93Q10.02-7.73 9.49-7.11Q8.95-6.49 8.06-7.12L8.06-7.12Q7.71-8.83 6.56-10.43L6.56-10.43L6.56 1.42Q6.56 1.53 6.12 1.78Q5.67 2.04 4.96 2.04L4.96 2.04L4.66 2.04L4.66-7.89Q3.23-4.88 0.94-2.54L0.94-2.54L0.61-2.82Q3.21-7.20 4.20-12.72L4.20-12.72L1.14-12.72L0.94-13.48L4.66-13.48L4.66-18.04Q2.90-17.76 1.20-17.58L1.20-17.58L1.07-17.96Q2.95-18.55 4.90-19.45Q6.84-20.35 8.06-21.09L8.06-21.09L10.40-19.08Q10.02-18.72 9.01-19.05L9.01-19.05Q7.99-18.75 6.56-18.44L6.56-18.44L6.56-13.48L7.25-13.48L8.42-15.01Q8.42-15.01 8.78-14.70Q9.13-14.40 9.62-13.97Q10.10-13.53 10.51-13.13L10.51-13.13Q10.38-12.72 9.85-12.72L9.85-12.72ZM10.28-5.34L10.28-5.34L10.71-5.34Q11.30-3.28 10.94-1.90Q10.58-0.51 9.90 0.10L9.90 0.10Q9.44 0.46 8.90 0.48Q8.37 0.51 8.09 0.10L8.09 0.10Q7.89-0.31 8.08-0.70Q8.27-1.09 8.68-1.37L8.68-1.37Q9.34-1.88 9.82-2.98Q10.30-4.07 10.28-5.34ZM20.50-3.41L20.81-3.41L20.89-0.64Q21.29-0.48 21.45-0.32Q21.60-0.15 21.60 0.13L21.60 0.13Q21.60 0.74 20.72 0.99Q19.84 1.25 17.10 1.25L17.10 1.25L14.60 1.25Q13.13 1.25 12.69 0.89Q12.26 0.53 12.26-0.43L12.26-0.43L12.26-5.70L14.86-5.42Q14.81-4.96 14.12-4.83L14.12-4.83L14.12-0.79Q14.12-0.56 14.27-0.48Q14.42-0.41 15.01-0.41L15.01-0.41L17.20-0.41Q18.70-0.41 19.23-0.43L19.23-0.43Q19.44-0.46 19.54-0.51Q19.64-0.56 19.72-0.71L19.72-0.71Q20.05-1.42 20.50-3.41L20.50-3.41ZM20.78-5.14L20.78-5.14L21.09-5.32Q23.61-3.94 24.19-2.47Q24.78-0.99 24.22-0.22Q23.66 0.56 22.74-0.18L22.74-0.18Q22.74-1.45 22.16-2.81Q21.57-4.17 20.78-5.14Z" transform="translate(198.33024 54.72144) " fill="rgb(36, 221, 127)" stroke="rgb(36, 221, 127)" stroke-linecap="square" stroke-linejoin="square" stroke-width="0.042" data-glyph-w="25.44" data-glyph-h="36.55728" data-glyph-ascender="29.28144" data-glyph-descender="-7.2758400000000005"/><path d="M10.71-21.22L10.71-21.22L10.94-21.40Q13.05-21.06 13.89-20.28Q14.73-19.49 14.68-18.71Q14.63-17.94 14.00-17.60Q13.38-17.27 12.57-17.83L12.57-17.83Q12.47-18.75 11.93-19.68Q11.40-20.61 10.71-21.22ZM21.06-16.56L21.06-16.56L4.71-16.56Q4.73-15.26 4.32-14.41Q3.92-13.56 3.28-13.20L3.28-13.20Q2.72-12.85 2.07-12.94Q1.42-13.03 1.14-13.61L1.14-13.61Q0.97-14.14 1.23-14.59Q1.50-15.04 2.04-15.29L2.04-15.29Q2.77-15.70 3.36-16.60Q3.94-17.50 3.89-18.65L3.89-18.65L4.30-18.67Q4.55-17.96 4.63-17.30L4.63-17.30L20.99-17.30L22.21-18.55L24.45-16.41Q24.17-16.18 23.48-16.15L23.48-16.15Q22.92-15.52 22.07-14.84Q21.22-14.17 20.45-13.66L20.45-13.66L20.15-13.86Q20.38-14.42 20.63-15.15Q20.89-15.87 21.06-16.56ZM20.84-6.74L13.74-6.74L13.74-0.69Q15.65-0.46 18.09-0.46L18.09-0.46Q19.21-0.46 21.22-0.47Q23.23-0.48 24.58-0.51L24.58-0.51L24.58-0.15Q23.40 0.18 23.35 1.55L23.35 1.55L17.94 1.55Q15.01 1.55 12.90 1.07Q10.79 0.59 9.30-0.71Q7.81-2.01 6.82-4.45L6.82-4.45Q6.00-2.52 4.60-0.84Q3.21 0.84 1.09 2.09L1.09 2.09L0.81 1.81Q3.33-0.46 4.55-3.56Q5.77-6.67 6.08-9.69L6.08-9.69L9.08-9.08Q8.95-8.55 8.12-8.50L8.12-8.50Q7.78-6.82 7.10-5.11L7.10-5.11Q8.70-1.96 11.70-1.14L11.70-1.14L11.70-12.21L4.27-12.21L4.07-12.95L17.91-12.95L19.23-14.50Q19.23-14.50 19.64-14.20Q20.05-13.89 20.59-13.46Q21.14-13.03 21.65-12.62L21.65-12.62Q21.47-12.21 20.94-12.21L20.94-12.21L13.74-12.21L13.74-7.48L17.83-7.48L19.13-9.11Q19.13-9.11 19.54-8.79Q19.94-8.47 20.49-8.03Q21.04-7.58 21.50-7.15L21.50-7.15Q21.37-6.74 20.84-6.74L20.84-6.74Z" transform="translate(223.77024 54.72144) " fill="rgb(36, 221, 127)" stroke="rgb(36, 221, 127)" stroke-linecap="square" stroke-linejoin="square" stroke-width="0.042" data-glyph-w="25.44" data-glyph-h="36.55728" data-glyph-ascender="29.28144" data-glyph-descender="-7.2758400000000005"/><path d="" transform="translate(249.21024 54.72144) " fill="rgb(36, 221, 127)" stroke="rgb(36, 221, 127)" stroke-linecap="square" stroke-linejoin="square" stroke-width="0.042" data-glyph-w="10.12512" data-glyph-h="25.44" data-glyph-ascender="22.3872" data-glyph-descender="-3.0528"/><path d="M6.97-10.96L6.97-10.96L8.09-10.53Q10.84-9.46 12.01-8.15Q13.18-6.84 13.18-4.88L13.18-4.88Q13.18-2.42 11.35-1.00Q9.51 0.41 6.61 0.41L6.61 0.41Q5.04 0.41 3.60-0.01Q2.16-0.43 1.20-1.07L1.20-1.07L1.37-4.99L2.80-4.99L3.51-1.50Q4.66-0.81 6.44-0.81L6.44-0.81Q8.47-0.81 9.68-1.70Q10.89-2.59 10.89-4.30L10.89-4.30Q10.89-5.65 10.06-6.45Q9.23-7.25 7.38-7.96L7.38-7.96L6.33-8.40Q4.12-9.26 2.82-10.57Q1.53-11.88 1.53-13.97L1.53-13.97Q1.53-16.38 3.32-17.73Q5.11-19.08 7.73-19.08L7.73-19.08Q9.16-19.08 10.28-18.69Q11.40-18.29 12.31-17.60L12.31-17.60L12.13-13.97L10.68-13.97L9.97-17.30Q9.01-17.86 7.71-17.86L7.71-17.86Q6.03-17.86 4.92-17.03Q3.82-16.21 3.82-14.60L3.82-14.60Q3.82-13.28 4.63-12.41Q5.44-11.55 6.97-10.96Z" transform="translate(259.33536 54.72144) " fill="rgb(36, 221, 127)" stroke="rgb(36, 221, 127)" stroke-linecap="square" stroke-linejoin="square" stroke-width="0.042" data-glyph-w="14.32272" data-glyph-h="36.55728" data-glyph-ascender="29.28144" data-glyph-descender="-7.2758400000000005"/><path d="M8.27-17.55L8.27-17.55L6.49-17.55Q6.44-13.81 6.44-10.00L6.44-10.00L6.44-8.57L8.22-8.57Q10.84-8.57 11.97-9.85Q13.10-11.12 13.10-13.13L13.10-13.13Q13.10-15.24 11.93-16.40Q10.76-17.55 8.27-17.55ZM7.91-7.45L7.91-7.45L6.44-7.45Q6.44-4.38 6.49-1.27L6.49-1.27L9.13-0.97L9.13 0L1.25 0L1.25-0.97L3.84-1.25Q3.89-4.88 3.89-8.62L3.89-8.62L3.89-10.00Q3.89-13.74 3.84-17.40L3.84-17.40L1.25-17.68L1.25-18.65L8.73-18.65Q12.24-18.65 13.98-17.13Q15.72-15.62 15.72-13.13L15.72-13.13Q15.72-11.58 14.95-10.29Q14.17-9.01 12.45-8.23Q10.74-7.45 7.91-7.45Z" transform="translate(273.65808 54.72144) " fill="rgb(36, 221, 127)" stroke="rgb(36, 221, 127)" stroke-linecap="square" stroke-linejoin="square" stroke-width="0.042" data-glyph-w="16.4088" data-glyph-h="36.55728" data-glyph-ascender="29.28144" data-glyph-descender="-7.2758400000000005"/><path d="M13.64-1.22L14.37-4.96L15.75-4.96L15.59 0L1.25 0L1.25-0.97L3.84-1.25Q3.89-4.88 3.89-8.62L3.89-8.62L3.89-10.00Q3.89-13.74 3.84-17.40L3.84-17.40L1.25-17.68L1.25-18.65L15.06-18.65L15.21-13.74L13.84-13.74L13.10-17.43L6.49-17.43Q6.44-13.84 6.44-10.05L6.44-10.05L10.63-10.05L11.04-12.80L12.19-12.80L12.19-6.23L11.04-6.23L10.66-8.93L6.44-8.93Q6.44-4.81 6.49-1.22L6.49-1.22L13.64-1.22Z" transform="translate(290.06687999999997 54.72144) " fill="rgb(36, 221, 127)" stroke="rgb(36, 221, 127)" stroke-linecap="square" stroke-linejoin="square" stroke-width="0.042" data-glyph-w="16.7904" data-glyph-h="36.55728" data-glyph-ascender="29.28144" data-glyph-descender="-7.2758400000000005"/><path d="M13.64-1.22L14.37-4.96L15.75-4.96L15.59 0L1.25 0L1.25-0.97L3.84-1.25Q3.89-4.88 3.89-8.62L3.89-8.62L3.89-10.00Q3.89-13.74 3.84-17.40L3.84-17.40L1.25-17.68L1.25-18.65L15.06-18.65L15.21-13.74L13.84-13.74L13.10-17.43L6.49-17.43Q6.44-13.84 6.44-10.05L6.44-10.05L10.63-10.05L11.04-12.80L12.19-12.80L12.19-6.23L11.04-6.23L10.66-8.93L6.44-8.93Q6.44-4.81 6.49-1.22L6.49-1.22L13.64-1.22Z" transform="translate(306.85727999999995 54.72144) " fill="rgb(36, 221, 127)" stroke="rgb(36, 221, 127)" stroke-linecap="square" stroke-linejoin="square" stroke-width="0.042" data-glyph-w="16.7904" data-glyph-h="36.55728" data-glyph-ascender="29.28144" data-glyph-descender="-7.2758400000000005"/><path d="M6.49-1.12L6.49-1.12L8.68-1.12Q12.01-1.12 13.76-3.28Q15.52-5.44 15.52-9.31L15.52-9.31Q15.52-13.33 13.80-15.44Q12.08-17.55 8.90-17.55L8.90-17.55L6.49-17.55Q6.44-13.84 6.44-9.97L6.44-9.97L6.44-9.01Q6.44-4.78 6.49-1.12ZM1.25-17.68L1.25-18.65L9.36-18.65Q13.43-18.65 15.93-16.23Q18.42-13.81 18.42-9.31L18.42-9.31Q18.42-6.33 17.18-4.25Q15.95-2.16 13.79-1.08Q11.63 0 8.85 0L8.85 0L1.25 0L1.25-0.97L3.84-1.25Q3.89-4.78 3.89-9.01L3.89-9.01L3.89-9.97Q3.89-13.71 3.84-17.40L3.84-17.40L1.25-17.68Z" transform="translate(323.6476799999999 54.72144) " fill="rgb(36, 221, 127)" stroke="rgb(36, 221, 127)" stroke-linecap="square" stroke-linejoin="square" stroke-width="0.042" data-glyph-w="19.74144" data-glyph-h="36.55728" data-glyph-ascender="29.28144" data-glyph-descender="-7.2758400000000005"/><path d="M7.61-6.18L1.12-6.18L1.12-7.81L7.61-7.81L7.61-6.18Z" transform="translate(343.38911999999993 54.72144) " fill="rgb(36, 221, 127)" stroke="rgb(36, 221, 127)" stroke-linecap="square" stroke-linejoin="square" stroke-width="0.042" data-glyph-w="8.72592" data-glyph-h="36.55728" data-glyph-ascender="29.28144" data-glyph-descender="-7.2758400000000005"/><path d="M9.08-18.65L9.08-17.68L6.49-17.40Q6.44-13.74 6.44-10.00L6.44-10.00L6.44-8.62Q6.44-4.96 6.49-1.27L6.49-1.27L9.08-0.97L9.08 0L1.25 0L1.25-0.97L3.84-1.25Q3.89-4.88 3.89-8.62L3.89-8.62L3.89-10.00Q3.89-13.74 3.84-17.40L3.84-17.40L1.25-17.68L1.25-18.65L9.08-18.65Z" transform="translate(352.1150399999999 54.72144) " fill="rgb(36, 221, 127)" stroke="rgb(36, 221, 127)" stroke-linecap="square" stroke-linejoin="square" stroke-width="0.042" data-glyph-w="10.32864" data-glyph-h="36.55728" data-glyph-ascender="29.28144" data-glyph-descender="-7.2758400000000005"/><path d="M6.49-1.12L6.49-1.12L8.68-1.12Q12.01-1.12 13.76-3.28Q15.52-5.44 15.52-9.31L15.52-9.31Q15.52-13.33 13.80-15.44Q12.08-17.55 8.90-17.55L8.90-17.55L6.49-17.55Q6.44-13.84 6.44-9.97L6.44-9.97L6.44-9.01Q6.44-4.78 6.49-1.12ZM1.25-17.68L1.25-18.65L9.36-18.65Q13.43-18.65 15.93-16.23Q18.42-13.81 18.42-9.31L18.42-9.31Q18.42-6.33 17.18-4.25Q15.95-2.16 13.79-1.08Q11.63 0 8.85 0L8.85 0L1.25 0L1.25-0.97L3.84-1.25Q3.89-4.78 3.89-9.01L3.89-9.01L3.89-9.97Q3.89-13.71 3.84-17.40L3.84-17.40L1.25-17.68Z" transform="translate(362.4436799999999 54.72144) " fill="rgb(36, 221, 127)" stroke="rgb(36, 221, 127)" stroke-linecap="square" stroke-linejoin="square" stroke-width="0.042" data-glyph-w="19.74144" data-glyph-h="36.55728" data-glyph-ascender="29.28144" data-glyph-descender="-7.2758400000000005"/><path d="M14.22-1.50L14.91-5.04L16.43-5.04L16.38-0.94Q13.79 0.41 10.81 0.41L10.81 0.41Q6.59 0.41 3.97-2.29Q1.35-4.99 1.35-9.34L1.35-9.34Q1.35-13.61 4.04-16.35Q6.74-19.08 10.81-19.08L10.81-19.08Q12.01-19.08 13.38-18.79Q14.76-18.49 16.13-17.71L16.13-17.71L16.18-13.61L14.65-13.61L13.97-17.17Q12.54-17.86 11.12-17.86L11.12-17.86Q9.21-17.86 7.64-16.88Q6.08-15.90 5.15-14.00Q4.22-12.11 4.22-9.34L4.22-9.34Q4.22-5.16 6.12-2.99Q8.01-0.81 11.02-0.81L11.02-0.81Q12.59-0.81 14.22-1.50L14.22-1.50Z" transform="translate(382.1851199999999 54.72144) " fill="rgb(36, 221, 127)" stroke="rgb(36, 221, 127)" stroke-linecap="square" stroke-linejoin="square" stroke-width="0.042" data-glyph-w="17.60448" data-glyph-h="36.55728" data-glyph-ascender="29.28144" data-glyph-descender="-7.2758400000000005"/><path d="M4.17 0.36L4.17 0.36Q3.38 0.36 2.84-0.20Q2.29-0.76 2.29-1.50L2.29-1.50Q2.29-2.32 2.84-2.87Q3.38-3.43 4.17-3.43L4.17-3.43Q4.99-3.43 5.53-2.87Q6.08-2.32 6.08-1.50L6.08-1.50Q6.08-0.76 5.53-0.20Q4.99 0.36 4.17 0.36Z" transform="translate(399.78959999999995 54.72144) " fill="rgb(36, 221, 127)" stroke="rgb(36, 221, 127)" stroke-linecap="square" stroke-linejoin="square" stroke-width="0.042" data-glyph-w="8.36976" data-glyph-h="36.55728" data-glyph-ascender="29.28144" data-glyph-descender="-7.2758400000000005"/><path d="M14.22-1.50L14.91-5.04L16.43-5.04L16.38-0.94Q13.79 0.41 10.81 0.41L10.81 0.41Q6.59 0.41 3.97-2.29Q1.35-4.99 1.35-9.34L1.35-9.34Q1.35-13.61 4.04-16.35Q6.74-19.08 10.81-19.08L10.81-19.08Q12.01-19.08 13.38-18.79Q14.76-18.49 16.13-17.71L16.13-17.71L16.18-13.61L14.65-13.61L13.97-17.17Q12.54-17.86 11.12-17.86L11.12-17.86Q9.21-17.86 7.64-16.88Q6.08-15.90 5.15-14.00Q4.22-12.11 4.22-9.34L4.22-9.34Q4.22-5.16 6.12-2.99Q8.01-0.81 11.02-0.81L11.02-0.81Q12.59-0.81 14.22-1.50L14.22-1.50Z" transform="translate(408.15935999999994 54.72144) " fill="rgb(36, 221, 127)" stroke="rgb(36, 221, 127)" stroke-linecap="square" stroke-linejoin="square" stroke-width="0.042" data-glyph-w="17.60448" data-glyph-h="36.55728" data-glyph-ascender="29.28144" data-glyph-descender="-7.2758400000000005"/><path d="M4.22-9.34L4.22-9.34Q4.22-7.15 4.82-5.19Q5.42-3.23 6.68-2.01Q7.94-0.79 9.87-0.79L9.87-0.79Q11.80-0.79 13.04-2.01Q14.27-3.23 14.86-5.19Q15.44-7.15 15.44-9.34L15.44-9.34Q15.44-11.52 14.86-13.47Q14.27-15.42 13.04-16.64Q11.80-17.86 9.87-17.86L9.87-17.86Q7.94-17.86 6.68-16.64Q5.42-15.42 4.82-13.47Q4.22-11.52 4.22-9.34ZM9.87-19.08L9.87-19.08Q12.03-19.08 13.97-17.95Q15.90-16.82 17.12-14.65Q18.34-12.49 18.34-9.34L18.34-9.34Q18.34-6.28 17.13-4.10Q15.93-1.91 13.99-0.75Q12.06 0.41 9.87 0.41L9.87 0.41Q7.68 0.41 5.72-0.71Q3.77-1.83 2.56-4.01Q1.35-6.18 1.35-9.34L1.35-9.34Q1.35-12.39 2.57-14.58Q3.79-16.76 5.74-17.92Q7.68-19.08 9.87-19.08Z" transform="translate(425.76383999999996 54.72144) " fill="rgb(36, 221, 127)" stroke="rgb(36, 221, 127)" stroke-linecap="square" stroke-linejoin="square" stroke-width="0.042" data-glyph-w="19.66512" data-glyph-h="36.55728" data-glyph-ascender="29.28144" data-glyph-descender="-7.2758400000000005"/><path d="M23.84-18.65L23.84-17.68L21.24-17.40Q21.19-13.74 21.19-10.00L21.19-10.00L21.19-8.62Q21.19-4.96 21.24-1.25L21.24-1.25L23.81-0.97L23.81 0L16.23 0L16.23-0.97L18.65-1.25Q18.70-4.88 18.70-8.55L18.70-8.55L18.72-16.03L12.44 0L11.24 0L4.73-15.98Q4.76-14.65 4.80-13.29Q4.83-11.93 4.86-11.02L4.86-11.02Q4.88-10.20 4.88-10.15L4.88-10.15L4.88-1.32L7.30-0.97L7.30 0L1.07 0L1.07-0.97L3.59-1.32L3.61-17.38L1.07-17.68L1.07-18.65L6.16-18.65L12.44-3.18L18.47-18.65L23.84-18.65Z" transform="translate(445.42895999999996 54.72144) " fill="rgb(36, 221, 127)" stroke="rgb(36, 221, 127)" stroke-linecap="square" stroke-linejoin="square" stroke-width="0.042" data-glyph-w="25.109280000000002" data-glyph-h="36.55728" data-glyph-ascender="29.28144" data-glyph-descender="-7.2758400000000005"/></g></svg></g></g>  <!----></svg>
