<?xml version="1.0"?>
<svg xmlns="http://www.w3.org/2000/svg" xmlns:xlink="http://www.w3.org/1999/xlink" data-noselect="" viewBox="0 0 3779.527559055118 578.2677165354331" width="7559.0551181102" height="1156.5354330709" preserveAspectRatio="none" version="1.1"><defs/> <g id="background" data-noselect=""><!----> <!----></g> <g id="shape_AjwXCJgVSQ" transform="translate(30.08407327094628,19.40129789551299) rotate(0,690.8182667246089,275.0546233557022) scale(1,1)" filter="" style="cursor: move; opacity: 1;"><g><svg xmlns="http://www.w3.org/2000/svg" xmlns:xlink="http://www.w3.org/1999/xlink" version="1.1" id="&#x56FE;&#x5C42;_1" x="0px" y="0px" width="1381.6365334492177" height="550.1092467114044" viewBox="10.189589500427246 43.904483795166016 179.6204071044922 112.19052124023438" enable-background="new 0 0 200 200" xml:space="preserve" preserveAspectRatio="none" class="style-removed" data-parent="shape_AjwXCJgVSQ">
<g>
	<path fill="#24DD7F" d="M106.321,89.494c0,0,21.712-23.689,49.111-19.623c20.564,3.052,29.926,14.137,34.378,20.14H176.37   c0,0-9.943-9.084-23.78-10.899C140.013,77.462,129.843,78.121,106.321,89.494z"/>
	<path fill="#24DD7F" d="M147.161,71.716c0,0-5.801-22.574-33.028-27.054S61.92,55.92,43.31,82.687l22.517-4.021   c0,0,19.354-29.195,47.101-24.24c16.083,2.872,24.699,10.109,27.916,18.496L147.161,71.716z"/>
	<path fill="#24DD7F" d="M62.38,83.893c0,0-46.698,7.782-51.696,38.255c-4.136,25.216,18.611,33.947,33.43,33.947   c18.036,0,112.698,0,112.698,0l1.206-5.687c0,0-71.397,0.324-101.38,0c-15.968-0.172-28.147-4.996-28.147-22.574   c0-14.992,12.867-26.502,29.065-32.034L62.38,83.893z"/>
</g>
</svg></g></g><g id="shape_W7YDZ35Q8m" transform="translate(1.823489428000073,-127.78044411702083) rotate(0,1487.2100026312066,495.8418) scale(1,1)" filter="" style="cursor: move; opacity: 1;"><g><svg xmlns="http://www.w3.org/2000/svg" xmlns:xlink="http://www.w3.org/1999/xlink" version="1.1" width="2974.420005262413" height="991.6835999999998" viewBox="0 0 2974.420005262413 991.6835999999998" data-parent="shape_W7YDZ35Q8m"><g data-width="2231.8218" transform="translate(330.2, 0)"><path d="M132.08 0L21.46 0L21.46-39.29L122.17-39.29Q146.28-39.29 154.20-43.92L154.20-43.92Q165.76-50.85 165.76-64.72L165.76-64.72Q165.76-80.90 152.22-88.16L152.22-88.16Q144.63-92.46 127.79-92.46L127.79-92.46L86.84-92.46Q49.53-92.46 33.02-105.99L33.02-105.99Q22.78-114.58 17.01-127.46Q11.23-140.34 11.23-155.19L11.23-155.19Q11.23-178.31 24.77-197.46L24.77-197.46Q37.97-215.95 67.03-219.25L67.03-219.25Q76.94-220.24 96.42-220.24L96.42-220.24L205.71-220.24L205.71-180.95L106.98-180.95Q84.86-180.62 77.60-178.97L77.60-178.97Q62.74-175.34 62.74-156.51L62.74-156.51Q62.74-140.67 75.29-135.38L75.29-135.38Q83.54-131.42 103.02-131.42L103.02-131.42L138.35-131.42Q165.43-131.42 178.64-126.80L178.64-126.80Q202.08-118.87 211.00-99.06L211.00-99.06Q217.93-83.21 217.93-65.05L217.93-65.05Q217.93-44.91 208.69-29.06L208.69-29.06Q195.81-6.60 170.05-1.98L170.05-1.98Q157.51 0 132.08 0L132.08 0Z" transform="translate(0 613.8417999999999) skewX(-14)" fill="rgb(36, 221, 127)" stroke="rgb(36, 221, 127)" stroke-linecap="square" stroke-linejoin="square" stroke-width="0.55" data-glyph-w="229.489" data-glyph-h="330.2" data-glyph-ascender="283.6418" data-glyph-descender="-46.5582"/><path d="M144.63-76.94L69.34-76.94L69.34 0L22.45 0L22.45-220.24L132.41-220.24Q162.46-220.24 175.34-215.95L175.34-215.95Q197.13-208.69 209.68-185.90L209.68-185.90Q218.92-168.73 218.92-148.59L218.92-148.59Q218.92-131.75 212.81-116.73Q206.71-101.70 195.81-92.13L195.81-92.13Q185.90-83.54 174.84-80.24Q163.78-76.94 144.63-76.94L144.63-76.94ZM69.34-180.95L69.34-116.23L133.07-116.23Q150.24-116.23 157.18-121.51L157.18-121.51Q167.41-129.77 167.41-150.24L167.41-150.24Q167.41-172.36 151.89-178.64L151.89-178.64Q146.28-180.95 134.06-180.95L134.06-180.95L69.34-180.95Z" transform="translate(229.489 613.8417999999999) skewX(-14)" fill="rgb(36, 221, 127)" stroke="rgb(36, 221, 127)" stroke-linecap="square" stroke-linejoin="square" stroke-width="0.55" data-glyph-w="226.18699999999998" data-glyph-h="330.2" data-glyph-ascender="283.6418" data-glyph-descender="-46.5582"/><path d="M108.64-220.24L187.55-220.24L187.55-180.95L126.47-180.95Q102.69-180.95 91.80-177.65Q80.90-174.35 73.63-164.77L73.63-164.77Q68.68-158.17 66.87-151.56Q65.05-144.96 63.73-129.11L63.73-129.11L187.55-129.11L187.55-89.81L63.73-89.81Q66.37-61.42 80.57-50.36Q94.77-39.29 128.78-39.29L128.78-39.29L187.55-39.29L187.55 0L126.47 0Q101.70 0 82.88-2.97L82.88-2.97Q53.16-7.92 35.66-29.06L35.66-29.06Q10.57-59.44 10.57-111.28L10.57-111.28Q10.57-168.73 45.90-200.76L45.90-200.76Q58.12-211.66 71.82-215.95Q85.52-220.24 108.64-220.24L108.64-220.24Z" transform="translate(455.676 613.8417999999999) skewX(-14)" fill="rgb(36, 221, 127)" stroke="rgb(36, 221, 127)" stroke-linecap="square" stroke-linejoin="square" stroke-width="0.55" data-glyph-w="202.0824" data-glyph-h="330.2" data-glyph-ascender="283.6418" data-glyph-descender="-46.5582"/><path d="M108.64-220.24L187.55-220.24L187.55-180.95L126.47-180.95Q102.69-180.95 91.80-177.65Q80.90-174.35 73.63-164.77L73.63-164.77Q68.68-158.17 66.87-151.56Q65.05-144.96 63.73-129.11L63.73-129.11L187.55-129.11L187.55-89.81L63.73-89.81Q66.37-61.42 80.57-50.36Q94.77-39.29 128.78-39.29L128.78-39.29L187.55-39.29L187.55 0L126.47 0Q101.70 0 82.88-2.97L82.88-2.97Q53.16-7.92 35.66-29.06L35.66-29.06Q10.57-59.44 10.57-111.28L10.57-111.28Q10.57-168.73 45.90-200.76L45.90-200.76Q58.12-211.66 71.82-215.95Q85.52-220.24 108.64-220.24L108.64-220.24Z" transform="translate(657.7583999999999 613.8417999999999) skewX(-14)" fill="rgb(36, 221, 127)" stroke="rgb(36, 221, 127)" stroke-linecap="square" stroke-linejoin="square" stroke-width="0.55" data-glyph-w="202.0824" data-glyph-h="330.2" data-glyph-ascender="283.6418" data-glyph-descender="-46.5582"/><path d="M22.45 0L22.45-220.24L115.90-220.24Q150.90-220.24 170.05-213.31L170.05-213.31Q205.38-200.43 217.27-166.09L217.27-166.09Q226.19-139.67 226.19-109.63L226.19-109.63Q226.19-79.91 217.60-53.49L217.60-53.49Q209.02-26.42 189.20-13.54L189.20-13.54Q176.66-5.61 161.63-2.81Q146.61 0 115.90 0L115.90 0L22.45 0ZM115.90-180.95L69.34-180.95L69.34-39.29L115.90-39.29Q146.61-39.29 158.50-52.83L158.50-52.83Q165.76-61.42 170.22-76.94Q174.68-92.46 174.68-109.96L174.68-109.96Q174.68-129.44 169.39-145.62Q164.11-161.80 155.52-169.72L155.52-169.72Q142.98-180.95 115.90-180.95L115.90-180.95Z" transform="translate(859.8408 613.8417999999999) skewX(-14)" fill="rgb(36, 221, 127)" stroke="rgb(36, 221, 127)" stroke-linecap="square" stroke-linejoin="square" stroke-width="0.55" data-glyph-w="236.4232" data-glyph-h="330.2" data-glyph-ascender="283.6418" data-glyph-descender="-46.5582"/><path d="M69.34 0L22.45 0L22.45-220.24L69.34-220.24L69.34 0Z" transform="translate(1096.264 613.8417999999999) skewX(-14)" fill="rgb(36, 221, 127)" stroke="rgb(36, 221, 127)" stroke-linecap="square" stroke-linejoin="square" stroke-width="0.55" data-glyph-w="91.4654" data-glyph-h="330.2" data-glyph-ascender="283.6418" data-glyph-descender="-46.5582"/><path d="M22.45 0L22.45-220.24L115.90-220.24Q150.90-220.24 170.05-213.31L170.05-213.31Q205.38-200.43 217.27-166.09L217.27-166.09Q226.19-139.67 226.19-109.63L226.19-109.63Q226.19-79.91 217.60-53.49L217.60-53.49Q209.02-26.42 189.20-13.54L189.20-13.54Q176.66-5.61 161.63-2.81Q146.61 0 115.90 0L115.90 0L22.45 0ZM115.90-180.95L69.34-180.95L69.34-39.29L115.90-39.29Q146.61-39.29 158.50-52.83L158.50-52.83Q165.76-61.42 170.22-76.94Q174.68-92.46 174.68-109.96L174.68-109.96Q174.68-129.44 169.39-145.62Q164.11-161.80 155.52-169.72L155.52-169.72Q142.98-180.95 115.90-180.95L115.90-180.95Z" transform="translate(1187.7294 613.8417999999999) skewX(-14)" fill="rgb(36, 221, 127)" stroke="rgb(36, 221, 127)" stroke-linecap="square" stroke-linejoin="square" stroke-width="0.55" data-glyph-w="236.4232" data-glyph-h="330.2" data-glyph-ascender="283.6418" data-glyph-descender="-46.5582"/><path d="M122.50-39.29L189.87-39.29L189.87 0L112.93 0Q91.14 0 79.58-2.31L79.58-2.31Q38.96-10.24 21.79-47.55L21.79-47.55Q10.57-72.64 10.57-109.63L10.57-109.63Q10.57-153.87 27.74-181.61L27.74-181.61Q40.28-201.75 61.25-211.00Q82.22-220.24 115.24-220.24L115.24-220.24L189.87-220.24L189.87-180.95L120.52-180.95Q89.15-180.95 74.63-164.11L74.63-164.11Q62.41-150.24 62.41-113.92L62.41-113.92Q62.41-65.05 81.23-49.86L81.23-49.86Q94.44-39.29 122.50-39.29L122.50-39.29Z" transform="translate(1424.1526 613.8417999999999) skewX(-14)" fill="rgb(36, 221, 127)" stroke="rgb(36, 221, 127)" stroke-linecap="square" stroke-linejoin="square" stroke-width="0.55" data-glyph-w="200.1012" data-glyph-h="330.2" data-glyph-ascender="283.6418" data-glyph-descender="-46.5582"/><path d="M75.62-62.74L50.85 0L7.92 0L32.36-62.74L75.62-62.74ZM229.16-62.74L272.42-62.74L296.85 0L253.59 0L229.16-62.74ZM6.93-184.91L6.93-222.22L296.85-238.07L296.85-200.76L173.02-193.83L128.45-164.77L142.32-164.77L155.85-164.77L212.32-164.77L128.45-110.29L225.86-110.29L208.03-136.04L255.57-136.04L296.85-76.61L276.71-76.61L249.30-76.61L187.22-76.61L187.22-35.99Q187.22-28.40 184.25-21.79Q181.28-15.19 176.33-10.24Q171.37-5.28 164.77-2.48Q158.17 0.33 150.90 0.33L150.90 0.33L84.53 0.33L102.69-33.35L124.49-33.35Q128.78-33.35 131.75-36.32Q134.72-39.29 134.72-43.92L134.72-43.92L134.72-76.61L76.61-76.61L7.92-76.61L6.93-76.61L90.80-131.09L76.61-131.09L22.78-131.09L6.93-131.09L96.75-189.87L6.93-184.91Z" transform="translate(1624.2538 613.8417999999999) skewX(-14)" fill="rgb(36, 221, 127)" stroke="rgb(36, 221, 127)" stroke-linecap="square" stroke-linejoin="square" stroke-width="0.55" data-glyph-w="303.784" data-glyph-h="330.2" data-glyph-ascender="283.6418" data-glyph-descender="-46.5582"/><path d="M296.85-214.30L296.85-181.61L180.95-181.61L163.12-138.35L244.68-138.35L236.75-161.80L275.06-161.80L295.86-102.03L257.23-102.03L255.57-106.65L250.29-106.65L250.29-42.93Q250.29-38.30 253.26-35.33Q256.24-32.36 260.86-32.36L260.86-32.36L293.22-32.36L278.69 0.33L238.40 0.33Q225.86 0.33 217.27-8.42Q208.69-17.17 208.69-29.72L208.69-29.72L208.69-106.65L177.98-106.65L157.51 0.33L113.92 0.33L134.39-106.65L100.71-106.65L132.74-181.61L111.61-181.61L111.61-214.30L183.59-214.30L172.69-238.40L224.87-238.40L235.43-214.30L296.85-214.30ZM102.03-45.57L6.93-45.57L45.90-127.46L6.93-127.46L55.80-233.45L106.98-233.45L69.01-157.18L76.61-157.18L102.03-157.18L65.05-75.62L102.03-75.62L102.03-45.57ZM6.93 0.33L6.93-29.72L102.03-29.72L102.03 0.33L6.93 0.33Z" transform="translate(1928.0378 613.8417999999999) skewX(-14)" fill="rgb(36, 221, 127)" stroke="rgb(36, 221, 127)" stroke-linecap="square" stroke-linejoin="square" stroke-width="0.55" data-glyph-w="303.784" data-glyph-h="330.2" data-glyph-ascender="283.6418" data-glyph-descender="-46.5582"/></g></svg></g></g><g id="shape_KGTd7uuhMV" transform="translate(1095.0643117287566,396.64607460691735) rotate(0,924.5672501594095,136.36446999999998) scale(1,1)" filter="" style="cursor: move; opacity: 1;"><g><svg xmlns="http://www.w3.org/2000/svg" xmlns:xlink="http://www.w3.org/1999/xlink" version="1.1" width="1849.134500318819" height="272.72893999999997" viewBox="0 0 1849.134500318819 272.72893999999997" data-parent="shape_KGTd7uuhMV"><g data-width="1460.6291199999998" transform="translate(78.97, 0)"><path d="M19.35-66.33L19.35-66.33L28.67-63.33Q28.27-61.99 25.67-61.91L25.67-61.91Q22.35-52.91 18.01-45.17L18.01-45.17L21.40-43.91Q21.16-42.80 18.95-42.49L18.95-42.49L18.95 4.34Q18.87 4.66 18.16 5.09Q17.45 5.53 16.35 5.92Q15.24 6.32 14.06 6.32L14.06 6.32L12.87 6.32L12.87-37.04Q8.37-30.64 3.24-25.90L3.24-25.90L2.13-26.69Q13.03-42.41 19.35-66.33ZM45.96-7.66L45.96-7.66L46.75-8.21Q54.73-5.61 56.74-1.93Q58.75 1.74 57.13 3.91Q55.52 6.08 52.52 4.19L52.52 4.19Q51.96 1.11 50.03-2.17Q48.09-5.45 45.96-7.66ZM35.69-53.86L35.69-35.69L51.09-35.69Q50.07-45.41 49.83-55.52L49.83-55.52Q42.80-54.49 35.69-53.86L35.69-53.86ZM74.94-12.95L75.97-12.71L74.71-0.95Q77.55 3.71 75.73 5.21L75.73 5.21Q73.68 6.87 70.80 5.65Q67.91 4.42 65.62 1.97L65.62 1.97Q59.62-4.42 56.23-13.46Q52.83-22.51 51.41-33.33L51.41-33.33L35.69-33.33L35.69-6.63Q42.56-10.19 50.70-14.53L50.70-14.53L51.25-13.50Q50.38-12.71 49.28-11.77L49.28-11.77Q42.96-6.24 32.54 2.21L32.54 2.21Q31.43 4.34 30.25 4.98L30.25 4.98L26.14-2.68Q28.27-3.79 28.90-4.54Q29.53-5.29 29.53-6.55L29.53-6.55L29.53-58.91L37.98-56.15Q45.72-58.12 53.03-60.65Q60.33-63.18 64.99-65.47L64.99-65.47L72.02-58.99Q70.76-57.89 67.68-59.07L67.68-59.07Q62.70-57.89 56.15-56.62L56.15-56.62Q55.83-46.36 57.10-35.69L57.10-35.69L64.28-35.69L68.31-40.99Q68.31-40.99 69.61-39.96Q70.92-38.93 72.61-37.47Q74.31-36.01 75.81-34.59L75.81-34.59Q75.34-33.33 73.68-33.33L73.68-33.33L57.49-33.33Q58.83-24.16 61.75-16.50Q64.68-8.84 69.49-4.34L69.49-4.34Q70.28-3.55 70.80-3.63Q71.31-3.71 71.78-4.74L71.78-4.74Q72.49-6.16 73.36-8.41Q74.23-10.66 74.94-12.95L74.94-12.95Z" transform="translate(0 169.86446999999998) " fill="rgb(36, 221, 127)" stroke="rgb(36, 221, 127)" stroke-linecap="square" stroke-linejoin="square" stroke-width="0.132" data-glyph-w="78.97" data-glyph-h="113.47989" data-glyph-ascender="90.89447" data-glyph-descender="-22.58542"/><path d="M40.99-15.08L49.91-15.08L49.91-55.75Q40.51-54.41 31.04-53.86L31.04-53.86L30.72-55.20Q40.51-56.86 50.26-59.86Q60.02-62.86 66.10-65.86L66.10-65.86L72.97-59.62Q71.78-58.52 68.62-59.70L68.62-59.70Q63.18-58.12 55.99-56.78L55.99-56.78L55.99-38.77L62.23-38.77L66.10-44.07Q66.10-44.07 67.28-43.04Q68.47-42.01 70.05-40.55Q71.63-39.09 72.97-37.75L72.97-37.75Q72.49-36.48 70.84-36.48L70.84-36.48L55.99-36.48L55.99-15.08L64.20-15.08L68.23-20.53Q68.23-20.53 69.49-19.51Q70.76-18.48 72.49-16.98Q74.23-15.48 75.65-14.06L75.65-14.06Q75.26-12.79 73.60-12.79L73.60-12.79L41.54-12.79L39.33-9.40L32.85-13.74Q33.25-14.14 33.88-14.61Q34.51-15.08 35.14-15.48L35.14-15.48L35.14-45.25L43.83-44.30Q43.75-42.56 40.99-42.09L40.99-42.09L40.99-15.08ZM21.56-35.93L24.80-39.33L31.04-34.04Q30.64-33.48 29.97-33.21Q29.30-32.93 28.03-32.85L28.03-32.85Q27.09-26.45 25.23-20.41Q23.38-14.37 20.14-8.92L20.14-8.92Q26.45-4.74 35.54-3.32Q44.62-1.90 57.10-1.90L57.10-1.90Q60.41-1.90 66.41-1.90Q72.42-1.90 76.52-1.97L76.52-1.97L76.52-0.95Q72.65 0.08 72.34 4.19L72.34 4.19L56.54 4.19Q43.04 4.19 33.60 2.17Q24.16 0.16 17.85-5.61L17.85-5.61Q12.71 1.34 3.40 6.24L3.40 6.24L2.61 5.13Q10.74-0.71 15.00-8.61L15.00-8.61Q9.32-15.48 5.76-27.80L5.76-27.80L6.87-28.35Q10.58-17.53 16.58-11.85L16.58-11.85Q20.93-21.95 22.03-33.64L22.03-33.64L14.21-33.64L11.85-31.43L6.32-35.69Q7.42-36.48 9.16-37.04L9.16-37.04Q11.45-41.22 14.10-46.67Q16.74-52.12 18.64-56.54L18.64-56.54L4.42-56.54L3.71-58.83L18.64-58.83L21.87-62.07L28.35-56.23Q27.17-55.20 24.40-54.96L24.40-54.96Q22.66-51.01 19.98-45.68Q17.29-40.35 14.85-35.93L14.85-35.93L21.56-35.93Z" transform="translate(78.97 169.86446999999998) " fill="rgb(36, 221, 127)" stroke="rgb(36, 221, 127)" stroke-linecap="square" stroke-linejoin="square" stroke-width="0.132" data-glyph-w="78.97" data-glyph-h="113.47989" data-glyph-ascender="90.89447" data-glyph-descender="-22.58542"/><path d="M62.23-39.88L62.23-57.89L39.41-57.89L39.41-42.56L39.41-39.88L62.23-39.88ZM62.23-32.85L62.23-37.59L39.33-37.59Q39.17-29.77 36.41-21.95Q33.64-14.14 25.82-8.05L25.82-8.05L24.88-8.92Q28.59-13.74 30.40-19.27Q32.22-24.80 32.73-30.72Q33.25-36.64 33.25-42.49L33.25-42.49L33.25-63.49L40.51-60.18L61.44-60.18L64.68-63.81L71.78-58.36Q70.92-57.33 68.39-56.70L68.39-56.70L68.39-34.59Q68.31-34.35 67.44-33.96Q66.57-33.56 65.39-33.21Q64.20-32.85 63.18-32.85L63.18-32.85L62.23-32.85ZM45.41-32.77L45.41-32.77L46.36-33.40Q61.91-26.14 67.56-19.43Q73.21-12.71 72.26-9.12Q71.31-5.53 67.05-7.66L67.05-7.66Q63.97-13.66 57.69-20.61Q51.41-27.56 45.41-32.77ZM7.34-64.44L7.34-64.44L8.29-64.99Q18.16-60.57 20.97-55.79Q23.77-51.01 22.11-48.45Q20.45-45.88 16.98-48.01L16.98-48.01Q15.79-52.04 12.95-56.54Q10.11-61.04 7.34-64.44ZM20.06-36.48L20.06-36.48L20.06-12.00Q20.30-11.77 20.69-11.37L20.69-11.37Q25.82-5.84 32.97-3.99Q40.12-2.13 51.49-2.13L51.49-2.13Q64.76-2.13 76.60-2.61L76.60-2.61L76.60-1.66Q72.49-0.55 72.02 3.95L72.02 3.95L49.59 3.95Q38.06 3.95 31.35 1.07Q24.64-1.82 19.51-9.00L19.51-9.00Q18.01-10.82 16.90-9.00L16.90-9.00Q16.11-7.90 14.69-6.16L14.69-6.16Q12.95-3.95 10.98-1.30Q9.00 1.34 7.42 3.63L7.42 3.63Q7.90 4.74 6.79 5.53L6.79 5.53L1.66-1.74Q4.74-3.79 8.53-6.55L8.53-6.55Q11.53-8.77 14.06-10.50L14.06-10.50L14.06-37.35L2.92-37.35L2.45-39.72L12.95-39.72L16.43-44.22L23.93-37.98Q23.22-37.04 20.06-36.48Z" transform="translate(157.94 169.86446999999998) " fill="rgb(36, 221, 127)" stroke="rgb(36, 221, 127)" stroke-linecap="square" stroke-linejoin="square" stroke-width="0.132" data-glyph-w="78.97" data-glyph-h="113.47989" data-glyph-ascender="90.89447" data-glyph-descender="-22.58542"/><path d="" transform="translate(236.91 169.86446999999998) " fill="rgb(36, 221, 127)" stroke="rgb(36, 221, 127)" stroke-linecap="square" stroke-linejoin="square" stroke-width="0.132" data-glyph-w="31.43006" data-glyph-h="78.97" data-glyph-ascender="69.4936" data-glyph-descender="-9.4764"/><path d="M31.27-17.29L31.27-8.05L47.86-8.05L47.86-17.29L31.27-17.29ZM53.86-16.43L53.86-16.43L53.86-3.79Q53.78-3.55 52.95-3.12Q52.12-2.68 50.98-2.33Q49.83-1.97 48.80-1.97L48.80-1.97L47.86-1.97L47.86-5.69L31.27-5.69L31.27-2.76Q31.27-2.53 30.52-2.05Q29.77-1.58 28.59-1.22Q27.40-0.87 26.22-0.87L26.22-0.87L25.35-0.87L25.35-22.35L31.67-19.58L47.15-19.58L50.22-22.74L56.86-17.85Q56.46-17.45 55.67-17.02Q54.88-16.58 53.86-16.43ZM16.11-28.11L63.97-28.11L67.05-31.67L74.39-26.22Q73.60-25.27 71.07-24.64L71.07-24.64L71.07-1.58Q71.07 0.71 70.48 2.37Q69.89 4.03 67.91 5.05Q65.94 6.08 61.91 6.48L61.91 6.48Q61.75 3.63 60.25 2.21L60.25 2.21Q58.99 0.71 53.86 0L53.86 0L53.86-1.11Q53.86-1.11 55.00-1.03Q56.15-0.95 57.77-0.87Q59.39-0.79 60.85-0.71Q62.31-0.63 63.02-0.63L63.02-0.63Q65.07-0.63 64.76-2.21L64.76-2.21L64.76-25.82L15.48-25.82L15.48 4.19Q15.48 4.50 14.69 5.01Q13.90 5.53 12.71 5.92Q11.53 6.32 10.27 6.32L10.27 6.32L9.24 6.32L9.24-31.11L16.11-28.11ZM27.09-46.04L27.09-36.88L52.52-36.88L52.52-46.04L27.09-46.04ZM53.54-31.43L53.54-31.43L52.52-31.43L52.52-34.59L27.09-34.59L27.09-32.61Q27.09-32.38 26.26-31.94Q25.43-31.51 24.24-31.15Q23.06-30.80 21.80-30.80L21.80-30.80L20.85-30.80L20.85-51.25L27.48-48.33L51.73-48.33L54.96-51.88L62.15-46.51Q61.36-45.49 58.83-44.85L58.83-44.85L58.83-33.01Q58.75-32.77 57.89-32.42Q57.02-32.06 55.79-31.75Q54.57-31.43 53.54-31.43ZM42.96-56.78L62.70-56.78L67.20-62.31Q67.20-62.31 68.59-61.24Q69.97-60.18 71.86-58.67Q73.76-57.17 75.34-55.75L75.34-55.75Q75.10-54.49 73.28-54.49L73.28-54.49L4.74-54.49L4.11-56.78L38.70-56.78Q37.83-59.39 35.50-62.07Q33.17-64.76 30.64-66.41L30.64-66.41L31.35-67.12Q37.91-66.49 40.87-64.48Q43.83-62.47 44.14-60.25Q44.46-58.04 42.96-56.78L42.96-56.78Z" transform="translate(268.34006 169.86446999999998) " fill="rgb(36, 221, 127)" stroke="rgb(36, 221, 127)" stroke-linecap="square" stroke-linejoin="square" stroke-width="0.132" data-glyph-w="78.97" data-glyph-h="113.47989" data-glyph-ascender="90.89447" data-glyph-descender="-22.58542"/><path d="M18.40-42.01L18.40-20.93L36.01-20.93L36.01-42.01L18.40-42.01ZM42.25-40.83L42.25-40.83L42.25-14.29Q42.17-13.98 41.30-13.54Q40.43-13.11 39.21-12.75Q37.98-12.40 36.96-12.40L36.96-12.40L36.01-12.40L36.01-18.64L18.40-18.64L18.40-11.45Q18.40-10.98 16.82-10.19Q15.24-9.40 13.19-9.40L13.19-9.40L12.24-9.40L12.24-47.07L18.79-44.22L35.30-44.22L38.46-47.86L45.49-42.49Q44.62-41.46 42.25-40.83ZM3.08-60.10L63.33-60.10L67.84-65.78Q67.84-65.78 69.26-64.68Q70.68-63.57 72.57-62.03Q74.47-60.49 76.05-59.07L76.05-59.07Q75.50-57.89 73.92-57.89L73.92-57.89L63.73-57.89L63.73-2.84Q63.73-0.39 63.02 1.54Q62.31 3.47 59.94 4.70Q57.57 5.92 52.91 6.32L52.91 6.32Q52.75 3.24 50.54 1.74L50.54 1.74Q48.49 0.16 41.38-0.87L41.38-0.87L41.38-1.97Q41.38-1.97 43.16-1.86Q44.93-1.74 47.38-1.58Q49.83-1.42 52.04-1.30Q54.25-1.18 55.12-1.18L55.12-1.18Q56.46-1.18 56.90-1.66Q57.33-2.13 57.33-3.16L57.33-3.16L57.33-57.89L3.79-57.89L3.08-60.10Z" transform="translate(347.31006 169.86446999999998) " fill="rgb(36, 221, 127)" stroke="rgb(36, 221, 127)" stroke-linecap="square" stroke-linejoin="square" stroke-width="0.132" data-glyph-w="78.97" data-glyph-h="113.47989" data-glyph-ascender="90.89447" data-glyph-descender="-22.58542"/><path d="M4.58-50.07L36.33-50.07L36.33-56.46L19.82-56.46Q16.35-53.07 12.16-50.86L12.16-50.86L11.37-51.65Q13.74-54.33 15.83-58.16Q17.93-61.99 19.03-65.62L19.03-65.62L28.03-63.57Q27.88-62.94 27.28-62.66Q26.69-62.39 25.27-62.47L25.27-62.47Q23.85-60.65 22.11-58.75L22.11-58.75L36.33-58.75L36.33-66.65L45.41-65.70Q45.25-64.83 44.58-64.24Q43.91-63.65 42.49-63.49L42.49-63.49L42.49-58.75L56.70-58.75L60.57-63.65Q60.57-63.65 61.79-62.70Q63.02-61.75 64.64-60.41Q66.26-59.07 67.76-57.73L67.76-57.73Q67.36-56.46 65.70-56.46L65.70-56.46L42.49-56.46L42.49-50.07L63.49-50.07L67.36-54.73Q67.36-54.73 68.59-53.82Q69.81-52.91 71.47-51.61Q73.13-50.30 74.55-49.04L74.55-49.04Q74.15-47.78 72.49-47.78L72.49-47.78L5.29-47.78L4.58-50.07ZM21.56-40.75L21.56-34.43L57.17-34.43L57.17-40.75L21.56-40.75ZM58.20-29.14L58.20-29.14L57.17-29.14L57.17-32.14L21.56-32.14L21.56-29.93Q21.56-29.69 20.73-29.26Q19.90-28.82 18.68-28.47Q17.45-28.11 16.27-28.11L16.27-28.11L15.32-28.11L15.32-45.80L22.03-43.04L56.38-43.04L59.54-46.43L66.65-41.22Q65.78-40.20 63.41-39.64L63.41-39.64L63.41-30.72Q63.33-30.48 62.47-30.13Q61.60-29.77 60.41-29.46Q59.23-29.14 58.20-29.14ZM6.08-23.77L28.03-23.77L28.03-29.22L37.12-28.27Q37.12-26.61 34.19-26.06L34.19-26.06L34.19 4.66Q34.19 4.98 33.44 5.41Q32.69 5.84 31.51 6.20Q30.32 6.55 29.14 6.55L29.14 6.55L28.03 6.55L28.03-3.71L5.29-3.71L4.58-6.00L28.03-6.00L28.03-12.71L9.40-12.71L8.69-15.00L28.03-15.00L28.03-21.48L6.79-21.48L6.08-23.77ZM49.83-5.84L64.83-5.84L68.62-10.50Q68.62-10.50 69.81-9.59Q70.99-8.69 72.61-7.38Q74.23-6.08 75.57-4.82L75.57-4.82Q75.18-3.55 73.52-3.55L73.52-3.55L49.83-3.55L49.83 4.58Q49.83 4.90 49.08 5.33Q48.33 5.76 47.15 6.12Q45.96 6.48 44.78 6.48L44.78 6.48L43.59 6.48L43.59-29.30L52.75-28.35Q52.75-26.69 49.83-26.14L49.83-26.14L49.83-23.77L62.47-23.77L66.26-28.51Q66.26-28.51 67.44-27.56Q68.62-26.61 70.24-25.31Q71.86-24.01 73.28-22.74L73.28-22.74Q72.81-21.48 71.15-21.48L71.15-21.48L49.83-21.48L49.83-14.93L60.81-14.93L64.28-19.19Q64.28-19.19 65.39-18.36Q66.49-17.53 67.95-16.31Q69.41-15.08 70.76-13.90L70.76-13.90Q70.36-12.64 68.70-12.64L68.70-12.64L49.83-12.64L49.83-5.84Z" transform="translate(426.28006000000005 169.86446999999998) " fill="rgb(36, 221, 127)" stroke="rgb(36, 221, 127)" stroke-linecap="square" stroke-linejoin="square" stroke-width="0.132" data-glyph-w="78.97" data-glyph-h="113.47989" data-glyph-ascender="90.89447" data-glyph-descender="-22.58542"/><path d="" transform="translate(505.2500600000001 169.86446999999998) " fill="rgb(36, 221, 127)" stroke="rgb(36, 221, 127)" stroke-linecap="square" stroke-linejoin="square" stroke-width="0.132" data-glyph-w="31.43006" data-glyph-h="78.97" data-glyph-ascender="69.4936" data-glyph-descender="-9.4764"/><path d="M49.20-59.62L49.20-59.62L37.98-59.62L37.35-61.91L66.41-61.91L69.73-65.23L76.13-60.02Q75.34-59.07 73.13-58.83L73.13-58.83Q72.49-41.78 68.47-38.70L68.47-38.70Q65.47-36.56 60.81-36.56L60.81-36.56Q60.81-37.83 60.53-38.93Q60.25-40.04 59.46-40.67L59.46-40.67Q58.67-41.30 56.94-41.81Q55.20-42.33 53.23-42.72L53.23-42.72L53.23-43.99Q55.44-43.83 58.24-43.63Q61.04-43.43 62.07-43.43L62.07-43.43Q63.02-43.43 63.53-43.55Q64.04-43.67 64.44-43.99L64.44-43.99Q66.49-46.04 67.12-59.62L67.12-59.62L55.91-59.62Q55.36-52.59 51.33-45.61Q47.30-38.62 36.33-33.09L36.33-33.09L35.30-34.19Q43.67-40.27 46.36-46.87Q49.04-53.46 49.20-59.62ZM47.22-29.38L47.22-13.19L64.83-13.19L64.83-29.38L47.22-29.38ZM65.86-5.61L65.86-5.61L64.83-5.61L64.83-10.90L47.22-10.90L47.22-6.55Q47.22-6.24 46.43-5.76Q45.64-5.29 44.50-4.90Q43.35-4.50 42.09-4.50L42.09-4.50L41.14-4.50L41.14-34.43L47.62-31.67L64.04-31.67L67.36-35.14L74.39-29.85Q73.52-28.82 71.07-28.27L71.07-28.27L71.07-7.66Q70.99-7.34 70.16-6.87Q69.34-6.40 68.15-6.00Q66.97-5.61 65.86-5.61ZM4.34-38.54L3.71-40.83L19.27-40.83L19.27-52.04L6.63-52.04L6.00-54.33L19.27-54.33L19.27-66.41L28.11-65.55Q28.03-63.97 25.35-63.49L25.35-63.49L25.35-54.33L29.46-54.33L33.09-59.07Q33.09-59.07 34.27-58.12Q35.46-57.17 37.00-55.87Q38.54-54.57 39.80-53.30L39.80-53.30Q39.41-52.04 37.75-52.04L37.75-52.04L25.35-52.04L25.35-40.83L30.48-40.83L34.27-45.80Q34.27-45.80 35.46-44.82Q36.64-43.83 38.22-42.49Q39.80-41.14 41.22-39.80L41.22-39.80Q40.75-38.54 39.09-38.54L39.09-38.54L4.34-38.54ZM37.83-22.11L26.53-22.11L26.53-4.11Q30.17-2.84 34.90-2.41Q39.64-1.97 45.49-1.97L45.49-1.97Q50.78-1.97 60.61-2.05Q70.44-2.13 76.52-2.21L76.52-2.21L76.52-1.18Q72.97-0.08 72.73 3.79L72.73 3.79L45.25 3.79Q36.48 3.79 30.25 2.33Q24.01 0.87 19.74-3.24Q15.48-7.34 12.64-15.08L12.64-15.08Q11.45-9.08 9.12-3.55Q6.79 1.97 3.00 6.24L3.00 6.24L2.05 5.37Q6.00-2.21 7.58-12.60Q9.16-22.98 9.16-32.22L9.16-32.22L17.69-30.48Q17.29-28.75 14.69-28.59L14.69-28.59Q14.21-23.30 13.19-17.69L13.19-17.69Q16.19-10.66 20.69-7.19L20.69-7.19L20.69-36.48L29.06-35.54Q28.90-34.83 28.35-34.31Q27.80-33.80 26.53-33.64L26.53-33.64L26.53-24.40L30.01-24.40L33.56-29.22Q33.56-29.22 34.67-28.27Q35.77-27.32 37.23-25.98Q38.70-24.64 39.88-23.38L39.88-23.38Q39.48-22.11 37.83-22.11L37.83-22.11Z" transform="translate(536.6801200000001 169.86446999999998) " fill="rgb(36, 221, 127)" stroke="rgb(36, 221, 127)" stroke-linecap="square" stroke-linejoin="square" stroke-width="0.132" data-glyph-w="78.97" data-glyph-h="113.47989" data-glyph-ascender="90.89447" data-glyph-descender="-22.58542"/><path d="M30.32-45.41L30.32-45.41L29.46-46.20Q33.40-49.99 36.52-55.56Q39.64-61.12 41.22-66.65L41.22-66.65L51.17-64.60Q51.01-63.97 50.42-63.69Q49.83-63.41 48.41-63.49L48.41-63.49Q46.75-60.57 44.30-57.57L44.30-57.57L57.81-57.57L61.83-61.44L68.70-55.28Q68.23-54.81 67.52-54.65Q66.81-54.49 65.62-54.41L65.62-54.41Q63.33-52.44 60.33-49.99Q57.33-47.54 54.33-45.64L54.33-45.64L63.41-45.64L66.73-49.20L73.84-43.83Q72.97-42.80 70.52-42.17L70.52-42.17L70.52-20.30Q70.44-19.98 69.57-19.55Q68.70-19.11 67.48-18.72Q66.26-18.32 65.15-18.32L65.15-18.32L64.20-18.32L64.20-21.40L33.09-21.40L32.38-23.77L64.20-23.77L64.20-32.61L35.62-32.61L34.90-34.90L64.20-34.90L64.20-43.35L33.72-43.35L33.01-45.64L52.20-45.64Q53.70-47.70 55.08-50.26Q56.46-52.83 57.65-55.04L57.65-55.04Q57.65-55.20 57.73-55.28L57.73-55.28L42.41-55.28Q37.19-49.20 30.32-45.41ZM48.01-20.22L48.01-20.22L48.96-20.77Q56.31-17.22 57.89-13.39Q59.46-9.56 57.69-7.62Q55.91-5.69 53.15-7.82L53.15-7.82Q52.91-10.98 51.37-14.33Q49.83-17.69 48.01-20.22ZM30.56-39.48L20.37-39.48L20.37-34.75Q27.72-31.43 29.42-27.72Q31.11-24.01 29.46-22.07Q27.80-20.14 25.03-22.11L25.03-22.11Q23.93-27.40 20.37-32.38L20.37-32.38L20.37 4.42Q20.37 4.74 18.99 5.53Q17.61 6.32 15.40 6.32L15.40 6.32L14.45 6.32L14.45-24.48Q10.03-15.16 2.92-7.90L2.92-7.90L1.90-8.77Q9.95-22.35 13.03-39.48L13.03-39.48L3.55-39.48L2.92-41.85L14.45-41.85L14.45-55.99Q9.00-55.12 3.71-54.57L3.71-54.57L3.32-55.75Q9.16-57.57 15.20-60.37Q21.24-63.18 25.03-65.47L25.03-65.47L32.30-59.23Q31.11-58.12 27.96-59.15L27.96-59.15Q24.80-58.20 20.37-57.25L20.37-57.25L20.37-41.85L22.51-41.85L26.14-46.59Q26.14-46.59 27.24-45.64Q28.35-44.70 29.85-43.35Q31.35-42.01 32.61-40.75L32.61-40.75Q32.22-39.48 30.56-39.48L30.56-39.48ZM31.90-16.58L31.90-16.58L33.25-16.58Q35.06-10.19 33.96-5.88Q32.85-1.58 30.72 0.32L30.72 0.32Q29.30 1.42 27.64 1.50Q25.98 1.58 25.11 0.32L25.11 0.32Q24.48-0.95 25.07-2.17Q25.67-3.40 26.93-4.26L26.93-4.26Q28.98-5.84 30.48-9.24Q31.98-12.64 31.90-16.58ZM63.65-10.58L64.60-10.58L64.83-1.97Q66.10-1.50 66.57-0.99Q67.05-0.47 67.05 0.39L67.05 0.39Q67.05 2.29 64.32 3.08Q61.60 3.87 53.07 3.87L53.07 3.87L45.33 3.87Q40.75 3.87 39.41 2.76Q38.06 1.66 38.06-1.34L38.06-1.34L38.06-17.69L46.12-16.82Q45.96-15.40 43.83-15.00L43.83-15.00L43.83-2.45Q43.83-1.74 44.30-1.50Q44.78-1.26 46.59-1.26L46.59-1.26L53.38-1.26Q58.04-1.26 59.70-1.34L59.70-1.34Q60.33-1.42 60.65-1.58Q60.96-1.74 61.20-2.21L61.20-2.21Q62.23-4.42 63.65-10.58L63.65-10.58ZM64.52-15.95L64.52-15.95L65.47-16.50Q73.28-12.24 75.10-7.66Q76.92-3.08 75.18-0.67Q73.44 1.74 70.60-0.55L70.60-0.55Q70.60-4.50 68.78-8.73Q66.97-12.95 64.52-15.95Z" transform="translate(615.6501200000001 169.86446999999998) " fill="rgb(36, 221, 127)" stroke="rgb(36, 221, 127)" stroke-linecap="square" stroke-linejoin="square" stroke-width="0.132" data-glyph-w="78.97" data-glyph-h="113.47989" data-glyph-ascender="90.89447" data-glyph-descender="-22.58542"/><path d="M33.25-65.86L33.25-65.86L33.96-66.41Q40.51-65.39 43.12-62.94Q45.72-60.49 45.57-58.08Q45.41-55.67 43.47-54.65Q41.54-53.62 39.01-55.36L39.01-55.36Q38.70-58.20 37.04-61.08Q35.38-63.97 33.25-65.86ZM65.39-51.41L65.39-51.41L14.61-51.41Q14.69-47.38 13.42-44.74Q12.16-42.09 10.19-40.99L10.19-40.99Q8.45-39.88 6.44-40.16Q4.42-40.43 3.55-42.25L3.55-42.25Q3.00-43.91 3.83-45.29Q4.66-46.67 6.32-47.46L6.32-47.46Q8.61-48.72 10.42-51.53Q12.24-54.33 12.08-57.89L12.08-57.89L13.35-57.96Q14.14-55.75 14.37-53.70L14.37-53.70L65.15-53.70L68.94-57.57L75.89-50.94Q75.02-50.22 72.89-50.15L72.89-50.15Q71.15-48.17 68.51-46.08Q65.86-43.99 63.49-42.41L63.49-42.41L62.54-43.04Q63.25-44.78 64.04-47.03Q64.83-49.28 65.39-51.41ZM64.68-20.93L42.64-20.93L42.64-2.13Q48.57-1.42 56.15-1.42L56.15-1.42Q59.62-1.42 65.86-1.46Q72.10-1.50 76.29-1.58L76.29-1.58L76.29-0.47Q72.65 0.55 72.49 4.82L72.49 4.82L55.67 4.82Q46.59 4.82 40.04 3.32Q33.48 1.82 28.86-2.21Q24.24-6.24 21.16-13.82L21.16-13.82Q18.64-7.82 14.29-2.61Q9.95 2.61 3.40 6.48L3.40 6.48L2.53 5.61Q10.35-1.42 14.14-11.06Q17.93-20.69 18.87-30.09L18.87-30.09L28.19-28.19Q27.80-26.53 25.19-26.38L25.19-26.38Q24.16-21.16 22.03-15.87L22.03-15.87Q27.01-6.08 36.33-3.55L36.33-3.55L36.33-37.91L13.27-37.91L12.64-40.20L55.59-40.20L59.70-45.01Q59.70-45.01 60.96-44.07Q62.23-43.12 63.93-41.78Q65.62-40.43 67.20-39.17L67.20-39.17Q66.65-37.91 64.99-37.91L64.99-37.91L42.64-37.91L42.64-23.22L55.36-23.22L59.39-28.27Q59.39-28.27 60.65-27.28Q61.91-26.30 63.61-24.92Q65.31-23.53 66.73-22.19L66.73-22.19Q66.33-20.93 64.68-20.93L64.68-20.93Z" transform="translate(694.6201200000002 169.86446999999998) " fill="rgb(36, 221, 127)" stroke="rgb(36, 221, 127)" stroke-linecap="square" stroke-linejoin="square" stroke-width="0.132" data-glyph-w="78.97" data-glyph-h="113.47989" data-glyph-ascender="90.89447" data-glyph-descender="-22.58542"/><path d="" transform="translate(773.5901200000002 169.86446999999998) " fill="rgb(36, 221, 127)" stroke="rgb(36, 221, 127)" stroke-linecap="square" stroke-linejoin="square" stroke-width="0.132" data-glyph-w="31.43006" data-glyph-h="78.97" data-glyph-ascender="69.4936" data-glyph-descender="-9.4764"/><path d="M21.64-34.04L21.64-34.04L25.11-32.69Q33.64-29.38 37.27-25.31Q40.91-21.24 40.91-15.16L40.91-15.16Q40.91-7.50 35.22-3.12Q29.53 1.26 20.53 1.26L20.53 1.26Q15.64 1.26 11.17-0.04Q6.71-1.34 3.71-3.32L3.71-3.32L4.26-15.48L8.69-15.48L10.90-4.66Q14.45-2.53 19.98-2.53L19.98-2.53Q26.30-2.53 30.05-5.29Q33.80-8.05 33.80-13.35L33.80-13.35Q33.80-17.53 31.23-20.02Q28.67-22.51 22.90-24.72L22.90-24.72L19.66-26.06Q12.79-28.75 8.77-32.81Q4.74-36.88 4.74-43.35L4.74-43.35Q4.74-50.86 10.31-55.04Q15.87-59.23 24.01-59.23L24.01-59.23Q28.43-59.23 31.90-58.00Q35.38-56.78 38.22-54.65L38.22-54.65L37.67-43.35L33.17-43.35L30.96-53.70Q27.96-55.44 23.93-55.44L23.93-55.44Q18.72-55.44 15.28-52.87Q11.85-50.30 11.85-45.33L11.85-45.33Q11.85-41.22 14.37-38.54Q16.90-35.85 21.64-34.04Z" transform="translate(805.0201800000002 169.86446999999998) " fill="rgb(36, 221, 127)" stroke="rgb(36, 221, 127)" stroke-linecap="square" stroke-linejoin="square" stroke-width="0.132" data-glyph-w="44.46011" data-glyph-h="113.47989" data-glyph-ascender="90.89447" data-glyph-descender="-22.58542"/><path d="M25.67-54.49L25.67-54.49L20.14-54.49Q19.98-42.88 19.98-31.04L19.98-31.04L19.98-26.61L25.51-26.61Q33.64-26.61 37.16-30.56Q40.67-34.51 40.67-40.75L40.67-40.75Q40.67-47.30 37.04-50.90Q33.40-54.49 25.67-54.49ZM24.56-23.14L24.56-23.14L19.98-23.14Q19.98-13.58 20.14-3.95L20.14-3.95L28.35-3.00L28.35 0L3.87 0L3.87-3.00L11.92-3.87Q12.08-15.16 12.08-26.77L12.08-26.77L12.08-31.04Q12.08-42.64 11.92-54.02L11.92-54.02L3.87-54.88L3.87-57.89L27.09-57.89Q37.98-57.89 43.39-53.19Q48.80-48.49 48.80-40.75L48.80-40.75Q48.80-35.93 46.39-31.94Q43.99-27.96 38.66-25.55Q33.33-23.14 24.56-23.14Z" transform="translate(849.4802900000002 169.86446999999998) " fill="rgb(36, 221, 127)" stroke="rgb(36, 221, 127)" stroke-linecap="square" stroke-linejoin="square" stroke-width="0.132" data-glyph-w="50.93565" data-glyph-h="113.47989" data-glyph-ascender="90.89447" data-glyph-descender="-22.58542"/><path d="M42.33-3.79L44.62-15.40L48.88-15.40L48.41 0L3.87 0L3.87-3.00L11.92-3.87Q12.08-15.16 12.08-26.77L12.08-26.77L12.08-31.04Q12.08-42.64 11.92-54.02L11.92-54.02L3.87-54.88L3.87-57.89L46.75-57.89L47.22-42.64L42.96-42.64L40.67-54.09L20.14-54.09Q19.98-42.96 19.98-31.19L19.98-31.19L33.01-31.19L34.27-39.72L37.83-39.72L37.83-19.35L34.27-19.35L33.09-27.72L19.98-27.72Q19.98-14.93 20.14-3.79L20.14-3.79L42.33-3.79Z" transform="translate(900.4159400000002 169.86446999999998) " fill="rgb(36, 221, 127)" stroke="rgb(36, 221, 127)" stroke-linecap="square" stroke-linejoin="square" stroke-width="0.132" data-glyph-w="52.1202" data-glyph-h="113.47989" data-glyph-ascender="90.89447" data-glyph-descender="-22.58542"/><path d="M42.33-3.79L44.62-15.40L48.88-15.40L48.41 0L3.87 0L3.87-3.00L11.92-3.87Q12.08-15.16 12.08-26.77L12.08-26.77L12.08-31.04Q12.08-42.64 11.92-54.02L11.92-54.02L3.87-54.88L3.87-57.89L46.75-57.89L47.22-42.64L42.96-42.64L40.67-54.09L20.14-54.09Q19.98-42.96 19.98-31.19L19.98-31.19L33.01-31.19L34.27-39.72L37.83-39.72L37.83-19.35L34.27-19.35L33.09-27.72L19.98-27.72Q19.98-14.93 20.14-3.79L20.14-3.79L42.33-3.79Z" transform="translate(952.5361400000002 169.86446999999998) " fill="rgb(36, 221, 127)" stroke="rgb(36, 221, 127)" stroke-linecap="square" stroke-linejoin="square" stroke-width="0.132" data-glyph-w="52.1202" data-glyph-h="113.47989" data-glyph-ascender="90.89447" data-glyph-descender="-22.58542"/><path d="M20.14-3.47L20.14-3.47L26.93-3.47Q37.27-3.47 42.72-10.19Q48.17-16.90 48.17-28.90L48.17-28.90Q48.17-41.38 42.84-47.93Q37.51-54.49 27.64-54.49L27.64-54.49L20.14-54.49Q19.98-42.96 19.98-30.96L19.98-30.96L19.98-27.96Q19.98-14.85 20.14-3.47ZM3.87-54.88L3.87-57.89L29.06-57.89Q41.70-57.89 49.44-50.38Q57.17-42.88 57.17-28.90L57.17-28.90Q57.17-19.66 53.34-13.19Q49.51-6.71 42.80-3.36Q36.09 0 27.48 0L27.48 0L3.87 0L3.87-3.00L11.92-3.87Q12.08-14.85 12.08-27.96L12.08-27.96L12.08-30.96Q12.08-42.56 11.92-54.02L11.92-54.02L3.87-54.88Z" transform="translate(1004.6563400000001 169.86446999999998) " fill="rgb(36, 221, 127)" stroke="rgb(36, 221, 127)" stroke-linecap="square" stroke-linejoin="square" stroke-width="0.132" data-glyph-w="61.28072" data-glyph-h="113.47989" data-glyph-ascender="90.89447" data-glyph-descender="-22.58542"/><path d="M23.61-19.19L3.47-19.19L3.47-24.24L23.61-24.24L23.61-19.19Z" transform="translate(1065.9370600000002 169.86446999999998) " fill="rgb(36, 221, 127)" stroke="rgb(36, 221, 127)" stroke-linecap="square" stroke-linejoin="square" stroke-width="0.132" data-glyph-w="27.08671" data-glyph-h="113.47989" data-glyph-ascender="90.89447" data-glyph-descender="-22.58542"/><path d="M28.19-57.89L28.19-54.88L20.14-54.02Q19.98-42.64 19.98-31.04L19.98-31.04L19.98-26.77Q19.98-15.40 20.14-3.95L20.14-3.95L28.19-3.00L28.19 0L3.87 0L3.87-3.00L11.92-3.87Q12.08-15.16 12.08-26.77L12.08-26.77L12.08-31.04Q12.08-42.64 11.92-54.02L11.92-54.02L3.87-54.88L3.87-57.89L28.19-57.89Z" transform="translate(1093.0237700000002 169.86446999999998) " fill="rgb(36, 221, 127)" stroke="rgb(36, 221, 127)" stroke-linecap="square" stroke-linejoin="square" stroke-width="0.132" data-glyph-w="32.06182" data-glyph-h="113.47989" data-glyph-ascender="90.89447" data-glyph-descender="-22.58542"/><path d="M20.14-3.47L20.14-3.47L26.93-3.47Q37.27-3.47 42.72-10.19Q48.17-16.90 48.17-28.90L48.17-28.90Q48.17-41.38 42.84-47.93Q37.51-54.49 27.64-54.49L27.64-54.49L20.14-54.49Q19.98-42.96 19.98-30.96L19.98-30.96L19.98-27.96Q19.98-14.85 20.14-3.47ZM3.87-54.88L3.87-57.89L29.06-57.89Q41.70-57.89 49.44-50.38Q57.17-42.88 57.17-28.90L57.17-28.90Q57.17-19.66 53.34-13.19Q49.51-6.71 42.80-3.36Q36.09 0 27.48 0L27.48 0L3.87 0L3.87-3.00L11.92-3.87Q12.08-14.85 12.08-27.96L12.08-27.96L12.08-30.96Q12.08-42.56 11.92-54.02L11.92-54.02L3.87-54.88Z" transform="translate(1125.0855900000001 169.86446999999998) " fill="rgb(36, 221, 127)" stroke="rgb(36, 221, 127)" stroke-linecap="square" stroke-linejoin="square" stroke-width="0.132" data-glyph-w="61.28072" data-glyph-h="113.47989" data-glyph-ascender="90.89447" data-glyph-descender="-22.58542"/><path d="M44.14-4.66L46.28-15.64L51.01-15.64L50.86-2.92Q42.80 1.26 33.56 1.26L33.56 1.26Q20.45 1.26 12.32-7.11Q4.19-15.48 4.19-28.98L4.19-28.98Q4.19-42.25 12.56-50.74Q20.93-59.23 33.56-59.23L33.56-59.23Q37.27-59.23 41.54-58.32Q45.80-57.41 50.07-54.96L50.07-54.96L50.22-42.25L45.49-42.25L43.35-53.30Q38.93-55.44 34.51-55.44L34.51-55.44Q28.59-55.44 23.73-52.40Q18.87-49.36 15.99-43.47Q13.11-37.59 13.11-28.98L13.11-28.98Q13.11-16.03 18.99-9.28Q24.88-2.53 34.19-2.53L34.19-2.53Q39.09-2.53 44.14-4.66L44.14-4.66Z" transform="translate(1186.36631 169.86446999999998) " fill="rgb(36, 221, 127)" stroke="rgb(36, 221, 127)" stroke-linecap="square" stroke-linejoin="square" stroke-width="0.132" data-glyph-w="54.64724" data-glyph-h="113.47989" data-glyph-ascender="90.89447" data-glyph-descender="-22.58542"/><path d="M12.95 1.11L12.95 1.11Q10.50 1.11 8.81-0.63Q7.11-2.37 7.11-4.66L7.11-4.66Q7.11-7.19 8.81-8.92Q10.50-10.66 12.95-10.66L12.95-10.66Q15.48-10.66 17.18-8.92Q18.87-7.19 18.87-4.66L18.87-4.66Q18.87-2.37 17.18-0.63Q15.48 1.11 12.95 1.11Z" transform="translate(1241.0135500000001 169.86446999999998) " fill="rgb(36, 221, 127)" stroke="rgb(36, 221, 127)" stroke-linecap="square" stroke-linejoin="square" stroke-width="0.132" data-glyph-w="25.98113" data-glyph-h="113.47989" data-glyph-ascender="90.89447" data-glyph-descender="-22.58542"/><path d="M44.14-4.66L46.28-15.64L51.01-15.64L50.86-2.92Q42.80 1.26 33.56 1.26L33.56 1.26Q20.45 1.26 12.32-7.11Q4.19-15.48 4.19-28.98L4.19-28.98Q4.19-42.25 12.56-50.74Q20.93-59.23 33.56-59.23L33.56-59.23Q37.27-59.23 41.54-58.32Q45.80-57.41 50.07-54.96L50.07-54.96L50.22-42.25L45.49-42.25L43.35-53.30Q38.93-55.44 34.51-55.44L34.51-55.44Q28.59-55.44 23.73-52.40Q18.87-49.36 15.99-43.47Q13.11-37.59 13.11-28.98L13.11-28.98Q13.11-16.03 18.99-9.28Q24.88-2.53 34.19-2.53L34.19-2.53Q39.09-2.53 44.14-4.66L44.14-4.66Z" transform="translate(1266.99468 169.86446999999998) " fill="rgb(36, 221, 127)" stroke="rgb(36, 221, 127)" stroke-linecap="square" stroke-linejoin="square" stroke-width="0.132" data-glyph-w="54.64724" data-glyph-h="113.47989" data-glyph-ascender="90.89447" data-glyph-descender="-22.58542"/><path d="M13.11-28.98L13.11-28.98Q13.11-22.19 14.96-16.11Q16.82-10.03 20.73-6.24Q24.64-2.45 30.64-2.45L30.64-2.45Q36.64-2.45 40.47-6.24Q44.30-10.03 46.12-16.11Q47.93-22.19 47.93-28.98L47.93-28.98Q47.93-35.77 46.12-41.81Q44.30-47.86 40.47-51.65Q36.64-55.44 30.64-55.44L30.64-55.44Q24.64-55.44 20.73-51.65Q16.82-47.86 14.96-41.81Q13.11-35.77 13.11-28.98ZM30.64-59.23L30.64-59.23Q37.35-59.23 43.35-55.71Q49.36-52.20 53.15-45.49Q56.94-38.77 56.94-28.98L56.94-28.98Q56.94-19.51 53.19-12.71Q49.44-5.92 43.43-2.33Q37.43 1.26 30.64 1.26L30.64 1.26Q23.85 1.26 17.77-2.21Q11.69-5.69 7.94-12.44Q4.19-19.19 4.19-28.98L4.19-28.98Q4.19-38.46 7.98-45.25Q11.77-52.04 17.81-55.63Q23.85-59.23 30.64-59.23Z" transform="translate(1321.64192 169.86446999999998) " fill="rgb(36, 221, 127)" stroke="rgb(36, 221, 127)" stroke-linecap="square" stroke-linejoin="square" stroke-width="0.132" data-glyph-w="61.04381" data-glyph-h="113.47989" data-glyph-ascender="90.89447" data-glyph-descender="-22.58542"/><path d="M73.99-57.89L73.99-54.88L65.94-54.02Q65.78-42.64 65.78-31.04L65.78-31.04L65.78-26.77Q65.78-15.40 65.94-3.87L65.94-3.87L73.92-3.00L73.92 0L50.38 0L50.38-3.00L57.89-3.87Q58.04-15.16 58.04-26.53L58.04-26.53L58.12-49.75L38.62 0L34.90 0L14.69-49.59Q14.77-45.49 14.89-41.26Q15.00-37.04 15.08-34.19L15.08-34.19Q15.16-31.67 15.16-31.51L15.16-31.51L15.16-4.11L22.66-3.00L22.66 0L3.32 0L3.32-3.00L11.13-4.11L11.21-53.94L3.32-54.88L3.32-57.89L19.11-57.89L38.62-9.87L57.33-57.89L73.99-57.89Z" transform="translate(1382.68573 169.86446999999998) " fill="rgb(36, 221, 127)" stroke="rgb(36, 221, 127)" stroke-linecap="square" stroke-linejoin="square" stroke-width="0.132" data-glyph-w="77.94339" data-glyph-h="113.47989" data-glyph-ascender="90.89447" data-glyph-descender="-22.58542"/></g></svg></g></g>  <!----></svg>
