<?xml version="1.0"?>
<svg xmlns="http://www.w3.org/2000/svg" xmlns:xlink="http://www.w3.org/1999/xlink" data-noselect="" viewBox="0 0 1133.8582677165355 302.3622047244095" width="2267.7165354331" height="604.72440944882" preserveAspectRatio="none" version="1.1"><defs/> <g id="background" data-noselect=""><!----> <!----></g> <g id="shape_AjwXCJgVSQ" transform="translate(7.35680054367357,9.97648126122257) rotate(0,226.55608270597295,141.50644360884036) scale(1,1)" filter="" style="cursor: move; opacity: 1;"><g><svg xmlns="http://www.w3.org/2000/svg" xmlns:xlink="http://www.w3.org/1999/xlink" version="1.1" id="&#x56FE;&#x5C42;_1" x="0px" y="0px" width="453.1121654119459" height="283.0128872176807" viewBox="10.189589500427246 43.904483795166016 179.6204071044922 112.19052124023438" enable-background="new 0 0 200 200" xml:space="preserve" preserveAspectRatio="none" class="style-removed" data-parent="shape_AjwXCJgVSQ">
<g>
	<path fill="#24DD7F" d="M106.321,89.494c0,0,21.712-23.689,49.111-19.623c20.564,3.052,29.926,14.137,34.378,20.14H176.37   c0,0-9.943-9.084-23.78-10.899C140.013,77.462,129.843,78.121,106.321,89.494z"/>
	<path fill="#24DD7F" d="M147.161,71.716c0,0-5.801-22.574-33.028-27.054S61.92,55.92,43.31,82.687l22.517-4.021   c0,0,19.354-29.195,47.101-24.24c16.083,2.872,24.699,10.109,27.916,18.496L147.161,71.716z"/>
	<path fill="#24DD7F" d="M62.38,83.893c0,0-46.698,7.782-51.696,38.255c-4.136,25.216,18.611,33.947,33.43,33.947   c18.036,0,112.698,0,112.698,0l1.206-5.687c0,0-71.397,0.324-101.38,0c-15.968-0.172-28.147-4.996-28.147-22.574   c0-14.992,12.867-26.502,29.065-32.034L62.38,83.893z"/>
</g>
</svg></g></g><g id="shape_W7YDZ35Q8m" transform="translate(-49.141960026067494,-34.190283906518545) rotate(0,654.985402310253,222.74547) scale(1,1)" filter="" style="cursor: move; opacity: 1;"><g><svg xmlns="http://www.w3.org/2000/svg" xmlns:xlink="http://www.w3.org/1999/xlink" version="1.1" width="1309.970804620506" height="445.49094" viewBox="0 0 1309.970804620506 445.49094" data-parent="shape_W7YDZ35Q8m"><g data-width="1002.5624700000001" transform="translate(148.33, 0)"><path d="M59.33 0L9.64 0L9.64-17.65L54.88-17.65Q65.71-17.65 69.27-19.73L69.27-19.73Q74.46-22.84 74.46-29.07L74.46-29.07Q74.46-36.34 68.38-39.60L68.38-39.60Q64.97-41.53 57.40-41.53L57.40-41.53L39.01-41.53Q22.25-41.53 14.83-47.61L14.83-47.61Q10.23-51.47 7.64-57.26Q5.04-63.04 5.04-69.72L5.04-69.72Q5.04-80.10 11.12-88.70L11.12-88.70Q17.06-97.01 30.11-98.49L30.11-98.49Q34.56-98.94 43.31-98.94L43.31-98.94L92.41-98.94L92.41-81.28L48.06-81.28Q38.12-81.14 34.86-80.39L34.86-80.39Q28.18-78.76 28.18-70.31L28.18-70.31Q28.18-63.19 33.82-60.82L33.82-60.82Q37.53-59.04 46.28-59.04L46.28-59.04L62.15-59.04Q74.31-59.04 80.25-56.96L80.25-56.96Q90.78-53.40 94.78-44.50L94.78-44.50Q97.90-37.38 97.90-29.22L97.90-29.22Q97.90-20.17 93.74-13.05L93.74-13.05Q87.96-2.97 76.39-0.89L76.39-0.89Q70.75 0 59.33 0L59.33 0Z" transform="translate(0 275.74547) skewX(-14)" fill="rgb(36, 221, 127)" stroke="rgb(36, 221, 127)" stroke-linecap="square" stroke-linejoin="square" stroke-width="0.247" data-glyph-w="103.08935000000001" data-glyph-h="148.33" data-glyph-ascender="127.41547000000001" data-glyph-descender="-20.914530000000003"/><path d="M64.97-34.56L31.15-34.56L31.15 0L10.09 0L10.09-98.94L59.48-98.94Q72.98-98.94 78.76-97.01L78.76-97.01Q88.55-93.74 94.19-83.51L94.19-83.51Q98.34-75.80 98.34-66.75L98.34-66.75Q98.34-59.18 95.60-52.43Q92.85-45.69 87.96-41.38L87.96-41.38Q83.51-37.53 78.54-36.04Q73.57-34.56 64.97-34.56L64.97-34.56ZM31.15-81.28L31.15-52.21L59.78-52.21Q67.49-52.21 70.61-54.59L70.61-54.59Q75.20-58.29 75.20-67.49L75.20-67.49Q75.20-77.43 68.23-80.25L68.23-80.25Q65.71-81.28 60.22-81.28L60.22-81.28L31.15-81.28Z" transform="translate(103.08935000000001 275.74547) skewX(-14)" fill="rgb(36, 221, 127)" stroke="rgb(36, 221, 127)" stroke-linecap="square" stroke-linejoin="square" stroke-width="0.247" data-glyph-w="101.60605000000001" data-glyph-h="148.33" data-glyph-ascender="127.41547000000001" data-glyph-descender="-20.914530000000003"/><path d="M48.80-98.94L84.25-98.94L84.25-81.28L56.81-81.28Q46.13-81.28 41.24-79.80Q36.34-78.32 33.08-74.02L33.08-74.02Q30.85-71.05 30.04-68.08Q29.22-65.12 28.63-58.00L28.63-58.00L84.25-58.00L84.25-40.35L28.63-40.35Q29.81-27.59 36.19-22.62Q42.57-17.65 57.85-17.65L57.85-17.65L84.25-17.65L84.25 0L56.81 0Q45.69 0 37.23-1.33L37.23-1.33Q23.88-3.56 16.02-13.05L16.02-13.05Q4.75-26.70 4.75-49.99L4.75-49.99Q4.75-75.80 20.62-90.18L20.62-90.18Q26.11-95.08 32.26-97.01Q38.42-98.94 48.80-98.94L48.80-98.94Z" transform="translate(204.6954 275.74547) skewX(-14)" fill="rgb(36, 221, 127)" stroke="rgb(36, 221, 127)" stroke-linecap="square" stroke-linejoin="square" stroke-width="0.247" data-glyph-w="90.77796000000001" data-glyph-h="148.33" data-glyph-ascender="127.41547000000001" data-glyph-descender="-20.914530000000003"/><path d="M48.80-98.94L84.25-98.94L84.25-81.28L56.81-81.28Q46.13-81.28 41.24-79.80Q36.34-78.32 33.08-74.02L33.08-74.02Q30.85-71.05 30.04-68.08Q29.22-65.12 28.63-58.00L28.63-58.00L84.25-58.00L84.25-40.35L28.63-40.35Q29.81-27.59 36.19-22.62Q42.57-17.65 57.85-17.65L57.85-17.65L84.25-17.65L84.25 0L56.81 0Q45.69 0 37.23-1.33L37.23-1.33Q23.88-3.56 16.02-13.05L16.02-13.05Q4.75-26.70 4.75-49.99L4.75-49.99Q4.75-75.80 20.62-90.18L20.62-90.18Q26.11-95.08 32.26-97.01Q38.42-98.94 48.80-98.94L48.80-98.94Z" transform="translate(295.47336 275.74547) skewX(-14)" fill="rgb(36, 221, 127)" stroke="rgb(36, 221, 127)" stroke-linecap="square" stroke-linejoin="square" stroke-width="0.247" data-glyph-w="90.77796000000001" data-glyph-h="148.33" data-glyph-ascender="127.41547000000001" data-glyph-descender="-20.914530000000003"/><path d="M10.09 0L10.09-98.94L52.06-98.94Q67.79-98.94 76.39-95.82L76.39-95.82Q92.26-90.04 97.60-74.61L97.60-74.61Q101.61-62.74 101.61-49.25L101.61-49.25Q101.61-35.90 97.75-24.03L97.75-24.03Q93.89-11.87 84.99-6.08L84.99-6.08Q79.36-2.52 72.61-1.26Q65.86 0 52.06 0L52.06 0L10.09 0ZM52.06-81.28L31.15-81.28L31.15-17.65L52.06-17.65Q65.86-17.65 71.20-23.73L71.20-23.73Q74.46-27.59 76.46-34.56Q78.47-41.53 78.47-49.39L78.47-49.39Q78.47-58.15 76.09-65.41Q73.72-72.68 69.86-76.24L69.86-76.24Q64.23-81.28 52.06-81.28L52.06-81.28Z" transform="translate(386.25132 275.74547) skewX(-14)" fill="rgb(36, 221, 127)" stroke="rgb(36, 221, 127)" stroke-linecap="square" stroke-linejoin="square" stroke-width="0.247" data-glyph-w="106.20428000000001" data-glyph-h="148.33" data-glyph-ascender="127.41547000000001" data-glyph-descender="-20.914530000000003"/><path d="M31.15 0L10.09 0L10.09-98.94L31.15-98.94L31.15 0Z" transform="translate(492.4556 275.74547) skewX(-14)" fill="rgb(36, 221, 127)" stroke="rgb(36, 221, 127)" stroke-linecap="square" stroke-linejoin="square" stroke-width="0.247" data-glyph-w="41.087410000000006" data-glyph-h="148.33" data-glyph-ascender="127.41547000000001" data-glyph-descender="-20.914530000000003"/><path d="M10.09 0L10.09-98.94L52.06-98.94Q67.79-98.94 76.39-95.82L76.39-95.82Q92.26-90.04 97.60-74.61L97.60-74.61Q101.61-62.74 101.61-49.25L101.61-49.25Q101.61-35.90 97.75-24.03L97.75-24.03Q93.89-11.87 84.99-6.08L84.99-6.08Q79.36-2.52 72.61-1.26Q65.86 0 52.06 0L52.06 0L10.09 0ZM52.06-81.28L31.15-81.28L31.15-17.65L52.06-17.65Q65.86-17.65 71.20-23.73L71.20-23.73Q74.46-27.59 76.46-34.56Q78.47-41.53 78.47-49.39L78.47-49.39Q78.47-58.15 76.09-65.41Q73.72-72.68 69.86-76.24L69.86-76.24Q64.23-81.28 52.06-81.28L52.06-81.28Z" transform="translate(533.54301 275.74547) skewX(-14)" fill="rgb(36, 221, 127)" stroke="rgb(36, 221, 127)" stroke-linecap="square" stroke-linejoin="square" stroke-width="0.247" data-glyph-w="106.20428000000001" data-glyph-h="148.33" data-glyph-ascender="127.41547000000001" data-glyph-descender="-20.914530000000003"/><path d="M55.03-17.65L85.29-17.65L85.29 0L50.73 0Q40.94 0 35.75-1.04L35.75-1.04Q17.50-4.60 9.79-21.36L9.79-21.36Q4.75-32.63 4.75-49.25L4.75-49.25Q4.75-69.12 12.46-81.58L12.46-81.58Q18.10-90.63 27.52-94.78Q36.93-98.94 51.77-98.94L51.77-98.94L85.29-98.94L85.29-81.28L54.14-81.28Q40.05-81.28 33.52-73.72L33.52-73.72Q28.03-67.49 28.03-51.17L28.03-51.17Q28.03-29.22 36.49-22.40L36.49-22.40Q42.42-17.65 55.03-17.65L55.03-17.65Z" transform="translate(639.74729 275.74547) skewX(-14)" fill="rgb(36, 221, 127)" stroke="rgb(36, 221, 127)" stroke-linecap="square" stroke-linejoin="square" stroke-width="0.247" data-glyph-w="89.88798000000001" data-glyph-h="148.33" data-glyph-ascender="127.41547000000001" data-glyph-descender="-20.914530000000003"/><path d="M33.97-28.18L22.84 0L3.56 0L14.54-28.18L33.97-28.18ZM102.94-28.18L122.37-28.18L133.35 0L113.92 0L102.94-28.18ZM3.11-83.06L3.11-99.83L133.35-106.95L133.35-90.18L77.72-87.07L57.70-74.02L63.93-74.02L70.01-74.02L95.38-74.02L57.70-49.54L101.46-49.54L93.45-61.11L114.81-61.11L133.35-34.41L124.30-34.41L111.99-34.41L84.10-34.41L84.10-16.17Q84.10-12.76 82.77-9.79Q81.43-6.82 79.21-4.60Q76.98-2.37 74.02-1.11Q71.05 0.15 67.79 0.15L67.79 0.15L37.97 0.15L46.13-14.98L55.92-14.98Q57.85-14.98 59.18-16.32Q60.52-17.65 60.52-19.73L60.52-19.73L60.52-34.41L34.41-34.41L3.56-34.41L3.11-34.41L40.79-58.89L34.41-58.89L10.23-58.89L3.11-58.89L43.46-85.29L3.11-83.06Z" transform="translate(729.63527 275.74547) skewX(-14)" fill="rgb(36, 221, 127)" stroke="rgb(36, 221, 127)" stroke-linecap="square" stroke-linejoin="square" stroke-width="0.247" data-glyph-w="136.4636" data-glyph-h="148.33" data-glyph-ascender="127.41547000000001" data-glyph-descender="-20.914530000000003"/><path d="M133.35-96.27L133.35-81.58L81.28-81.58L73.28-62.15L109.91-62.15L106.35-72.68L123.56-72.68L132.90-45.83L115.55-45.83L114.81-47.91L112.43-47.91L112.43-19.28Q112.43-17.21 113.77-15.87Q115.10-14.54 117.18-14.54L117.18-14.54L131.72-14.54L125.19 0.15L107.09 0.15Q101.46 0.15 97.60-3.78Q93.74-7.71 93.74-13.35L93.74-13.35L93.74-47.91L79.95-47.91L70.75 0.15L51.17 0.15L60.37-47.91L45.24-47.91L59.63-81.58L50.14-81.58L50.14-96.27L82.47-96.27L77.58-107.09L101.01-107.09L105.76-96.27L133.35-96.27ZM45.83-20.47L3.11-20.47L20.62-57.26L3.11-57.26L25.07-104.87L48.06-104.87L31.00-70.61L34.41-70.61L45.83-70.61L29.22-33.97L45.83-33.97L45.83-20.47ZM3.11 0.15L3.11-13.35L45.83-13.35L45.83 0.15L3.11 0.15Z" transform="translate(866.09887 275.74547) skewX(-14)" fill="rgb(36, 221, 127)" stroke="rgb(36, 221, 127)" stroke-linecap="square" stroke-linejoin="square" stroke-width="0.247" data-glyph-w="136.4636" data-glyph-h="148.33" data-glyph-ascender="127.41547000000001" data-glyph-descender="-20.914530000000003"/></g></svg></g></g><g id="shape_KGTd7uuhMV" transform="translate(347.2671025430848,206.16363094904892) rotate(0,408.4658659559527,68.28715) scale(1,1)" filter="" style="cursor: move; opacity: 1;"><g><svg xmlns="http://www.w3.org/2000/svg" xmlns:xlink="http://www.w3.org/1999/xlink" version="1.1" width="816.9317319119054" height="136.5743" viewBox="0 0 816.9317319119054 136.5743" data-parent="shape_KGTd7uuhMV"><g data-width="733.3664000000001" transform="translate(39.65, 0)"><path d="M9.71-33.31L9.71-33.31L14.39-31.80Q14.19-31.13 12.89-31.09L12.89-31.09Q11.22-26.57 9.04-22.68L9.04-22.68L10.75-22.05Q10.63-21.49 9.52-21.33L9.52-21.33L9.52 2.18Q9.48 2.34 9.12 2.56Q8.76 2.78 8.21 2.97Q7.65 3.17 7.06 3.17L7.06 3.17L6.46 3.17L6.46-18.60Q4.20-15.38 1.63-13.01L1.63-13.01L1.07-13.40Q6.54-21.29 9.71-33.31ZM23.08-3.85L23.08-3.85L23.47-4.12Q27.48-2.82 28.49-0.97Q29.50 0.87 28.69 1.96Q27.87 3.05 26.37 2.10L26.37 2.10Q26.09 0.56 25.12-1.09Q24.15-2.74 23.08-3.85ZM17.92-27.04L17.92-17.92L25.65-17.92Q25.14-22.80 25.02-27.87L25.02-27.87Q21.49-27.36 17.92-27.04L17.92-27.04ZM37.63-6.50L38.14-6.38L37.51-0.48Q38.94 1.86 38.02 2.62L38.02 2.62Q36.99 3.45 35.55 2.83Q34.10 2.22 32.95 0.99L32.95 0.99Q29.94-2.22 28.23-6.76Q26.53-11.30 25.81-16.73L25.81-16.73L17.92-16.73L17.92-3.33Q21.37-5.11 25.46-7.30L25.46-7.30L25.73-6.78Q25.30-6.38 24.74-5.91L24.74-5.91Q21.57-3.13 16.34 1.11L16.34 1.11Q15.78 2.18 15.19 2.50L15.19 2.50L13.12-1.35Q14.19-1.90 14.51-2.28Q14.83-2.66 14.83-3.29L14.83-3.29L14.83-29.58L19.07-28.19Q22.96-29.18 26.62-30.45Q30.29-31.72 32.63-32.87L32.63-32.87L36.16-29.62Q35.53-29.06 33.98-29.66L33.98-29.66Q31.48-29.06 28.19-28.43L28.19-28.43Q28.03-23.27 28.67-17.92L28.67-17.92L32.28-17.92L34.30-20.58Q34.30-20.58 34.95-20.06Q35.61-19.55 36.46-18.81Q37.31-18.08 38.06-17.37L38.06-17.37Q37.83-16.73 36.99-16.73L36.99-16.73L28.87-16.73Q29.54-12.13 31.01-8.29Q32.47-4.44 34.89-2.18L34.89-2.18Q35.29-1.78 35.55-1.82Q35.80-1.86 36.04-2.38L36.04-2.38Q36.40-3.09 36.83-4.22Q37.27-5.35 37.63-6.50L37.63-6.50Z" transform="translate(0 85.28715) " fill="rgb(36, 221, 127)" stroke="rgb(36, 221, 127)" stroke-linecap="square" stroke-linejoin="square" stroke-width="0.066" data-glyph-w="39.65" data-glyph-h="56.97705" data-glyph-ascender="45.63715" data-glyph-descender="-11.3399"/><path d="M20.58-7.57L25.06-7.57L25.06-27.99Q20.34-27.32 15.58-27.04L15.58-27.04L15.42-27.72Q20.34-28.55 25.24-30.05Q30.13-31.56 33.19-33.07L33.19-33.07L36.64-29.94Q36.04-29.38 34.46-29.98L34.46-29.98Q31.72-29.18 28.11-28.51L28.11-28.51L28.11-19.47L31.24-19.47L33.19-22.12Q33.19-22.12 33.78-21.61Q34.38-21.09 35.17-20.36Q35.96-19.63 36.64-18.95L36.64-18.95Q36.40-18.32 35.57-18.32L35.57-18.32L28.11-18.32L28.11-7.57L32.24-7.57L34.26-10.31Q34.26-10.31 34.89-9.79Q35.53-9.28 36.40-8.52Q37.27-7.77 37.98-7.06L37.98-7.06Q37.79-6.42 36.95-6.42L36.95-6.42L20.86-6.42L19.75-4.72L16.49-6.90Q16.69-7.10 17.01-7.34Q17.33-7.57 17.64-7.77L17.64-7.77L17.64-22.72L22.01-22.24Q21.97-21.37 20.58-21.13L20.58-21.13L20.58-7.57ZM10.82-18.04L12.45-19.75L15.58-17.09Q15.38-16.81 15.05-16.67Q14.71-16.53 14.08-16.49L14.08-16.49Q13.60-13.28 12.67-10.25Q11.74-7.22 10.11-4.48L10.11-4.48Q13.28-2.38 17.84-1.67Q22.40-0.95 28.67-0.95L28.67-0.95Q30.33-0.95 33.35-0.95Q36.36-0.95 38.42-0.99L38.42-0.99L38.42-0.48Q36.48 0.04 36.32 2.10L36.32 2.10L28.39 2.10Q21.61 2.10 16.87 1.09Q12.13 0.08 8.96-2.82L8.96-2.82Q6.38 0.67 1.70 3.13L1.70 3.13L1.31 2.58Q5.39-0.36 7.53-4.32L7.53-4.32Q4.68-7.77 2.89-13.96L2.89-13.96L3.45-14.23Q5.31-8.80 8.33-5.95L8.33-5.95Q10.51-11.02 11.06-16.89L11.06-16.89L7.14-16.89L5.95-15.78L3.17-17.92Q3.73-18.32 4.60-18.60L4.60-18.60Q5.75-20.70 7.08-23.43Q8.41-26.17 9.36-28.39L9.36-28.39L2.22-28.39L1.86-29.54L9.36-29.54L10.98-31.16L14.23-28.23Q13.64-27.72 12.25-27.60L12.25-27.60Q11.38-25.61 10.03-22.94Q8.68-20.26 7.45-18.04L7.45-18.04L10.82-18.04Z" transform="translate(39.65 85.28715) " fill="rgb(36, 221, 127)" stroke="rgb(36, 221, 127)" stroke-linecap="square" stroke-linejoin="square" stroke-width="0.066" data-glyph-w="39.65" data-glyph-h="56.97705" data-glyph-ascender="45.63715" data-glyph-descender="-11.3399"/><path d="M31.24-20.02L31.24-29.06L19.79-29.06L19.79-21.37L19.79-20.02L31.24-20.02ZM31.24-16.49L31.24-18.87L19.75-18.87Q19.67-14.95 18.28-11.02Q16.89-7.10 12.97-4.04L12.97-4.04L12.49-4.48Q14.35-6.90 15.27-9.67Q16.18-12.45 16.43-15.42Q16.69-18.40 16.69-21.33L16.69-21.33L16.69-31.88L20.34-30.21L30.85-30.21L32.47-32.04L36.04-29.30Q35.61-28.79 34.34-28.47L34.34-28.47L34.34-17.37Q34.30-17.25 33.86-17.05Q33.42-16.85 32.83-16.67Q32.24-16.49 31.72-16.49L31.72-16.49L31.24-16.49ZM22.80-16.45L22.80-16.45L23.27-16.77Q31.09-13.12 33.92-9.75Q36.76-6.38 36.28-4.58Q35.80-2.78 33.66-3.85L33.66-3.85Q32.12-6.86 28.96-10.35Q25.81-13.84 22.80-16.45ZM3.69-32.35L3.69-32.35L4.16-32.63Q9.12-30.41 10.53-28.01Q11.93-25.61 11.10-24.33Q10.27-23.04 8.52-24.11L8.52-24.11Q7.93-26.13 6.50-28.39Q5.08-30.65 3.69-32.35ZM10.07-18.32L10.07-18.32L10.07-6.03Q10.19-5.91 10.39-5.71L10.39-5.71Q12.97-2.93 16.55-2.00Q20.14-1.07 25.85-1.07L25.85-1.07Q32.51-1.07 38.46-1.31L38.46-1.31L38.46-0.83Q36.40-0.28 36.16 1.98L36.16 1.98L24.90 1.98Q19.11 1.98 15.74 0.54Q12.37-0.91 9.79-4.52L9.79-4.52Q9.04-5.43 8.49-4.52L8.49-4.52Q8.09-3.96 7.37-3.09L7.37-3.09Q6.50-1.98 5.51-0.65Q4.52 0.67 3.73 1.82L3.73 1.82Q3.96 2.38 3.41 2.78L3.41 2.78L0.83-0.87Q2.38-1.90 4.28-3.29L4.28-3.29Q5.79-4.40 7.06-5.27L7.06-5.27L7.06-18.75L1.47-18.75L1.23-19.94L6.50-19.94L8.25-22.20L12.01-19.07Q11.66-18.60 10.07-18.32Z" transform="translate(79.3 85.28715) " fill="rgb(36, 221, 127)" stroke="rgb(36, 221, 127)" stroke-linecap="square" stroke-linejoin="square" stroke-width="0.066" data-glyph-w="39.65" data-glyph-h="56.97705" data-glyph-ascender="45.63715" data-glyph-descender="-11.3399"/><path d="" transform="translate(118.94999999999999 85.28715) " fill="rgb(36, 221, 127)" stroke="rgb(36, 221, 127)" stroke-linecap="square" stroke-linejoin="square" stroke-width="0.066" data-glyph-w="15.7807" data-glyph-h="39.65" data-glyph-ascender="34.891999999999996" data-glyph-descender="-4.758"/><path d="M15.70-8.68L15.70-4.04L24.03-4.04L24.03-8.68L15.70-8.68ZM27.04-8.25L27.04-8.25L27.04-1.90Q27.00-1.78 26.59-1.57Q26.17-1.35 25.59-1.17Q25.02-0.99 24.50-0.99L24.50-0.99L24.03-0.99L24.03-2.85L15.70-2.85L15.70-1.39Q15.70-1.27 15.32-1.03Q14.95-0.79 14.35-0.61Q13.76-0.44 13.16-0.44L13.16-0.44L12.73-0.44L12.73-11.22L15.90-9.83L23.67-9.83L25.22-11.42L28.55-8.96Q28.35-8.76 27.95-8.54Q27.56-8.33 27.04-8.25ZM8.09-14.12L32.12-14.12L33.66-15.90L37.35-13.16Q36.95-12.69 35.68-12.37L35.68-12.37L35.68-0.79Q35.68 0.36 35.39 1.19Q35.09 2.02 34.10 2.54Q33.11 3.05 31.09 3.25L31.09 3.25Q31.01 1.82 30.25 1.11L30.25 1.11Q29.62 0.36 27.04 0L27.04 0L27.04-0.56Q27.04-0.56 27.62-0.52Q28.19-0.48 29.00-0.44Q29.82-0.40 30.55-0.36Q31.28-0.32 31.64-0.32L31.64-0.32Q32.67-0.32 32.51-1.11L32.51-1.11L32.51-12.97L7.77-12.97L7.77 2.10Q7.77 2.26 7.37 2.52Q6.98 2.78 6.38 2.97Q5.79 3.17 5.15 3.17L5.15 3.17L4.64 3.17L4.64-15.62L8.09-14.12ZM13.60-23.12L13.60-18.52L26.37-18.52L26.37-23.12L13.60-23.12ZM26.88-15.78L26.88-15.78L26.37-15.78L26.37-17.37L13.60-17.37L13.60-16.38Q13.60-16.26 13.18-16.04Q12.77-15.82 12.17-15.64Q11.58-15.46 10.94-15.46L10.94-15.46L10.47-15.46L10.47-25.73L13.80-24.27L25.97-24.27L27.60-26.05L31.20-23.35Q30.81-22.84 29.54-22.52L29.54-22.52L29.54-16.57Q29.50-16.45 29.06-16.28Q28.63-16.10 28.01-15.94Q27.40-15.78 26.88-15.78ZM21.57-28.51L31.48-28.51L33.74-31.28Q33.74-31.28 34.44-30.75Q35.13-30.21 36.08-29.46Q37.03-28.71 37.83-27.99L37.83-27.99Q37.71-27.36 36.80-27.36L36.80-27.36L2.38-27.36L2.06-28.51L19.43-28.51Q18.99-29.82 17.82-31.16Q16.65-32.51 15.38-33.35L15.38-33.35L15.74-33.70Q19.03-33.39 20.52-32.37Q22.01-31.36 22.16-30.25Q22.32-29.14 21.57-28.51L21.57-28.51Z" transform="translate(134.73069999999998 85.28715) " fill="rgb(36, 221, 127)" stroke="rgb(36, 221, 127)" stroke-linecap="square" stroke-linejoin="square" stroke-width="0.066" data-glyph-w="39.65" data-glyph-h="56.97705" data-glyph-ascender="45.63715" data-glyph-descender="-11.3399"/><path d="M9.24-21.09L9.24-10.51L18.08-10.51L18.08-21.09L9.24-21.09ZM21.21-20.50L21.21-20.50L21.21-7.18Q21.17-7.02 20.74-6.80Q20.30-6.58 19.69-6.40Q19.07-6.23 18.56-6.23L18.56-6.23L18.08-6.23L18.08-9.36L9.24-9.36L9.24-5.75Q9.24-5.51 8.45-5.11Q7.65-4.72 6.62-4.72L6.62-4.72L6.15-4.72L6.15-23.63L9.44-22.20L17.72-22.20L19.31-24.03L22.84-21.33Q22.40-20.82 21.21-20.50ZM1.55-30.17L31.80-30.17L34.06-33.03Q34.06-33.03 34.77-32.47Q35.49-31.92 36.44-31.15Q37.39-30.37 38.18-29.66L38.18-29.66Q37.91-29.06 37.11-29.06L37.11-29.06L32.00-29.06L32.00-1.43Q32.00-0.20 31.64 0.77Q31.28 1.74 30.09 2.36Q28.90 2.97 26.57 3.17L26.57 3.17Q26.49 1.63 25.38 0.87L25.38 0.87Q24.35 0.08 20.78-0.44L20.78-0.44L20.78-0.99Q20.78-0.99 21.67-0.93Q22.56-0.87 23.79-0.79Q25.02-0.71 26.13-0.65Q27.24-0.59 27.68-0.59L27.68-0.59Q28.35-0.59 28.57-0.83Q28.79-1.07 28.79-1.59L28.79-1.59L28.79-29.06L1.90-29.06L1.55-30.17Z" transform="translate(174.3807 85.28715) " fill="rgb(36, 221, 127)" stroke="rgb(36, 221, 127)" stroke-linecap="square" stroke-linejoin="square" stroke-width="0.066" data-glyph-w="39.65" data-glyph-h="56.97705" data-glyph-ascender="45.63715" data-glyph-descender="-11.3399"/><path d="M2.30-25.14L18.24-25.14L18.24-28.35L9.95-28.35Q8.21-26.64 6.11-25.53L6.11-25.53L5.71-25.93Q6.90-27.28 7.95-29.20Q9.00-31.13 9.56-32.95L9.56-32.95L14.08-31.92Q14.00-31.60 13.70-31.46Q13.40-31.32 12.69-31.36L12.69-31.36Q11.97-30.45 11.10-29.50L11.10-29.50L18.24-29.50L18.24-33.46L22.80-32.99Q22.72-32.55 22.38-32.26Q22.05-31.96 21.33-31.88L21.33-31.88L21.33-29.50L28.47-29.50L30.41-31.96Q30.41-31.96 31.03-31.48Q31.64-31.01 32.45-30.33Q33.27-29.66 34.02-28.98L34.02-28.98Q33.82-28.35 32.99-28.35L32.99-28.35L21.33-28.35L21.33-25.14L31.88-25.14L33.82-27.48Q33.82-27.48 34.44-27.02Q35.05-26.57 35.88-25.91Q36.72-25.26 37.43-24.62L37.43-24.62Q37.23-23.99 36.40-23.99L36.40-23.99L2.66-23.99L2.30-25.14ZM10.82-20.46L10.82-17.29L28.71-17.29L28.71-20.46L10.82-20.46ZM29.22-14.63L29.22-14.63L28.71-14.63L28.71-16.14L10.82-16.14L10.82-15.03Q10.82-14.91 10.41-14.69Q9.99-14.47 9.38-14.29Q8.76-14.12 8.17-14.12L8.17-14.12L7.69-14.12L7.69-23.00L11.06-21.61L28.31-21.61L29.90-23.31L33.46-20.70Q33.03-20.18 31.84-19.90L31.84-19.90L31.84-15.42Q31.80-15.30 31.36-15.13Q30.93-14.95 30.33-14.79Q29.74-14.63 29.22-14.63ZM3.05-11.93L14.08-11.93L14.08-14.67L18.64-14.19Q18.64-13.36 17.17-13.08L17.17-13.08L17.17 2.34Q17.17 2.50 16.79 2.72Q16.42 2.93 15.82 3.11Q15.23 3.29 14.63 3.29L14.63 3.29L14.08 3.29L14.08-1.86L2.66-1.86L2.30-3.01L14.08-3.01L14.08-6.38L4.72-6.38L4.36-7.53L14.08-7.53L14.08-10.78L3.41-10.78L3.05-11.93ZM25.02-2.93L32.55-2.93L34.46-5.27Q34.46-5.27 35.05-4.82Q35.65-4.36 36.46-3.71Q37.27-3.05 37.95-2.42L37.95-2.42Q37.75-1.78 36.91-1.78L36.91-1.78L25.02-1.78L25.02 2.30Q25.02 2.46 24.64 2.68Q24.27 2.89 23.67 3.07Q23.08 3.25 22.48 3.25L22.48 3.25L21.89 3.25L21.89-14.71L26.49-14.23Q26.49-13.40 25.02-13.12L25.02-13.12L25.02-11.93L31.36-11.93L33.27-14.31Q33.27-14.31 33.86-13.84Q34.46-13.36 35.27-12.71Q36.08-12.05 36.80-11.42L36.80-11.42Q36.56-10.78 35.72-10.78L35.72-10.78L25.02-10.78L25.02-7.49L30.53-7.49L32.28-9.63Q32.28-9.63 32.83-9.22Q33.39-8.80 34.12-8.19Q34.85-7.57 35.53-6.98L35.53-6.98Q35.33-6.34 34.50-6.34L34.50-6.34L25.02-6.34L25.02-2.93Z" transform="translate(214.0307 85.28715) " fill="rgb(36, 221, 127)" stroke="rgb(36, 221, 127)" stroke-linecap="square" stroke-linejoin="square" stroke-width="0.066" data-glyph-w="39.65" data-glyph-h="56.97705" data-glyph-ascender="45.63715" data-glyph-descender="-11.3399"/><path d="" transform="translate(253.6807 85.28715) " fill="rgb(36, 221, 127)" stroke="rgb(36, 221, 127)" stroke-linecap="square" stroke-linejoin="square" stroke-width="0.066" data-glyph-w="15.7807" data-glyph-h="39.65" data-glyph-ascender="34.891999999999996" data-glyph-descender="-4.758"/><path d="M24.70-29.94L24.70-29.94L19.07-29.94L18.75-31.09L33.35-31.09L35.01-32.75L38.22-30.13Q37.83-29.66 36.72-29.54L36.72-29.54Q36.40-20.97 34.38-19.43L34.38-19.43Q32.87-18.36 30.53-18.36L30.53-18.36Q30.53-18.99 30.39-19.55Q30.25-20.10 29.86-20.42L29.86-20.42Q29.46-20.74 28.59-20.99Q27.72-21.25 26.72-21.45L26.72-21.45L26.72-22.09Q27.83-22.01 29.24-21.91Q30.65-21.81 31.16-21.81L31.16-21.81Q31.64-21.81 31.90-21.87Q32.16-21.93 32.35-22.09L32.35-22.09Q33.39-23.12 33.70-29.94L33.70-29.94L28.07-29.94Q27.79-26.41 25.77-22.90Q23.75-19.39 18.24-16.61L18.24-16.61L17.72-17.17Q21.93-20.22 23.27-23.53Q24.62-26.84 24.70-29.94ZM23.71-14.75L23.71-6.62L32.55-6.62L32.55-14.75L23.71-14.75ZM33.07-2.82L33.07-2.82L32.55-2.82L32.55-5.47L23.71-5.47L23.71-3.29Q23.71-3.13 23.31-2.89Q22.92-2.66 22.34-2.46Q21.77-2.26 21.13-2.26L21.13-2.26L20.66-2.26L20.66-17.29L23.91-15.90L32.16-15.90L33.82-17.64L37.35-14.99Q36.91-14.47 35.68-14.19L35.68-14.19L35.68-3.85Q35.65-3.69 35.23-3.45Q34.81-3.21 34.22-3.01Q33.62-2.82 33.07-2.82ZM2.18-19.35L1.86-20.50L9.67-20.50L9.67-26.13L3.33-26.13L3.01-27.28L9.67-27.28L9.67-33.35L14.12-32.91Q14.08-32.12 12.73-31.88L12.73-31.88L12.73-27.28L14.79-27.28L16.61-29.66Q16.61-29.66 17.21-29.18Q17.80-28.71 18.58-28.05Q19.35-27.40 19.98-26.76L19.98-26.76Q19.79-26.13 18.95-26.13L18.95-26.13L12.73-26.13L12.73-20.50L15.30-20.50L17.21-23.00Q17.21-23.00 17.80-22.50Q18.40-22.01 19.19-21.33Q19.98-20.66 20.70-19.98L20.70-19.98Q20.46-19.35 19.63-19.35L19.63-19.35L2.18-19.35ZM18.99-11.10L13.32-11.10L13.32-2.06Q15.15-1.43 17.53-1.21Q19.90-0.99 22.84-0.99L22.84-0.99Q25.49-0.99 30.43-1.03Q35.37-1.07 38.42-1.11L38.42-1.11L38.42-0.59Q36.64-0.04 36.52 1.90L36.52 1.90L22.72 1.90Q18.32 1.90 15.19 1.17Q12.05 0.44 9.91-1.63Q7.77-3.69 6.34-7.57L6.34-7.57Q5.75-4.56 4.58-1.78Q3.41 0.99 1.51 3.13L1.51 3.13L1.03 2.70Q3.01-1.11 3.81-6.32Q4.60-11.54 4.60-16.18L4.60-16.18L8.88-15.30Q8.68-14.43 7.37-14.35L7.37-14.35Q7.14-11.70 6.62-8.88L6.62-8.88Q8.13-5.35 10.39-3.61L10.39-3.61L10.39-18.32L14.59-17.84Q14.51-17.49 14.23-17.23Q13.96-16.97 13.32-16.89L13.32-16.89L13.32-12.25L15.07-12.25L16.85-14.67Q16.85-14.67 17.41-14.19Q17.96-13.72 18.69-13.04Q19.43-12.37 20.02-11.74L20.02-11.74Q19.82-11.10 18.99-11.10L18.99-11.10Z" transform="translate(269.4614 85.28715) " fill="rgb(36, 221, 127)" stroke="rgb(36, 221, 127)" stroke-linecap="square" stroke-linejoin="square" stroke-width="0.066" data-glyph-w="39.65" data-glyph-h="56.97705" data-glyph-ascender="45.63715" data-glyph-descender="-11.3399"/><path d="M15.23-22.80L15.23-22.80L14.79-23.20Q16.77-25.10 18.34-27.89Q19.90-30.69 20.70-33.46L20.70-33.46L25.69-32.43Q25.61-32.12 25.32-31.98Q25.02-31.84 24.31-31.88L24.31-31.88Q23.47-30.41 22.24-28.90L22.24-28.90L29.02-28.90L31.05-30.85L34.50-27.75Q34.26-27.52 33.90-27.44Q33.54-27.36 32.95-27.32L32.95-27.32Q31.80-26.33 30.29-25.10Q28.79-23.87 27.28-22.92L27.28-22.92L31.84-22.92L33.50-24.70L37.07-22.01Q36.64-21.49 35.41-21.17L35.41-21.17L35.41-10.19Q35.37-10.03 34.93-9.81Q34.50-9.60 33.88-9.40Q33.27-9.20 32.71-9.20L32.71-9.20L32.24-9.20L32.24-10.75L16.61-10.75L16.26-11.93L32.24-11.93L32.24-16.38L17.88-16.38L17.53-17.53L32.24-17.53L32.24-21.77L16.93-21.77L16.57-22.92L26.21-22.92Q26.96-23.95 27.66-25.24Q28.35-26.53 28.94-27.64L28.94-27.64Q28.94-27.72 28.98-27.75L28.98-27.75L21.29-27.75Q18.68-24.70 15.23-22.80ZM24.11-10.15L24.11-10.15L24.58-10.43Q28.27-8.64 29.06-6.72Q29.86-4.80 28.96-3.83Q28.07-2.85 26.68-3.93L26.68-3.93Q26.57-5.51 25.79-7.20Q25.02-8.88 24.11-10.15ZM15.34-19.82L10.23-19.82L10.23-17.45Q13.92-15.78 14.77-13.92Q15.62-12.05 14.79-11.08Q13.96-10.11 12.57-11.10L12.57-11.10Q12.01-13.76 10.23-16.26L10.23-16.26L10.23 2.22Q10.23 2.38 9.54 2.78Q8.84 3.17 7.73 3.17L7.73 3.17L7.26 3.17L7.26-12.29Q5.04-7.61 1.47-3.96L1.47-3.96L0.95-4.40Q5.00-11.22 6.54-19.82L6.54-19.82L1.78-19.82L1.47-21.01L7.26-21.01L7.26-28.11Q4.52-27.68 1.86-27.40L1.86-27.40L1.67-27.99Q4.60-28.90 7.63-30.31Q10.67-31.72 12.57-32.87L12.57-32.87L16.22-29.74Q15.62-29.18 14.04-29.70L14.04-29.70Q12.45-29.22 10.23-28.75L10.23-28.75L10.23-21.01L11.30-21.01L13.12-23.39Q13.12-23.39 13.68-22.92Q14.23-22.44 14.99-21.77Q15.74-21.09 16.38-20.46L16.38-20.46Q16.18-19.82 15.34-19.82L15.34-19.82ZM16.02-8.33L16.02-8.33L16.69-8.33Q17.60-5.11 17.05-2.95Q16.49-0.79 15.42 0.16L15.42 0.16Q14.71 0.71 13.88 0.75Q13.04 0.79 12.61 0.16L12.61 0.16Q12.29-0.48 12.59-1.09Q12.89-1.70 13.52-2.14L13.52-2.14Q14.55-2.93 15.30-4.64Q16.06-6.34 16.02-8.33ZM31.96-5.31L32.43-5.31L32.55-0.99Q33.19-0.75 33.42-0.50Q33.66-0.24 33.66 0.20L33.66 0.20Q33.66 1.15 32.29 1.55Q30.93 1.94 26.64 1.94L26.64 1.94L22.76 1.94Q20.46 1.94 19.79 1.39Q19.11 0.83 19.11-0.67L19.11-0.67L19.11-8.88L23.16-8.45Q23.08-7.73 22.01-7.53L22.01-7.53L22.01-1.23Q22.01-0.87 22.24-0.75Q22.48-0.63 23.39-0.63L23.39-0.63L26.80-0.63Q29.14-0.63 29.98-0.67L29.98-0.67Q30.29-0.71 30.45-0.79Q30.61-0.87 30.73-1.11L30.73-1.11Q31.24-2.22 31.96-5.31L31.96-5.31ZM32.39-8.01L32.39-8.01L32.87-8.29Q36.80-6.15 37.71-3.85Q38.62-1.55 37.75-0.34Q36.87 0.87 35.45-0.28L35.45-0.28Q35.45-2.26 34.54-4.38Q33.62-6.50 32.39-8.01Z" transform="translate(309.1114 85.28715) " fill="rgb(36, 221, 127)" stroke="rgb(36, 221, 127)" stroke-linecap="square" stroke-linejoin="square" stroke-width="0.066" data-glyph-w="39.65" data-glyph-h="56.97705" data-glyph-ascender="45.63715" data-glyph-descender="-11.3399"/><path d="M16.69-33.07L16.69-33.07L17.05-33.35Q20.34-32.83 21.65-31.60Q22.96-30.37 22.88-29.16Q22.80-27.95 21.83-27.44Q20.86-26.92 19.59-27.79L19.59-27.79Q19.43-29.22 18.60-30.67Q17.76-32.12 16.69-33.07ZM32.83-25.81L32.83-25.81L7.34-25.81Q7.37-23.79 6.74-22.46Q6.11-21.13 5.11-20.58L5.11-20.58Q4.24-20.02 3.23-20.16Q2.22-20.30 1.78-21.21L1.78-21.21Q1.51-22.05 1.92-22.74Q2.34-23.43 3.17-23.83L3.17-23.83Q4.32-24.46 5.23-25.87Q6.15-27.28 6.07-29.06L6.07-29.06L6.70-29.10Q7.10-27.99 7.22-26.96L7.22-26.96L32.71-26.96L34.61-28.90L38.10-25.57Q37.67-25.22 36.60-25.18L36.60-25.18Q35.72-24.19 34.40-23.14Q33.07-22.09 31.88-21.29L31.88-21.29L31.40-21.61Q31.76-22.48 32.16-23.61Q32.55-24.74 32.83-25.81ZM32.47-10.51L21.41-10.51L21.41-1.07Q24.38-0.71 28.19-0.71L28.19-0.71Q29.94-0.71 33.07-0.73Q36.20-0.75 38.30-0.79L38.30-0.79L38.30-0.24Q36.48 0.28 36.40 2.42L36.40 2.42L27.95 2.42Q23.39 2.42 20.10 1.67Q16.81 0.91 14.49-1.11Q12.17-3.13 10.63-6.94L10.63-6.94Q9.36-3.93 7.18-1.31Q5.00 1.31 1.70 3.25L1.70 3.25L1.27 2.82Q5.19-0.71 7.10-5.55Q9.00-10.39 9.48-15.11L9.48-15.11L14.16-14.16Q13.96-13.32 12.65-13.24L12.65-13.24Q12.13-10.63 11.06-7.97L11.06-7.97Q13.56-3.05 18.24-1.78L18.24-1.78L18.24-19.03L6.66-19.03L6.34-20.18L27.91-20.18L29.98-22.60Q29.98-22.60 30.61-22.12Q31.24-21.65 32.10-20.97Q32.95-20.30 33.74-19.67L33.74-19.67Q33.46-19.03 32.63-19.03L32.63-19.03L21.41-19.03L21.41-11.66L27.79-11.66L29.82-14.19Q29.82-14.19 30.45-13.70Q31.09-13.20 31.94-12.51Q32.79-11.82 33.50-11.14L33.50-11.14Q33.31-10.51 32.47-10.51L32.47-10.51Z" transform="translate(348.7614 85.28715) " fill="rgb(36, 221, 127)" stroke="rgb(36, 221, 127)" stroke-linecap="square" stroke-linejoin="square" stroke-width="0.066" data-glyph-w="39.65" data-glyph-h="56.97705" data-glyph-ascender="45.63715" data-glyph-descender="-11.3399"/><path d="" transform="translate(388.41139999999996 85.28715) " fill="rgb(36, 221, 127)" stroke="rgb(36, 221, 127)" stroke-linecap="square" stroke-linejoin="square" stroke-width="0.066" data-glyph-w="15.7807" data-glyph-h="39.65" data-glyph-ascender="34.891999999999996" data-glyph-descender="-4.758"/><path d="M10.86-17.09L10.86-17.09L12.61-16.42Q16.89-14.75 18.71-12.71Q20.54-10.67 20.54-7.61L20.54-7.61Q20.54-3.77 17.68-1.57Q14.83 0.63 10.31 0.63L10.31 0.63Q7.85 0.63 5.61-0.02Q3.37-0.67 1.86-1.67L1.86-1.67L2.14-7.77L4.36-7.77L5.47-2.34Q7.26-1.27 10.03-1.27L10.03-1.27Q13.20-1.27 15.09-2.66Q16.97-4.04 16.97-6.70L16.97-6.70Q16.97-8.80 15.68-10.05Q14.39-11.30 11.50-12.41L11.50-12.41L9.87-13.08Q6.42-14.43 4.40-16.47Q2.38-18.52 2.38-21.77L2.38-21.77Q2.38-25.53 5.17-27.64Q7.97-29.74 12.05-29.74L12.05-29.74Q14.27-29.74 16.02-29.12Q17.76-28.51 19.19-27.44L19.19-27.44L18.91-21.77L16.65-21.77L15.54-26.96Q14.04-27.83 12.01-27.83L12.01-27.83Q9.40-27.83 7.67-26.55Q5.95-25.26 5.95-22.76L5.95-22.76Q5.95-20.70 7.22-19.35Q8.49-18.00 10.86-17.09Z" transform="translate(404.1921 85.28715) " fill="rgb(36, 221, 127)" stroke="rgb(36, 221, 127)" stroke-linecap="square" stroke-linejoin="square" stroke-width="0.066" data-glyph-w="22.32295" data-glyph-h="56.97705" data-glyph-ascender="45.63715" data-glyph-descender="-11.3399"/><path d="M12.89-27.36L12.89-27.36L10.11-27.36Q10.03-21.53 10.03-15.58L10.03-15.58L10.03-13.36L12.81-13.36Q16.89-13.36 18.66-15.34Q20.42-17.33 20.42-20.46L20.42-20.46Q20.42-23.75 18.60-25.55Q16.77-27.36 12.89-27.36ZM12.33-11.62L12.33-11.62L10.03-11.62Q10.03-6.82 10.11-1.98L10.11-1.98L14.23-1.51L14.23 0L1.94 0L1.94-1.51L5.99-1.94Q6.07-7.61 6.07-13.44L6.07-13.44L6.07-15.58Q6.07-21.41 5.99-27.12L5.99-27.12L1.94-27.56L1.94-29.06L13.60-29.06Q19.07-29.06 21.79-26.70Q24.50-24.35 24.50-20.46L24.50-20.46Q24.50-18.04 23.29-16.04Q22.09-14.04 19.41-12.83Q16.73-11.62 12.33-11.62Z" transform="translate(426.51505 85.28715) " fill="rgb(36, 221, 127)" stroke="rgb(36, 221, 127)" stroke-linecap="square" stroke-linejoin="square" stroke-width="0.066" data-glyph-w="25.57425" data-glyph-h="56.97705" data-glyph-ascender="45.63715" data-glyph-descender="-11.3399"/><path d="M21.25-1.90L22.40-7.73L24.54-7.73L24.31 0L1.94 0L1.94-1.51L5.99-1.94Q6.07-7.61 6.07-13.44L6.07-13.44L6.07-15.58Q6.07-21.41 5.99-27.12L5.99-27.12L1.94-27.56L1.94-29.06L23.47-29.06L23.71-21.41L21.57-21.41L20.42-27.16L10.11-27.16Q10.03-21.57 10.03-15.66L10.03-15.66L16.57-15.66L17.21-19.94L18.99-19.94L18.99-9.71L17.21-9.71L16.61-13.92L10.03-13.92Q10.03-7.49 10.11-1.90L10.11-1.90L21.25-1.90Z" transform="translate(452.0893 85.28715) " fill="rgb(36, 221, 127)" stroke="rgb(36, 221, 127)" stroke-linecap="square" stroke-linejoin="square" stroke-width="0.066" data-glyph-w="26.168999999999997" data-glyph-h="56.97705" data-glyph-ascender="45.63715" data-glyph-descender="-11.3399"/><path d="M21.25-1.90L22.40-7.73L24.54-7.73L24.31 0L1.94 0L1.94-1.51L5.99-1.94Q6.07-7.61 6.07-13.44L6.07-13.44L6.07-15.58Q6.07-21.41 5.99-27.12L5.99-27.12L1.94-27.56L1.94-29.06L23.47-29.06L23.71-21.41L21.57-21.41L20.42-27.16L10.11-27.16Q10.03-21.57 10.03-15.66L10.03-15.66L16.57-15.66L17.21-19.94L18.99-19.94L18.99-9.71L17.21-9.71L16.61-13.92L10.03-13.92Q10.03-7.49 10.11-1.90L10.11-1.90L21.25-1.90Z" transform="translate(478.25829999999996 85.28715) " fill="rgb(36, 221, 127)" stroke="rgb(36, 221, 127)" stroke-linecap="square" stroke-linejoin="square" stroke-width="0.066" data-glyph-w="26.168999999999997" data-glyph-h="56.97705" data-glyph-ascender="45.63715" data-glyph-descender="-11.3399"/><path d="M10.11-1.74L10.11-1.74L13.52-1.74Q18.71-1.74 21.45-5.11Q24.19-8.49 24.19-14.51L24.19-14.51Q24.19-20.78 21.51-24.07Q18.83-27.36 13.88-27.36L13.88-27.36L10.11-27.36Q10.03-21.57 10.03-15.54L10.03-15.54L10.03-14.04Q10.03-7.45 10.11-1.74ZM1.94-27.56L1.94-29.06L14.59-29.06Q20.94-29.06 24.82-25.30Q28.71-21.53 28.71-14.51L28.71-14.51Q28.71-9.87 26.78-6.62Q24.86-3.37 21.49-1.69Q18.12 0 13.80 0L13.80 0L1.94 0L1.94-1.51L5.99-1.94Q6.07-7.45 6.07-14.04L6.07-14.04L6.07-15.54Q6.07-21.37 5.99-27.12L5.99-27.12L1.94-27.56Z" transform="translate(504.42729999999995 85.28715) " fill="rgb(36, 221, 127)" stroke="rgb(36, 221, 127)" stroke-linecap="square" stroke-linejoin="square" stroke-width="0.066" data-glyph-w="30.7684" data-glyph-h="56.97705" data-glyph-ascender="45.63715" data-glyph-descender="-11.3399"/><path d="M11.86-9.63L1.74-9.63L1.74-12.17L11.86-12.17L11.86-9.63Z" transform="translate(535.1957 85.28715) " fill="rgb(36, 221, 127)" stroke="rgb(36, 221, 127)" stroke-linecap="square" stroke-linejoin="square" stroke-width="0.066" data-glyph-w="13.59995" data-glyph-h="56.97705" data-glyph-ascender="45.63715" data-glyph-descender="-11.3399"/><path d="M14.16-29.06L14.16-27.56L10.11-27.12Q10.03-21.41 10.03-15.58L10.03-15.58L10.03-13.44Q10.03-7.73 10.11-1.98L10.11-1.98L14.16-1.51L14.16 0L1.94 0L1.94-1.51L5.99-1.94Q6.07-7.61 6.07-13.44L6.07-13.44L6.07-15.58Q6.07-21.41 5.99-27.12L5.99-27.12L1.94-27.56L1.94-29.06L14.16-29.06Z" transform="translate(548.79565 85.28715) " fill="rgb(36, 221, 127)" stroke="rgb(36, 221, 127)" stroke-linecap="square" stroke-linejoin="square" stroke-width="0.066" data-glyph-w="16.0979" data-glyph-h="56.97705" data-glyph-ascender="45.63715" data-glyph-descender="-11.3399"/><path d="M10.11-1.74L10.11-1.74L13.52-1.74Q18.71-1.74 21.45-5.11Q24.19-8.49 24.19-14.51L24.19-14.51Q24.19-20.78 21.51-24.07Q18.83-27.36 13.88-27.36L13.88-27.36L10.11-27.36Q10.03-21.57 10.03-15.54L10.03-15.54L10.03-14.04Q10.03-7.45 10.11-1.74ZM1.94-27.56L1.94-29.06L14.59-29.06Q20.94-29.06 24.82-25.30Q28.71-21.53 28.71-14.51L28.71-14.51Q28.71-9.87 26.78-6.62Q24.86-3.37 21.49-1.69Q18.12 0 13.80 0L13.80 0L1.94 0L1.94-1.51L5.99-1.94Q6.07-7.45 6.07-14.04L6.07-14.04L6.07-15.54Q6.07-21.37 5.99-27.12L5.99-27.12L1.94-27.56Z" transform="translate(564.89355 85.28715) " fill="rgb(36, 221, 127)" stroke="rgb(36, 221, 127)" stroke-linecap="square" stroke-linejoin="square" stroke-width="0.066" data-glyph-w="30.7684" data-glyph-h="56.97705" data-glyph-ascender="45.63715" data-glyph-descender="-11.3399"/><path d="M22.16-2.34L23.23-7.85L25.61-7.85L25.53-1.47Q21.49 0.63 16.85 0.63L16.85 0.63Q10.27 0.63 6.19-3.57Q2.10-7.77 2.10-14.55L2.10-14.55Q2.10-21.21 6.30-25.48Q10.51-29.74 16.85-29.74L16.85-29.74Q18.71-29.74 20.86-29.28Q23.00-28.83 25.14-27.60L25.14-27.60L25.22-21.21L22.84-21.21L21.77-26.76Q19.55-27.83 17.33-27.83L17.33-27.83Q14.35-27.83 11.91-26.31Q9.48-24.78 8.03-21.83Q6.58-18.87 6.58-14.55L6.58-14.55Q6.58-8.05 9.54-4.66Q12.49-1.27 17.17-1.27L17.17-1.27Q19.63-1.27 22.16-2.34L22.16-2.34Z" transform="translate(595.66195 85.28715) " fill="rgb(36, 221, 127)" stroke="rgb(36, 221, 127)" stroke-linecap="square" stroke-linejoin="square" stroke-width="0.066" data-glyph-w="27.4378" data-glyph-h="56.97705" data-glyph-ascender="45.63715" data-glyph-descender="-11.3399"/><path d="M6.50 0.56L6.50 0.56Q5.27 0.56 4.42-0.32Q3.57-1.19 3.57-2.34L3.57-2.34Q3.57-3.61 4.42-4.48Q5.27-5.35 6.50-5.35L6.50-5.35Q7.77-5.35 8.62-4.48Q9.48-3.61 9.48-2.34L9.48-2.34Q9.48-1.19 8.62-0.32Q7.77 0.56 6.50 0.56Z" transform="translate(623.0997500000001 85.28715) " fill="rgb(36, 221, 127)" stroke="rgb(36, 221, 127)" stroke-linecap="square" stroke-linejoin="square" stroke-width="0.066" data-glyph-w="13.044849999999999" data-glyph-h="56.97705" data-glyph-ascender="45.63715" data-glyph-descender="-11.3399"/><path d="M22.16-2.34L23.23-7.85L25.61-7.85L25.53-1.47Q21.49 0.63 16.85 0.63L16.85 0.63Q10.27 0.63 6.19-3.57Q2.10-7.77 2.10-14.55L2.10-14.55Q2.10-21.21 6.30-25.48Q10.51-29.74 16.85-29.74L16.85-29.74Q18.71-29.74 20.86-29.28Q23.00-28.83 25.14-27.60L25.14-27.60L25.22-21.21L22.84-21.21L21.77-26.76Q19.55-27.83 17.33-27.83L17.33-27.83Q14.35-27.83 11.91-26.31Q9.48-24.78 8.03-21.83Q6.58-18.87 6.58-14.55L6.58-14.55Q6.58-8.05 9.54-4.66Q12.49-1.27 17.17-1.27L17.17-1.27Q19.63-1.27 22.16-2.34L22.16-2.34Z" transform="translate(636.1446000000001 85.28715) " fill="rgb(36, 221, 127)" stroke="rgb(36, 221, 127)" stroke-linecap="square" stroke-linejoin="square" stroke-width="0.066" data-glyph-w="27.4378" data-glyph-h="56.97705" data-glyph-ascender="45.63715" data-glyph-descender="-11.3399"/><path d="M6.58-14.55L6.58-14.55Q6.58-11.14 7.51-8.09Q8.45-5.04 10.41-3.13Q12.37-1.23 15.38-1.23L15.38-1.23Q18.40-1.23 20.32-3.13Q22.24-5.04 23.16-8.09Q24.07-11.14 24.07-14.55L24.07-14.55Q24.07-17.96 23.16-20.99Q22.24-24.03 20.32-25.93Q18.40-27.83 15.38-27.83L15.38-27.83Q12.37-27.83 10.41-25.93Q8.45-24.03 7.51-20.99Q6.58-17.96 6.58-14.55ZM15.38-29.74L15.38-29.74Q18.75-29.74 21.77-27.97Q24.78-26.21 26.68-22.84Q28.59-19.47 28.59-14.55L28.59-14.55Q28.59-9.79 26.70-6.38Q24.82-2.97 21.81-1.17Q18.79 0.63 15.38 0.63L15.38 0.63Q11.97 0.63 8.92-1.11Q5.87-2.85 3.98-6.24Q2.10-9.63 2.10-14.55L2.10-14.55Q2.10-19.31 4.00-22.72Q5.91-26.13 8.94-27.93Q11.97-29.74 15.38-29.74Z" transform="translate(663.5824000000001 85.28715) " fill="rgb(36, 221, 127)" stroke="rgb(36, 221, 127)" stroke-linecap="square" stroke-linejoin="square" stroke-width="0.066" data-glyph-w="30.649449999999998" data-glyph-h="56.97705" data-glyph-ascender="45.63715" data-glyph-descender="-11.3399"/><path d="M37.15-29.06L37.15-27.56L33.11-27.12Q33.03-21.41 33.03-15.58L33.03-15.58L33.03-13.44Q33.03-7.73 33.11-1.94L33.11-1.94L37.11-1.51L37.11 0L25.30 0L25.30-1.51L29.06-1.94Q29.14-7.61 29.14-13.32L29.14-13.32L29.18-24.98L19.39 0L17.53 0L7.37-24.90Q7.41-22.84 7.47-20.72Q7.53-18.60 7.57-17.17L7.57-17.17Q7.61-15.90 7.61-15.82L7.61-15.82L7.61-2.06L11.38-1.51L11.38 0L1.67 0L1.67-1.51L5.59-2.06L5.63-27.08L1.67-27.56L1.67-29.06L9.60-29.06L19.39-4.96L28.79-29.06L37.15-29.06Z" transform="translate(694.2318500000001 85.28715) " fill="rgb(36, 221, 127)" stroke="rgb(36, 221, 127)" stroke-linecap="square" stroke-linejoin="square" stroke-width="0.066" data-glyph-w="39.13455" data-glyph-h="56.97705" data-glyph-ascender="45.63715" data-glyph-descender="-11.3399"/></g></svg></g></g>  <!----></svg>
