<?xml version="1.0"?>
<svg xmlns="http://www.w3.org/2000/svg" xmlns:xlink="http://www.w3.org/1999/xlink" data-noselect="" viewBox="0 0 853.9370078740158 181.4173228346457" width="225.9375" height="48" preserveAspectRatio="none" version="1.1"><defs/> <g id="background" data-noselect=""><!----> <!----></g> <g id="shape_AjwXCJgVSQ" transform="translate(4.084073270946391,2.480698525036644) rotate(0,220.72370117854243,87.88284476204029) scale(1,1)" filter="" style="cursor: move; opacity: 1;"><g><svg xmlns="http://www.w3.org/2000/svg" xmlns:xlink="http://www.w3.org/1999/xlink" version="1.1" id="&#x56FE;&#x5C42;_1" x="0px" y="0px" width="441.44740235708485" height="175.76568952408059" viewBox="10.189589500427246 43.904483795166016 179.6204071044922 112.19052124023438" enable-background="new 0 0 200 200" xml:space="preserve" preserveAspectRatio="none" class="style-removed" data-parent="shape_AjwXCJgVSQ">
<g>
	<path fill="#246fdd" d="M106.321,89.494c0,0,21.712-23.689,49.111-19.623c20.564,3.052,29.926,14.137,34.378,20.14H176.37   c0,0-9.943-9.084-23.78-10.899C140.013,77.462,129.843,78.121,106.321,89.494z"/>
	<path fill="#246fdd" d="M147.161,71.716c0,0-5.801-22.574-33.028-27.054S61.92,55.92,43.31,82.687l22.517-4.021   c0,0,19.354-29.195,47.101-24.24c16.083,2.872,24.699,10.109,27.916,18.496L147.161,71.716z"/>
	<path fill="#246fdd" d="M62.38,83.893c0,0-46.698,7.782-51.696,38.255c-4.136,25.216,18.611,33.947,33.43,33.947   c18.036,0,112.698,0,112.698,0l1.206-5.687c0,0-71.397,0.324-101.38,0c-15.968-0.172-28.147-4.996-28.147-22.574   c0-14.992,12.867-26.502,29.065-32.034L62.38,83.893z"/>
</g>
</svg></g></g><g id="shape_W7YDZ35Q8m" transform="translate(-7.4170391836713065,-50.65574195088278) rotate(0,487.04278958940245,162.40213) scale(1,1)" filter="" style="cursor: move; opacity: 1;"><g><svg xmlns="http://www.w3.org/2000/svg" xmlns:xlink="http://www.w3.org/1999/xlink" version="1.1" width="974.0855791788049" height="324.80426" viewBox="0 0 974.0855791788049 324.80426" data-parent="shape_W7YDZ35Q8m"><g data-width="730.44513" transform="translate(108.07, 0)"><path d="M43.23 0L7.02 0L7.02-12.86L39.99-12.86Q47.88-12.86 50.47-14.37L50.47-14.37Q54.25-16.64 54.25-21.18L54.25-21.18Q54.25-26.48 49.82-28.85L49.82-28.85Q47.33-30.26 41.82-30.26L41.82-30.26L28.42-30.26Q16.21-30.26 10.81-34.69L10.81-34.69Q7.46-37.50 5.57-41.72Q3.67-45.93 3.67-50.79L3.67-50.79Q3.67-58.36 8.11-64.63L8.11-64.63Q12.43-70.68 21.94-71.76L21.94-71.76Q25.18-72.08 31.56-72.08L31.56-72.08L67.33-72.08L67.33-59.22L35.01-59.22Q27.77-59.11 25.40-58.57L25.40-58.57Q20.53-57.39 20.53-51.23L20.53-51.23Q20.53-46.04 24.64-44.31L24.64-44.31Q27.34-43.01 33.72-43.01L33.72-43.01L45.28-43.01Q54.14-43.01 58.47-41.50L58.47-41.50Q66.14-38.91 69.06-32.42L69.06-32.42Q71.33-27.23 71.33-21.29L71.33-21.29Q71.33-14.70 68.30-9.51L68.30-9.51Q64.09-2.16 55.66-0.65L55.66-0.65Q51.55 0 43.23 0L43.23 0Z" transform="translate(0 200.90213) skewX(-14)" fill="#246FDD" stroke="#246FDD" stroke-linecap="square" stroke-linejoin="square" stroke-width="0.18" data-glyph-w="75.10865" data-glyph-h="108.07" data-glyph-ascender="92.83213" data-glyph-descender="-15.23787"/><path d="M47.33-25.18L22.69-25.18L22.69 0L7.35 0L7.35-72.08L43.34-72.08Q53.17-72.08 57.39-70.68L57.39-70.68Q64.52-68.30 68.62-60.84L68.62-60.84Q71.65-55.22 71.65-48.63L71.65-48.63Q71.65-43.12 69.65-38.20Q67.65-33.29 64.09-30.15L64.09-30.15Q60.84-27.34 57.22-26.26Q53.60-25.18 47.33-25.18L47.33-25.18ZM22.69-59.22L22.69-38.04L43.55-38.04Q49.17-38.04 51.44-39.77L51.44-39.77Q54.79-42.47 54.79-49.17L54.79-49.17Q54.79-56.41 49.71-58.47L49.71-58.47Q47.88-59.22 43.88-59.22L43.88-59.22L22.69-59.22Z" transform="translate(75.10865 200.90213) skewX(-14)" fill="#246FDD" stroke="#246FDD" stroke-linecap="square" stroke-linejoin="square" stroke-width="0.18" data-glyph-w="74.02795" data-glyph-h="108.07" data-glyph-ascender="92.83213" data-glyph-descender="-15.23787"/><path d="M35.56-72.08L61.38-72.08L61.38-59.22L41.39-59.22Q33.61-59.22 30.04-58.14Q26.48-57.06 24.10-53.93L24.10-53.93Q22.48-51.77 21.88-49.60Q21.29-47.44 20.86-42.26L20.86-42.26L61.38-42.26L61.38-29.40L20.86-29.40Q21.72-20.10 26.37-16.48Q31.02-12.86 42.15-12.86L42.15-12.86L61.38-12.86L61.38 0L41.39 0Q33.29 0 27.13-0.97L27.13-0.97Q17.40-2.59 11.67-9.51L11.67-9.51Q3.46-19.45 3.46-36.42L3.46-36.42Q3.46-55.22 15.02-65.71L15.02-65.71Q19.02-69.27 23.51-70.68Q27.99-72.08 35.56-72.08L35.56-72.08Z" transform="translate(149.1366 200.90213) skewX(-14)" fill="#246FDD" stroke="#246FDD" stroke-linecap="square" stroke-linejoin="square" stroke-width="0.18" data-glyph-w="66.13884" data-glyph-h="108.07" data-glyph-ascender="92.83213" data-glyph-descender="-15.23787"/><path d="M35.56-72.08L61.38-72.08L61.38-59.22L41.39-59.22Q33.61-59.22 30.04-58.14Q26.48-57.06 24.10-53.93L24.10-53.93Q22.48-51.77 21.88-49.60Q21.29-47.44 20.86-42.26L20.86-42.26L61.38-42.26L61.38-29.40L20.86-29.40Q21.72-20.10 26.37-16.48Q31.02-12.86 42.15-12.86L42.15-12.86L61.38-12.86L61.38 0L41.39 0Q33.29 0 27.13-0.97L27.13-0.97Q17.40-2.59 11.67-9.51L11.67-9.51Q3.46-19.45 3.46-36.42L3.46-36.42Q3.46-55.22 15.02-65.71L15.02-65.71Q19.02-69.27 23.51-70.68Q27.99-72.08 35.56-72.08L35.56-72.08Z" transform="translate(215.27544 200.90213) skewX(-14)" fill="#246FDD" stroke="#246FDD" stroke-linecap="square" stroke-linejoin="square" stroke-width="0.18" data-glyph-w="66.13884" data-glyph-h="108.07" data-glyph-ascender="92.83213" data-glyph-descender="-15.23787"/><path d="M7.35 0L7.35-72.08L37.93-72.08Q49.39-72.08 55.66-69.81L55.66-69.81Q67.22-65.60 71.11-54.36L71.11-54.36Q74.03-45.71 74.03-35.88L74.03-35.88Q74.03-26.15 71.22-17.51L71.22-17.51Q68.41-8.65 61.92-4.43L61.92-4.43Q57.82-1.84 52.90-0.92Q47.98 0 37.93 0L37.93 0L7.35 0ZM37.93-59.22L22.69-59.22L22.69-12.86L37.93-12.86Q47.98-12.86 51.87-17.29L51.87-17.29Q54.25-20.10 55.71-25.18Q57.17-30.26 57.17-35.99L57.17-35.99Q57.17-42.36 55.44-47.66Q53.71-52.95 50.90-55.55L50.90-55.55Q46.79-59.22 37.93-59.22L37.93-59.22Z" transform="translate(281.41428 200.90213) skewX(-14)" fill="#246FDD" stroke="#246FDD" stroke-linecap="square" stroke-linejoin="square" stroke-width="0.18" data-glyph-w="77.37812" data-glyph-h="108.07" data-glyph-ascender="92.83213" data-glyph-descender="-15.23787"/><path d="M22.69 0L7.35 0L7.35-72.08L22.69-72.08L22.69 0Z" transform="translate(358.79240000000004 200.90213) skewX(-14)" fill="#246FDD" stroke="#246FDD" stroke-linecap="square" stroke-linejoin="square" stroke-width="0.18" data-glyph-w="29.935389999999998" data-glyph-h="108.07" data-glyph-ascender="92.83213" data-glyph-descender="-15.23787"/><path d="M7.35 0L7.35-72.08L37.93-72.08Q49.39-72.08 55.66-69.81L55.66-69.81Q67.22-65.60 71.11-54.36L71.11-54.36Q74.03-45.71 74.03-35.88L74.03-35.88Q74.03-26.15 71.22-17.51L71.22-17.51Q68.41-8.65 61.92-4.43L61.92-4.43Q57.82-1.84 52.90-0.92Q47.98 0 37.93 0L37.93 0L7.35 0ZM37.93-59.22L22.69-59.22L22.69-12.86L37.93-12.86Q47.98-12.86 51.87-17.29L51.87-17.29Q54.25-20.10 55.71-25.18Q57.17-30.26 57.17-35.99L57.17-35.99Q57.17-42.36 55.44-47.66Q53.71-52.95 50.90-55.55L50.90-55.55Q46.79-59.22 37.93-59.22L37.93-59.22Z" transform="translate(388.72779 200.90213) skewX(-14)" fill="#246FDD" stroke="#246FDD" stroke-linecap="square" stroke-linejoin="square" stroke-width="0.18" data-glyph-w="77.37812" data-glyph-h="108.07" data-glyph-ascender="92.83213" data-glyph-descender="-15.23787"/><path d="M40.09-12.86L62.14-12.86L62.14 0L36.96 0Q29.83 0 26.04-0.76L26.04-0.76Q12.75-3.35 7.13-15.56L7.13-15.56Q3.46-23.78 3.46-35.88L3.46-35.88Q3.46-50.36 9.08-59.44L9.08-59.44Q13.18-66.03 20.05-69.06Q26.91-72.08 37.72-72.08L37.72-72.08L62.14-72.08L62.14-59.22L39.45-59.22Q29.18-59.22 24.42-53.71L24.42-53.71Q20.43-49.17 20.43-37.28L20.43-37.28Q20.43-21.29 26.59-16.32L26.59-16.32Q30.91-12.86 40.09-12.86L40.09-12.86Z" transform="translate(466.10591 200.90213) skewX(-14)" fill="#246FDD" stroke="#246FDD" stroke-linecap="square" stroke-linejoin="square" stroke-width="0.18" data-glyph-w="65.49042" data-glyph-h="108.07" data-glyph-ascender="92.83213" data-glyph-descender="-15.23787"/><path d="M24.75-20.53L16.64 0L2.59 0L10.59-20.53L24.75-20.53ZM75.00-20.53L89.16-20.53L97.15 0L83.00 0L75.00-20.53ZM2.27-60.52L2.27-72.73L97.15-77.92L97.15-65.71L56.63-63.44L42.04-53.93L46.58-53.93L51.01-53.93L69.49-53.93L42.04-36.10L73.92-36.10L68.08-44.52L83.65-44.52L97.15-25.07L90.56-25.07L81.59-25.07L61.28-25.07L61.28-11.78Q61.28-9.29 60.30-7.13Q59.33-4.97 57.71-3.35Q56.09-1.73 53.93-0.81Q51.77 0.11 49.39 0.11L49.39 0.11L27.67 0.11L33.61-10.92L40.74-10.92Q42.15-10.92 43.12-11.89Q44.09-12.86 44.09-14.37L44.09-14.37L44.09-25.07L25.07-25.07L2.59-25.07L2.27-25.07L29.72-42.90L25.07-42.90L7.46-42.90L2.27-42.90L31.66-62.14L2.27-60.52Z" transform="translate(531.59633 200.90213) skewX(-14)" fill="#246FDD" stroke="#246FDD" stroke-linecap="square" stroke-linejoin="square" stroke-width="0.18" data-glyph-w="99.4244" data-glyph-h="108.07" data-glyph-ascender="92.83213" data-glyph-descender="-15.23787"/><path d="M97.15-70.14L97.15-59.44L59.22-59.44L53.39-45.28L80.08-45.28L77.49-52.95L90.02-52.95L96.83-33.39L84.19-33.39L83.65-34.91L81.92-34.91L81.92-14.05Q81.92-12.54 82.89-11.56Q83.86-10.59 85.38-10.59L85.38-10.59L95.97-10.59L91.21 0.11L78.03 0.11Q73.92 0.11 71.11-2.76Q68.30-5.62 68.30-9.73L68.30-9.73L68.30-34.91L58.25-34.91L51.55 0.11L37.28 0.11L43.98-34.91L32.96-34.91L43.44-59.44L36.53-59.44L36.53-70.14L60.09-70.14L56.52-78.03L73.60-78.03L77.05-70.14L97.15-70.14ZM33.39-14.91L2.27-14.91L15.02-41.72L2.27-41.72L18.26-76.41L35.01-76.41L22.59-51.44L25.07-51.44L33.39-51.44L21.29-24.75L33.39-24.75L33.39-14.91ZM2.27 0.11L2.27-9.73L33.39-9.73L33.39 0.11L2.27 0.11Z" transform="translate(631.02073 200.90213) skewX(-14)" fill="#246FDD" stroke="#246FDD" stroke-linecap="square" stroke-linejoin="square" stroke-width="0.18" data-glyph-w="99.4244" data-glyph-h="108.07" data-glyph-ascender="92.83213" data-glyph-descender="-15.23787"/></g></svg></g></g><g id="shape_KGTd7uuhMV" transform="translate(347.40178815427214,123.68993996651906) rotate(0,295.68602963389674,44.28597) scale(1,1)" filter="" style="cursor: move; opacity: 1;"><g><svg xmlns="http://www.w3.org/2000/svg" xmlns:xlink="http://www.w3.org/1999/xlink" version="1.1" width="591.3720592677935" height="88.57194" viewBox="0 0 591.3720592677935 88.57194" data-parent="shape_KGTd7uuhMV"><g data-width="471.09312000000006" transform="translate(25.47, 0)"><path d="M6.24-21.39L6.24-21.39L9.25-20.43Q9.12-19.99 8.28-19.97L8.28-19.97Q7.21-17.06 5.81-14.57L5.81-14.57L6.90-14.16Q6.83-13.80 6.11-13.70L6.11-13.70L6.11 1.40Q6.09 1.50 5.86 1.64Q5.63 1.78 5.27 1.91Q4.92 2.04 4.53 2.04L4.53 2.04L4.15 2.04L4.15-11.95Q2.70-9.88 1.04-8.35L1.04-8.35L0.69-8.61Q4.20-13.68 6.24-21.39ZM14.82-2.47L14.82-2.47L15.08-2.65Q17.65-1.81 18.30-0.62Q18.95 0.56 18.43 1.26Q17.91 1.96 16.94 1.35L16.94 1.35Q16.76 0.36 16.14-0.70Q15.51-1.76 14.82-2.47ZM11.51-17.37L11.51-11.51L16.48-11.51Q16.15-14.65 16.07-17.91L16.07-17.91Q13.80-17.57 11.51-17.37L11.51-17.37ZM24.17-4.18L24.50-4.10L24.09-0.31Q25.01 1.20 24.43 1.68L24.43 1.68Q23.76 2.22 22.83 1.82Q21.90 1.43 21.17 0.64L21.17 0.64Q19.23-1.43 18.13-4.34Q17.04-7.26 16.58-10.75L16.58-10.75L11.51-10.75L11.51-2.14Q13.73-3.29 16.35-4.69L16.35-4.69L16.53-4.36Q16.25-4.10 15.89-3.80L15.89-3.80Q13.86-2.01 10.49 0.71L10.49 0.71Q10.14 1.40 9.76 1.60L9.76 1.60L8.43-0.87Q9.12-1.22 9.32-1.46Q9.53-1.71 9.53-2.11L9.53-2.11L9.53-19.00L12.25-18.11Q14.75-18.75 17.10-19.56Q19.46-20.38 20.96-21.11L20.96-21.11L23.23-19.03Q22.82-18.67 21.83-19.05L21.83-19.05Q20.22-18.67 18.11-18.26L18.11-18.26Q18.01-14.95 18.41-11.51L18.41-11.51L20.73-11.51L22.03-13.22Q22.03-13.22 22.45-12.89Q22.87-12.56 23.42-12.09Q23.97-11.61 24.45-11.16L24.45-11.16Q24.30-10.75 23.76-10.75L23.76-10.75L18.54-10.75Q18.98-7.79 19.92-5.32Q20.86-2.85 22.41-1.40L22.41-1.40Q22.67-1.15 22.83-1.17Q23.00-1.20 23.15-1.53L23.15-1.53Q23.38-1.99 23.66-2.71Q23.94-3.44 24.17-4.18L24.17-4.18Z" transform="translate(0 54.78597) " fill="#246fdd" stroke="#246fdd" stroke-linecap="square" stroke-linejoin="square" stroke-width="0.042" data-glyph-w="25.47" data-glyph-h="36.60039" data-glyph-ascender="29.31597" data-glyph-descender="-7.28442"/><path d="M13.22-4.86L16.10-4.86L16.10-17.98Q13.07-17.55 10.01-17.37L10.01-17.37L9.91-17.80Q13.07-18.34 16.21-19.31Q19.36-20.27 21.32-21.24L21.32-21.24L23.53-19.23Q23.15-18.87 22.13-19.26L22.13-19.26Q20.38-18.75 18.06-18.31L18.06-18.31L18.06-12.51L20.07-12.51L21.32-14.21Q21.32-14.21 21.70-13.88Q22.08-13.55 22.59-13.08Q23.10-12.61 23.53-12.17L23.53-12.17Q23.38-11.77 22.85-11.77L22.85-11.77L18.06-11.77L18.06-4.86L20.71-4.86L22.01-6.62Q22.01-6.62 22.41-6.29Q22.82-5.96 23.38-5.48Q23.94-4.99 24.40-4.53L24.40-4.53Q24.27-4.13 23.74-4.13L23.74-4.13L13.40-4.13L12.68-3.03L10.60-4.43Q10.72-4.56 10.93-4.71Q11.13-4.86 11.33-4.99L11.33-4.99L11.33-14.59L14.14-14.29Q14.11-13.73 13.22-13.58L13.22-13.58L13.22-4.86ZM6.95-11.59L8.00-12.68L10.01-10.98Q9.88-10.80 9.67-10.71Q9.45-10.62 9.04-10.60L9.04-10.60Q8.74-8.53 8.14-6.58Q7.54-4.64 6.49-2.88L6.49-2.88Q8.53-1.53 11.46-1.07Q14.39-0.61 18.41-0.61L18.41-0.61Q19.48-0.61 21.42-0.61Q23.36-0.61 24.68-0.64L24.68-0.64L24.68-0.31Q23.43 0.03 23.33 1.35L23.33 1.35L18.24 1.35Q13.88 1.35 10.84 0.70Q7.79 0.05 5.76-1.81L5.76-1.81Q4.10 0.43 1.10 2.01L1.10 2.01L0.84 1.66Q3.46-0.23 4.84-2.78L4.84-2.78Q3.01-4.99 1.86-8.97L1.86-8.97L2.22-9.14Q3.41-5.65 5.35-3.82L5.35-3.82Q6.75-7.08 7.11-10.85L7.11-10.85L4.58-10.85L3.82-10.14L2.04-11.51Q2.39-11.77 2.95-11.95L2.95-11.95Q3.69-13.30 4.55-15.05Q5.40-16.81 6.01-18.24L6.01-18.24L1.43-18.24L1.20-18.98L6.01-18.98L7.06-20.02L9.14-18.13Q8.76-17.80 7.87-17.73L7.87-17.73Q7.31-16.45 6.44-14.73Q5.58-13.02 4.79-11.59L4.79-11.59L6.95-11.59Z" transform="translate(25.47 54.78597) " fill="#246fdd" stroke="#246fdd" stroke-linecap="square" stroke-linejoin="square" stroke-width="0.042" data-glyph-w="25.47" data-glyph-h="36.60039" data-glyph-ascender="29.31597" data-glyph-descender="-7.28442"/><path d="M20.07-12.86L20.07-18.67L12.71-18.67L12.71-13.73L12.71-12.86L20.07-12.86ZM20.07-10.60L20.07-12.12L12.68-12.12Q12.63-9.60 11.74-7.08Q10.85-4.56 8.33-2.60L8.33-2.60L8.02-2.88Q9.22-4.43 9.81-6.21Q10.39-8.00 10.56-9.91Q10.72-11.82 10.72-13.70L10.72-13.70L10.72-20.48L13.07-19.41L19.82-19.41L20.86-20.58L23.15-18.82Q22.87-18.49 22.06-18.29L22.06-18.29L22.06-11.16Q22.03-11.08 21.75-10.95Q21.47-10.82 21.09-10.71Q20.71-10.60 20.38-10.60L20.38-10.60L20.07-10.60ZM14.65-10.57L14.65-10.57L14.95-10.77Q19.97-8.43 21.79-6.27Q23.61-4.10 23.31-2.94Q23.00-1.78 21.62-2.47L21.62-2.47Q20.63-4.41 18.61-6.65Q16.58-8.89 14.65-10.57ZM2.37-20.78L2.37-20.78L2.67-20.96Q5.86-19.54 6.76-17.99Q7.67-16.45 7.13-15.63Q6.60-14.80 5.48-15.49L5.48-15.49Q5.09-16.78 4.18-18.24Q3.26-19.69 2.37-20.78ZM6.47-11.77L6.47-11.77L6.47-3.87Q6.55-3.80 6.67-3.67L6.67-3.67Q8.33-1.88 10.63-1.29Q12.94-0.69 16.61-0.69L16.61-0.69Q20.89-0.69 24.71-0.84L24.71-0.84L24.71-0.53Q23.38-0.18 23.23 1.27L23.23 1.27L16.00 1.27Q12.28 1.27 10.11 0.34Q7.95-0.59 6.29-2.90L6.29-2.90Q5.81-3.49 5.45-2.90L5.45-2.90Q5.20-2.55 4.74-1.99L4.74-1.99Q4.18-1.27 3.54-0.42Q2.90 0.43 2.39 1.17L2.39 1.17Q2.55 1.53 2.19 1.78L2.19 1.78L0.53-0.56Q1.53-1.22 2.75-2.11L2.75-2.11Q3.72-2.83 4.53-3.39L4.53-3.39L4.53-12.05L0.94-12.05L0.79-12.81L4.18-12.81L5.30-14.26L7.72-12.25Q7.49-11.95 6.47-11.77Z" transform="translate(50.94 54.78597) " fill="#246fdd" stroke="#246fdd" stroke-linecap="square" stroke-linejoin="square" stroke-width="0.042" data-glyph-w="25.47" data-glyph-h="36.60039" data-glyph-ascender="29.31597" data-glyph-descender="-7.28442"/><path d="" transform="translate(76.41 54.78597) " fill="#246fdd" stroke="#246fdd" stroke-linecap="square" stroke-linejoin="square" stroke-width="0.042" data-glyph-w="10.13706" data-glyph-h="25.47" data-glyph-ascender="22.4136" data-glyph-descender="-3.0564"/><path d="M10.09-5.58L10.09-2.60L15.43-2.60L15.43-5.58L10.09-5.58ZM17.37-5.30L17.37-5.30L17.37-1.22Q17.35-1.15 17.08-1.01Q16.81-0.87 16.44-0.75Q16.07-0.64 15.74-0.64L15.74-0.64L15.43-0.64L15.43-1.83L10.09-1.83L10.09-0.89Q10.09-0.82 9.84-0.66Q9.60-0.51 9.22-0.39Q8.84-0.28 8.46-0.28L8.46-0.28L8.18-0.28L8.18-7.21L10.21-6.32L15.21-6.32L16.20-7.34L18.34-5.76Q18.21-5.63 17.96-5.49Q17.70-5.35 17.37-5.30ZM5.20-9.07L20.63-9.07L21.62-10.21L23.99-8.46Q23.74-8.15 22.92-7.95L22.92-7.95L22.92-0.51Q22.92 0.23 22.73 0.76Q22.54 1.30 21.90 1.63Q21.27 1.96 19.97 2.09L19.97 2.09Q19.92 1.17 19.43 0.71L19.43 0.71Q19.03 0.23 17.37 0L17.37 0L17.37-0.36Q17.37-0.36 17.74-0.33Q18.11-0.31 18.63-0.28Q19.15-0.25 19.62-0.23Q20.10-0.20 20.33-0.20L20.33-0.20Q20.99-0.20 20.89-0.71L20.89-0.71L20.89-8.33L4.99-8.33L4.99 1.35Q4.99 1.45 4.74 1.62Q4.48 1.78 4.10 1.91Q3.72 2.04 3.31 2.04L3.31 2.04L2.98 2.04L2.98-10.04L5.20-9.07ZM8.74-14.85L8.74-11.89L16.94-11.89L16.94-14.85L8.74-14.85ZM17.27-10.14L17.27-10.14L16.94-10.14L16.94-11.16L8.74-11.16L8.74-10.52Q8.74-10.44 8.47-10.30Q8.20-10.16 7.82-10.05Q7.44-9.93 7.03-9.93L7.03-9.93L6.72-9.93L6.72-16.53L8.86-15.59L16.68-15.59L17.73-16.73L20.04-15.00Q19.79-14.67 18.98-14.47L18.98-14.47L18.98-10.65Q18.95-10.57 18.67-10.46Q18.39-10.34 17.99-10.24Q17.60-10.14 17.27-10.14ZM13.86-18.31L20.22-18.31L21.67-20.10Q21.67-20.10 22.12-19.75Q22.57-19.41 23.18-18.92Q23.79-18.44 24.30-17.98L24.30-17.98Q24.22-17.57 23.64-17.57L23.64-17.57L1.53-17.57L1.32-18.31L12.48-18.31Q12.20-19.15 11.45-20.02Q10.70-20.89 9.88-21.42L9.88-21.42L10.11-21.65Q12.23-21.45 13.18-20.80Q14.14-20.15 14.24-19.43Q14.34-18.72 13.86-18.31L13.86-18.31Z" transform="translate(86.54706 54.78597) " fill="#246fdd" stroke="#246fdd" stroke-linecap="square" stroke-linejoin="square" stroke-width="0.042" data-glyph-w="25.47" data-glyph-h="36.60039" data-glyph-ascender="29.31597" data-glyph-descender="-7.28442"/><path d="M5.93-13.55L5.93-6.75L11.61-6.75L11.61-13.55L5.93-13.55ZM13.63-13.17L13.63-13.17L13.63-4.61Q13.60-4.51 13.32-4.37Q13.04-4.23 12.65-4.11Q12.25-4.00 11.92-4.00L11.92-4.00L11.61-4.00L11.61-6.01L5.93-6.01L5.93-3.69Q5.93-3.54 5.43-3.29Q4.92-3.03 4.25-3.03L4.25-3.03L3.95-3.03L3.95-15.18L6.06-14.26L11.39-14.26L12.40-15.43L14.67-13.70Q14.39-13.37 13.63-13.17ZM0.99-19.38L20.43-19.38L21.88-21.22Q21.88-21.22 22.34-20.86Q22.80-20.50 23.41-20.01Q24.02-19.51 24.53-19.05L24.53-19.05Q24.35-18.67 23.84-18.67L23.84-18.67L20.55-18.67L20.55-0.92Q20.55-0.13 20.33 0.50Q20.10 1.12 19.33 1.52Q18.57 1.91 17.06 2.04L17.06 2.04Q17.01 1.04 16.30 0.56L16.30 0.56Q15.64 0.05 13.35-0.28L13.35-0.28L13.35-0.64Q13.35-0.64 13.92-0.60Q14.49-0.56 15.28-0.51Q16.07-0.46 16.78-0.42Q17.50-0.38 17.78-0.38L17.78-0.38Q18.21-0.38 18.35-0.53Q18.49-0.69 18.49-1.02L18.49-1.02L18.49-18.67L1.22-18.67L0.99-19.38Z" transform="translate(112.01706 54.78597) " fill="#246fdd" stroke="#246fdd" stroke-linecap="square" stroke-linejoin="square" stroke-width="0.042" data-glyph-w="25.47" data-glyph-h="36.60039" data-glyph-ascender="29.31597" data-glyph-descender="-7.28442"/><path d="M1.48-16.15L11.72-16.15L11.72-18.21L6.39-18.21Q5.27-17.12 3.92-16.40L3.92-16.40L3.67-16.66Q4.43-17.52 5.11-18.76Q5.78-19.99 6.14-21.17L6.14-21.17L9.04-20.50Q8.99-20.30 8.80-20.21Q8.61-20.12 8.15-20.15L8.15-20.15Q7.69-19.56 7.13-18.95L7.13-18.95L11.72-18.95L11.72-21.50L14.65-21.19Q14.59-20.91 14.38-20.72Q14.16-20.53 13.70-20.48L13.70-20.48L13.70-18.95L18.29-18.95L19.54-20.53Q19.54-20.53 19.93-20.22Q20.33-19.92 20.85-19.48Q21.37-19.05 21.85-18.62L21.85-18.62Q21.73-18.21 21.19-18.21L21.19-18.21L13.70-18.21L13.70-16.15L20.48-16.15L21.73-17.65Q21.73-17.65 22.12-17.36Q22.52-17.06 23.05-16.64Q23.59-16.22 24.04-15.82L24.04-15.82Q23.92-15.41 23.38-15.41L23.38-15.41L1.71-15.41L1.48-16.15ZM6.95-13.14L6.95-11.10L18.44-11.10L18.44-13.14L6.95-13.14ZM18.77-9.40L18.77-9.40L18.44-9.40L18.44-10.37L6.95-10.37L6.95-9.65Q6.95-9.58 6.69-9.44Q6.42-9.30 6.02-9.18Q5.63-9.07 5.25-9.07L5.25-9.07L4.94-9.07L4.94-14.77L7.11-13.88L18.19-13.88L19.20-14.98L21.50-13.30Q21.22-12.96 20.45-12.79L20.45-12.79L20.45-9.91Q20.43-9.83 20.15-9.72Q19.87-9.60 19.48-9.50Q19.10-9.40 18.77-9.40ZM1.96-7.67L9.04-7.67L9.04-9.42L11.97-9.12Q11.97-8.58 11.03-8.41L11.03-8.41L11.03 1.50Q11.03 1.60 10.79 1.74Q10.54 1.88 10.16 2.00Q9.78 2.11 9.40 2.11L9.40 2.11L9.04 2.11L9.04-1.20L1.71-1.20L1.48-1.94L9.04-1.94L9.04-4.10L3.03-4.10L2.80-4.84L9.04-4.84L9.04-6.93L2.19-6.93L1.96-7.67ZM16.07-1.88L20.91-1.88L22.13-3.39Q22.13-3.39 22.52-3.09Q22.90-2.80 23.42-2.38Q23.94-1.96 24.37-1.55L24.37-1.55Q24.25-1.15 23.71-1.15L23.71-1.15L16.07-1.15L16.07 1.48Q16.07 1.58 15.83 1.72Q15.59 1.86 15.21 1.97Q14.82 2.09 14.44 2.09L14.44 2.09L14.06 2.09L14.06-9.45L17.01-9.14Q17.01-8.61 16.07-8.43L16.07-8.43L16.07-7.67L20.15-7.67L21.37-9.19Q21.37-9.19 21.75-8.89Q22.13-8.58 22.66-8.16Q23.18-7.74 23.64-7.34L23.64-7.34Q23.48-6.93 22.95-6.93L22.95-6.93L16.07-6.93L16.07-4.81L19.61-4.81L20.73-6.19Q20.73-6.19 21.09-5.92Q21.45-5.65 21.92-5.26Q22.39-4.86 22.82-4.48L22.82-4.48Q22.69-4.08 22.16-4.08L22.16-4.08L16.07-4.08L16.07-1.88Z" transform="translate(137.48705999999999 54.78597) " fill="#246fdd" stroke="#246fdd" stroke-linecap="square" stroke-linejoin="square" stroke-width="0.042" data-glyph-w="25.47" data-glyph-h="36.60039" data-glyph-ascender="29.31597" data-glyph-descender="-7.28442"/><path d="" transform="translate(162.95705999999998 54.78597) " fill="#246fdd" stroke="#246fdd" stroke-linecap="square" stroke-linejoin="square" stroke-width="0.042" data-glyph-w="10.13706" data-glyph-h="25.47" data-glyph-ascender="22.4136" data-glyph-descender="-3.0564"/><path d="M15.87-19.23L15.87-19.23L12.25-19.23L12.05-19.97L21.42-19.97L22.49-21.04L24.55-19.36Q24.30-19.05 23.59-18.98L23.59-18.98Q23.38-13.47 22.08-12.48L22.08-12.48Q21.11-11.79 19.61-11.79L19.61-11.79Q19.61-12.20 19.52-12.56Q19.43-12.91 19.18-13.12L19.18-13.12Q18.92-13.32 18.36-13.49Q17.80-13.65 17.17-13.78L17.17-13.78L17.17-14.19Q17.88-14.14 18.78-14.07Q19.69-14.01 20.02-14.01L20.02-14.01Q20.33-14.01 20.49-14.05Q20.66-14.08 20.78-14.19L20.78-14.19Q21.45-14.85 21.65-19.23L21.65-19.23L18.03-19.23Q17.85-16.96 16.56-14.71Q15.26-12.45 11.72-10.67L11.72-10.67L11.39-11.03Q14.08-12.99 14.95-15.12Q15.82-17.24 15.87-19.23ZM15.23-9.47L15.23-4.25L20.91-4.25L20.91-9.47L15.23-9.47ZM21.24-1.81L21.24-1.81L20.91-1.81L20.91-3.51L15.23-3.51L15.23-2.11Q15.23-2.01 14.98-1.86Q14.72-1.71 14.35-1.58Q13.98-1.45 13.58-1.45L13.58-1.45L13.27-1.45L13.27-11.10L15.36-10.21L20.66-10.21L21.73-11.33L23.99-9.63Q23.71-9.30 22.92-9.12L22.92-9.12L22.92-2.47Q22.90-2.37 22.63-2.22Q22.36-2.06 21.98-1.94Q21.60-1.81 21.24-1.81ZM1.40-12.43L1.20-13.17L6.21-13.17L6.21-16.78L2.14-16.78L1.94-17.52L6.21-17.52L6.21-21.42L9.07-21.14Q9.04-20.63 8.18-20.48L8.18-20.48L8.18-17.52L9.50-17.52L10.67-19.05Q10.67-19.05 11.05-18.75Q11.44-18.44 11.93-18.02Q12.43-17.60 12.84-17.19L12.84-17.19Q12.71-16.78 12.17-16.78L12.17-16.78L8.18-16.78L8.18-13.17L9.83-13.17L11.05-14.77Q11.05-14.77 11.44-14.45Q11.82-14.14 12.33-13.70Q12.84-13.27 13.30-12.84L13.30-12.84Q13.14-12.43 12.61-12.43L12.61-12.43L1.40-12.43ZM12.20-7.13L8.56-7.13L8.56-1.32Q9.73-0.92 11.26-0.78Q12.79-0.64 14.67-0.64L14.67-0.64Q16.38-0.64 19.55-0.66Q22.72-0.69 24.68-0.71L24.68-0.71L24.68-0.38Q23.53-0.03 23.46 1.22L23.46 1.22L14.59 1.22Q11.77 1.22 9.76 0.75Q7.74 0.28 6.37-1.04Q4.99-2.37 4.08-4.86L4.08-4.86Q3.69-2.93 2.94-1.15Q2.19 0.64 0.97 2.01L0.97 2.01L0.66 1.73Q1.94-0.71 2.45-4.06Q2.95-7.41 2.95-10.39L2.95-10.39L5.71-9.83Q5.58-9.27 4.74-9.22L4.74-9.22Q4.58-7.51 4.25-5.71L4.25-5.71Q5.22-3.44 6.67-2.32L6.67-2.32L6.67-11.77L9.37-11.46Q9.32-11.23 9.14-11.07Q8.97-10.90 8.56-10.85L8.56-10.85L8.56-7.87L9.68-7.87L10.82-9.42Q10.82-9.42 11.18-9.12Q11.54-8.81 12.01-8.38Q12.48-7.95 12.86-7.54L12.86-7.54Q12.73-7.13 12.20-7.13L12.20-7.13Z" transform="translate(173.09411999999998 54.78597) " fill="#246fdd" stroke="#246fdd" stroke-linecap="square" stroke-linejoin="square" stroke-width="0.042" data-glyph-w="25.47" data-glyph-h="36.60039" data-glyph-ascender="29.31597" data-glyph-descender="-7.28442"/><path d="M9.78-14.65L9.78-14.65L9.50-14.90Q10.77-16.12 11.78-17.92Q12.79-19.71 13.30-21.50L13.30-21.50L16.50-20.83Q16.45-20.63 16.26-20.54Q16.07-20.45 15.61-20.48L15.61-20.48Q15.08-19.54 14.29-18.57L14.29-18.57L18.64-18.57L19.94-19.82L22.16-17.83Q22.01-17.68 21.78-17.63Q21.55-17.57 21.17-17.55L21.17-17.55Q20.43-16.91 19.46-16.12Q18.49-15.33 17.52-14.72L17.52-14.72L20.45-14.72L21.52-15.87L23.81-14.14Q23.53-13.80 22.74-13.60L22.74-13.60L22.74-6.55Q22.72-6.44 22.44-6.30Q22.16-6.16 21.76-6.04Q21.37-5.91 21.01-5.91L21.01-5.91L20.71-5.91L20.71-6.90L10.67-6.90L10.44-7.67L20.71-7.67L20.71-10.52L11.49-10.52L11.26-11.26L20.71-11.26L20.71-13.98L10.88-13.98L10.65-14.72L16.84-14.72Q17.32-15.38 17.77-16.21Q18.21-17.04 18.59-17.75L18.59-17.75Q18.59-17.80 18.62-17.83L18.62-17.83L13.68-17.83Q12.00-15.87 9.78-14.65ZM15.49-6.52L15.49-6.52L15.79-6.70Q18.16-5.55 18.67-4.32Q19.18-3.08 18.61-2.46Q18.03-1.83 17.14-2.52L17.14-2.52Q17.06-3.54 16.57-4.62Q16.07-5.71 15.49-6.52ZM9.86-12.73L6.57-12.73L6.57-11.21Q8.94-10.14 9.49-8.94Q10.04-7.74 9.50-7.12Q8.97-6.49 8.07-7.13L8.07-7.13Q7.72-8.84 6.57-10.44L6.57-10.44L6.57 1.43Q6.57 1.53 6.13 1.78Q5.68 2.04 4.97 2.04L4.97 2.04L4.66 2.04L4.66-7.90Q3.23-4.89 0.94-2.55L0.94-2.55L0.61-2.83Q3.21-7.21 4.20-12.73L4.20-12.73L1.15-12.73L0.94-13.50L4.66-13.50L4.66-18.06Q2.90-17.78 1.20-17.60L1.20-17.60L1.07-17.98Q2.95-18.57 4.90-19.47Q6.85-20.38 8.07-21.11L8.07-21.11L10.42-19.10Q10.04-18.75 9.02-19.08L9.02-19.08Q8.00-18.77 6.57-18.47L6.57-18.47L6.57-13.50L7.26-13.50L8.43-15.03Q8.43-15.03 8.79-14.72Q9.14-14.42 9.63-13.98Q10.11-13.55 10.52-13.14L10.52-13.14Q10.39-12.73 9.86-12.73L9.86-12.73ZM10.29-5.35L10.29-5.35L10.72-5.35Q11.31-3.29 10.95-1.90Q10.60-0.51 9.91 0.10L9.91 0.10Q9.45 0.46 8.91 0.48Q8.38 0.51 8.10 0.10L8.10 0.10Q7.90-0.31 8.09-0.70Q8.28-1.10 8.69-1.38L8.69-1.38Q9.35-1.88 9.83-2.98Q10.32-4.08 10.29-5.35ZM20.53-3.41L20.83-3.41L20.91-0.64Q21.32-0.48 21.47-0.32Q21.62-0.15 21.62 0.13L21.62 0.13Q21.62 0.74 20.75 0.99Q19.87 1.25 17.12 1.25L17.12 1.25L14.62 1.25Q13.14 1.25 12.71 0.89Q12.28 0.53 12.28-0.43L12.28-0.43L12.28-5.71L14.87-5.43Q14.82-4.97 14.14-4.84L14.14-4.84L14.14-0.79Q14.14-0.56 14.29-0.48Q14.44-0.41 15.03-0.41L15.03-0.41L17.22-0.41Q18.72-0.41 19.26-0.43L19.26-0.43Q19.46-0.46 19.56-0.51Q19.66-0.56 19.74-0.71L19.74-0.71Q20.07-1.43 20.53-3.41L20.53-3.41ZM20.81-5.14L20.81-5.14L21.11-5.32Q23.64-3.95 24.22-2.47Q24.81-0.99 24.25-0.22Q23.69 0.56 22.77-0.18L22.77-0.18Q22.77-1.45 22.18-2.81Q21.60-4.18 20.81-5.14Z" transform="translate(198.56411999999997 54.78597) " fill="#246fdd" stroke="#246fdd" stroke-linecap="square" stroke-linejoin="square" stroke-width="0.042" data-glyph-w="25.47" data-glyph-h="36.60039" data-glyph-ascender="29.31597" data-glyph-descender="-7.28442"/><path d="M10.72-21.24L10.72-21.24L10.95-21.42Q13.07-21.09 13.91-20.30Q14.75-19.51 14.70-18.73Q14.65-17.96 14.02-17.63Q13.40-17.29 12.58-17.85L12.58-17.85Q12.48-18.77 11.95-19.70Q11.41-20.63 10.72-21.24ZM21.09-16.58L21.09-16.58L4.71-16.58Q4.74-15.28 4.33-14.43Q3.92-13.58 3.29-13.22L3.29-13.22Q2.73-12.86 2.08-12.95Q1.43-13.04 1.15-13.63L1.15-13.63Q0.97-14.16 1.24-14.61Q1.50-15.05 2.04-15.31L2.04-15.31Q2.78-15.71 3.36-16.62Q3.95-17.52 3.90-18.67L3.90-18.67L4.30-18.69Q4.56-17.98 4.64-17.32L4.64-17.32L21.01-17.32L22.24-18.57L24.48-16.43Q24.20-16.20 23.51-16.17L23.51-16.17Q22.95-15.54 22.10-14.86Q21.24-14.19 20.48-13.68L20.48-13.68L20.17-13.88Q20.40-14.44 20.66-15.17Q20.91-15.89 21.09-16.58ZM20.86-6.75L13.75-6.75L13.75-0.69Q15.66-0.46 18.11-0.46L18.11-0.46Q19.23-0.46 21.24-0.47Q23.25-0.48 24.60-0.51L24.60-0.51L24.60-0.15Q23.43 0.18 23.38 1.55L23.38 1.55L17.96 1.55Q15.03 1.55 12.91 1.07Q10.80 0.59 9.31-0.71Q7.82-2.01 6.83-4.46L6.83-4.46Q6.01-2.52 4.61-0.84Q3.21 0.84 1.10 2.09L1.10 2.09L0.82 1.81Q3.34-0.46 4.56-3.57Q5.78-6.67 6.09-9.70L6.09-9.70L9.09-9.09Q8.97-8.56 8.12-8.51L8.12-8.51Q7.79-6.83 7.11-5.12L7.11-5.12Q8.71-1.96 11.72-1.15L11.72-1.15L11.72-12.23L4.28-12.23L4.08-12.96L17.93-12.96L19.26-14.52Q19.26-14.52 19.66-14.21Q20.07-13.91 20.62-13.47Q21.17-13.04 21.67-12.63L21.67-12.63Q21.50-12.23 20.96-12.23L20.96-12.23L13.75-12.23L13.75-7.49L17.85-7.49L19.15-9.12Q19.15-9.12 19.56-8.80Q19.97-8.48 20.52-8.04Q21.06-7.59 21.52-7.16L21.52-7.16Q21.39-6.75 20.86-6.75L20.86-6.75Z" transform="translate(224.03411999999997 54.78597) " fill="#246fdd" stroke="#246fdd" stroke-linecap="square" stroke-linejoin="square" stroke-width="0.042" data-glyph-w="25.47" data-glyph-h="36.60039" data-glyph-ascender="29.31597" data-glyph-descender="-7.28442"/><path d="" transform="translate(249.50411999999997 54.78597) " fill="#246fdd" stroke="#246fdd" stroke-linecap="square" stroke-linejoin="square" stroke-width="0.042" data-glyph-w="10.13706" data-glyph-h="25.47" data-glyph-ascender="22.4136" data-glyph-descender="-3.0564"/><path d="M6.98-10.98L6.98-10.98L8.10-10.54Q10.85-9.47 12.02-8.16Q13.19-6.85 13.19-4.89L13.19-4.89Q13.19-2.42 11.36-1.01Q9.53 0.41 6.62 0.41L6.62 0.41Q5.04 0.41 3.60-0.01Q2.16-0.43 1.20-1.07L1.20-1.07L1.38-4.99L2.80-4.99L3.51-1.50Q4.66-0.82 6.44-0.82L6.44-0.82Q8.48-0.82 9.69-1.71Q10.90-2.60 10.90-4.30L10.90-4.30Q10.90-5.65 10.07-6.46Q9.25-7.26 7.39-7.97L7.39-7.97L6.34-8.41Q4.13-9.27 2.83-10.58Q1.53-11.89 1.53-13.98L1.53-13.98Q1.53-16.40 3.32-17.75Q5.12-19.10 7.74-19.10L7.74-19.10Q9.17-19.10 10.29-18.71Q11.41-18.31 12.33-17.63L12.33-17.63L12.15-13.98L10.70-13.98L9.98-17.32Q9.02-17.88 7.72-17.88L7.72-17.88Q6.04-17.88 4.93-17.05Q3.82-16.22 3.82-14.62L3.82-14.62Q3.82-13.30 4.64-12.43Q5.45-11.56 6.98-10.98Z" transform="translate(259.64117999999996 54.78597) " fill="#246fdd" stroke="#246fdd" stroke-linecap="square" stroke-linejoin="square" stroke-width="0.042" data-glyph-w="14.33961" data-glyph-h="36.60039" data-glyph-ascender="29.31597" data-glyph-descender="-7.28442"/><path d="M8.28-17.57L8.28-17.57L6.49-17.57Q6.44-13.83 6.44-10.01L6.44-10.01L6.44-8.58L8.23-8.58Q10.85-8.58 11.98-9.86Q13.12-11.13 13.12-13.14L13.12-13.14Q13.12-15.26 11.95-16.42Q10.77-17.57 8.28-17.57ZM7.92-7.46L7.92-7.46L6.44-7.46Q6.44-4.38 6.49-1.27L6.49-1.27L9.14-0.97L9.14 0L1.25 0L1.25-0.97L3.85-1.25Q3.90-4.89 3.90-8.63L3.90-8.63L3.90-10.01Q3.90-13.75 3.85-17.42L3.85-17.42L1.25-17.70L1.25-18.67L8.74-18.67Q12.25-18.67 14.00-17.15Q15.74-15.64 15.74-13.14L15.74-13.14Q15.74-11.59 14.96-10.30Q14.19-9.02 12.47-8.24Q10.75-7.46 7.92-7.46Z" transform="translate(273.98078999999996 54.78597) " fill="#246fdd" stroke="#246fdd" stroke-linecap="square" stroke-linejoin="square" stroke-width="0.042" data-glyph-w="16.42815" data-glyph-h="36.60039" data-glyph-ascender="29.31597" data-glyph-descender="-7.28442"/><path d="M13.65-1.22L14.39-4.97L15.77-4.97L15.61 0L1.25 0L1.25-0.97L3.85-1.25Q3.90-4.89 3.90-8.63L3.90-8.63L3.90-10.01Q3.90-13.75 3.85-17.42L3.85-17.42L1.25-17.70L1.25-18.67L15.08-18.67L15.23-13.75L13.86-13.75L13.12-17.45L6.49-17.45Q6.44-13.86 6.44-10.06L6.44-10.06L10.65-10.06L11.05-12.81L12.20-12.81L12.20-6.24L11.05-6.24L10.67-8.94L6.44-8.94Q6.44-4.81 6.49-1.22L6.49-1.22L13.65-1.22Z" transform="translate(290.40894 54.78597) " fill="#246fdd" stroke="#246fdd" stroke-linecap="square" stroke-linejoin="square" stroke-width="0.042" data-glyph-w="16.8102" data-glyph-h="36.60039" data-glyph-ascender="29.31597" data-glyph-descender="-7.28442"/><path d="M13.65-1.22L14.39-4.97L15.77-4.97L15.61 0L1.25 0L1.25-0.97L3.85-1.25Q3.90-4.89 3.90-8.63L3.90-8.63L3.90-10.01Q3.90-13.75 3.85-17.42L3.85-17.42L1.25-17.70L1.25-18.67L15.08-18.67L15.23-13.75L13.86-13.75L13.12-17.45L6.49-17.45Q6.44-13.86 6.44-10.06L6.44-10.06L10.65-10.06L11.05-12.81L12.20-12.81L12.20-6.24L11.05-6.24L10.67-8.94L6.44-8.94Q6.44-4.81 6.49-1.22L6.49-1.22L13.65-1.22Z" transform="translate(307.21914 54.78597) " fill="#246fdd" stroke="#246fdd" stroke-linecap="square" stroke-linejoin="square" stroke-width="0.042" data-glyph-w="16.8102" data-glyph-h="36.60039" data-glyph-ascender="29.31597" data-glyph-descender="-7.28442"/><path d="M6.49-1.12L6.49-1.12L8.69-1.12Q12.02-1.12 13.78-3.29Q15.54-5.45 15.54-9.32L15.54-9.32Q15.54-13.35 13.82-15.46Q12.10-17.57 8.91-17.57L8.91-17.57L6.49-17.57Q6.44-13.86 6.44-9.98L6.44-9.98L6.44-9.02Q6.44-4.79 6.49-1.12ZM1.25-17.70L1.25-18.67L9.37-18.67Q13.45-18.67 15.94-16.25Q18.44-13.83 18.44-9.32L18.44-9.32Q18.44-6.34 17.20-4.25Q15.97-2.16 13.80-1.08Q11.64 0 8.86 0L8.86 0L1.25 0L1.25-0.97L3.85-1.25Q3.90-4.79 3.90-9.02L3.90-9.02L3.90-9.98Q3.90-13.73 3.85-17.42L3.85-17.42L1.25-17.70Z" transform="translate(324.02934 54.78597) " fill="#246fdd" stroke="#246fdd" stroke-linecap="square" stroke-linejoin="square" stroke-width="0.042" data-glyph-w="19.76472" data-glyph-h="36.60039" data-glyph-ascender="29.31597" data-glyph-descender="-7.28442"/><path d="M7.62-6.19L1.12-6.19L1.12-7.82L7.62-7.82L7.62-6.19Z" transform="translate(343.79406 54.78597) " fill="#246fdd" stroke="#246fdd" stroke-linecap="square" stroke-linejoin="square" stroke-width="0.042" data-glyph-w="8.73621" data-glyph-h="36.60039" data-glyph-ascender="29.31597" data-glyph-descender="-7.28442"/><path d="M9.09-18.67L9.09-17.70L6.49-17.42Q6.44-13.75 6.44-10.01L6.44-10.01L6.44-8.63Q6.44-4.97 6.49-1.27L6.49-1.27L9.09-0.97L9.09 0L1.25 0L1.25-0.97L3.85-1.25Q3.90-4.89 3.90-8.63L3.90-8.63L3.90-10.01Q3.90-13.75 3.85-17.42L3.85-17.42L1.25-17.70L1.25-18.67L9.09-18.67Z" transform="translate(352.53027 54.78597) " fill="#246fdd" stroke="#246fdd" stroke-linecap="square" stroke-linejoin="square" stroke-width="0.042" data-glyph-w="10.340819999999999" data-glyph-h="36.60039" data-glyph-ascender="29.31597" data-glyph-descender="-7.28442"/><path d="M6.49-1.12L6.49-1.12L8.69-1.12Q12.02-1.12 13.78-3.29Q15.54-5.45 15.54-9.32L15.54-9.32Q15.54-13.35 13.82-15.46Q12.10-17.57 8.91-17.57L8.91-17.57L6.49-17.57Q6.44-13.86 6.44-9.98L6.44-9.98L6.44-9.02Q6.44-4.79 6.49-1.12ZM1.25-17.70L1.25-18.67L9.37-18.67Q13.45-18.67 15.94-16.25Q18.44-13.83 18.44-9.32L18.44-9.32Q18.44-6.34 17.20-4.25Q15.97-2.16 13.80-1.08Q11.64 0 8.86 0L8.86 0L1.25 0L1.25-0.97L3.85-1.25Q3.90-4.79 3.90-9.02L3.90-9.02L3.90-9.98Q3.90-13.73 3.85-17.42L3.85-17.42L1.25-17.70Z" transform="translate(362.87109 54.78597) " fill="#246fdd" stroke="#246fdd" stroke-linecap="square" stroke-linejoin="square" stroke-width="0.042" data-glyph-w="19.76472" data-glyph-h="36.60039" data-glyph-ascender="29.31597" data-glyph-descender="-7.28442"/><path d="M14.24-1.50L14.93-5.04L16.45-5.04L16.40-0.94Q13.80 0.41 10.82 0.41L10.82 0.41Q6.60 0.41 3.97-2.29Q1.35-4.99 1.35-9.35L1.35-9.35Q1.35-13.63 4.05-16.36Q6.75-19.10 10.82-19.10L10.82-19.10Q12.02-19.10 13.40-18.81Q14.77-18.52 16.15-17.73L16.15-17.73L16.20-13.63L14.67-13.63L13.98-17.19Q12.56-17.88 11.13-17.88L11.13-17.88Q9.22-17.88 7.65-16.90Q6.09-15.92 5.16-14.02Q4.23-12.12 4.23-9.35L4.23-9.35Q4.23-5.17 6.13-2.99Q8.02-0.82 11.03-0.82L11.03-0.82Q12.61-0.82 14.24-1.50L14.24-1.50Z" transform="translate(382.63581 54.78597) " fill="#246fdd" stroke="#246fdd" stroke-linecap="square" stroke-linejoin="square" stroke-width="0.042" data-glyph-w="17.625239999999998" data-glyph-h="36.60039" data-glyph-ascender="29.31597" data-glyph-descender="-7.28442"/><path d="M4.18 0.36L4.18 0.36Q3.39 0.36 2.84-0.20Q2.29-0.76 2.29-1.50L2.29-1.50Q2.29-2.32 2.84-2.88Q3.39-3.44 4.18-3.44L4.18-3.44Q4.99-3.44 5.54-2.88Q6.09-2.32 6.09-1.50L6.09-1.50Q6.09-0.76 5.54-0.20Q4.99 0.36 4.18 0.36Z" transform="translate(400.26105 54.78597) " fill="#246fdd" stroke="#246fdd" stroke-linecap="square" stroke-linejoin="square" stroke-width="0.042" data-glyph-w="8.37963" data-glyph-h="36.60039" data-glyph-ascender="29.31597" data-glyph-descender="-7.28442"/><path d="M14.24-1.50L14.93-5.04L16.45-5.04L16.40-0.94Q13.80 0.41 10.82 0.41L10.82 0.41Q6.60 0.41 3.97-2.29Q1.35-4.99 1.35-9.35L1.35-9.35Q1.35-13.63 4.05-16.36Q6.75-19.10 10.82-19.10L10.82-19.10Q12.02-19.10 13.40-18.81Q14.77-18.52 16.15-17.73L16.15-17.73L16.20-13.63L14.67-13.63L13.98-17.19Q12.56-17.88 11.13-17.88L11.13-17.88Q9.22-17.88 7.65-16.90Q6.09-15.92 5.16-14.02Q4.23-12.12 4.23-9.35L4.23-9.35Q4.23-5.17 6.13-2.99Q8.02-0.82 11.03-0.82L11.03-0.82Q12.61-0.82 14.24-1.50L14.24-1.50Z" transform="translate(408.64068000000003 54.78597) " fill="#246fdd" stroke="#246fdd" stroke-linecap="square" stroke-linejoin="square" stroke-width="0.042" data-glyph-w="17.625239999999998" data-glyph-h="36.60039" data-glyph-ascender="29.31597" data-glyph-descender="-7.28442"/><path d="M4.23-9.35L4.23-9.35Q4.23-7.16 4.83-5.20Q5.43-3.23 6.69-2.01Q7.95-0.79 9.88-0.79L9.88-0.79Q11.82-0.79 13.05-2.01Q14.29-3.23 14.87-5.20Q15.46-7.16 15.46-9.35L15.46-9.35Q15.46-11.54 14.87-13.49Q14.29-15.43 13.05-16.66Q11.82-17.88 9.88-17.88L9.88-17.88Q7.95-17.88 6.69-16.66Q5.43-15.43 4.83-13.49Q4.23-11.54 4.23-9.35ZM9.88-19.10L9.88-19.10Q12.05-19.10 13.98-17.97Q15.92-16.84 17.14-14.67Q18.36-12.51 18.36-9.35L18.36-9.35Q18.36-6.29 17.15-4.10Q15.94-1.91 14.01-0.75Q12.07 0.41 9.88 0.41L9.88 0.41Q7.69 0.41 5.73-0.71Q3.77-1.83 2.56-4.01Q1.35-6.19 1.35-9.35L1.35-9.35Q1.35-12.40 2.57-14.59Q3.80-16.78 5.74-17.94Q7.69-19.10 9.88-19.10Z" transform="translate(426.26592000000005 54.78597) " fill="#246fdd" stroke="#246fdd" stroke-linecap="square" stroke-linejoin="square" stroke-width="0.042" data-glyph-w="19.68831" data-glyph-h="36.60039" data-glyph-ascender="29.31597" data-glyph-descender="-7.28442"/><path d="M23.87-18.67L23.87-17.70L21.27-17.42Q21.22-13.75 21.22-10.01L21.22-10.01L21.22-8.63Q21.22-4.97 21.27-1.25L21.27-1.25L23.84-0.97L23.84 0L16.25 0L16.25-0.97L18.67-1.25Q18.72-4.89 18.72-8.56L18.72-8.56L18.75-16.05L12.45 0L11.26 0L4.74-16.00Q4.76-14.67 4.80-13.31Q4.84-11.95 4.86-11.03L4.86-11.03Q4.89-10.21 4.89-10.16L4.89-10.16L4.89-1.32L7.31-0.97L7.31 0L1.07 0L1.07-0.97L3.59-1.32L3.62-17.40L1.07-17.70L1.07-18.67L6.16-18.67L12.45-3.18L18.49-18.67L23.87-18.67Z" transform="translate(445.95423000000005 54.78597) " fill="#246fdd" stroke="#246fdd" stroke-linecap="square" stroke-linejoin="square" stroke-width="0.042" data-glyph-w="25.13889" data-glyph-h="36.60039" data-glyph-ascender="29.31597" data-glyph-descender="-7.28442"/></g></svg></g></g>  <!----></svg>
