<?xml version="1.0"?>
<svg xmlns="http://www.w3.org/2000/svg" xmlns:xlink="http://www.w3.org/1999/xlink" data-noselect="" viewBox="0 0 569.2913385826772 120.94488188976379" width="150.625" height="32" preserveAspectRatio="none" version="1.1"><defs/> <g id="background" data-noselect=""><!----> <!----></g> <g id="shape_AjwXCJgVSQ" transform="translate(4.084073270946391,2.480698525036644) rotate(0,145.12845276383553,57.78401330123745) scale(1,1)" filter="" style="cursor: move; opacity: 1;"><g><svg xmlns="http://www.w3.org/2000/svg" xmlns:xlink="http://www.w3.org/1999/xlink" version="1.1" id="&#x56FE;&#x5C42;_1" x="0px" y="0px" width="290.25690552767105" height="115.5680266024749" viewBox="10.189589500427246 43.904483795166016 179.6204071044922 112.19052124023438" enable-background="new 0 0 200 200" xml:space="preserve" preserveAspectRatio="none" class="style-removed" data-parent="shape_AjwXCJgVSQ">
<g>
	<path fill="#246fdd" d="M106.321,89.494c0,0,21.712-23.689,49.111-19.623c20.564,3.052,29.926,14.137,34.378,20.14H176.37   c0,0-9.943-9.084-23.78-10.899C140.013,77.462,129.843,78.121,106.321,89.494z"/>
	<path fill="#246fdd" d="M147.161,71.716c0,0-5.801-22.574-33.028-27.054S61.92,55.92,43.31,82.687l22.517-4.021   c0,0,19.354-29.195,47.101-24.24c16.083,2.872,24.699,10.109,27.916,18.496L147.161,71.716z"/>
	<path fill="#246fdd" d="M62.38,83.893c0,0-46.698,7.782-51.696,38.255c-4.136,25.216,18.611,33.947,33.43,33.947   c18.036,0,112.698,0,112.698,0l1.206-5.687c0,0-71.397,0.324-101.38,0c-15.968-0.172-28.147-4.996-28.147-22.574   c0-14.992,12.867-26.502,29.065-32.034L62.38,83.893z"/>
</g>
</svg></g></g><g id="shape_W7YDZ35Q8m" transform="translate(-4.347039183671313,-34.44362568053549) rotate(0,324.5029750057557,108.84800000000001) scale(1,1)" filter="" style="cursor: move; opacity: 1;"><g><svg xmlns="http://www.w3.org/2000/svg" xmlns:xlink="http://www.w3.org/1999/xlink" version="1.1" width="649.0059500115113" height="217.69600000000003" viewBox="0 0 649.0059500115113 217.69600000000003" data-parent="shape_W7YDZ35Q8m"><g data-width="486.64800000000014" transform="translate(72, 0)"><path d="M28.80 0L4.68 0L4.68-8.57L26.64-8.57Q31.90-8.57 33.62-9.58L33.62-9.58Q36.14-11.09 36.14-14.11L36.14-14.11Q36.14-17.64 33.19-19.22L33.19-19.22Q31.54-20.16 27.86-20.16L27.86-20.16L18.94-20.16Q10.80-20.16 7.20-23.11L7.20-23.11Q4.97-24.98 3.71-27.79Q2.45-30.60 2.45-33.84L2.45-33.84Q2.45-38.88 5.40-43.06L5.40-43.06Q8.28-47.09 14.62-47.81L14.62-47.81Q16.78-48.02 21.02-48.02L21.02-48.02L44.86-48.02L44.86-39.46L23.33-39.46Q18.50-39.38 16.92-39.02L16.92-39.02Q13.68-38.23 13.68-34.13L13.68-34.13Q13.68-30.67 16.42-29.52L16.42-29.52Q18.22-28.66 22.46-28.66L22.46-28.66L30.17-28.66Q36.07-28.66 38.95-27.65L38.95-27.65Q44.06-25.92 46.01-21.60L46.01-21.60Q47.52-18.14 47.52-14.18L47.52-14.18Q47.52-9.79 45.50-6.34L45.50-6.34Q42.70-1.44 37.08-0.43L37.08-0.43Q34.34 0 28.80 0L28.80 0Z" transform="translate(0 133.848) skewX(-14)" fill="#246fdd" stroke="#246fdd" stroke-linecap="square" stroke-linejoin="square" stroke-width="0.12" data-glyph-w="50.040000000000006" data-glyph-h="72.00000000000001" data-glyph-ascender="61.848000000000006" data-glyph-descender="-10.152000000000001"/><path d="M31.54-16.78L15.12-16.78L15.12 0L4.90 0L4.90-48.02L28.87-48.02Q35.42-48.02 38.23-47.09L38.23-47.09Q42.98-45.50 45.72-40.54L45.72-40.54Q47.74-36.79 47.74-32.40L47.74-32.40Q47.74-28.73 46.40-25.45Q45.07-22.18 42.70-20.09L42.70-20.09Q40.54-18.22 38.12-17.50Q35.71-16.78 31.54-16.78L31.54-16.78ZM15.12-39.46L15.12-25.34L29.02-25.34Q32.76-25.34 34.27-26.50L34.27-26.50Q36.50-28.30 36.50-32.76L36.50-32.76Q36.50-37.58 33.12-38.95L33.12-38.95Q31.90-39.46 29.23-39.46L29.23-39.46L15.12-39.46Z" transform="translate(50.040000000000006 133.848) skewX(-14)" fill="#246fdd" stroke="#246fdd" stroke-linecap="square" stroke-linejoin="square" stroke-width="0.12" data-glyph-w="49.32000000000001" data-glyph-h="72.00000000000001" data-glyph-ascender="61.848000000000006" data-glyph-descender="-10.152000000000001"/><path d="M23.69-48.02L40.90-48.02L40.90-39.46L27.58-39.46Q22.39-39.46 20.02-38.74Q17.64-38.02 16.06-35.93L16.06-35.93Q14.98-34.49 14.58-33.05Q14.18-31.61 13.90-28.15L13.90-28.15L40.90-28.15L40.90-19.58L13.90-19.58Q14.47-13.39 17.57-10.98Q20.66-8.57 28.08-8.57L28.08-8.57L40.90-8.57L40.90 0L27.58 0Q22.18 0 18.07-0.65L18.07-0.65Q11.59-1.73 7.78-6.34L7.78-6.34Q2.30-12.96 2.30-24.26L2.30-24.26Q2.30-36.79 10.01-43.78L10.01-43.78Q12.67-46.15 15.66-47.09Q18.65-48.02 23.69-48.02L23.69-48.02Z" transform="translate(99.36000000000001 133.848) skewX(-14)" fill="#246fdd" stroke="#246fdd" stroke-linecap="square" stroke-linejoin="square" stroke-width="0.12" data-glyph-w="44.06400000000001" data-glyph-h="72.00000000000001" data-glyph-ascender="61.848000000000006" data-glyph-descender="-10.152000000000001"/><path d="M23.69-48.02L40.90-48.02L40.90-39.46L27.58-39.46Q22.39-39.46 20.02-38.74Q17.64-38.02 16.06-35.93L16.06-35.93Q14.98-34.49 14.58-33.05Q14.18-31.61 13.90-28.15L13.90-28.15L40.90-28.15L40.90-19.58L13.90-19.58Q14.47-13.39 17.57-10.98Q20.66-8.57 28.08-8.57L28.08-8.57L40.90-8.57L40.90 0L27.58 0Q22.18 0 18.07-0.65L18.07-0.65Q11.59-1.73 7.78-6.34L7.78-6.34Q2.30-12.96 2.30-24.26L2.30-24.26Q2.30-36.79 10.01-43.78L10.01-43.78Q12.67-46.15 15.66-47.09Q18.65-48.02 23.69-48.02L23.69-48.02Z" transform="translate(143.42400000000004 133.848) skewX(-14)" fill="#246fdd" stroke="#246fdd" stroke-linecap="square" stroke-linejoin="square" stroke-width="0.12" data-glyph-w="44.06400000000001" data-glyph-h="72.00000000000001" data-glyph-ascender="61.848000000000006" data-glyph-descender="-10.152000000000001"/><path d="M4.90 0L4.90-48.02L25.27-48.02Q32.90-48.02 37.08-46.51L37.08-46.51Q44.78-43.70 47.38-36.22L47.38-36.22Q49.32-30.46 49.32-23.90L49.32-23.90Q49.32-17.42 47.45-11.66L47.45-11.66Q45.58-5.76 41.26-2.95L41.26-2.95Q38.52-1.22 35.24-0.61Q31.97 0 25.27 0L25.27 0L4.90 0ZM25.27-39.46L15.12-39.46L15.12-8.57L25.27-8.57Q31.97-8.57 34.56-11.52L34.56-11.52Q36.14-13.39 37.12-16.78Q38.09-20.16 38.09-23.98L38.09-23.98Q38.09-28.22 36.94-31.75Q35.78-35.28 33.91-37.01L33.91-37.01Q31.18-39.46 25.27-39.46L25.27-39.46Z" transform="translate(187.48800000000006 133.848) skewX(-14)" fill="#246fdd" stroke="#246fdd" stroke-linecap="square" stroke-linejoin="square" stroke-width="0.12" data-glyph-w="51.55200000000001" data-glyph-h="72.00000000000001" data-glyph-ascender="61.848000000000006" data-glyph-descender="-10.152000000000001"/><path d="M15.12 0L4.90 0L4.90-48.02L15.12-48.02L15.12 0Z" transform="translate(239.04000000000008 133.848) skewX(-14)" fill="#246fdd" stroke="#246fdd" stroke-linecap="square" stroke-linejoin="square" stroke-width="0.12" data-glyph-w="19.944000000000003" data-glyph-h="72.00000000000001" data-glyph-ascender="61.848000000000006" data-glyph-descender="-10.152000000000001"/><path d="M4.90 0L4.90-48.02L25.27-48.02Q32.90-48.02 37.08-46.51L37.08-46.51Q44.78-43.70 47.38-36.22L47.38-36.22Q49.32-30.46 49.32-23.90L49.32-23.90Q49.32-17.42 47.45-11.66L47.45-11.66Q45.58-5.76 41.26-2.95L41.26-2.95Q38.52-1.22 35.24-0.61Q31.97 0 25.27 0L25.27 0L4.90 0ZM25.27-39.46L15.12-39.46L15.12-8.57L25.27-8.57Q31.97-8.57 34.56-11.52L34.56-11.52Q36.14-13.39 37.12-16.78Q38.09-20.16 38.09-23.98L38.09-23.98Q38.09-28.22 36.94-31.75Q35.78-35.28 33.91-37.01L33.91-37.01Q31.18-39.46 25.27-39.46L25.27-39.46Z" transform="translate(258.9840000000001 133.848) skewX(-14)" fill="#246fdd" stroke="#246fdd" stroke-linecap="square" stroke-linejoin="square" stroke-width="0.12" data-glyph-w="51.55200000000001" data-glyph-h="72.00000000000001" data-glyph-ascender="61.848000000000006" data-glyph-descender="-10.152000000000001"/><path d="M26.71-8.57L41.40-8.57L41.40 0L24.62 0Q19.87 0 17.35-0.50L17.35-0.50Q8.50-2.23 4.75-10.37L4.75-10.37Q2.30-15.84 2.30-23.90L2.30-23.90Q2.30-33.55 6.05-39.60L6.05-39.60Q8.78-43.99 13.36-46.01Q17.93-48.02 25.13-48.02L25.13-48.02L41.40-48.02L41.40-39.46L26.28-39.46Q19.44-39.46 16.27-35.78L16.27-35.78Q13.61-32.76 13.61-24.84L13.61-24.84Q13.61-14.18 17.71-10.87L17.71-10.87Q20.59-8.57 26.71-8.57L26.71-8.57Z" transform="translate(310.5360000000001 133.848) skewX(-14)" fill="#246fdd" stroke="#246fdd" stroke-linecap="square" stroke-linejoin="square" stroke-width="0.12" data-glyph-w="43.632000000000005" data-glyph-h="72.00000000000001" data-glyph-ascender="61.848000000000006" data-glyph-descender="-10.152000000000001"/><path d="M16.49-13.68L11.09 0L1.73 0L7.06-13.68L16.49-13.68ZM49.97-13.68L59.40-13.68L64.73 0L55.30 0L49.97-13.68ZM1.51-40.32L1.51-48.46L64.73-51.91L64.73-43.78L37.73-42.26L28.01-35.93L31.03-35.93L33.98-35.93L46.30-35.93L28.01-24.05L49.25-24.05L45.36-29.66L55.73-29.66L64.73-16.70L60.34-16.70L54.36-16.70L40.82-16.70L40.82-7.85Q40.82-6.19 40.18-4.75Q39.53-3.31 38.45-2.23Q37.37-1.15 35.93-0.54Q34.49 0.07 32.90 0.07L32.90 0.07L18.43 0.07L22.39-7.27L27.14-7.27Q28.08-7.27 28.73-7.92Q29.38-8.57 29.38-9.58L29.38-9.58L29.38-16.70L16.70-16.70L1.73-16.70L1.51-16.70L19.80-28.58L16.70-28.58L4.97-28.58L1.51-28.58L21.10-41.40L1.51-40.32Z" transform="translate(354.1680000000001 133.848) skewX(-14)" fill="#246fdd" stroke="#246fdd" stroke-linecap="square" stroke-linejoin="square" stroke-width="0.12" data-glyph-w="66.24000000000001" data-glyph-h="72.00000000000001" data-glyph-ascender="61.848000000000006" data-glyph-descender="-10.152000000000001"/><path d="M64.73-46.73L64.73-39.60L39.46-39.60L35.57-30.17L53.35-30.17L51.62-35.28L59.98-35.28L64.51-22.25L56.09-22.25L55.73-23.26L54.58-23.26L54.58-9.36Q54.58-8.35 55.22-7.70Q55.87-7.06 56.88-7.06L56.88-7.06L63.94-7.06L60.77 0.07L51.98 0.07Q49.25 0.07 47.38-1.84Q45.50-3.74 45.50-6.48L45.50-6.48L45.50-23.26L38.81-23.26L34.34 0.07L24.84 0.07L29.30-23.26L21.96-23.26L28.94-39.60L24.34-39.60L24.34-46.73L40.03-46.73L37.66-51.98L49.03-51.98L51.34-46.73L64.73-46.73ZM22.25-9.94L1.51-9.94L10.01-27.79L1.51-27.79L12.17-50.90L23.33-50.90L15.05-34.27L16.70-34.27L22.25-34.27L14.18-16.49L22.25-16.49L22.25-9.94ZM1.51 0.07L1.51-6.48L22.25-6.48L22.25 0.07L1.51 0.07Z" transform="translate(420.40800000000013 133.848) skewX(-14)" fill="#246fdd" stroke="#246fdd" stroke-linecap="square" stroke-linejoin="square" stroke-width="0.12" data-glyph-w="66.24000000000001" data-glyph-h="72.00000000000001" data-glyph-ascender="61.848000000000006" data-glyph-descender="-10.152000000000001"/></g></svg></g></g><g id="shape_KGTd7uuhMV" transform="translate(228.98949031962727,81.93117655091487) rotate(0,198.6979302612076,29.825120000000002) scale(1,1)" filter="" style="cursor: move; opacity: 1;"><g><svg xmlns="http://www.w3.org/2000/svg" xmlns:xlink="http://www.w3.org/1999/xlink" version="1.1" width="397.3958605224152" height="59.65024" viewBox="0 0 397.3958605224152 59.65024" data-parent="shape_KGTd7uuhMV"><g data-width="316.65152" transform="translate(17.12, 0)"><path d="M4.19-14.38L4.19-14.38L6.21-13.73Q6.13-13.44 5.56-13.42L5.56-13.42Q4.84-11.47 3.90-9.79L3.90-9.79L4.64-9.52Q4.59-9.28 4.11-9.21L4.11-9.21L4.11 0.94Q4.09 1.01 3.94 1.10Q3.78 1.20 3.54 1.28Q3.30 1.37 3.05 1.37L3.05 1.37L2.79 1.37L2.79-8.03Q1.81-6.64 0.70-5.62L0.70-5.62L0.46-5.79Q2.82-9.19 4.19-14.38ZM9.96-1.66L9.96-1.66L10.14-1.78Q11.86-1.22 12.30-0.42Q12.74 0.38 12.39 0.85Q12.04 1.32 11.38 0.91L11.38 0.91Q11.26 0.24 10.85-0.47Q10.43-1.18 9.96-1.66ZM7.74-11.68L7.74-7.74L11.08-7.74Q10.85-9.84 10.80-12.04L10.80-12.04Q9.28-11.81 7.74-11.68L7.74-11.68ZM16.25-2.81L16.47-2.76L16.20-0.21Q16.81 0.80 16.42 1.13L16.42 1.13Q15.97 1.49 15.35 1.22Q14.72 0.96 14.23 0.43L14.23 0.43Q12.93-0.96 12.19-2.92Q11.45-4.88 11.15-7.22L11.15-7.22L7.74-7.22L7.74-1.44Q9.23-2.21 10.99-3.15L10.99-3.15L11.11-2.93Q10.92-2.76 10.68-2.55L10.68-2.55Q9.31-1.35 7.05 0.48L7.05 0.48Q6.81 0.94 6.56 1.08L6.56 1.08L5.67-0.58Q6.13-0.82 6.27-0.98Q6.40-1.15 6.40-1.42L6.40-1.42L6.40-12.77L8.23-12.17Q9.91-12.60 11.50-13.15Q13.08-13.70 14.09-14.19L14.09-14.19L15.61-12.79Q15.34-12.55 14.67-12.81L14.67-12.81Q13.59-12.55 12.17-12.28L12.17-12.28Q12.10-10.05 12.38-7.74L12.38-7.74L13.94-7.74L14.81-8.89Q14.81-8.89 15.09-8.66Q15.37-8.44 15.74-8.12Q16.11-7.81 16.44-7.50L16.44-7.50Q16.33-7.22 15.97-7.22L15.97-7.22L12.46-7.22Q12.75-5.24 13.39-3.58Q14.02-1.92 15.07-0.94L15.07-0.94Q15.24-0.77 15.35-0.79Q15.46-0.80 15.56-1.03L15.56-1.03Q15.72-1.34 15.90-1.82Q16.09-2.31 16.25-2.81L16.25-2.81Z" transform="translate(0 36.82512) " fill="#246fdd" stroke="#246fdd" stroke-linecap="square" stroke-linejoin="square" stroke-width="0.029" data-glyph-w="17.12" data-glyph-h="24.60144" data-glyph-ascender="19.70512" data-glyph-descender="-4.89632"/><path d="M8.89-3.27L10.82-3.27L10.82-12.09Q8.78-11.80 6.73-11.68L6.73-11.68L6.66-11.97Q8.78-12.33 10.90-12.98Q13.01-13.63 14.33-14.28L14.33-14.28L15.82-12.93Q15.56-12.69 14.88-12.94L14.88-12.94Q13.70-12.60 12.14-12.31L12.14-12.31L12.14-8.41L13.49-8.41L14.33-9.55Q14.33-9.55 14.59-9.33Q14.84-9.11 15.19-8.79Q15.53-8.47 15.82-8.18L15.82-8.18Q15.72-7.91 15.36-7.91L15.36-7.91L12.14-7.91L12.14-3.27L13.92-3.27L14.79-4.45Q14.79-4.45 15.07-4.23Q15.34-4.01 15.72-3.68Q16.09-3.36 16.40-3.05L16.40-3.05Q16.32-2.77 15.96-2.77L15.96-2.77L9.01-2.77L8.53-2.04L7.12-2.98Q7.21-3.06 7.34-3.17Q7.48-3.27 7.62-3.36L7.62-3.36L7.62-9.81L9.50-9.60Q9.48-9.23 8.89-9.12L8.89-9.12L8.89-3.27ZM4.67-7.79L5.38-8.53L6.73-7.38Q6.64-7.26 6.50-7.20Q6.35-7.14 6.08-7.12L6.08-7.12Q5.87-5.74 5.47-4.43Q5.07-3.12 4.37-1.93L4.37-1.93Q5.74-1.03 7.70-0.72Q9.67-0.41 12.38-0.41L12.38-0.41Q13.10-0.41 14.40-0.41Q15.70-0.41 16.59-0.43L16.59-0.43L16.59-0.21Q15.75 0.02 15.68 0.91L15.68 0.91L12.26 0.91Q9.33 0.91 7.28 0.47Q5.24 0.03 3.87-1.22L3.87-1.22Q2.76 0.29 0.74 1.35L0.74 1.35L0.56 1.11Q2.33-0.15 3.25-1.87L3.25-1.87Q2.02-3.36 1.25-6.03L1.25-6.03L1.49-6.15Q2.29-3.80 3.60-2.57L3.60-2.57Q4.54-4.76 4.78-7.29L4.78-7.29L3.08-7.29L2.57-6.81L1.37-7.74Q1.61-7.91 1.99-8.03L1.99-8.03Q2.48-8.94 3.06-10.12Q3.63-11.30 4.04-12.26L4.04-12.26L0.96-12.26L0.80-12.75L4.04-12.75L4.74-13.46L6.15-12.19Q5.89-11.97 5.29-11.92L5.29-11.92Q4.91-11.06 4.33-9.90Q3.75-8.75 3.22-7.79L3.22-7.79L4.67-7.79Z" transform="translate(17.12 36.82512) " fill="#246fdd" stroke="#246fdd" stroke-linecap="square" stroke-linejoin="square" stroke-width="0.029" data-glyph-w="17.12" data-glyph-h="24.60144" data-glyph-ascender="19.70512" data-glyph-descender="-4.89632"/><path d="M13.49-8.65L13.49-12.55L8.54-12.55L8.54-9.23L8.54-8.65L13.49-8.65ZM13.49-7.12L13.49-8.15L8.53-8.15Q8.49-6.45 7.89-4.76Q7.29-3.06 5.60-1.75L5.60-1.75L5.39-1.93Q6.20-2.98 6.59-4.18Q6.98-5.38 7.10-6.66Q7.21-7.94 7.21-9.21L7.21-9.21L7.21-13.76L8.78-13.05L13.32-13.05L14.02-13.83L15.56-12.65Q15.37-12.43 14.83-12.29L14.83-12.29L14.83-7.50Q14.81-7.45 14.62-7.36Q14.43-7.28 14.18-7.20Q13.92-7.12 13.70-7.12L13.70-7.12L13.49-7.12ZM9.84-7.10L9.84-7.10L10.05-7.24Q13.42-5.67 14.65-4.21Q15.87-2.76 15.66-1.98Q15.46-1.20 14.53-1.66L14.53-1.66Q13.87-2.96 12.51-4.47Q11.15-5.97 9.84-7.10ZM1.59-13.97L1.59-13.97L1.80-14.09Q3.94-13.13 4.55-12.10Q5.15-11.06 4.79-10.50Q4.43-9.95 3.68-10.41L3.68-10.41Q3.42-11.28 2.81-12.26Q2.19-13.23 1.59-13.97ZM4.35-7.91L4.35-7.91L4.35-2.60Q4.40-2.55 4.49-2.47L4.49-2.47Q5.60-1.27 7.15-0.86Q8.70-0.46 11.16-0.46L11.16-0.46Q14.04-0.46 16.61-0.56L16.61-0.56L16.61-0.36Q15.72-0.12 15.61 0.86L15.61 0.86L10.75 0.86Q8.25 0.86 6.80 0.23Q5.34-0.39 4.23-1.95L4.23-1.95Q3.90-2.35 3.66-1.95L3.66-1.95Q3.49-1.71 3.18-1.34L3.18-1.34Q2.81-0.86 2.38-0.28Q1.95 0.29 1.61 0.79L1.61 0.79Q1.71 1.03 1.47 1.20L1.47 1.20L0.36-0.38Q1.03-0.82 1.85-1.42L1.85-1.42Q2.50-1.90 3.05-2.28L3.05-2.28L3.05-8.10L0.63-8.10L0.53-8.61L2.81-8.61L3.56-9.59L5.19-8.23Q5.03-8.03 4.35-7.91Z" transform="translate(34.24 36.82512) " fill="#246fdd" stroke="#246fdd" stroke-linecap="square" stroke-linejoin="square" stroke-width="0.029" data-glyph-w="17.12" data-glyph-h="24.60144" data-glyph-ascender="19.70512" data-glyph-descender="-4.89632"/><path d="" transform="translate(51.36 36.82512) " fill="#246fdd" stroke="#246fdd" stroke-linecap="square" stroke-linejoin="square" stroke-width="0.029" data-glyph-w="6.81376" data-glyph-h="17.12" data-glyph-ascender="15.0656" data-glyph-descender="-2.0544"/><path d="M6.78-3.75L6.78-1.75L10.37-1.75L10.37-3.75L6.78-3.75ZM11.68-3.56L11.68-3.56L11.68-0.82Q11.66-0.77 11.48-0.68Q11.30-0.58 11.05-0.51Q10.80-0.43 10.58-0.43L10.58-0.43L10.37-0.43L10.37-1.23L6.78-1.23L6.78-0.60Q6.78-0.55 6.62-0.45Q6.45-0.34 6.20-0.27Q5.94-0.19 5.68-0.19L5.68-0.19L5.50-0.19L5.50-4.84L6.87-4.25L10.22-4.25L10.89-4.93L12.33-3.87Q12.24-3.78 12.07-3.69Q11.90-3.60 11.68-3.56ZM3.49-6.09L13.87-6.09L14.53-6.87L16.13-5.68Q15.96-5.48 15.41-5.34L15.41-5.34L15.41-0.34Q15.41 0.15 15.28 0.51Q15.15 0.87 14.72 1.10Q14.30 1.32 13.42 1.40L13.42 1.40Q13.39 0.79 13.06 0.48L13.06 0.48Q12.79 0.15 11.68 0L11.68 0L11.68-0.24Q11.68-0.24 11.92-0.22Q12.17-0.21 12.52-0.19Q12.87-0.17 13.19-0.15Q13.51-0.14 13.66-0.14L13.66-0.14Q14.11-0.14 14.04-0.48L14.04-0.48L14.04-5.60L3.36-5.60L3.36 0.91Q3.36 0.98 3.18 1.09Q3.01 1.20 2.76 1.28Q2.50 1.37 2.23 1.37L2.23 1.37L2.00 1.37L2.00-6.75L3.49-6.09ZM5.87-9.98L5.87-8.00L11.38-8.00L11.38-9.98L5.87-9.98ZM11.61-6.81L11.61-6.81L11.38-6.81L11.38-7.50L5.87-7.50L5.87-7.07Q5.87-7.02 5.69-6.93Q5.51-6.83 5.26-6.75Q5.00-6.68 4.73-6.68L4.73-6.68L4.52-6.68L4.52-11.11L5.96-10.48L11.21-10.48L11.92-11.25L13.47-10.08Q13.30-9.86 12.75-9.72L12.75-9.72L12.75-7.16Q12.74-7.10 12.55-7.03Q12.36-6.95 12.10-6.88Q11.83-6.81 11.61-6.81ZM9.31-12.31L13.59-12.31L14.57-13.51Q14.57-13.51 14.87-13.28Q15.17-13.05 15.58-12.72Q15.99-12.39 16.33-12.09L16.33-12.09Q16.28-11.81 15.89-11.81L15.89-11.81L1.03-11.81L0.89-12.31L8.39-12.31Q8.20-12.87 7.70-13.46Q7.19-14.04 6.64-14.40L6.64-14.40L6.80-14.55Q8.22-14.42 8.86-13.98Q9.50-13.54 9.57-13.06Q9.64-12.58 9.31-12.31L9.31-12.31Z" transform="translate(58.17376 36.82512) " fill="#246fdd" stroke="#246fdd" stroke-linecap="square" stroke-linejoin="square" stroke-width="0.029" data-glyph-w="17.12" data-glyph-h="24.60144" data-glyph-ascender="19.70512" data-glyph-descender="-4.89632"/><path d="M3.99-9.11L3.99-4.54L7.81-4.54L7.81-9.11L3.99-9.11ZM9.16-8.85L9.16-8.85L9.16-3.10Q9.14-3.03 8.95-2.94Q8.77-2.84 8.50-2.76Q8.23-2.69 8.01-2.69L8.01-2.69L7.81-2.69L7.81-4.04L3.99-4.04L3.99-2.48Q3.99-2.38 3.65-2.21Q3.30-2.04 2.86-2.04L2.86-2.04L2.65-2.04L2.65-10.20L4.07-9.59L7.65-9.59L8.34-10.37L9.86-9.21Q9.67-8.99 9.16-8.85ZM0.67-13.03L13.73-13.03L14.71-14.26Q14.71-14.26 15.01-14.02Q15.32-13.78 15.73-13.45Q16.14-13.11 16.49-12.81L16.49-12.81Q16.37-12.55 16.02-12.55L16.02-12.55L13.82-12.55L13.82-0.62Q13.82-0.09 13.66 0.33Q13.51 0.75 12.99 1.02Q12.48 1.28 11.47 1.37L11.47 1.37Q11.44 0.70 10.96 0.38L10.96 0.38Q10.51 0.03 8.97-0.19L8.97-0.19L8.97-0.43Q8.97-0.43 9.36-0.40Q9.74-0.38 10.27-0.34Q10.80-0.31 11.28-0.28Q11.76-0.26 11.95-0.26L11.95-0.26Q12.24-0.26 12.33-0.36Q12.43-0.46 12.43-0.68L12.43-0.68L12.43-12.55L0.82-12.55L0.67-13.03Z" transform="translate(75.29376 36.82512) " fill="#246fdd" stroke="#246fdd" stroke-linecap="square" stroke-linejoin="square" stroke-width="0.029" data-glyph-w="17.12" data-glyph-h="24.60144" data-glyph-ascender="19.70512" data-glyph-descender="-4.89632"/><path d="M0.99-10.85L7.88-10.85L7.88-12.24L4.30-12.24Q3.54-11.50 2.64-11.03L2.64-11.03L2.47-11.20Q2.98-11.78 3.43-12.61Q3.89-13.44 4.13-14.23L4.13-14.23L6.08-13.78Q6.04-13.64 5.91-13.58Q5.79-13.52 5.48-13.54L5.48-13.54Q5.17-13.15 4.79-12.74L4.79-12.74L7.88-12.74L7.88-14.45L9.84-14.24Q9.81-14.06 9.66-13.93Q9.52-13.80 9.21-13.76L9.21-13.76L9.21-12.74L12.29-12.74L13.13-13.80Q13.13-13.80 13.40-13.59Q13.66-13.39 14.01-13.10Q14.36-12.81 14.69-12.51L14.69-12.51Q14.60-12.24 14.24-12.24L14.24-12.24L9.21-12.24L9.21-10.85L13.76-10.85L14.60-11.86Q14.60-11.86 14.87-11.67Q15.13-11.47 15.49-11.19Q15.85-10.91 16.16-10.63L16.16-10.63Q16.08-10.36 15.72-10.36L15.72-10.36L1.15-10.36L0.99-10.85ZM4.67-8.83L4.67-7.46L12.39-7.46L12.39-8.83L4.67-8.83ZM12.62-6.32L12.62-6.32L12.39-6.32L12.39-6.97L4.67-6.97L4.67-6.49Q4.67-6.44 4.49-6.34Q4.31-6.25 4.05-6.17Q3.78-6.09 3.53-6.09L3.53-6.09L3.32-6.09L3.32-9.93L4.78-9.33L12.22-9.33L12.91-10.07L14.45-8.94Q14.26-8.71 13.75-8.59L13.75-8.59L13.75-6.66Q13.73-6.61 13.54-6.53Q13.35-6.45 13.10-6.39Q12.84-6.32 12.62-6.32ZM1.32-5.15L6.08-5.15L6.08-6.33L8.05-6.13Q8.05-5.77 7.41-5.65L7.41-5.65L7.41 1.01Q7.41 1.08 7.25 1.17Q7.09 1.27 6.83 1.34Q6.57 1.42 6.32 1.42L6.32 1.42L6.08 1.42L6.08-0.80L1.15-0.80L0.99-1.30L6.08-1.30L6.08-2.76L2.04-2.76L1.88-3.25L6.08-3.25L6.08-4.66L1.47-4.66L1.32-5.15ZM10.80-1.27L14.06-1.27L14.88-2.28Q14.88-2.28 15.13-2.08Q15.39-1.88 15.74-1.60Q16.09-1.32 16.38-1.04L16.38-1.04Q16.30-0.77 15.94-0.77L15.94-0.77L10.80-0.77L10.80 0.99Q10.80 1.06 10.64 1.16Q10.48 1.25 10.22 1.33Q9.96 1.40 9.71 1.40L9.71 1.40L9.45 1.40L9.45-6.35L11.44-6.15Q11.44-5.79 10.80-5.67L10.80-5.67L10.80-5.15L13.54-5.15L14.36-6.18Q14.36-6.18 14.62-5.97Q14.88-5.77 15.23-5.49Q15.58-5.20 15.89-4.93L15.89-4.93Q15.78-4.66 15.43-4.66L15.43-4.66L10.80-4.66L10.80-3.24L13.18-3.24L13.94-4.16Q13.94-4.16 14.18-3.98Q14.42-3.80 14.73-3.54Q15.05-3.27 15.34-3.01L15.34-3.01Q15.25-2.74 14.89-2.74L14.89-2.74L10.80-2.74L10.80-1.27Z" transform="translate(92.41376000000001 36.82512) " fill="#246fdd" stroke="#246fdd" stroke-linecap="square" stroke-linejoin="square" stroke-width="0.029" data-glyph-w="17.12" data-glyph-h="24.60144" data-glyph-ascender="19.70512" data-glyph-descender="-4.89632"/><path d="" transform="translate(109.53376000000002 36.82512) " fill="#246fdd" stroke="#246fdd" stroke-linecap="square" stroke-linejoin="square" stroke-width="0.029" data-glyph-w="6.81376" data-glyph-h="17.12" data-glyph-ascender="15.0656" data-glyph-descender="-2.0544"/><path d="M10.67-12.93L10.67-12.93L8.23-12.93L8.10-13.42L14.40-13.42L15.12-14.14L16.50-13.01Q16.33-12.81 15.85-12.75L15.85-12.75Q15.72-9.06 14.84-8.39L14.84-8.39Q14.19-7.93 13.18-7.93L13.18-7.93Q13.18-8.20 13.12-8.44Q13.06-8.68 12.89-8.82L12.89-8.82Q12.72-8.95 12.34-9.07Q11.97-9.18 11.54-9.26L11.54-9.26L11.54-9.54Q12.02-9.50 12.63-9.46Q13.23-9.42 13.46-9.42L13.46-9.42Q13.66-9.42 13.77-9.44Q13.88-9.47 13.97-9.54L13.97-9.54Q14.42-9.98 14.55-12.93L14.55-12.93L12.12-12.93Q12.00-11.40 11.13-9.89Q10.25-8.37 7.88-7.17L7.88-7.17L7.65-7.41Q9.47-8.73 10.05-10.16Q10.63-11.59 10.67-12.93ZM10.24-6.37L10.24-2.86L14.06-2.86L14.06-6.37L10.24-6.37ZM14.28-1.22L14.28-1.22L14.06-1.22L14.06-2.36L10.24-2.36L10.24-1.42Q10.24-1.35 10.07-1.25Q9.90-1.15 9.65-1.06Q9.40-0.98 9.12-0.98L9.12-0.98L8.92-0.98L8.92-7.46L10.32-6.87L13.88-6.87L14.60-7.62L16.13-6.47Q15.94-6.25 15.41-6.13L15.41-6.13L15.41-1.66Q15.39-1.59 15.21-1.49Q15.03-1.39 14.77-1.30Q14.52-1.22 14.28-1.22ZM0.94-8.35L0.80-8.85L4.18-8.85L4.18-11.28L1.44-11.28L1.30-11.78L4.18-11.78L4.18-14.40L6.09-14.21Q6.08-13.87 5.50-13.76L5.50-13.76L5.50-11.78L6.39-11.78L7.17-12.81Q7.17-12.81 7.43-12.60Q7.69-12.39 8.02-12.11Q8.35-11.83 8.63-11.56L8.63-11.56Q8.54-11.28 8.18-11.28L8.18-11.28L5.50-11.28L5.50-8.85L6.61-8.85L7.43-9.93Q7.43-9.93 7.69-9.72Q7.94-9.50 8.29-9.21Q8.63-8.92 8.94-8.63L8.94-8.63Q8.83-8.35 8.47-8.35L8.47-8.35L0.94-8.35ZM8.20-4.79L5.75-4.79L5.75-0.89Q6.54-0.62 7.57-0.52Q8.59-0.43 9.86-0.43L9.86-0.43Q11.01-0.43 13.14-0.45Q15.27-0.46 16.59-0.48L16.59-0.48L16.59-0.26Q15.82-0.02 15.77 0.82L15.77 0.82L9.81 0.82Q7.91 0.82 6.56 0.51Q5.20 0.19 4.28-0.70Q3.36-1.59 2.74-3.27L2.74-3.27Q2.48-1.97 1.98-0.77Q1.47 0.43 0.65 1.35L0.65 1.35L0.45 1.16Q1.30-0.48 1.64-2.73Q1.99-4.98 1.99-6.98L1.99-6.98L3.83-6.61Q3.75-6.23 3.18-6.20L3.18-6.20Q3.08-5.05 2.86-3.83L2.86-3.83Q3.51-2.31 4.49-1.56L4.49-1.56L4.49-7.91L6.30-7.70Q6.27-7.55 6.15-7.44Q6.03-7.33 5.75-7.29L5.75-7.29L5.75-5.29L6.51-5.29L7.28-6.33Q7.28-6.33 7.52-6.13Q7.76-5.92 8.07-5.63Q8.39-5.34 8.65-5.07L8.65-5.07Q8.56-4.79 8.20-4.79L8.20-4.79Z" transform="translate(116.34752000000002 36.82512) " fill="#246fdd" stroke="#246fdd" stroke-linecap="square" stroke-linejoin="square" stroke-width="0.029" data-glyph-w="17.12" data-glyph-h="24.60144" data-glyph-ascender="19.70512" data-glyph-descender="-4.89632"/><path d="M6.57-9.84L6.57-9.84L6.39-10.02Q7.24-10.84 7.92-12.04Q8.59-13.25 8.94-14.45L8.94-14.45L11.09-14.00Q11.06-13.87 10.93-13.81Q10.80-13.75 10.49-13.76L10.49-13.76Q10.14-13.13 9.60-12.48L9.60-12.48L12.53-12.48L13.40-13.32L14.89-11.98Q14.79-11.88 14.64-11.85Q14.48-11.81 14.23-11.80L14.23-11.80Q13.73-11.37 13.08-10.84Q12.43-10.31 11.78-9.90L11.78-9.90L13.75-9.90L14.47-10.67L16.01-9.50Q15.82-9.28 15.29-9.14L15.29-9.14L15.29-4.40Q15.27-4.33 15.08-4.24Q14.89-4.14 14.63-4.06Q14.36-3.97 14.12-3.97L14.12-3.97L13.92-3.97L13.92-4.64L7.17-4.64L7.02-5.15L13.92-5.15L13.92-7.07L7.72-7.07L7.57-7.57L13.92-7.57L13.92-9.40L7.31-9.40L7.16-9.90L11.32-9.90Q11.64-10.34 11.94-10.90Q12.24-11.45 12.50-11.93L12.50-11.93Q12.50-11.97 12.51-11.98L12.51-11.98L9.19-11.98Q8.06-10.67 6.57-9.84ZM10.41-4.38L10.41-4.38L10.61-4.50Q12.21-3.73 12.55-2.90Q12.89-2.07 12.51-1.65Q12.12-1.23 11.52-1.69L11.52-1.69Q11.47-2.38 11.14-3.11Q10.80-3.83 10.41-4.38ZM6.63-8.56L4.42-8.56L4.42-7.53Q6.01-6.81 6.38-6.01Q6.75-5.20 6.39-4.79Q6.03-4.37 5.43-4.79L5.43-4.79Q5.19-5.94 4.42-7.02L4.42-7.02L4.42 0.96Q4.42 1.03 4.12 1.20Q3.82 1.37 3.34 1.37L3.34 1.37L3.13 1.37L3.13-5.31Q2.17-3.29 0.63-1.71L0.63-1.71L0.41-1.90Q2.16-4.84 2.82-8.56L2.82-8.56L0.77-8.56L0.63-9.07L3.13-9.07L3.13-12.14Q1.95-11.95 0.80-11.83L0.80-11.83L0.72-12.09Q1.99-12.48 3.30-13.09Q4.61-13.70 5.43-14.19L5.43-14.19L7.00-12.84Q6.75-12.60 6.06-12.82L6.06-12.82Q5.38-12.62 4.42-12.41L4.42-12.41L4.42-9.07L4.88-9.07L5.67-10.10Q5.67-10.10 5.91-9.90Q6.15-9.69 6.47-9.40Q6.80-9.11 7.07-8.83L7.07-8.83Q6.98-8.56 6.63-8.56L6.63-8.56ZM6.92-3.60L6.92-3.60L7.21-3.60Q7.60-2.21 7.36-1.28Q7.12-0.34 6.66 0.07L6.66 0.07Q6.35 0.31 5.99 0.33Q5.63 0.34 5.44 0.07L5.44 0.07Q5.31-0.21 5.44-0.47Q5.56-0.74 5.84-0.92L5.84-0.92Q6.28-1.27 6.61-2.00Q6.93-2.74 6.92-3.60ZM13.80-2.29L14.00-2.29L14.06-0.43Q14.33-0.33 14.43-0.21Q14.53-0.10 14.53 0.09L14.53 0.09Q14.53 0.50 13.94 0.67Q13.35 0.84 11.50 0.84L11.50 0.84L9.83 0.84Q8.83 0.84 8.54 0.60Q8.25 0.36 8.25-0.29L8.25-0.29L8.25-3.83L10.00-3.65Q9.96-3.34 9.50-3.25L9.50-3.25L9.50-0.53Q9.50-0.38 9.60-0.33Q9.71-0.27 10.10-0.27L10.10-0.27L11.57-0.27Q12.58-0.27 12.94-0.29L12.94-0.29Q13.08-0.31 13.15-0.34Q13.22-0.38 13.27-0.48L13.27-0.48Q13.49-0.96 13.80-2.29L13.80-2.29ZM13.99-3.46L13.99-3.46L14.19-3.58Q15.89-2.65 16.28-1.66Q16.67-0.67 16.30-0.15Q15.92 0.38 15.31-0.12L15.31-0.12Q15.31-0.98 14.91-1.89Q14.52-2.81 13.99-3.46Z" transform="translate(133.46752 36.82512) " fill="#246fdd" stroke="#246fdd" stroke-linecap="square" stroke-linejoin="square" stroke-width="0.029" data-glyph-w="17.12" data-glyph-h="24.60144" data-glyph-ascender="19.70512" data-glyph-descender="-4.89632"/><path d="M7.21-14.28L7.21-14.28L7.36-14.40Q8.78-14.18 9.35-13.64Q9.91-13.11 9.88-12.59Q9.84-12.07 9.42-11.85Q9.01-11.62 8.46-12.00L8.46-12.00Q8.39-12.62 8.03-13.24Q7.67-13.87 7.21-14.28ZM14.18-11.15L14.18-11.15L3.17-11.15Q3.18-10.27 2.91-9.70Q2.64-9.12 2.21-8.89L2.21-8.89Q1.83-8.65 1.40-8.71Q0.96-8.77 0.77-9.16L0.77-9.16Q0.65-9.52 0.83-9.82Q1.01-10.12 1.37-10.29L1.37-10.29Q1.87-10.56 2.26-11.17Q2.65-11.78 2.62-12.55L2.62-12.55L2.89-12.57Q3.06-12.09 3.12-11.64L3.12-11.64L14.12-11.64L14.95-12.48L16.45-11.04Q16.26-10.89 15.80-10.87L15.80-10.87Q15.43-10.44 14.85-9.99Q14.28-9.54 13.76-9.19L13.76-9.19L13.56-9.33Q13.71-9.71 13.88-10.19Q14.06-10.68 14.18-11.15ZM14.02-4.54L9.24-4.54L9.24-0.46Q10.53-0.31 12.17-0.31L12.17-0.31Q12.93-0.31 14.28-0.32Q15.63-0.33 16.54-0.34L16.54-0.34L16.54-0.10Q15.75 0.12 15.72 1.04L15.72 1.04L12.07 1.04Q10.10 1.04 8.68 0.72Q7.26 0.39 6.26-0.48Q5.26-1.35 4.59-3.00L4.59-3.00Q4.04-1.69 3.10-0.56Q2.16 0.56 0.74 1.40L0.74 1.40L0.55 1.22Q2.24-0.31 3.06-2.40Q3.89-4.49 4.09-6.52L4.09-6.52L6.11-6.11Q6.03-5.75 5.46-5.72L5.46-5.72Q5.24-4.59 4.78-3.44L4.78-3.44Q5.86-1.32 7.88-0.77L7.88-0.77L7.88-8.22L2.88-8.22L2.74-8.71L12.05-8.71L12.94-9.76Q12.94-9.76 13.22-9.55Q13.49-9.35 13.86-9.06Q14.23-8.77 14.57-8.49L14.57-8.49Q14.45-8.22 14.09-8.22L14.09-8.22L9.24-8.22L9.24-5.03L12.00-5.03L12.87-6.13Q12.87-6.13 13.15-5.91Q13.42-5.70 13.79-5.40Q14.16-5.10 14.47-4.81L14.47-4.81Q14.38-4.54 14.02-4.54L14.02-4.54Z" transform="translate(150.58752 36.82512) " fill="#246fdd" stroke="#246fdd" stroke-linecap="square" stroke-linejoin="square" stroke-width="0.029" data-glyph-w="17.12" data-glyph-h="24.60144" data-glyph-ascender="19.70512" data-glyph-descender="-4.89632"/><path d="" transform="translate(167.70752000000002 36.82512) " fill="#246fdd" stroke="#246fdd" stroke-linecap="square" stroke-linejoin="square" stroke-width="0.029" data-glyph-w="6.81376" data-glyph-h="17.12" data-glyph-ascender="15.0656" data-glyph-descender="-2.0544"/><path d="M4.69-7.38L4.69-7.38L5.44-7.09Q7.29-6.37 8.08-5.49Q8.87-4.61 8.87-3.29L8.87-3.29Q8.87-1.63 7.64-0.68Q6.40 0.27 4.45 0.27L4.45 0.27Q3.39 0.27 2.42-0.01Q1.46-0.29 0.80-0.72L0.80-0.72L0.92-3.36L1.88-3.36L2.36-1.01Q3.13-0.55 4.33-0.55L4.33-0.55Q5.70-0.55 6.51-1.15Q7.33-1.75 7.33-2.89L7.33-2.89Q7.33-3.80 6.77-4.34Q6.21-4.88 4.96-5.36L4.96-5.36L4.26-5.65Q2.77-6.23 1.90-7.11Q1.03-8.00 1.03-9.40L1.03-9.40Q1.03-11.03 2.23-11.93Q3.44-12.84 5.20-12.84L5.20-12.84Q6.16-12.84 6.92-12.57Q7.67-12.31 8.29-11.85L8.29-11.85L8.17-9.40L7.19-9.40L6.71-11.64Q6.06-12.02 5.19-12.02L5.19-12.02Q4.06-12.02 3.31-11.46Q2.57-10.91 2.57-9.83L2.57-9.83Q2.57-8.94 3.12-8.35Q3.66-7.77 4.69-7.38Z" transform="translate(174.52128000000002 36.82512) " fill="#246fdd" stroke="#246fdd" stroke-linecap="square" stroke-linejoin="square" stroke-width="0.029" data-glyph-w="9.63856" data-glyph-h="24.60144" data-glyph-ascender="19.70512" data-glyph-descender="-4.89632"/><path d="M5.56-11.81L5.56-11.81L4.37-11.81Q4.33-9.30 4.33-6.73L4.33-6.73L4.33-5.77L5.53-5.77Q7.29-5.77 8.05-6.63Q8.82-7.48 8.82-8.83L8.82-8.83Q8.82-10.25 8.03-11.03Q7.24-11.81 5.56-11.81ZM5.32-5.02L5.32-5.02L4.33-5.02Q4.33-2.94 4.37-0.86L4.37-0.86L6.15-0.65L6.15 0L0.84 0L0.84-0.65L2.59-0.84Q2.62-3.29 2.62-5.80L2.62-5.80L2.62-6.73Q2.62-9.24 2.59-11.71L2.59-11.71L0.84-11.90L0.84-12.55L5.87-12.55Q8.23-12.55 9.41-11.53Q10.58-10.51 10.58-8.83L10.58-8.83Q10.58-7.79 10.06-6.93Q9.54-6.06 8.38-5.54Q7.22-5.02 5.32-5.02Z" transform="translate(184.15984000000003 36.82512) " fill="#246fdd" stroke="#246fdd" stroke-linecap="square" stroke-linejoin="square" stroke-width="0.029" data-glyph-w="11.0424" data-glyph-h="24.60144" data-glyph-ascender="19.70512" data-glyph-descender="-4.89632"/><path d="M9.18-0.82L9.67-3.34L10.60-3.34L10.49 0L0.84 0L0.84-0.65L2.59-0.84Q2.62-3.29 2.62-5.80L2.62-5.80L2.62-6.73Q2.62-9.24 2.59-11.71L2.59-11.71L0.84-11.90L0.84-12.55L10.14-12.55L10.24-9.24L9.31-9.24L8.82-11.73L4.37-11.73Q4.33-9.31 4.33-6.76L4.33-6.76L7.16-6.76L7.43-8.61L8.20-8.61L8.20-4.19L7.43-4.19L7.17-6.01L4.33-6.01Q4.33-3.24 4.37-0.82L4.37-0.82L9.18-0.82Z" transform="translate(195.20224000000002 36.82512) " fill="#246fdd" stroke="#246fdd" stroke-linecap="square" stroke-linejoin="square" stroke-width="0.029" data-glyph-w="11.299199999999999" data-glyph-h="24.60144" data-glyph-ascender="19.70512" data-glyph-descender="-4.89632"/><path d="M9.18-0.82L9.67-3.34L10.60-3.34L10.49 0L0.84 0L0.84-0.65L2.59-0.84Q2.62-3.29 2.62-5.80L2.62-5.80L2.62-6.73Q2.62-9.24 2.59-11.71L2.59-11.71L0.84-11.90L0.84-12.55L10.14-12.55L10.24-9.24L9.31-9.24L8.82-11.73L4.37-11.73Q4.33-9.31 4.33-6.76L4.33-6.76L7.16-6.76L7.43-8.61L8.20-8.61L8.20-4.19L7.43-4.19L7.17-6.01L4.33-6.01Q4.33-3.24 4.37-0.82L4.37-0.82L9.18-0.82Z" transform="translate(206.50144 36.82512) " fill="#246fdd" stroke="#246fdd" stroke-linecap="square" stroke-linejoin="square" stroke-width="0.029" data-glyph-w="11.299199999999999" data-glyph-h="24.60144" data-glyph-ascender="19.70512" data-glyph-descender="-4.89632"/><path d="M4.37-0.75L4.37-0.75L5.84-0.75Q8.08-0.75 9.26-2.21Q10.44-3.66 10.44-6.27L10.44-6.27Q10.44-8.97 9.29-10.39Q8.13-11.81 5.99-11.81L5.99-11.81L4.37-11.81Q4.33-9.31 4.33-6.71L4.33-6.71L4.33-6.06Q4.33-3.22 4.37-0.75ZM0.84-11.90L0.84-12.55L6.30-12.55Q9.04-12.55 10.72-10.92Q12.39-9.30 12.39-6.27L12.39-6.27Q12.39-4.26 11.56-2.86Q10.73-1.46 9.28-0.73Q7.82 0 5.96 0L5.96 0L0.84 0L0.84-0.65L2.59-0.84Q2.62-3.22 2.62-6.06L2.62-6.06L2.62-6.71Q2.62-9.23 2.59-11.71L2.59-11.71L0.84-11.90Z" transform="translate(217.80064 36.82512) " fill="#246fdd" stroke="#246fdd" stroke-linecap="square" stroke-linejoin="square" stroke-width="0.029" data-glyph-w="13.28512" data-glyph-h="24.60144" data-glyph-ascender="19.70512" data-glyph-descender="-4.89632"/><path d="M5.12-4.16L0.75-4.16L0.75-5.26L5.12-5.26L5.12-4.16Z" transform="translate(231.08576 36.82512) " fill="#246fdd" stroke="#246fdd" stroke-linecap="square" stroke-linejoin="square" stroke-width="0.029" data-glyph-w="5.87216" data-glyph-h="24.60144" data-glyph-ascender="19.70512" data-glyph-descender="-4.89632"/><path d="M6.11-12.55L6.11-11.90L4.37-11.71Q4.33-9.24 4.33-6.73L4.33-6.73L4.33-5.80Q4.33-3.34 4.37-0.86L4.37-0.86L6.11-0.65L6.11 0L0.84 0L0.84-0.65L2.59-0.84Q2.62-3.29 2.62-5.80L2.62-5.80L2.62-6.73Q2.62-9.24 2.59-11.71L2.59-11.71L0.84-11.90L0.84-12.55L6.11-12.55Z" transform="translate(236.95792 36.82512) " fill="#246fdd" stroke="#246fdd" stroke-linecap="square" stroke-linejoin="square" stroke-width="0.029" data-glyph-w="6.95072" data-glyph-h="24.60144" data-glyph-ascender="19.70512" data-glyph-descender="-4.89632"/><path d="M4.37-0.75L4.37-0.75L5.84-0.75Q8.08-0.75 9.26-2.21Q10.44-3.66 10.44-6.27L10.44-6.27Q10.44-8.97 9.29-10.39Q8.13-11.81 5.99-11.81L5.99-11.81L4.37-11.81Q4.33-9.31 4.33-6.71L4.33-6.71L4.33-6.06Q4.33-3.22 4.37-0.75ZM0.84-11.90L0.84-12.55L6.30-12.55Q9.04-12.55 10.72-10.92Q12.39-9.30 12.39-6.27L12.39-6.27Q12.39-4.26 11.56-2.86Q10.73-1.46 9.28-0.73Q7.82 0 5.96 0L5.96 0L0.84 0L0.84-0.65L2.59-0.84Q2.62-3.22 2.62-6.06L2.62-6.06L2.62-6.71Q2.62-9.23 2.59-11.71L2.59-11.71L0.84-11.90Z" transform="translate(243.90864 36.82512) " fill="#246fdd" stroke="#246fdd" stroke-linecap="square" stroke-linejoin="square" stroke-width="0.029" data-glyph-w="13.28512" data-glyph-h="24.60144" data-glyph-ascender="19.70512" data-glyph-descender="-4.89632"/><path d="M9.57-1.01L10.03-3.39L11.06-3.39L11.03-0.63Q9.28 0.27 7.28 0.27L7.28 0.27Q4.43 0.27 2.67-1.54Q0.91-3.36 0.91-6.28L0.91-6.28Q0.91-9.16 2.72-11.00Q4.54-12.84 7.28-12.84L7.28-12.84Q8.08-12.84 9.01-12.64Q9.93-12.45 10.85-11.92L10.85-11.92L10.89-9.16L9.86-9.16L9.40-11.56Q8.44-12.02 7.48-12.02L7.48-12.02Q6.20-12.02 5.14-11.36Q4.09-10.70 3.47-9.42Q2.84-8.15 2.84-6.28L2.84-6.28Q2.84-3.48 4.12-2.01Q5.39-0.55 7.41-0.55L7.41-0.55Q8.47-0.55 9.57-1.01L9.57-1.01Z" transform="translate(257.19376 36.82512) " fill="#246fdd" stroke="#246fdd" stroke-linecap="square" stroke-linejoin="square" stroke-width="0.029" data-glyph-w="11.84704" data-glyph-h="24.60144" data-glyph-ascender="19.70512" data-glyph-descender="-4.89632"/><path d="M2.81 0.24L2.81 0.24Q2.28 0.24 1.91-0.14Q1.54-0.51 1.54-1.01L1.54-1.01Q1.54-1.56 1.91-1.93Q2.28-2.31 2.81-2.31L2.81-2.31Q3.36-2.31 3.72-1.93Q4.09-1.56 4.09-1.01L4.09-1.01Q4.09-0.51 3.72-0.14Q3.36 0.24 2.81 0.24Z" transform="translate(269.0408 36.82512) " fill="#246fdd" stroke="#246fdd" stroke-linecap="square" stroke-linejoin="square" stroke-width="0.029" data-glyph-w="5.63248" data-glyph-h="24.60144" data-glyph-ascender="19.70512" data-glyph-descender="-4.89632"/><path d="M9.57-1.01L10.03-3.39L11.06-3.39L11.03-0.63Q9.28 0.27 7.28 0.27L7.28 0.27Q4.43 0.27 2.67-1.54Q0.91-3.36 0.91-6.28L0.91-6.28Q0.91-9.16 2.72-11.00Q4.54-12.84 7.28-12.84L7.28-12.84Q8.08-12.84 9.01-12.64Q9.93-12.45 10.85-11.92L10.85-11.92L10.89-9.16L9.86-9.16L9.40-11.56Q8.44-12.02 7.48-12.02L7.48-12.02Q6.20-12.02 5.14-11.36Q4.09-10.70 3.47-9.42Q2.84-8.15 2.84-6.28L2.84-6.28Q2.84-3.48 4.12-2.01Q5.39-0.55 7.41-0.55L7.41-0.55Q8.47-0.55 9.57-1.01L9.57-1.01Z" transform="translate(274.67328 36.82512) " fill="#246fdd" stroke="#246fdd" stroke-linecap="square" stroke-linejoin="square" stroke-width="0.029" data-glyph-w="11.84704" data-glyph-h="24.60144" data-glyph-ascender="19.70512" data-glyph-descender="-4.89632"/><path d="M2.84-6.28L2.84-6.28Q2.84-4.81 3.24-3.49Q3.65-2.17 4.49-1.35Q5.34-0.53 6.64-0.53L6.64-0.53Q7.94-0.53 8.77-1.35Q9.60-2.17 10.00-3.49Q10.39-4.81 10.39-6.28L10.39-6.28Q10.39-7.76 10.00-9.07Q9.60-10.37 8.77-11.20Q7.94-12.02 6.64-12.02L6.64-12.02Q5.34-12.02 4.49-11.20Q3.65-10.37 3.24-9.07Q2.84-7.76 2.84-6.28ZM6.64-12.84L6.64-12.84Q8.10-12.84 9.40-12.08Q10.70-11.32 11.52-9.86Q12.34-8.41 12.34-6.28L12.34-6.28Q12.34-4.23 11.53-2.76Q10.72-1.28 9.42-0.51Q8.11 0.27 6.64 0.27L6.64 0.27Q5.17 0.27 3.85-0.48Q2.53-1.23 1.72-2.70Q0.91-4.16 0.91-6.28L0.91-6.28Q0.91-8.34 1.73-9.81Q2.55-11.28 3.86-12.06Q5.17-12.84 6.64-12.84Z" transform="translate(286.52031999999997 36.82512) " fill="#246fdd" stroke="#246fdd" stroke-linecap="square" stroke-linejoin="square" stroke-width="0.029" data-glyph-w="13.23376" data-glyph-h="24.60144" data-glyph-ascender="19.70512" data-glyph-descender="-4.89632"/><path d="M16.04-12.55L16.04-11.90L14.30-11.71Q14.26-9.24 14.26-6.73L14.26-6.73L14.26-5.80Q14.26-3.34 14.30-0.84L14.30-0.84L16.02-0.65L16.02 0L10.92 0L10.92-0.65L12.55-0.84Q12.58-3.29 12.58-5.75L12.58-5.75L12.60-10.79L8.37 0L7.57 0L3.18-10.75Q3.20-9.86 3.23-8.95Q3.25-8.03 3.27-7.41L3.27-7.41Q3.29-6.87 3.29-6.83L3.29-6.83L3.29-0.89L4.91-0.65L4.91 0L0.72 0L0.72-0.65L2.41-0.89L2.43-11.69L0.72-11.90L0.72-12.55L4.14-12.55L8.37-2.14L12.43-12.55L16.04-12.55Z" transform="translate(299.75408 36.82512) " fill="#246fdd" stroke="#246fdd" stroke-linecap="square" stroke-linejoin="square" stroke-width="0.029" data-glyph-w="16.89744" data-glyph-h="24.60144" data-glyph-ascender="19.70512" data-glyph-descender="-4.89632"/></g></svg></g></g>  <!----></svg>
