<?xml version="1.0" standalone="no"?><!DOCTYPE svg PUBLIC "-//W3C//DTD SVG 1.1//EN" "http://www.w3.org/Graphics/SVG/1.1/DTD/svg11.dtd"><svg t="1608696154310" class="icon" viewBox="0 0 1024 1024" version="1.1" xmlns="http://www.w3.org/2000/svg" p-id="1960" width="500" height="500" xmlns:xlink="http://www.w3.org/1999/xlink"><defs><style type="text/css"></style></defs><path d="M307.86 394.8c-0.39-0.48-51.84-50.02-70.65 18.96-18.29 67.06 39.28 138.29 79.81 118.96 31.03 123.62 138.32 164.05 199.06 164.05 60.73 0 168.03-40.43 199.05-164.05 40.55 19.33 98.11-51.91 79.82-118.96-18.81-68.98-70.27-19.44-70.65-18.96 1.52-156.91-3.96-282.94-208.21-282.94-204.29-0.01-209.76 126.03-208.23 282.94" fill="#EEA963" p-id="1961"></path><path d="M555.98 690.54v47.84c-11.05 3.87-24.89 6.18-39.91 6.18-15.02 0-28.86-2.31-39.92-6.18v-47.84c14.43 3.19 28.01 4.65 39.92 4.65 11.9 0 25.48-1.46 39.91-4.65" fill="#E08B53" p-id="1962"></path><path d="M391.42 728.47h66.46c10.96 9.56 32.9 16.1 58.19 16.1 25.27 0 47.22-6.54 58.19-16.1h66.46c16.17 0 29.41 13.22 29.41 29.4v182.07H362.01V757.87c0-16.18 13.23-29.4 29.41-29.4" fill="#5AB9CB" p-id="1963"></path><path d="M362.01 939.94h-76.85c9.53-48.73 15.86-183.47 76.85-183.47h0.04l-0.04 1.4v182.07z m308.12 0h76.85c-9.52-48.73-15.85-183.47-76.85-183.47h-0.03l0.03 1.4v182.07z" fill="#6CD4D4" p-id="1964"></path><path d="M746.98 939.94c-2.28-11.7-4.39-28.36-7.12-46.91h-69.73v46.91h76.85z m-384.97 0h-76.85c2.29-11.7 4.4-28.36 7.12-46.91h69.74v46.91z" fill="#5AB9CB" p-id="1965"></path><path d="M447.79 701.81l68.28 35.38 68.27-35.38v39.22l-68.27 35.37-68.28-35.37z" fill="#6CD4D4" p-id="1966"></path><path d="M307.85 394.8c-23.59-18.89-40.27-65.69-40.27-120.45 0-48.75 13.23-91.19 32.78-113.25 33.93-56.75 117.72-96.88 215.72-96.88s181.78 40.14 215.72 96.88c19.55 22.06 32.79 64.5 32.79 113.25 0 54.75-16.71 101.55-40.3 120.45-23.59-18.89-40.28-65.69-40.28-120.45 0-6.52 0.24-12.93 0.69-19.19 0.96-13.19-3-26.06-10.9-36.67-0.17-0.22-0.33-0.45-0.49-0.68-41.32 25.2-96.56 40.61-157.24 40.61-60.69 0-115.93-15.41-157.24-40.61-0.14 0.21-0.29 0.41-0.44 0.61-7.9 10.64-11.9 23.52-10.94 36.74 0.46 6.26 0.69 12.66 0.69 19.18 0 54.76-16.7 101.57-40.29 120.46" fill="#A06034" p-id="1967"></path><path d="M546.55 780.69l-30.48-30.49-30.49 30.49 15.32 15.32-9.06 143.93h48.45l-9.06-143.93z" fill="#C33722" p-id="1968"></path><path d="M537.9 489.93c0 12.06-9.77 13.77-21.83 13.77-12.06 0-21.83-1.71-21.83-13.77s9.77-50.15 21.83-50.15c12.06 0 21.83 38.09 21.83 50.15z" fill="#E08B53" p-id="1969"></path><path d="M385.8 392.32c-1.77 0-3.57-0.43-5.23-1.34-5.32-2.9-7.27-9.55-4.38-14.86 8.99-16.5 27.06-26.75 47.17-26.75 15.46 0 30.07 6.18 40.1 16.97 4.12 4.43 3.87 11.36-0.56 15.49-4.43 4.12-11.36 3.87-15.49-0.56-5.9-6.34-14.67-9.98-24.06-9.98-11.89 0-22.85 6.01-27.93 15.32-1.97 3.64-5.74 5.71-9.62 5.71zM646.34 392.32c1.77 0 3.57-0.43 5.23-1.34 5.32-2.9 7.27-9.55 4.38-14.86-8.99-16.5-27.06-26.75-47.17-26.75-15.46 0-30.08 6.18-40.1 16.97-4.12 4.43-3.87 11.36 0.56 15.49 4.43 4.12 11.36 3.87 15.49-0.56 5.9-6.34 14.67-9.98 24.06-9.98 11.89 0 22.85 6.01 27.93 15.32 1.98 3.64 5.74 5.71 9.62 5.71z" fill="#A06034" p-id="1970"></path><path d="M423.46 402.84c-10.1 0-18.29 8.19-18.29 18.29v10.82h0.06c0.31 9.82 8.33 17.71 18.23 17.71s17.92-7.88 18.23-17.71h0.06v-10.82c-0.01-10.1-8.19-18.29-18.29-18.29zM608.68 402.84c-10.1 0-18.29 8.19-18.29 18.29v10.82h0.06c0.31 9.82 8.33 17.7 18.23 17.7s17.91-7.88 18.23-17.7h0.06v-10.82c0-10.1-8.18-18.29-18.29-18.29z" fill="#572F12" p-id="1971"></path><path d="M443.55 555.92c3.54 36.95 34.65 65.85 72.52 65.85 37.88 0 68.98-28.9 72.52-65.85H443.55z" fill="#FFFFFF" p-id="1972"></path><path d="M359.74 465.81h112.98c2.78 0 5.25-0.94 6.97-2.42 1.41-1.22 2.29-2.84 2.29-4.55v-65.17c0-1.71-0.89-3.33-2.29-4.55-1.72-1.49-4.19-2.43-6.97-2.43H359.74c-2.78 0-5.26 0.94-6.99 2.43-1.41 1.22-2.28 2.84-2.28 4.55v65.17c0 1.71 0.88 3.33 2.28 4.54 1.72 1.49 4.21 2.43 6.99 2.43m199.69 0h112.99c2.78 0 5.24-0.94 6.97-2.43 1.4-1.21 2.29-2.84 2.29-4.54v-65.17c0-1.7-0.89-3.33-2.29-4.55-1.73-1.49-4.19-2.43-6.97-2.43H559.43c-2.78 0-5.27 0.94-6.98 2.43-1.41 1.22-2.28 2.84-2.28 4.55v65.17c0 1.71 0.88 3.33 2.28 4.55 1.72 1.48 4.21 2.42 6.98 2.42z m112.99 15.97H559.43c-6.71 0-12.88-2.44-17.4-6.35-4.84-4.2-7.85-10.07-7.85-16.59v-43.42h-36.24v43.42c0 6.52-3.01 12.39-7.84 16.59-4.52 3.91-10.69 6.35-17.39 6.35H359.74c-6.71 0-12.87-2.43-17.4-6.36-4.84-4.19-7.85-10.07-7.85-16.58v-65.17c0-6.53 3.01-12.39 7.85-16.58 4.53-3.93 10.69-6.36 17.4-6.36h112.98c6.7 0 12.87 2.44 17.39 6.35 4.83 4.2 7.84 10.07 7.84 16.59v8.36h36.24v-8.36c0-6.52 3.01-12.39 7.85-16.59 4.51-3.91 10.69-6.35 17.4-6.35h112.99c6.71 0 12.87 2.44 17.39 6.36 4.83 4.19 7.84 10.06 7.84 16.58v65.17c0 6.52-3.01 12.39-7.84 16.58-4.53 3.92-10.69 6.36-17.4 6.36z" p-id="1973"></path></svg>